<?xml version="1.0" encoding="utf-8" standalone="no"?>
<!DOCTYPE svg PUBLIC "-//W3C//DTD SVG 1.1//EN"
  "http://www.w3.org/Graphics/SVG/1.1/DTD/svg11.dtd">
<!-- Created with matplotlib (https://matplotlib.org/) -->
<svg height="254.996562pt" version="1.1" viewBox="0 0 407.561156 254.996562" width="407.561156pt" xmlns="http://www.w3.org/2000/svg" xmlns:xlink="http://www.w3.org/1999/xlink">
 <metadata>
  <rdf:RDF xmlns:cc="http://creativecommons.org/ns#" xmlns:dc="http://purl.org/dc/elements/1.1/" xmlns:rdf="http://www.w3.org/1999/02/22-rdf-syntax-ns#">
   <cc:Work>
    <dc:type rdf:resource="http://purl.org/dc/dcmitype/StillImage"/>
    <dc:date>2020-12-12T06:29:58.373255</dc:date>
    <dc:format>image/svg+xml</dc:format>
    <dc:creator>
     <cc:Agent>
      <dc:title>Matplotlib v3.3.2, https://matplotlib.org/</dc:title>
     </cc:Agent>
    </dc:creator>
   </cc:Work>
  </rdf:RDF>
 </metadata>
 <defs>
  <style type="text/css">*{stroke-linecap:butt;stroke-linejoin:round;}</style>
 </defs>
 <g id="figure_1">
  <g id="patch_1">
   <path d="M 0 254.996562 
L 407.561156 254.996562 
L 407.561156 0 
L 0 0 
z
" style="fill:#ffffff;stroke:#ffffff;stroke-linejoin:miter;"/>
  </g>
  <g id="axes_1">
   <g id="patch_2">
    <path d="M 48.624125 180.953281 
L 299.724125 180.953281 
L 299.724125 14.633281 
L 48.624125 14.633281 
z
" style="fill:#ffffff;"/>
   </g>
   <g id="matplotlib.axis_1">
    <g id="xtick_1">
     <g id="line2d_1">
      <path d="M 95.705375 180.953281 
" style="fill:none;stroke:#333333;stroke-width:1.5;"/>
      <defs>
       <path d="M 0 0 
L 0 2.75 
" id="maeb3f56781" style="stroke:#000000;"/>
      </defs>
      <g>
       <use style="fill:#333333;stroke:#000000;" x="95.705375" xlink:href="#maeb3f56781" y="180.953281"/>
      </g>
     </g>
     <g id="text_1">
      <!-- 1985-90 sera -->
      <g style="fill:#4d4d4d;" transform="translate(94.175586 246.803047)rotate(-90)scale(0.09 -0.09)">
       <defs>
        <path d="M 12.40625 8.296875 
L 28.515625 8.296875 
L 28.515625 63.921875 
L 10.984375 60.40625 
L 10.984375 69.390625 
L 28.421875 72.90625 
L 38.28125 72.90625 
L 38.28125 8.296875 
L 54.390625 8.296875 
L 54.390625 0 
L 12.40625 0 
z
" id="DejaVuSans-49"/>
        <path d="M 10.984375 1.515625 
L 10.984375 10.5 
Q 14.703125 8.734375 18.5 7.8125 
Q 22.3125 6.890625 25.984375 6.890625 
Q 35.75 6.890625 40.890625 13.453125 
Q 46.046875 20.015625 46.78125 33.40625 
Q 43.953125 29.203125 39.59375 26.953125 
Q 35.25 24.703125 29.984375 24.703125 
Q 19.046875 24.703125 12.671875 31.3125 
Q 6.296875 37.9375 6.296875 49.421875 
Q 6.296875 60.640625 12.9375 67.421875 
Q 19.578125 74.21875 30.609375 74.21875 
Q 43.265625 74.21875 49.921875 64.515625 
Q 56.59375 54.828125 56.59375 36.375 
Q 56.59375 19.140625 48.40625 8.859375 
Q 40.234375 -1.421875 26.421875 -1.421875 
Q 22.703125 -1.421875 18.890625 -0.6875 
Q 15.09375 0.046875 10.984375 1.515625 
z
M 30.609375 32.421875 
Q 37.25 32.421875 41.125 36.953125 
Q 45.015625 41.5 45.015625 49.421875 
Q 45.015625 57.28125 41.125 61.84375 
Q 37.25 66.40625 30.609375 66.40625 
Q 23.96875 66.40625 20.09375 61.84375 
Q 16.21875 57.28125 16.21875 49.421875 
Q 16.21875 41.5 20.09375 36.953125 
Q 23.96875 32.421875 30.609375 32.421875 
z
" id="DejaVuSans-57"/>
        <path d="M 31.78125 34.625 
Q 24.75 34.625 20.71875 30.859375 
Q 16.703125 27.09375 16.703125 20.515625 
Q 16.703125 13.921875 20.71875 10.15625 
Q 24.75 6.390625 31.78125 6.390625 
Q 38.8125 6.390625 42.859375 10.171875 
Q 46.921875 13.96875 46.921875 20.515625 
Q 46.921875 27.09375 42.890625 30.859375 
Q 38.875 34.625 31.78125 34.625 
z
M 21.921875 38.8125 
Q 15.578125 40.375 12.03125 44.71875 
Q 8.5 49.078125 8.5 55.328125 
Q 8.5 64.0625 14.71875 69.140625 
Q 20.953125 74.21875 31.78125 74.21875 
Q 42.671875 74.21875 48.875 69.140625 
Q 55.078125 64.0625 55.078125 55.328125 
Q 55.078125 49.078125 51.53125 44.71875 
Q 48 40.375 41.703125 38.8125 
Q 48.828125 37.15625 52.796875 32.3125 
Q 56.78125 27.484375 56.78125 20.515625 
Q 56.78125 9.90625 50.3125 4.234375 
Q 43.84375 -1.421875 31.78125 -1.421875 
Q 19.734375 -1.421875 13.25 4.234375 
Q 6.78125 9.90625 6.78125 20.515625 
Q 6.78125 27.484375 10.78125 32.3125 
Q 14.796875 37.15625 21.921875 38.8125 
z
M 18.3125 54.390625 
Q 18.3125 48.734375 21.84375 45.5625 
Q 25.390625 42.390625 31.78125 42.390625 
Q 38.140625 42.390625 41.71875 45.5625 
Q 45.3125 48.734375 45.3125 54.390625 
Q 45.3125 60.0625 41.71875 63.234375 
Q 38.140625 66.40625 31.78125 66.40625 
Q 25.390625 66.40625 21.84375 63.234375 
Q 18.3125 60.0625 18.3125 54.390625 
z
" id="DejaVuSans-56"/>
        <path d="M 10.796875 72.90625 
L 49.515625 72.90625 
L 49.515625 64.59375 
L 19.828125 64.59375 
L 19.828125 46.734375 
Q 21.96875 47.46875 24.109375 47.828125 
Q 26.265625 48.1875 28.421875 48.1875 
Q 40.625 48.1875 47.75 41.5 
Q 54.890625 34.8125 54.890625 23.390625 
Q 54.890625 11.625 47.5625 5.09375 
Q 40.234375 -1.421875 26.90625 -1.421875 
Q 22.3125 -1.421875 17.546875 -0.640625 
Q 12.796875 0.140625 7.71875 1.703125 
L 7.71875 11.625 
Q 12.109375 9.234375 16.796875 8.0625 
Q 21.484375 6.890625 26.703125 6.890625 
Q 35.15625 6.890625 40.078125 11.328125 
Q 45.015625 15.765625 45.015625 23.390625 
Q 45.015625 31 40.078125 35.4375 
Q 35.15625 39.890625 26.703125 39.890625 
Q 22.75 39.890625 18.8125 39.015625 
Q 14.890625 38.140625 10.796875 36.28125 
z
" id="DejaVuSans-53"/>
        <path d="M 4.890625 31.390625 
L 31.203125 31.390625 
L 31.203125 23.390625 
L 4.890625 23.390625 
z
" id="DejaVuSans-45"/>
        <path d="M 31.78125 66.40625 
Q 24.171875 66.40625 20.328125 58.90625 
Q 16.5 51.421875 16.5 36.375 
Q 16.5 21.390625 20.328125 13.890625 
Q 24.171875 6.390625 31.78125 6.390625 
Q 39.453125 6.390625 43.28125 13.890625 
Q 47.125 21.390625 47.125 36.375 
Q 47.125 51.421875 43.28125 58.90625 
Q 39.453125 66.40625 31.78125 66.40625 
z
M 31.78125 74.21875 
Q 44.046875 74.21875 50.515625 64.515625 
Q 56.984375 54.828125 56.984375 36.375 
Q 56.984375 17.96875 50.515625 8.265625 
Q 44.046875 -1.421875 31.78125 -1.421875 
Q 19.53125 -1.421875 13.0625 8.265625 
Q 6.59375 17.96875 6.59375 36.375 
Q 6.59375 54.828125 13.0625 64.515625 
Q 19.53125 74.21875 31.78125 74.21875 
z
" id="DejaVuSans-48"/>
        <path id="DejaVuSans-32"/>
        <path d="M 44.28125 53.078125 
L 44.28125 44.578125 
Q 40.484375 46.53125 36.375 47.5 
Q 32.28125 48.484375 27.875 48.484375 
Q 21.1875 48.484375 17.84375 46.4375 
Q 14.5 44.390625 14.5 40.28125 
Q 14.5 37.15625 16.890625 35.375 
Q 19.28125 33.59375 26.515625 31.984375 
L 29.59375 31.296875 
Q 39.15625 29.25 43.1875 25.515625 
Q 47.21875 21.78125 47.21875 15.09375 
Q 47.21875 7.46875 41.1875 3.015625 
Q 35.15625 -1.421875 24.609375 -1.421875 
Q 20.21875 -1.421875 15.453125 -0.5625 
Q 10.6875 0.296875 5.421875 2 
L 5.421875 11.28125 
Q 10.40625 8.6875 15.234375 7.390625 
Q 20.0625 6.109375 24.8125 6.109375 
Q 31.15625 6.109375 34.5625 8.28125 
Q 37.984375 10.453125 37.984375 14.40625 
Q 37.984375 18.0625 35.515625 20.015625 
Q 33.0625 21.96875 24.703125 23.78125 
L 21.578125 24.515625 
Q 13.234375 26.265625 9.515625 29.90625 
Q 5.8125 33.546875 5.8125 39.890625 
Q 5.8125 47.609375 11.28125 51.796875 
Q 16.75 56 26.8125 56 
Q 31.78125 56 36.171875 55.265625 
Q 40.578125 54.546875 44.28125 53.078125 
z
" id="DejaVuSans-115"/>
        <path d="M 56.203125 29.59375 
L 56.203125 25.203125 
L 14.890625 25.203125 
Q 15.484375 15.921875 20.484375 11.0625 
Q 25.484375 6.203125 34.421875 6.203125 
Q 39.59375 6.203125 44.453125 7.46875 
Q 49.3125 8.734375 54.109375 11.28125 
L 54.109375 2.78125 
Q 49.265625 0.734375 44.1875 -0.34375 
Q 39.109375 -1.421875 33.890625 -1.421875 
Q 20.796875 -1.421875 13.15625 6.1875 
Q 5.515625 13.8125 5.515625 26.8125 
Q 5.515625 40.234375 12.765625 48.109375 
Q 20.015625 56 32.328125 56 
Q 43.359375 56 49.78125 48.890625 
Q 56.203125 41.796875 56.203125 29.59375 
z
M 47.21875 32.234375 
Q 47.125 39.59375 43.09375 43.984375 
Q 39.0625 48.390625 32.421875 48.390625 
Q 24.90625 48.390625 20.390625 44.140625 
Q 15.875 39.890625 15.1875 32.171875 
z
" id="DejaVuSans-101"/>
        <path d="M 41.109375 46.296875 
Q 39.59375 47.171875 37.8125 47.578125 
Q 36.03125 48 33.890625 48 
Q 26.265625 48 22.1875 43.046875 
Q 18.109375 38.09375 18.109375 28.8125 
L 18.109375 0 
L 9.078125 0 
L 9.078125 54.6875 
L 18.109375 54.6875 
L 18.109375 46.1875 
Q 20.953125 51.171875 25.484375 53.578125 
Q 30.03125 56 36.53125 56 
Q 37.453125 56 38.578125 55.875 
Q 39.703125 55.765625 41.0625 55.515625 
z
" id="DejaVuSans-114"/>
        <path d="M 34.28125 27.484375 
Q 23.390625 27.484375 19.1875 25 
Q 14.984375 22.515625 14.984375 16.5 
Q 14.984375 11.71875 18.140625 8.90625 
Q 21.296875 6.109375 26.703125 6.109375 
Q 34.1875 6.109375 38.703125 11.40625 
Q 43.21875 16.703125 43.21875 25.484375 
L 43.21875 27.484375 
z
M 52.203125 31.203125 
L 52.203125 0 
L 43.21875 0 
L 43.21875 8.296875 
Q 40.140625 3.328125 35.546875 0.953125 
Q 30.953125 -1.421875 24.3125 -1.421875 
Q 15.921875 -1.421875 10.953125 3.296875 
Q 6 8.015625 6 15.921875 
Q 6 25.140625 12.171875 29.828125 
Q 18.359375 34.515625 30.609375 34.515625 
L 43.21875 34.515625 
L 43.21875 35.40625 
Q 43.21875 41.609375 39.140625 45 
Q 35.0625 48.390625 27.6875 48.390625 
Q 23 48.390625 18.546875 47.265625 
Q 14.109375 46.140625 10.015625 43.890625 
L 10.015625 52.203125 
Q 14.9375 54.109375 19.578125 55.046875 
Q 24.21875 56 28.609375 56 
Q 40.484375 56 46.34375 49.84375 
Q 52.203125 43.703125 52.203125 31.203125 
z
" id="DejaVuSans-97"/>
       </defs>
       <use xlink:href="#DejaVuSans-49"/>
       <use x="63.623047" xlink:href="#DejaVuSans-57"/>
       <use x="127.246094" xlink:href="#DejaVuSans-56"/>
       <use x="190.869141" xlink:href="#DejaVuSans-53"/>
       <use x="254.492188" xlink:href="#DejaVuSans-45"/>
       <use x="290.576172" xlink:href="#DejaVuSans-57"/>
       <use x="354.199219" xlink:href="#DejaVuSans-48"/>
       <use x="417.822266" xlink:href="#DejaVuSans-32"/>
       <use x="449.609375" xlink:href="#DejaVuSans-115"/>
       <use x="501.708984" xlink:href="#DejaVuSans-101"/>
       <use x="563.232422" xlink:href="#DejaVuSans-114"/>
       <use x="604.345703" xlink:href="#DejaVuSans-97"/>
      </g>
      <!-- vs 229E-1984 -->
      <g style="fill:#4d4d4d;" transform="translate(102.202039 247.796562)rotate(-90)scale(0.09 -0.09)">
       <defs>
        <path d="M 2.984375 54.6875 
L 12.5 54.6875 
L 29.59375 8.796875 
L 46.6875 54.6875 
L 56.203125 54.6875 
L 35.6875 0 
L 23.484375 0 
z
" id="DejaVuSans-118"/>
        <path d="M 19.1875 8.296875 
L 53.609375 8.296875 
L 53.609375 0 
L 7.328125 0 
L 7.328125 8.296875 
Q 12.9375 14.109375 22.625 23.890625 
Q 32.328125 33.6875 34.8125 36.53125 
Q 39.546875 41.84375 41.421875 45.53125 
Q 43.3125 49.21875 43.3125 52.78125 
Q 43.3125 58.59375 39.234375 62.25 
Q 35.15625 65.921875 28.609375 65.921875 
Q 23.96875 65.921875 18.8125 64.3125 
Q 13.671875 62.703125 7.8125 59.421875 
L 7.8125 69.390625 
Q 13.765625 71.78125 18.9375 73 
Q 24.125 74.21875 28.421875 74.21875 
Q 39.75 74.21875 46.484375 68.546875 
Q 53.21875 62.890625 53.21875 53.421875 
Q 53.21875 48.921875 51.53125 44.890625 
Q 49.859375 40.875 45.40625 35.40625 
Q 44.1875 33.984375 37.640625 27.21875 
Q 31.109375 20.453125 19.1875 8.296875 
z
" id="DejaVuSans-50"/>
        <path d="M 9.8125 72.90625 
L 55.90625 72.90625 
L 55.90625 64.59375 
L 19.671875 64.59375 
L 19.671875 43.015625 
L 54.390625 43.015625 
L 54.390625 34.71875 
L 19.671875 34.71875 
L 19.671875 8.296875 
L 56.78125 8.296875 
L 56.78125 0 
L 9.8125 0 
z
" id="DejaVuSans-69"/>
        <path d="M 37.796875 64.3125 
L 12.890625 25.390625 
L 37.796875 25.390625 
z
M 35.203125 72.90625 
L 47.609375 72.90625 
L 47.609375 25.390625 
L 58.015625 25.390625 
L 58.015625 17.1875 
L 47.609375 17.1875 
L 47.609375 0 
L 37.796875 0 
L 37.796875 17.1875 
L 4.890625 17.1875 
L 4.890625 26.703125 
z
" id="DejaVuSans-52"/>
       </defs>
       <use xlink:href="#DejaVuSans-118"/>
       <use x="59.179688" xlink:href="#DejaVuSans-115"/>
       <use x="111.279297" xlink:href="#DejaVuSans-32"/>
       <use x="143.066406" xlink:href="#DejaVuSans-50"/>
       <use x="206.689453" xlink:href="#DejaVuSans-50"/>
       <use x="270.3125" xlink:href="#DejaVuSans-57"/>
       <use x="333.935547" xlink:href="#DejaVuSans-69"/>
       <use x="397.119141" xlink:href="#DejaVuSans-45"/>
       <use x="433.203125" xlink:href="#DejaVuSans-49"/>
       <use x="496.826172" xlink:href="#DejaVuSans-57"/>
       <use x="560.449219" xlink:href="#DejaVuSans-56"/>
       <use x="624.072266" xlink:href="#DejaVuSans-52"/>
      </g>
     </g>
    </g>
    <g id="xtick_2">
     <g id="line2d_2">
      <path d="M 174.174125 180.953281 
" style="fill:none;stroke:#333333;stroke-width:1.5;"/>
      <g>
       <use style="fill:#333333;stroke:#000000;" x="174.174125" xlink:href="#maeb3f56781" y="180.953281"/>
      </g>
     </g>
     <g id="text_2">
      <!-- 1992-95 sera -->
      <g style="fill:#4d4d4d;" transform="translate(172.644336 246.803047)rotate(-90)scale(0.09 -0.09)">
       <use xlink:href="#DejaVuSans-49"/>
       <use x="63.623047" xlink:href="#DejaVuSans-57"/>
       <use x="127.246094" xlink:href="#DejaVuSans-57"/>
       <use x="190.869141" xlink:href="#DejaVuSans-50"/>
       <use x="254.492188" xlink:href="#DejaVuSans-45"/>
       <use x="290.576172" xlink:href="#DejaVuSans-57"/>
       <use x="354.199219" xlink:href="#DejaVuSans-53"/>
       <use x="417.822266" xlink:href="#DejaVuSans-32"/>
       <use x="449.609375" xlink:href="#DejaVuSans-115"/>
       <use x="501.708984" xlink:href="#DejaVuSans-101"/>
       <use x="563.232422" xlink:href="#DejaVuSans-114"/>
       <use x="604.345703" xlink:href="#DejaVuSans-97"/>
      </g>
      <!-- vs 229E-1992 -->
      <g style="fill:#4d4d4d;" transform="translate(180.670789 247.796562)rotate(-90)scale(0.09 -0.09)">
       <use xlink:href="#DejaVuSans-118"/>
       <use x="59.179688" xlink:href="#DejaVuSans-115"/>
       <use x="111.279297" xlink:href="#DejaVuSans-32"/>
       <use x="143.066406" xlink:href="#DejaVuSans-50"/>
       <use x="206.689453" xlink:href="#DejaVuSans-50"/>
       <use x="270.3125" xlink:href="#DejaVuSans-57"/>
       <use x="333.935547" xlink:href="#DejaVuSans-69"/>
       <use x="397.119141" xlink:href="#DejaVuSans-45"/>
       <use x="433.203125" xlink:href="#DejaVuSans-49"/>
       <use x="496.826172" xlink:href="#DejaVuSans-57"/>
       <use x="560.449219" xlink:href="#DejaVuSans-57"/>
       <use x="624.072266" xlink:href="#DejaVuSans-50"/>
      </g>
     </g>
    </g>
    <g id="xtick_3">
     <g id="line2d_3">
      <path d="M 252.642875 180.953281 
" style="fill:none;stroke:#333333;stroke-width:1.5;"/>
      <g>
       <use style="fill:#333333;stroke:#000000;" x="252.642875" xlink:href="#maeb3f56781" y="180.953281"/>
      </g>
     </g>
     <g id="text_3">
      <!-- 2020 sera -->
      <g style="fill:#4d4d4d;" transform="translate(251.113086 239.453281)rotate(-90)scale(0.09 -0.09)">
       <use xlink:href="#DejaVuSans-50"/>
       <use x="63.623047" xlink:href="#DejaVuSans-48"/>
       <use x="127.246094" xlink:href="#DejaVuSans-50"/>
       <use x="190.869141" xlink:href="#DejaVuSans-48"/>
       <use x="254.492188" xlink:href="#DejaVuSans-32"/>
       <use x="286.279297" xlink:href="#DejaVuSans-115"/>
       <use x="338.378906" xlink:href="#DejaVuSans-101"/>
       <use x="399.902344" xlink:href="#DejaVuSans-114"/>
       <use x="441.015625" xlink:href="#DejaVuSans-97"/>
      </g>
      <!-- vs 229E-2016 -->
      <g style="fill:#4d4d4d;" transform="translate(259.139539 247.796562)rotate(-90)scale(0.09 -0.09)">
       <defs>
        <path d="M 33.015625 40.375 
Q 26.375 40.375 22.484375 35.828125 
Q 18.609375 31.296875 18.609375 23.390625 
Q 18.609375 15.53125 22.484375 10.953125 
Q 26.375 6.390625 33.015625 6.390625 
Q 39.65625 6.390625 43.53125 10.953125 
Q 47.40625 15.53125 47.40625 23.390625 
Q 47.40625 31.296875 43.53125 35.828125 
Q 39.65625 40.375 33.015625 40.375 
z
M 52.59375 71.296875 
L 52.59375 62.3125 
Q 48.875 64.0625 45.09375 64.984375 
Q 41.3125 65.921875 37.59375 65.921875 
Q 27.828125 65.921875 22.671875 59.328125 
Q 17.53125 52.734375 16.796875 39.40625 
Q 19.671875 43.65625 24.015625 45.921875 
Q 28.375 48.1875 33.59375 48.1875 
Q 44.578125 48.1875 50.953125 41.515625 
Q 57.328125 34.859375 57.328125 23.390625 
Q 57.328125 12.15625 50.6875 5.359375 
Q 44.046875 -1.421875 33.015625 -1.421875 
Q 20.359375 -1.421875 13.671875 8.265625 
Q 6.984375 17.96875 6.984375 36.375 
Q 6.984375 53.65625 15.1875 63.9375 
Q 23.390625 74.21875 37.203125 74.21875 
Q 40.921875 74.21875 44.703125 73.484375 
Q 48.484375 72.75 52.59375 71.296875 
z
" id="DejaVuSans-54"/>
       </defs>
       <use xlink:href="#DejaVuSans-118"/>
       <use x="59.179688" xlink:href="#DejaVuSans-115"/>
       <use x="111.279297" xlink:href="#DejaVuSans-32"/>
       <use x="143.066406" xlink:href="#DejaVuSans-50"/>
       <use x="206.689453" xlink:href="#DejaVuSans-50"/>
       <use x="270.3125" xlink:href="#DejaVuSans-57"/>
       <use x="333.935547" xlink:href="#DejaVuSans-69"/>
       <use x="397.119141" xlink:href="#DejaVuSans-45"/>
       <use x="433.203125" xlink:href="#DejaVuSans-50"/>
       <use x="496.826172" xlink:href="#DejaVuSans-48"/>
       <use x="560.449219" xlink:href="#DejaVuSans-49"/>
       <use x="624.072266" xlink:href="#DejaVuSans-54"/>
      </g>
     </g>
    </g>
   </g>
   <g id="matplotlib.axis_2">
    <g id="ytick_1">
     <g id="line2d_4">
      <path d="M 48.624125 173.845589 
" style="fill:none;stroke:#333333;stroke-width:1.5;"/>
      <defs>
       <path d="M 0 0 
L -2.75 0 
" id="mbb066b8fac" style="stroke:#000000;"/>
      </defs>
      <g>
       <use style="fill:#333333;stroke:#000000;" x="48.624125" xlink:href="#mbb066b8fac" y="173.845589"/>
      </g>
     </g>
     <g id="text_4">
      <!-- 10 -->
      <g style="fill:#4d4d4d;" transform="translate(32.476125 176.273839)scale(0.088 -0.088)">
       <use xlink:href="#DejaVuSans-49"/>
       <use x="63.623047" xlink:href="#DejaVuSans-48"/>
      </g>
     </g>
    </g>
    <g id="ytick_2">
     <g id="line2d_5">
      <path d="M 48.624125 117.782951 
" style="fill:none;stroke:#333333;stroke-width:1.5;"/>
      <g>
       <use style="fill:#333333;stroke:#000000;" x="48.624125" xlink:href="#mbb066b8fac" y="117.782951"/>
      </g>
     </g>
     <g id="text_5">
      <!-- 100 -->
      <g style="fill:#4d4d4d;" transform="translate(26.877125 120.211201)scale(0.088 -0.088)">
       <use xlink:href="#DejaVuSans-49"/>
       <use x="63.623047" xlink:href="#DejaVuSans-48"/>
       <use x="127.246094" xlink:href="#DejaVuSans-48"/>
      </g>
     </g>
    </g>
    <g id="ytick_3">
     <g id="line2d_6">
      <path d="M 48.624125 61.720314 
" style="fill:none;stroke:#333333;stroke-width:1.5;"/>
      <g>
       <use style="fill:#333333;stroke:#000000;" x="48.624125" xlink:href="#mbb066b8fac" y="61.720314"/>
      </g>
     </g>
     <g id="text_6">
      <!-- 1000 -->
      <g style="fill:#4d4d4d;" transform="translate(21.278125 64.148564)scale(0.088 -0.088)">
       <use xlink:href="#DejaVuSans-49"/>
       <use x="63.623047" xlink:href="#DejaVuSans-48"/>
       <use x="127.246094" xlink:href="#DejaVuSans-48"/>
       <use x="190.869141" xlink:href="#DejaVuSans-48"/>
      </g>
     </g>
    </g>
    <g id="ytick_4"/>
    <g id="ytick_5"/>
    <g id="ytick_6"/>
    <g id="ytick_7"/>
    <g id="ytick_8"/>
    <g id="ytick_9"/>
    <g id="ytick_10"/>
    <g id="ytick_11"/>
    <g id="ytick_12"/>
    <g id="ytick_13"/>
    <g id="ytick_14"/>
    <g id="ytick_15"/>
    <g id="ytick_16"/>
    <g id="ytick_17"/>
    <g id="ytick_18"/>
    <g id="ytick_19"/>
    <g id="ytick_20"/>
    <g id="ytick_21"/>
    <g id="ytick_22"/>
    <g id="ytick_23"/>
    <g id="ytick_24"/>
    <g id="ytick_25"/>
    <g id="ytick_26"/>
    <g id="text_7">
     <!-- neutralization titer (reciprocal IC50) -->
     <g transform="translate(14.798438 186.226563)rotate(-90)scale(0.1 -0.1)">
      <defs>
       <path d="M 54.890625 33.015625 
L 54.890625 0 
L 45.90625 0 
L 45.90625 32.71875 
Q 45.90625 40.484375 42.875 44.328125 
Q 39.84375 48.1875 33.796875 48.1875 
Q 26.515625 48.1875 22.3125 43.546875 
Q 18.109375 38.921875 18.109375 30.90625 
L 18.109375 0 
L 9.078125 0 
L 9.078125 54.6875 
L 18.109375 54.6875 
L 18.109375 46.1875 
Q 21.34375 51.125 25.703125 53.5625 
Q 30.078125 56 35.796875 56 
Q 45.21875 56 50.046875 50.171875 
Q 54.890625 44.34375 54.890625 33.015625 
z
" id="DejaVuSans-110"/>
       <path d="M 8.5 21.578125 
L 8.5 54.6875 
L 17.484375 54.6875 
L 17.484375 21.921875 
Q 17.484375 14.15625 20.5 10.265625 
Q 23.53125 6.390625 29.59375 6.390625 
Q 36.859375 6.390625 41.078125 11.03125 
Q 45.3125 15.671875 45.3125 23.6875 
L 45.3125 54.6875 
L 54.296875 54.6875 
L 54.296875 0 
L 45.3125 0 
L 45.3125 8.40625 
Q 42.046875 3.421875 37.71875 1 
Q 33.40625 -1.421875 27.6875 -1.421875 
Q 18.265625 -1.421875 13.375 4.4375 
Q 8.5 10.296875 8.5 21.578125 
z
M 31.109375 56 
z
" id="DejaVuSans-117"/>
       <path d="M 18.3125 70.21875 
L 18.3125 54.6875 
L 36.8125 54.6875 
L 36.8125 47.703125 
L 18.3125 47.703125 
L 18.3125 18.015625 
Q 18.3125 11.328125 20.140625 9.421875 
Q 21.96875 7.515625 27.59375 7.515625 
L 36.8125 7.515625 
L 36.8125 0 
L 27.59375 0 
Q 17.1875 0 13.234375 3.875 
Q 9.28125 7.765625 9.28125 18.015625 
L 9.28125 47.703125 
L 2.6875 47.703125 
L 2.6875 54.6875 
L 9.28125 54.6875 
L 9.28125 70.21875 
z
" id="DejaVuSans-116"/>
       <path d="M 9.421875 75.984375 
L 18.40625 75.984375 
L 18.40625 0 
L 9.421875 0 
z
" id="DejaVuSans-108"/>
       <path d="M 9.421875 54.6875 
L 18.40625 54.6875 
L 18.40625 0 
L 9.421875 0 
z
M 9.421875 75.984375 
L 18.40625 75.984375 
L 18.40625 64.59375 
L 9.421875 64.59375 
z
" id="DejaVuSans-105"/>
       <path d="M 5.515625 54.6875 
L 48.1875 54.6875 
L 48.1875 46.484375 
L 14.40625 7.171875 
L 48.1875 7.171875 
L 48.1875 0 
L 4.296875 0 
L 4.296875 8.203125 
L 38.09375 47.515625 
L 5.515625 47.515625 
z
" id="DejaVuSans-122"/>
       <path d="M 30.609375 48.390625 
Q 23.390625 48.390625 19.1875 42.75 
Q 14.984375 37.109375 14.984375 27.296875 
Q 14.984375 17.484375 19.15625 11.84375 
Q 23.34375 6.203125 30.609375 6.203125 
Q 37.796875 6.203125 41.984375 11.859375 
Q 46.1875 17.53125 46.1875 27.296875 
Q 46.1875 37.015625 41.984375 42.703125 
Q 37.796875 48.390625 30.609375 48.390625 
z
M 30.609375 56 
Q 42.328125 56 49.015625 48.375 
Q 55.71875 40.765625 55.71875 27.296875 
Q 55.71875 13.875 49.015625 6.21875 
Q 42.328125 -1.421875 30.609375 -1.421875 
Q 18.84375 -1.421875 12.171875 6.21875 
Q 5.515625 13.875 5.515625 27.296875 
Q 5.515625 40.765625 12.171875 48.375 
Q 18.84375 56 30.609375 56 
z
" id="DejaVuSans-111"/>
       <path d="M 31 75.875 
Q 24.46875 64.65625 21.28125 53.65625 
Q 18.109375 42.671875 18.109375 31.390625 
Q 18.109375 20.125 21.3125 9.0625 
Q 24.515625 -2 31 -13.1875 
L 23.1875 -13.1875 
Q 15.875 -1.703125 12.234375 9.375 
Q 8.59375 20.453125 8.59375 31.390625 
Q 8.59375 42.28125 12.203125 53.3125 
Q 15.828125 64.359375 23.1875 75.875 
z
" id="DejaVuSans-40"/>
       <path d="M 48.78125 52.59375 
L 48.78125 44.1875 
Q 44.96875 46.296875 41.140625 47.34375 
Q 37.3125 48.390625 33.40625 48.390625 
Q 24.65625 48.390625 19.8125 42.84375 
Q 14.984375 37.3125 14.984375 27.296875 
Q 14.984375 17.28125 19.8125 11.734375 
Q 24.65625 6.203125 33.40625 6.203125 
Q 37.3125 6.203125 41.140625 7.25 
Q 44.96875 8.296875 48.78125 10.40625 
L 48.78125 2.09375 
Q 45.015625 0.34375 40.984375 -0.53125 
Q 36.96875 -1.421875 32.421875 -1.421875 
Q 20.0625 -1.421875 12.78125 6.34375 
Q 5.515625 14.109375 5.515625 27.296875 
Q 5.515625 40.671875 12.859375 48.328125 
Q 20.21875 56 33.015625 56 
Q 37.15625 56 41.109375 55.140625 
Q 45.0625 54.296875 48.78125 52.59375 
z
" id="DejaVuSans-99"/>
       <path d="M 18.109375 8.203125 
L 18.109375 -20.796875 
L 9.078125 -20.796875 
L 9.078125 54.6875 
L 18.109375 54.6875 
L 18.109375 46.390625 
Q 20.953125 51.265625 25.265625 53.625 
Q 29.59375 56 35.59375 56 
Q 45.5625 56 51.78125 48.09375 
Q 58.015625 40.1875 58.015625 27.296875 
Q 58.015625 14.40625 51.78125 6.484375 
Q 45.5625 -1.421875 35.59375 -1.421875 
Q 29.59375 -1.421875 25.265625 0.953125 
Q 20.953125 3.328125 18.109375 8.203125 
z
M 48.6875 27.296875 
Q 48.6875 37.203125 44.609375 42.84375 
Q 40.53125 48.484375 33.40625 48.484375 
Q 26.265625 48.484375 22.1875 42.84375 
Q 18.109375 37.203125 18.109375 27.296875 
Q 18.109375 17.390625 22.1875 11.75 
Q 26.265625 6.109375 33.40625 6.109375 
Q 40.53125 6.109375 44.609375 11.75 
Q 48.6875 17.390625 48.6875 27.296875 
z
" id="DejaVuSans-112"/>
       <path d="M 9.8125 72.90625 
L 19.671875 72.90625 
L 19.671875 0 
L 9.8125 0 
z
" id="DejaVuSans-73"/>
       <path d="M 64.40625 67.28125 
L 64.40625 56.890625 
Q 59.421875 61.53125 53.78125 63.8125 
Q 48.140625 66.109375 41.796875 66.109375 
Q 29.296875 66.109375 22.65625 58.46875 
Q 16.015625 50.828125 16.015625 36.375 
Q 16.015625 21.96875 22.65625 14.328125 
Q 29.296875 6.6875 41.796875 6.6875 
Q 48.140625 6.6875 53.78125 8.984375 
Q 59.421875 11.28125 64.40625 15.921875 
L 64.40625 5.609375 
Q 59.234375 2.09375 53.4375 0.328125 
Q 47.65625 -1.421875 41.21875 -1.421875 
Q 24.65625 -1.421875 15.125 8.703125 
Q 5.609375 18.84375 5.609375 36.375 
Q 5.609375 53.953125 15.125 64.078125 
Q 24.65625 74.21875 41.21875 74.21875 
Q 47.75 74.21875 53.53125 72.484375 
Q 59.328125 70.75 64.40625 67.28125 
z
" id="DejaVuSans-67"/>
       <path d="M 8.015625 75.875 
L 15.828125 75.875 
Q 23.140625 64.359375 26.78125 53.3125 
Q 30.421875 42.28125 30.421875 31.390625 
Q 30.421875 20.453125 26.78125 9.375 
Q 23.140625 -1.703125 15.828125 -13.1875 
L 8.015625 -13.1875 
Q 14.5 -2 17.703125 9.0625 
Q 20.90625 20.125 20.90625 31.390625 
Q 20.90625 42.671875 17.703125 53.65625 
Q 14.5 64.65625 8.015625 75.875 
z
" id="DejaVuSans-41"/>
      </defs>
      <use xlink:href="#DejaVuSans-110"/>
      <use x="63.378906" xlink:href="#DejaVuSans-101"/>
      <use x="124.902344" xlink:href="#DejaVuSans-117"/>
      <use x="188.28125" xlink:href="#DejaVuSans-116"/>
      <use x="227.490234" xlink:href="#DejaVuSans-114"/>
      <use x="268.603516" xlink:href="#DejaVuSans-97"/>
      <use x="329.882812" xlink:href="#DejaVuSans-108"/>
      <use x="357.666016" xlink:href="#DejaVuSans-105"/>
      <use x="385.449219" xlink:href="#DejaVuSans-122"/>
      <use x="437.939453" xlink:href="#DejaVuSans-97"/>
      <use x="499.21875" xlink:href="#DejaVuSans-116"/>
      <use x="538.427734" xlink:href="#DejaVuSans-105"/>
      <use x="566.210938" xlink:href="#DejaVuSans-111"/>
      <use x="627.392578" xlink:href="#DejaVuSans-110"/>
      <use x="690.771484" xlink:href="#DejaVuSans-32"/>
      <use x="722.558594" xlink:href="#DejaVuSans-116"/>
      <use x="761.767578" xlink:href="#DejaVuSans-105"/>
      <use x="789.550781" xlink:href="#DejaVuSans-116"/>
      <use x="828.759766" xlink:href="#DejaVuSans-101"/>
      <use x="890.283203" xlink:href="#DejaVuSans-114"/>
      <use x="931.396484" xlink:href="#DejaVuSans-32"/>
      <use x="963.183594" xlink:href="#DejaVuSans-40"/>
      <use x="1002.197266" xlink:href="#DejaVuSans-114"/>
      <use x="1041.060547" xlink:href="#DejaVuSans-101"/>
      <use x="1102.583984" xlink:href="#DejaVuSans-99"/>
      <use x="1157.564453" xlink:href="#DejaVuSans-105"/>
      <use x="1185.347656" xlink:href="#DejaVuSans-112"/>
      <use x="1248.824219" xlink:href="#DejaVuSans-114"/>
      <use x="1287.6875" xlink:href="#DejaVuSans-111"/>
      <use x="1348.869141" xlink:href="#DejaVuSans-99"/>
      <use x="1403.849609" xlink:href="#DejaVuSans-97"/>
      <use x="1465.128906" xlink:href="#DejaVuSans-108"/>
      <use x="1492.912109" xlink:href="#DejaVuSans-32"/>
      <use x="1524.699219" xlink:href="#DejaVuSans-73"/>
      <use x="1554.191406" xlink:href="#DejaVuSans-67"/>
      <use x="1624.015625" xlink:href="#DejaVuSans-53"/>
      <use x="1687.638672" xlink:href="#DejaVuSans-48"/>
      <use x="1751.261719" xlink:href="#DejaVuSans-41"/>
     </g>
    </g>
   </g>
   <g id="PathCollection_1">
    <path clip-path="url(#pa845e84231)" d="M 93.100903 68.295873 
L 90.442222 73.613235 
L 95.759584 73.613235 
z
" style="fill:#e69f00;fill-opacity:0.501961;stroke:#e69f00;stroke-opacity:0.501961;stroke-width:0.886227;"/>
    <path clip-path="url(#pa845e84231)" d="M 102.62081 83.090988 
L 99.962129 88.40835 
L 105.279491 88.40835 
z
" style="fill:#e69f00;fill-opacity:0.501961;stroke:#e69f00;stroke-opacity:0.501961;stroke-width:0.886227;"/>
    <path clip-path="url(#pa845e84231)" d="M 80.015215 94.209869 
L 77.356534 99.527231 
L 82.673896 99.527231 
z
" style="fill:#e69f00;fill-opacity:0.501961;stroke:#e69f00;stroke-opacity:0.501961;stroke-width:0.886227;"/>
    <path clip-path="url(#pa845e84231)" d="M 89.501089 109.717262 
L 86.842408 115.034624 
L 92.159769 115.034624 
z
" style="fill:#e69f00;fill-opacity:0.501961;stroke:#e69f00;stroke-opacity:0.501961;stroke-width:0.886227;"/>
    <path clip-path="url(#pa845e84231)" d="M 84.617926 111.351351 
L 81.959245 116.668712 
L 87.276606 116.668712 
z
" style="fill:#e69f00;fill-opacity:0.501961;stroke:#e69f00;stroke-opacity:0.501961;stroke-width:0.886227;"/>
    <path clip-path="url(#pa845e84231)" d="M 82.909903 111.389757 
L 80.251222 116.707119 
L 85.568583 116.707119 
z
" style="fill:#e69f00;fill-opacity:0.501961;stroke:#e69f00;stroke-opacity:0.501961;stroke-width:0.886227;"/>
    <path clip-path="url(#pa845e84231)" d="M 85.857867 112.266602 
L 83.199187 117.583964 
L 88.516548 117.583964 
z
" style="fill:#e69f00;fill-opacity:0.501961;stroke:#e69f00;stroke-opacity:0.501961;stroke-width:0.886227;"/>
    <path clip-path="url(#pa845e84231)" d="M 90.857912 117.466435 
L 88.199232 122.783796 
L 93.516593 122.783796 
z
" style="fill:#e69f00;fill-opacity:0.501961;stroke:#e69f00;stroke-opacity:0.501961;stroke-width:0.886227;"/>
    <path clip-path="url(#pa845e84231)" d="M 159.706207 92.569565 
L 157.047526 97.886927 
L 162.364888 97.886927 
z
" style="fill:#e69f00;fill-opacity:0.501961;stroke:#e69f00;stroke-opacity:0.501961;stroke-width:0.886227;"/>
    <path clip-path="url(#pa845e84231)" d="M 163.810927 113.217034 
L 161.152247 118.534395 
L 166.469608 118.534395 
z
" style="fill:#e69f00;fill-opacity:0.501961;stroke:#e69f00;stroke-opacity:0.501961;stroke-width:0.886227;"/>
    <path clip-path="url(#pa845e84231)" d="M 186.043073 114.285079 
L 183.384392 119.602441 
L 188.701754 119.602441 
z
" style="fill:#e69f00;fill-opacity:0.501961;stroke:#e69f00;stroke-opacity:0.501961;stroke-width:0.886227;"/>
    <path clip-path="url(#pa845e84231)" d="M 161.567236 116.34349 
L 158.908555 121.660852 
L 164.225917 121.660852 
z
" style="fill:#e69f00;fill-opacity:0.501961;stroke:#e69f00;stroke-opacity:0.501961;stroke-width:0.886227;"/>
    <path clip-path="url(#pa845e84231)" d="M 171.697891 117.260751 
L 169.03921 122.578113 
L 174.356571 122.578113 
z
" style="fill:#e69f00;fill-opacity:0.501961;stroke:#e69f00;stroke-opacity:0.501961;stroke-width:0.886227;"/>
    <path clip-path="url(#pa845e84231)" d="M 265.467666 29.033062 
L 262.808986 34.350424 
L 268.126347 34.350424 
z
" style="fill:#e69f00;fill-opacity:0.501961;stroke:#e69f00;stroke-opacity:0.501961;stroke-width:0.886227;"/>
    <path clip-path="url(#pa845e84231)" d="M 246.164939 81.381489 
L 243.506258 86.698851 
L 248.82362 86.698851 
z
" style="fill:#e69f00;fill-opacity:0.501961;stroke:#e69f00;stroke-opacity:0.501961;stroke-width:0.886227;"/>
    <path clip-path="url(#pa845e84231)" d="M 245.981673 89.25937 
L 243.322993 94.576732 
L 248.640354 94.576732 
z
" style="fill:#e69f00;fill-opacity:0.501961;stroke:#e69f00;stroke-opacity:0.501961;stroke-width:0.886227;"/>
    <path clip-path="url(#pa845e84231)" d="M 241.030397 97.137169 
L 238.371716 102.45453 
L 243.689078 102.45453 
z
" style="fill:#e69f00;fill-opacity:0.501961;stroke:#e69f00;stroke-opacity:0.501961;stroke-width:0.886227;"/>
    <path clip-path="url(#pa845e84231)" d="M 237.557005 103.259307 
L 234.898325 108.576669 
L 240.215686 108.576669 
z
" style="fill:#e69f00;fill-opacity:0.501961;stroke:#e69f00;stroke-opacity:0.501961;stroke-width:0.886227;"/>
    <path clip-path="url(#pa845e84231)" d="M 258.256075 110.444644 
L 255.597395 115.762005 
L 260.914756 115.762005 
z
" style="fill:#e69f00;fill-opacity:0.501961;stroke:#e69f00;stroke-opacity:0.501961;stroke-width:0.886227;"/>
    <path clip-path="url(#pa845e84231)" d="M 243.591602 111.981602 
L 240.932922 117.298963 
L 246.250283 117.298963 
z
" style="fill:#e69f00;fill-opacity:0.501961;stroke:#e69f00;stroke-opacity:0.501961;stroke-width:0.886227;"/>
   </g>
   <g id="PathCollection_2">
    <path clip-path="url(#pa845e84231)" d="M 92.465164 126.579701 
C 93.170254 126.579701 93.846561 126.299566 94.345135 125.800991 
C 94.843709 125.302417 95.123845 124.626111 95.123845 123.92102 
C 95.123845 123.21593 94.843709 122.539623 94.345135 122.041049 
C 93.846561 121.542475 93.170254 121.26234 92.465164 121.26234 
C 91.760074 121.26234 91.083767 121.542475 90.585193 122.041049 
C 90.086619 122.539623 89.806483 123.21593 89.806483 123.92102 
C 89.806483 124.626111 90.086619 125.302417 90.585193 125.800991 
C 91.083767 126.299566 91.760074 126.579701 92.465164 126.579701 
z
" style="fill:#999999;fill-opacity:0.501961;stroke:#999999;stroke-opacity:0.501961;stroke-width:0.886227;"/>
    <path clip-path="url(#pa845e84231)" d="M 96.923735 126.922666 
C 97.628826 126.922666 98.305132 126.64253 98.803706 126.143956 
C 99.302281 125.645382 99.582416 124.969075 99.582416 124.263985 
C 99.582416 123.558894 99.302281 122.882588 98.803706 122.384014 
C 98.305132 121.885439 97.628826 121.605304 96.923735 121.605304 
C 96.218645 121.605304 95.542338 121.885439 95.043764 122.384014 
C 94.54519 122.882588 94.265054 123.558894 94.265054 124.263985 
C 94.265054 124.969075 94.54519 125.645382 95.043764 126.143956 
C 95.542338 126.64253 96.218645 126.922666 96.923735 126.922666 
z
" style="fill:#999999;fill-opacity:0.501961;stroke:#999999;stroke-opacity:0.501961;stroke-width:0.886227;"/>
    <path clip-path="url(#pa845e84231)" d="M 93.169093 128.735918 
C 93.874183 128.735918 94.55049 128.455782 95.049064 127.957208 
C 95.547638 127.458634 95.827774 126.782327 95.827774 126.077237 
C 95.827774 125.372146 95.547638 124.69584 95.049064 124.197266 
C 94.55049 123.698691 93.874183 123.418556 93.169093 123.418556 
C 92.464002 123.418556 91.787696 123.698691 91.289122 124.197266 
C 90.790547 124.69584 90.510412 125.372146 90.510412 126.077237 
C 90.510412 126.782327 90.790547 127.458634 91.289122 127.957208 
C 91.787696 128.455782 92.464002 128.735918 93.169093 128.735918 
z
" style="fill:#999999;fill-opacity:0.501961;stroke:#999999;stroke-opacity:0.501961;stroke-width:0.886227;"/>
    <path clip-path="url(#pa845e84231)" d="M 101.518952 133.058161 
C 102.224042 133.058161 102.900349 132.778026 103.398923 132.279452 
C 103.897497 131.780877 104.177633 131.104571 104.177633 130.39948 
C 104.177633 129.69439 103.897497 129.018083 103.398923 128.519509 
C 102.900349 128.020935 102.224042 127.7408 101.518952 127.7408 
C 100.813862 127.7408 100.137555 128.020935 99.638981 128.519509 
C 99.140407 129.018083 98.860271 129.69439 98.860271 130.39948 
C 98.860271 131.104571 99.140407 131.780877 99.638981 132.279452 
C 100.137555 132.778026 100.813862 133.058161 101.518952 133.058161 
z
" style="fill:#999999;fill-opacity:0.501961;stroke:#999999;stroke-opacity:0.501961;stroke-width:0.886227;"/>
    <path clip-path="url(#pa845e84231)" d="M 86.42887 139.131795 
C 87.13396 139.131795 87.810267 138.851659 88.308841 138.353085 
C 88.807415 137.854511 89.087551 137.178204 89.087551 136.473114 
C 89.087551 135.768024 88.807415 135.091717 88.308841 134.593143 
C 87.810267 134.094569 87.13396 133.814433 86.42887 133.814433 
C 85.72378 133.814433 85.047473 134.094569 84.548899 134.593143 
C 84.050325 135.091717 83.770189 135.768024 83.770189 136.473114 
C 83.770189 137.178204 84.050325 137.854511 84.548899 138.353085 
C 85.047473 138.851659 85.72378 139.131795 86.42887 139.131795 
z
" style="fill:#999999;fill-opacity:0.501961;stroke:#999999;stroke-opacity:0.501961;stroke-width:0.886227;"/>
    <path clip-path="url(#pa845e84231)" d="M 107.573536 142.107538 
C 108.278626 142.107538 108.954933 141.827403 109.453507 141.328829 
C 109.952081 140.830254 110.232217 140.153948 110.232217 139.448857 
C 110.232217 138.743767 109.952081 138.06746 109.453507 137.568886 
C 108.954933 137.070312 108.278626 136.790177 107.573536 136.790177 
C 106.868446 136.790177 106.192139 137.070312 105.693565 137.568886 
C 105.194991 138.06746 104.914855 138.743767 104.914855 139.448857 
C 104.914855 140.153948 105.194991 140.830254 105.693565 141.328829 
C 106.192139 141.827403 106.868446 142.107538 107.573536 142.107538 
z
" style="fill:#999999;fill-opacity:0.501961;stroke:#999999;stroke-opacity:0.501961;stroke-width:0.886227;"/>
    <path clip-path="url(#pa845e84231)" d="M 80.871253 148.966807 
C 81.576343 148.966807 82.25265 148.686671 82.751224 148.188097 
C 83.249798 147.689523 83.529934 147.013216 83.529934 146.308126 
C 83.529934 145.603036 83.249798 144.926729 82.751224 144.428155 
C 82.25265 143.929581 81.576343 143.649445 80.871253 143.649445 
C 80.166163 143.649445 79.489856 143.929581 78.991282 144.428155 
C 78.492708 144.926729 78.212572 145.603036 78.212572 146.308126 
C 78.212572 147.013216 78.492708 147.689523 78.991282 148.188097 
C 79.489856 148.686671 80.166163 148.966807 80.871253 148.966807 
z
" style="fill:#999999;fill-opacity:0.501961;stroke:#999999;stroke-opacity:0.501961;stroke-width:0.886227;"/>
    <path clip-path="url(#pa845e84231)" d="M 101.055924 149.849352 
C 101.761014 149.849352 102.437321 149.569216 102.935895 149.070642 
C 103.434469 148.572068 103.714605 147.895761 103.714605 147.190671 
C 103.714605 146.48558 103.434469 145.809274 102.935895 145.3107 
C 102.437321 144.812125 101.761014 144.53199 101.055924 144.53199 
C 100.350834 144.53199 99.674527 144.812125 99.175953 145.3107 
C 98.677379 145.809274 98.397243 146.48558 98.397243 147.190671 
C 98.397243 147.895761 98.677379 148.572068 99.175953 149.070642 
C 99.674527 149.569216 100.350834 149.849352 101.055924 149.849352 
z
" style="fill:#999999;fill-opacity:0.501961;stroke:#999999;stroke-opacity:0.501961;stroke-width:0.886227;"/>
    <path clip-path="url(#pa845e84231)" d="M 93.109779 150.677582 
C 93.81487 150.677582 94.491176 150.397446 94.989751 149.898872 
C 95.488325 149.400298 95.76846 148.723991 95.76846 148.018901 
C 95.76846 147.313811 95.488325 146.637504 94.989751 146.13893 
C 94.491176 145.640356 93.81487 145.36022 93.109779 145.36022 
C 92.404689 145.36022 91.728382 145.640356 91.229808 146.13893 
C 90.731234 146.637504 90.451099 147.313811 90.451099 148.018901 
C 90.451099 148.723991 90.731234 149.400298 91.229808 149.898872 
C 91.728382 150.397446 92.404689 150.677582 93.109779 150.677582 
z
" style="fill:#999999;fill-opacity:0.501961;stroke:#999999;stroke-opacity:0.501961;stroke-width:0.886227;"/>
    <path clip-path="url(#pa845e84231)" d="M 97.547502 150.703625 
C 98.252592 150.703625 98.928899 150.42349 99.427473 149.924915 
C 99.926047 149.426341 100.206183 148.750035 100.206183 148.044944 
C 100.206183 147.339854 99.926047 146.663547 99.427473 146.164973 
C 98.928899 145.666399 98.252592 145.386263 97.547502 145.386263 
C 96.842412 145.386263 96.166105 145.666399 95.667531 146.164973 
C 95.168957 146.663547 94.888821 147.339854 94.888821 148.044944 
C 94.888821 148.750035 95.168957 149.426341 95.667531 149.924915 
C 96.166105 150.42349 96.842412 150.703625 97.547502 150.703625 
z
" style="fill:#999999;fill-opacity:0.501961;stroke:#999999;stroke-opacity:0.501961;stroke-width:0.886227;"/>
    <path clip-path="url(#pa845e84231)" d="M 84.41802 151.48998 
C 85.12311 151.48998 85.799417 151.209845 86.297991 150.71127 
C 86.796565 150.212696 87.076701 149.53639 87.076701 148.831299 
C 87.076701 148.126209 86.796565 147.449902 86.297991 146.951328 
C 85.799417 146.452754 85.12311 146.172618 84.41802 146.172618 
C 83.71293 146.172618 83.036623 146.452754 82.538049 146.951328 
C 82.039475 147.449902 81.759339 148.126209 81.759339 148.831299 
C 81.759339 149.53639 82.039475 150.212696 82.538049 150.71127 
C 83.036623 151.209845 83.71293 151.48998 84.41802 151.48998 
z
" style="fill:#999999;fill-opacity:0.501961;stroke:#999999;stroke-opacity:0.501961;stroke-width:0.886227;"/>
    <path clip-path="url(#pa845e84231)" d="M 86.229535 156.276276 
C 86.934626 156.276276 87.610933 155.996141 88.109507 155.497566 
C 88.608081 154.998992 88.888216 154.322686 88.888216 153.617595 
C 88.888216 152.912505 88.608081 152.236198 88.109507 151.737624 
C 87.610933 151.23905 86.934626 150.958914 86.229535 150.958914 
C 85.524445 150.958914 84.848138 151.23905 84.349564 151.737624 
C 83.85099 152.236198 83.570855 152.912505 83.570855 153.617595 
C 83.570855 154.322686 83.85099 154.998992 84.349564 155.497566 
C 84.848138 155.996141 85.524445 156.276276 86.229535 156.276276 
z
" style="fill:#999999;fill-opacity:0.501961;stroke:#999999;stroke-opacity:0.501961;stroke-width:0.886227;"/>
    <path clip-path="url(#pa845e84231)" d="M 105.144995 162.800816 
C 105.850086 162.800816 106.526392 162.520681 107.024966 162.022107 
C 107.523541 161.523533 107.803676 160.847226 107.803676 160.142136 
C 107.803676 159.437045 107.523541 158.760739 107.024966 158.262164 
C 106.526392 157.76359 105.850086 157.483455 105.144995 157.483455 
C 104.439905 157.483455 103.763598 157.76359 103.265024 158.262164 
C 102.76645 158.760739 102.486314 159.437045 102.486314 160.142136 
C 102.486314 160.847226 102.76645 161.523533 103.265024 162.022107 
C 103.763598 162.520681 104.439905 162.800816 105.144995 162.800816 
z
" style="fill:#999999;fill-opacity:0.501961;stroke:#999999;stroke-opacity:0.501961;stroke-width:0.886227;"/>
    <path clip-path="url(#pa845e84231)" d="M 110.402935 165.409685 
C 111.108026 165.409685 111.784332 165.12955 112.282906 164.630975 
C 112.781481 164.132401 113.061616 163.456095 113.061616 162.751004 
C 113.061616 162.045914 112.781481 161.369607 112.282906 160.871033 
C 111.784332 160.372459 111.108026 160.092323 110.402935 160.092323 
C 109.697845 160.092323 109.021538 160.372459 108.522964 160.871033 
C 108.02439 161.369607 107.744254 162.045914 107.744254 162.751004 
C 107.744254 163.456095 108.02439 164.132401 108.522964 164.630975 
C 109.021538 165.12955 109.697845 165.409685 110.402935 165.409685 
z
" style="fill:#999999;fill-opacity:0.501961;stroke:#999999;stroke-opacity:0.501961;stroke-width:0.886227;"/>
    <path clip-path="url(#pa845e84231)" d="M 89.849226 166.0419 
C 90.554317 166.0419 91.230623 165.761765 91.729198 165.263191 
C 92.227772 164.764616 92.507907 164.08831 92.507907 163.383219 
C 92.507907 162.678129 92.227772 162.001822 91.729198 161.503248 
C 91.230623 161.004674 90.554317 160.724539 89.849226 160.724539 
C 89.144136 160.724539 88.467829 161.004674 87.969255 161.503248 
C 87.470681 162.001822 87.190546 162.678129 87.190546 163.383219 
C 87.190546 164.08831 87.470681 164.764616 87.969255 165.263191 
C 88.467829 165.761765 89.144136 166.0419 89.849226 166.0419 
z
" style="fill:#999999;fill-opacity:0.501961;stroke:#999999;stroke-opacity:0.501961;stroke-width:0.886227;"/>
    <path clip-path="url(#pa845e84231)" d="M 101.741901 173.29737 
C 102.446991 173.29737 103.123298 173.017235 103.621872 172.518661 
C 104.120446 172.020087 104.400582 171.34378 104.400582 170.63869 
C 104.400582 169.933599 104.120446 169.257293 103.621872 168.758718 
C 103.123298 168.260144 102.446991 167.980009 101.741901 167.980009 
C 101.036811 167.980009 100.360504 168.260144 99.86193 168.758718 
C 99.363356 169.257293 99.08322 169.933599 99.08322 170.63869 
C 99.08322 171.34378 99.363356 172.020087 99.86193 172.518661 
C 100.360504 173.017235 101.036811 173.29737 101.741901 173.29737 
z
" style="fill:#999999;fill-opacity:0.501961;stroke:#999999;stroke-opacity:0.501961;stroke-width:0.886227;"/>
    <path clip-path="url(#pa845e84231)" d="M 107.51929 175.328851 
C 108.22438 175.328851 108.900687 175.048715 109.399261 174.550141 
C 109.897835 174.051567 110.17797 173.37526 110.17797 172.67017 
C 110.17797 171.96508 109.897835 171.288773 109.399261 170.790199 
C 108.900687 170.291625 108.22438 170.011489 107.51929 170.011489 
C 106.814199 170.011489 106.137893 170.291625 105.639318 170.790199 
C 105.140744 171.288773 104.860609 171.96508 104.860609 172.67017 
C 104.860609 173.37526 105.140744 174.051567 105.639318 174.550141 
C 106.137893 175.048715 106.814199 175.328851 107.51929 175.328851 
z
" style="fill:#999999;fill-opacity:0.501961;stroke:#999999;stroke-opacity:0.501961;stroke-width:0.886227;"/>
    <path clip-path="url(#pa845e84231)" d="M 108.091092 176.50427 
C 108.796182 176.50427 109.472489 176.224134 109.971063 175.72556 
C 110.469637 175.226986 110.749772 174.550679 110.749772 173.845589 
C 110.749772 173.140499 110.469637 172.464192 109.971063 171.965618 
C 109.472489 171.467044 108.796182 171.186908 108.091092 171.186908 
C 107.386001 171.186908 106.709695 171.467044 106.21112 171.965618 
C 105.712546 172.464192 105.432411 173.140499 105.432411 173.845589 
C 105.432411 174.550679 105.712546 175.226986 106.21112 175.72556 
C 106.709695 176.224134 107.386001 176.50427 108.091092 176.50427 
z
" style="fill:#999999;fill-opacity:0.501961;stroke:#999999;stroke-opacity:0.501961;stroke-width:0.886227;"/>
    <path clip-path="url(#pa845e84231)" d="M 82.68095 176.50427 
C 83.386041 176.50427 84.062347 176.224134 84.560921 175.72556 
C 85.059496 175.226986 85.339631 174.550679 85.339631 173.845589 
C 85.339631 173.140499 85.059496 172.464192 84.560921 171.965618 
C 84.062347 171.467044 83.386041 171.186908 82.68095 171.186908 
C 81.97586 171.186908 81.299553 171.467044 80.800979 171.965618 
C 80.302405 172.464192 80.022269 173.140499 80.022269 173.845589 
C 80.022269 174.550679 80.302405 175.226986 80.800979 175.72556 
C 81.299553 176.224134 81.97586 176.50427 82.68095 176.50427 
z
" style="fill:#999999;fill-opacity:0.501961;stroke:#999999;stroke-opacity:0.501961;stroke-width:0.886227;"/>
    <path clip-path="url(#pa845e84231)" d="M 188.546133 132.258569 
C 189.251223 132.258569 189.92753 131.978433 190.426104 131.479859 
C 190.924678 130.981285 191.204813 130.304978 191.204813 129.599888 
C 191.204813 128.894798 190.924678 128.218491 190.426104 127.719917 
C 189.92753 127.221343 189.251223 126.941207 188.546133 126.941207 
C 187.841042 126.941207 187.164736 127.221343 186.666161 127.719917 
C 186.167587 128.218491 185.887452 128.894798 185.887452 129.599888 
C 185.887452 130.304978 186.167587 130.981285 186.666161 131.479859 
C 187.164736 131.978433 187.841042 132.258569 188.546133 132.258569 
z
" style="fill:#999999;fill-opacity:0.501961;stroke:#999999;stroke-opacity:0.501961;stroke-width:0.886227;"/>
    <path clip-path="url(#pa845e84231)" d="M 175.2151 140.997459 
C 175.920191 140.997459 176.596497 140.717324 177.095072 140.218749 
C 177.593646 139.720175 177.873781 139.043869 177.873781 138.338778 
C 177.873781 137.633688 177.593646 136.957381 177.095072 136.458807 
C 176.596497 135.960233 175.920191 135.680097 175.2151 135.680097 
C 174.51001 135.680097 173.833703 135.960233 173.335129 136.458807 
C 172.836555 136.957381 172.55642 137.633688 172.55642 138.338778 
C 172.55642 139.043869 172.836555 139.720175 173.335129 140.218749 
C 173.833703 140.717324 174.51001 140.997459 175.2151 140.997459 
z
" style="fill:#999999;fill-opacity:0.501961;stroke:#999999;stroke-opacity:0.501961;stroke-width:0.886227;"/>
    <path clip-path="url(#pa845e84231)" d="M 180.196668 156.46365 
C 180.901758 156.46365 181.578065 156.183514 182.076639 155.68494 
C 182.575213 155.186366 182.855349 154.510059 182.855349 153.804969 
C 182.855349 153.099879 182.575213 152.423572 182.076639 151.924998 
C 181.578065 151.426424 180.901758 151.146288 180.196668 151.146288 
C 179.491578 151.146288 178.815271 151.426424 178.316697 151.924998 
C 177.818123 152.423572 177.537987 153.099879 177.537987 153.804969 
C 177.537987 154.510059 177.818123 155.186366 178.316697 155.68494 
C 178.815271 156.183514 179.491578 156.46365 180.196668 156.46365 
z
" style="fill:#999999;fill-opacity:0.501961;stroke:#999999;stroke-opacity:0.501961;stroke-width:0.886227;"/>
    <path clip-path="url(#pa845e84231)" d="M 168.383622 157.674371 
C 169.088712 157.674371 169.765019 157.394236 170.263593 156.895662 
C 170.762167 156.397088 171.042303 155.720781 171.042303 155.015691 
C 171.042303 154.3106 170.762167 153.634294 170.263593 153.135719 
C 169.765019 152.637145 169.088712 152.35701 168.383622 152.35701 
C 167.678531 152.35701 167.002225 152.637145 166.503651 153.135719 
C 166.005076 153.634294 165.724941 154.3106 165.724941 155.015691 
C 165.724941 155.720781 166.005076 156.397088 166.503651 156.895662 
C 167.002225 157.394236 167.678531 157.674371 168.383622 157.674371 
z
" style="fill:#999999;fill-opacity:0.501961;stroke:#999999;stroke-opacity:0.501961;stroke-width:0.886227;"/>
    <path clip-path="url(#pa845e84231)" d="M 180.027923 165.026453 
C 180.733013 165.026453 181.40932 164.746318 181.907894 164.247744 
C 182.406468 163.74917 182.686604 163.072863 182.686604 162.367773 
C 182.686604 161.662682 182.406468 160.986376 181.907894 160.487801 
C 181.40932 159.989227 180.733013 159.709092 180.027923 159.709092 
C 179.322832 159.709092 178.646526 159.989227 178.147952 160.487801 
C 177.649377 160.986376 177.369242 161.662682 177.369242 162.367773 
C 177.369242 163.072863 177.649377 163.74917 178.147952 164.247744 
C 178.646526 164.746318 179.322832 165.026453 180.027923 165.026453 
z
" style="fill:#999999;fill-opacity:0.501961;stroke:#999999;stroke-opacity:0.501961;stroke-width:0.886227;"/>
    <path clip-path="url(#pa845e84231)" d="M 184.677188 165.548849 
C 185.382279 165.548849 186.058585 165.268713 186.557159 164.770139 
C 187.055734 164.271565 187.335869 163.595258 187.335869 162.890168 
C 187.335869 162.185078 187.055734 161.508771 186.557159 161.010197 
C 186.058585 160.511623 185.382279 160.231487 184.677188 160.231487 
C 183.972098 160.231487 183.295791 160.511623 182.797217 161.010197 
C 182.298643 161.508771 182.018508 162.185078 182.018508 162.890168 
C 182.018508 163.595258 182.298643 164.271565 182.797217 164.770139 
C 183.295791 165.268713 183.972098 165.548849 184.677188 165.548849 
z
" style="fill:#999999;fill-opacity:0.501961;stroke:#999999;stroke-opacity:0.501961;stroke-width:0.886227;"/>
    <path clip-path="url(#pa845e84231)" d="M 159.054398 165.85896 
C 159.759489 165.85896 160.435795 165.578824 160.93437 165.08025 
C 161.432944 164.581676 161.713079 163.905369 161.713079 163.200279 
C 161.713079 162.495188 161.432944 161.818882 160.93437 161.320308 
C 160.435795 160.821733 159.759489 160.541598 159.054398 160.541598 
C 158.349308 160.541598 157.673001 160.821733 157.174427 161.320308 
C 156.675853 161.818882 156.395718 162.495188 156.395718 163.200279 
C 156.395718 163.905369 156.675853 164.581676 157.174427 165.08025 
C 157.673001 165.578824 158.349308 165.85896 159.054398 165.85896 
z
" style="fill:#999999;fill-opacity:0.501961;stroke:#999999;stroke-opacity:0.501961;stroke-width:0.886227;"/>
    <path clip-path="url(#pa845e84231)" d="M 182.02553 170.36968 
C 182.73062 170.36968 183.406927 170.089544 183.905501 169.59097 
C 184.404075 169.092396 184.68421 168.416089 184.68421 167.710999 
C 184.68421 167.005909 184.404075 166.329602 183.905501 165.831028 
C 183.406927 165.332454 182.73062 165.052318 182.02553 165.052318 
C 181.320439 165.052318 180.644133 165.332454 180.145558 165.831028 
C 179.646984 166.329602 179.366849 167.005909 179.366849 167.710999 
C 179.366849 168.416089 179.646984 169.092396 180.145558 169.59097 
C 180.644133 170.089544 181.320439 170.36968 182.02553 170.36968 
z
" style="fill:#999999;fill-opacity:0.501961;stroke:#999999;stroke-opacity:0.501961;stroke-width:0.886227;"/>
    <path clip-path="url(#pa845e84231)" d="M 189.518252 171.286457 
C 190.223343 171.286457 190.899649 171.006321 191.398224 170.507747 
C 191.896798 170.009173 192.176933 169.332866 192.176933 168.627776 
C 192.176933 167.922685 191.896798 167.246379 191.398224 166.747805 
C 190.899649 166.24923 190.223343 165.969095 189.518252 165.969095 
C 188.813162 165.969095 188.136855 166.24923 187.638281 166.747805 
C 187.139707 167.246379 186.859572 167.922685 186.859572 168.627776 
C 186.859572 169.332866 187.139707 170.009173 187.638281 170.507747 
C 188.136855 171.006321 188.813162 171.286457 189.518252 171.286457 
z
" style="fill:#999999;fill-opacity:0.501961;stroke:#999999;stroke-opacity:0.501961;stroke-width:0.886227;"/>
    <path clip-path="url(#pa845e84231)" d="M 181.963424 173.017773 
C 182.668515 173.017773 183.344821 172.737638 183.843396 172.239064 
C 184.34197 171.740489 184.622105 171.064183 184.622105 170.359092 
C 184.622105 169.654002 184.34197 168.977695 183.843396 168.479121 
C 183.344821 167.980547 182.668515 167.700412 181.963424 167.700412 
C 181.258334 167.700412 180.582027 167.980547 180.083453 168.479121 
C 179.584879 168.977695 179.304744 169.654002 179.304744 170.359092 
C 179.304744 171.064183 179.584879 171.740489 180.083453 172.239064 
C 180.582027 172.737638 181.258334 173.017773 181.963424 173.017773 
z
" style="fill:#999999;fill-opacity:0.501961;stroke:#999999;stroke-opacity:0.501961;stroke-width:0.886227;"/>
    <path clip-path="url(#pa845e84231)" d="M 167.282811 174.596416 
C 167.987901 174.596416 168.664208 174.31628 169.162782 173.817706 
C 169.661356 173.319132 169.941492 172.642825 169.941492 171.937735 
C 169.941492 171.232644 169.661356 170.556338 169.162782 170.057764 
C 168.664208 169.559189 167.987901 169.279054 167.282811 169.279054 
C 166.57772 169.279054 165.901414 169.559189 165.40284 170.057764 
C 164.904265 170.556338 164.62413 171.232644 164.62413 171.937735 
C 164.62413 172.642825 164.904265 173.319132 165.40284 173.817706 
C 165.901414 174.31628 166.57772 174.596416 167.282811 174.596416 
z
" style="fill:#999999;fill-opacity:0.501961;stroke:#999999;stroke-opacity:0.501961;stroke-width:0.886227;"/>
    <path clip-path="url(#pa845e84231)" d="M 183.25388 174.917322 
C 183.95897 174.917322 184.635277 174.637186 185.133851 174.138612 
C 185.632425 173.640038 185.912561 172.963731 185.912561 172.258641 
C 185.912561 171.55355 185.632425 170.877244 185.133851 170.37867 
C 184.635277 169.880095 183.95897 169.59996 183.25388 169.59996 
C 182.54879 169.59996 181.872483 169.880095 181.373909 170.37867 
C 180.875335 170.877244 180.595199 171.55355 180.595199 172.258641 
C 180.595199 172.963731 180.875335 173.640038 181.373909 174.138612 
C 181.872483 174.637186 182.54879 174.917322 183.25388 174.917322 
z
" style="fill:#999999;fill-opacity:0.501961;stroke:#999999;stroke-opacity:0.501961;stroke-width:0.886227;"/>
    <path clip-path="url(#pa845e84231)" d="M 161.720381 176.385136 
C 162.425472 176.385136 163.101778 176.105001 163.600352 175.606426 
C 164.098927 175.107852 164.379062 174.431546 164.379062 173.726455 
C 164.379062 173.021365 164.098927 172.345058 163.600352 171.846484 
C 163.101778 171.34791 162.425472 171.067774 161.720381 171.067774 
C 161.015291 171.067774 160.338984 171.34791 159.84041 171.846484 
C 159.341836 172.345058 159.061701 173.021365 159.061701 173.726455 
C 159.061701 174.431546 159.341836 175.107852 159.84041 175.606426 
C 160.338984 176.105001 161.015291 176.385136 161.720381 176.385136 
z
" style="fill:#999999;fill-opacity:0.501961;stroke:#999999;stroke-opacity:0.501961;stroke-width:0.886227;"/>
    <path clip-path="url(#pa845e84231)" d="M 172.538633 176.50427 
C 173.243723 176.50427 173.92003 176.224134 174.418604 175.72556 
C 174.917178 175.226986 175.197314 174.550679 175.197314 173.845589 
C 175.197314 173.140499 174.917178 172.464192 174.418604 171.965618 
C 173.92003 171.467044 173.243723 171.186908 172.538633 171.186908 
C 171.833543 171.186908 171.157236 171.467044 170.658662 171.965618 
C 170.160088 172.464192 169.879952 173.140499 169.879952 173.845589 
C 169.879952 174.550679 170.160088 175.226986 170.658662 175.72556 
C 171.157236 176.224134 171.833543 176.50427 172.538633 176.50427 
z
" style="fill:#999999;fill-opacity:0.501961;stroke:#999999;stroke-opacity:0.501961;stroke-width:0.886227;"/>
    <path clip-path="url(#pa845e84231)" d="M 245.283971 124.542909 
C 245.989061 124.542909 246.665368 124.262774 247.163942 123.7642 
C 247.662516 123.265625 247.942652 122.589319 247.942652 121.884228 
C 247.942652 121.179138 247.662516 120.502831 247.163942 120.004257 
C 246.665368 119.505683 245.989061 119.225548 245.283971 119.225548 
C 244.57888 119.225548 243.902574 119.505683 243.404 120.004257 
C 242.905425 120.502831 242.62529 121.179138 242.62529 121.884228 
C 242.62529 122.589319 242.905425 123.265625 243.404 123.7642 
C 243.902574 124.262774 244.57888 124.542909 245.283971 124.542909 
z
" style="fill:#999999;fill-opacity:0.501961;stroke:#999999;stroke-opacity:0.501961;stroke-width:0.886227;"/>
    <path clip-path="url(#pa845e84231)" d="M 252.378378 126.890177 
C 253.083468 126.890177 253.759775 126.610041 254.258349 126.111467 
C 254.756923 125.612893 255.037058 124.936586 255.037058 124.231496 
C 255.037058 123.526405 254.756923 122.850099 254.258349 122.351525 
C 253.759775 121.85295 253.083468 121.572815 252.378378 121.572815 
C 251.673287 121.572815 250.996981 121.85295 250.498406 122.351525 
C 249.999832 122.850099 249.719697 123.526405 249.719697 124.231496 
C 249.719697 124.936586 249.999832 125.612893 250.498406 126.111467 
C 250.996981 126.610041 251.673287 126.890177 252.378378 126.890177 
z
" style="fill:#999999;fill-opacity:0.501961;stroke:#999999;stroke-opacity:0.501961;stroke-width:0.886227;"/>
    <path clip-path="url(#pa845e84231)" d="M 238.624042 129.406035 
C 239.329132 129.406035 240.005439 129.125899 240.504013 128.627325 
C 241.002587 128.128751 241.282723 127.452444 241.282723 126.747354 
C 241.282723 126.042264 241.002587 125.365957 240.504013 124.867383 
C 240.005439 124.368809 239.329132 124.088673 238.624042 124.088673 
C 237.918952 124.088673 237.242645 124.368809 236.744071 124.867383 
C 236.245496 125.365957 235.965361 126.042264 235.965361 126.747354 
C 235.965361 127.452444 236.245496 128.128751 236.744071 128.627325 
C 237.242645 129.125899 237.918952 129.406035 238.624042 129.406035 
z
" style="fill:#999999;fill-opacity:0.501961;stroke:#999999;stroke-opacity:0.501961;stroke-width:0.886227;"/>
    <path clip-path="url(#pa845e84231)" d="M 254.969241 131.535549 
C 255.674332 131.535549 256.350638 131.255413 256.849213 130.756839 
C 257.347787 130.258265 257.627922 129.581958 257.627922 128.876868 
C 257.627922 128.171778 257.347787 127.495471 256.849213 126.996897 
C 256.350638 126.498322 255.674332 126.218187 254.969241 126.218187 
C 254.264151 126.218187 253.587844 126.498322 253.08927 126.996897 
C 252.590696 127.495471 252.310561 128.171778 252.310561 128.876868 
C 252.310561 129.581958 252.590696 130.258265 253.08927 130.756839 
C 253.587844 131.255413 254.264151 131.535549 254.969241 131.535549 
z
" style="fill:#999999;fill-opacity:0.501961;stroke:#999999;stroke-opacity:0.501961;stroke-width:0.886227;"/>
    <path clip-path="url(#pa845e84231)" d="M 241.554568 133.347405 
C 242.259659 133.347405 242.935965 133.06727 243.434539 132.568696 
C 243.933114 132.070122 244.213249 131.393815 244.213249 130.688725 
C 244.213249 129.983634 243.933114 129.307328 243.434539 128.808753 
C 242.935965 128.310179 242.259659 128.030044 241.554568 128.030044 
C 240.849478 128.030044 240.173171 128.310179 239.674597 128.808753 
C 239.176023 129.307328 238.895887 129.983634 238.895887 130.688725 
C 238.895887 131.393815 239.176023 132.070122 239.674597 132.568696 
C 240.173171 133.06727 240.849478 133.347405 241.554568 133.347405 
z
" style="fill:#999999;fill-opacity:0.501961;stroke:#999999;stroke-opacity:0.501961;stroke-width:0.886227;"/>
    <path clip-path="url(#pa845e84231)" d="M 255.445953 138.871004 
C 256.151043 138.871004 256.82735 138.590868 257.325924 138.092294 
C 257.824498 137.59372 258.104633 136.917413 258.104633 136.212323 
C 258.104633 135.507232 257.824498 134.830926 257.325924 134.332352 
C 256.82735 133.833777 256.151043 133.553642 255.445953 133.553642 
C 254.740862 133.553642 254.064556 133.833777 253.565981 134.332352 
C 253.067407 134.830926 252.787272 135.507232 252.787272 136.212323 
C 252.787272 136.917413 253.067407 137.59372 253.565981 138.092294 
C 254.064556 138.590868 254.740862 138.871004 255.445953 138.871004 
z
" style="fill:#999999;fill-opacity:0.501961;stroke:#999999;stroke-opacity:0.501961;stroke-width:0.886227;"/>
    <path clip-path="url(#pa845e84231)" d="M 258.912791 140.054546 
C 259.617881 140.054546 260.294188 139.77441 260.792762 139.275836 
C 261.291336 138.777262 261.571471 138.100955 261.571471 137.395865 
C 261.571471 136.690775 261.291336 136.014468 260.792762 135.515894 
C 260.294188 135.01732 259.617881 134.737184 258.912791 134.737184 
C 258.2077 134.737184 257.531394 135.01732 257.032819 135.515894 
C 256.534245 136.014468 256.25411 136.690775 256.25411 137.395865 
C 256.25411 138.100955 256.534245 138.777262 257.032819 139.275836 
C 257.531394 139.77441 258.2077 140.054546 258.912791 140.054546 
z
" style="fill:#999999;fill-opacity:0.501961;stroke:#999999;stroke-opacity:0.501961;stroke-width:0.886227;"/>
    <path clip-path="url(#pa845e84231)" d="M 240.161147 146.369699 
C 240.866237 146.369699 241.542544 146.089563 242.041118 145.590989 
C 242.539692 145.092415 242.819828 144.416108 242.819828 143.711018 
C 242.819828 143.005928 242.539692 142.329621 242.041118 141.831047 
C 241.542544 141.332473 240.866237 141.052337 240.161147 141.052337 
C 239.456057 141.052337 238.77975 141.332473 238.281176 141.831047 
C 237.782601 142.329621 237.502466 143.005928 237.502466 143.711018 
C 237.502466 144.416108 237.782601 145.092415 238.281176 145.590989 
C 238.77975 146.089563 239.456057 146.369699 240.161147 146.369699 
z
" style="fill:#999999;fill-opacity:0.501961;stroke:#999999;stroke-opacity:0.501961;stroke-width:0.886227;"/>
    <path clip-path="url(#pa845e84231)" d="M 249.945307 147.737103 
C 250.650398 147.737103 251.326704 147.456968 251.825279 146.958393 
C 252.323853 146.459819 252.603988 145.783513 252.603988 145.078422 
C 252.603988 144.373332 252.323853 143.697025 251.825279 143.198451 
C 251.326704 142.699877 250.650398 142.419741 249.945307 142.419741 
C 249.240217 142.419741 248.56391 142.699877 248.065336 143.198451 
C 247.566762 143.697025 247.286627 144.373332 247.286627 145.078422 
C 247.286627 145.783513 247.566762 146.459819 248.065336 146.958393 
C 248.56391 147.456968 249.240217 147.737103 249.945307 147.737103 
z
" style="fill:#999999;fill-opacity:0.501961;stroke:#999999;stroke-opacity:0.501961;stroke-width:0.886227;"/>
    <path clip-path="url(#pa845e84231)" d="M 258.74461 149.835605 
C 259.4497 149.835605 260.126007 149.55547 260.624581 149.056896 
C 261.123155 148.558322 261.403291 147.882015 261.403291 147.176924 
C 261.403291 146.471834 261.123155 145.795527 260.624581 145.296953 
C 260.126007 144.798379 259.4497 144.518244 258.74461 144.518244 
C 258.03952 144.518244 257.363213 144.798379 256.864639 145.296953 
C 256.366065 145.795527 256.085929 146.471834 256.085929 147.176924 
C 256.085929 147.882015 256.366065 148.558322 256.864639 149.056896 
C 257.363213 149.55547 258.03952 149.835605 258.74461 149.835605 
z
" style="fill:#999999;fill-opacity:0.501961;stroke:#999999;stroke-opacity:0.501961;stroke-width:0.886227;"/>
    <path clip-path="url(#pa845e84231)" d="M 249.949177 151.338557 
C 250.654267 151.338557 251.330574 151.058422 251.829148 150.559848 
C 252.327722 150.061273 252.607858 149.384967 252.607858 148.679876 
C 252.607858 147.974786 252.327722 147.298479 251.829148 146.799905 
C 251.330574 146.301331 250.654267 146.021196 249.949177 146.021196 
C 249.244086 146.021196 248.56778 146.301331 248.069206 146.799905 
C 247.570631 147.298479 247.290496 147.974786 247.290496 148.679876 
C 247.290496 149.384967 247.570631 150.061273 248.069206 150.559848 
C 248.56778 151.058422 249.244086 151.338557 249.949177 151.338557 
z
" style="fill:#999999;fill-opacity:0.501961;stroke:#999999;stroke-opacity:0.501961;stroke-width:0.886227;"/>
    <path clip-path="url(#pa845e84231)" d="M 238.517039 151.886401 
C 239.22213 151.886401 239.898436 151.606265 240.39701 151.107691 
C 240.895585 150.609117 241.17572 149.93281 241.17572 149.22772 
C 241.17572 148.522629 240.895585 147.846323 240.39701 147.347749 
C 239.898436 146.849174 239.22213 146.569039 238.517039 146.569039 
C 237.811949 146.569039 237.135642 146.849174 236.637068 147.347749 
C 236.138494 147.846323 235.858358 148.522629 235.858358 149.22772 
C 235.858358 149.93281 236.138494 150.609117 236.637068 151.107691 
C 237.135642 151.606265 237.811949 151.886401 238.517039 151.886401 
z
" style="fill:#999999;fill-opacity:0.501961;stroke:#999999;stroke-opacity:0.501961;stroke-width:0.886227;"/>
    <path clip-path="url(#pa845e84231)" d="M 253.769573 156.085821 
C 254.474664 156.085821 255.15097 155.805685 255.649545 155.307111 
C 256.148119 154.808537 256.428254 154.13223 256.428254 153.42714 
C 256.428254 152.722049 256.148119 152.045743 255.649545 151.547169 
C 255.15097 151.048594 254.474664 150.768459 253.769573 150.768459 
C 253.064483 150.768459 252.388176 151.048594 251.889602 151.547169 
C 251.391028 152.045743 251.110893 152.722049 251.110893 153.42714 
C 251.110893 154.13223 251.391028 154.808537 251.889602 155.307111 
C 252.388176 155.805685 253.064483 156.085821 253.769573 156.085821 
z
" style="fill:#999999;fill-opacity:0.501961;stroke:#999999;stroke-opacity:0.501961;stroke-width:0.886227;"/>
    <path clip-path="url(#pa845e84231)" d="M 257.783979 157.149937 
C 258.48907 157.149937 259.165376 156.869802 259.663951 156.371227 
C 260.162525 155.872653 260.44266 155.196346 260.44266 154.491256 
C 260.44266 153.786166 260.162525 153.109859 259.663951 152.611285 
C 259.165376 152.112711 258.48907 151.832575 257.783979 151.832575 
C 257.078889 151.832575 256.402582 152.112711 255.904008 152.611285 
C 255.405434 153.109859 255.125299 153.786166 255.125299 154.491256 
C 255.125299 155.196346 255.405434 155.872653 255.904008 156.371227 
C 256.402582 156.869802 257.078889 157.149937 257.783979 157.149937 
z
" style="fill:#999999;fill-opacity:0.501961;stroke:#999999;stroke-opacity:0.501961;stroke-width:0.886227;"/>
    <path clip-path="url(#pa845e84231)" d="M 253.110207 157.421119 
C 253.815297 157.421119 254.491604 157.140984 254.990178 156.642409 
C 255.488752 156.143835 255.768888 155.467529 255.768888 154.762438 
C 255.768888 154.057348 255.488752 153.381041 254.990178 152.882467 
C 254.491604 152.383893 253.815297 152.103757 253.110207 152.103757 
C 252.405117 152.103757 251.72881 152.383893 251.230236 152.882467 
C 250.731662 153.381041 250.451526 154.057348 250.451526 154.762438 
C 250.451526 155.467529 250.731662 156.143835 251.230236 156.642409 
C 251.72881 157.140984 252.405117 157.421119 253.110207 157.421119 
z
" style="fill:#999999;fill-opacity:0.501961;stroke:#999999;stroke-opacity:0.501961;stroke-width:0.886227;"/>
    <path clip-path="url(#pa845e84231)" d="M 266.597593 158.538033 
C 267.302683 158.538033 267.97899 158.257897 268.477564 157.759323 
C 268.976138 157.260749 269.256274 156.584442 269.256274 155.879352 
C 269.256274 155.174262 268.976138 154.497955 268.477564 153.999381 
C 267.97899 153.500807 267.302683 153.220671 266.597593 153.220671 
C 265.892503 153.220671 265.216196 153.500807 264.717622 153.999381 
C 264.219048 154.497955 263.938912 155.174262 263.938912 155.879352 
C 263.938912 156.584442 264.219048 157.260749 264.717622 157.759323 
C 265.216196 158.257897 265.892503 158.538033 266.597593 158.538033 
z
" style="fill:#999999;fill-opacity:0.501961;stroke:#999999;stroke-opacity:0.501961;stroke-width:0.886227;"/>
    <path clip-path="url(#pa845e84231)" d="M 255.359621 161.224015 
C 256.064712 161.224015 256.741018 160.943879 257.239593 160.445305 
C 257.738167 159.946731 258.018302 159.270424 258.018302 158.565334 
C 258.018302 157.860244 257.738167 157.183937 257.239593 156.685363 
C 256.741018 156.186789 256.064712 155.906653 255.359621 155.906653 
C 254.654531 155.906653 253.978224 156.186789 253.47965 156.685363 
C 252.981076 157.183937 252.700941 157.860244 252.700941 158.565334 
C 252.700941 159.270424 252.981076 159.946731 253.47965 160.445305 
C 253.978224 160.943879 254.654531 161.224015 255.359621 161.224015 
z
" style="fill:#999999;fill-opacity:0.501961;stroke:#999999;stroke-opacity:0.501961;stroke-width:0.886227;"/>
    <path clip-path="url(#pa845e84231)" d="M 265.304653 166.741032 
C 266.009743 166.741032 266.68605 166.460897 267.184624 165.962323 
C 267.683198 165.463749 267.963333 164.787442 267.963333 164.082352 
C 267.963333 163.377261 267.683198 162.700955 267.184624 162.20238 
C 266.68605 161.703806 266.009743 161.423671 265.304653 161.423671 
C 264.599562 161.423671 263.923256 161.703806 263.424681 162.20238 
C 262.926107 162.700955 262.645972 163.377261 262.645972 164.082352 
C 262.645972 164.787442 262.926107 165.463749 263.424681 165.962323 
C 263.923256 166.460897 264.599562 166.741032 265.304653 166.741032 
z
" style="fill:#999999;fill-opacity:0.501961;stroke:#999999;stroke-opacity:0.501961;stroke-width:0.886227;"/>
    <path clip-path="url(#pa845e84231)" d="M 241.264112 176.50427 
C 241.969203 176.50427 242.645509 176.224134 243.144083 175.72556 
C 243.642658 175.226986 243.922793 174.550679 243.922793 173.845589 
C 243.922793 173.140499 243.642658 172.464192 243.144083 171.965618 
C 242.645509 171.467044 241.969203 171.186908 241.264112 171.186908 
C 240.559022 171.186908 239.882715 171.467044 239.384141 171.965618 
C 238.885567 172.464192 238.605432 173.140499 238.605432 173.845589 
C 238.605432 174.550679 238.885567 175.226986 239.384141 175.72556 
C 239.882715 176.224134 240.559022 176.50427 241.264112 176.50427 
z
" style="fill:#999999;fill-opacity:0.501961;stroke:#999999;stroke-opacity:0.501961;stroke-width:0.886227;"/>
    <path clip-path="url(#pa845e84231)" d="M 241.320661 176.50427 
C 242.025752 176.50427 242.702058 176.224134 243.200633 175.72556 
C 243.699207 175.226986 243.979342 174.550679 243.979342 173.845589 
C 243.979342 173.140499 243.699207 172.464192 243.200633 171.965618 
C 242.702058 171.467044 242.025752 171.186908 241.320661 171.186908 
C 240.615571 171.186908 239.939264 171.467044 239.44069 171.965618 
C 238.942116 172.464192 238.661981 173.140499 238.661981 173.845589 
C 238.661981 174.550679 238.942116 175.226986 239.44069 175.72556 
C 239.939264 176.224134 240.615571 176.50427 241.320661 176.50427 
z
" style="fill:#999999;fill-opacity:0.501961;stroke:#999999;stroke-opacity:0.501961;stroke-width:0.886227;"/>
    <path clip-path="url(#pa845e84231)" d="M 262.291119 176.50427 
C 262.996209 176.50427 263.672516 176.224134 264.17109 175.72556 
C 264.669664 175.226986 264.9498 174.550679 264.9498 173.845589 
C 264.9498 173.140499 264.669664 172.464192 264.17109 171.965618 
C 263.672516 171.467044 262.996209 171.186908 262.291119 171.186908 
C 261.586029 171.186908 260.909722 171.467044 260.411148 171.965618 
C 259.912574 172.464192 259.632438 173.140499 259.632438 173.845589 
C 259.632438 174.550679 259.912574 175.226986 260.411148 175.72556 
C 260.909722 176.224134 261.586029 176.50427 262.291119 176.50427 
z
" style="fill:#999999;fill-opacity:0.501961;stroke:#999999;stroke-opacity:0.501961;stroke-width:0.886227;"/>
    <path clip-path="url(#pa845e84231)" d="M 249.431207 176.50427 
C 250.136297 176.50427 250.812604 176.224134 251.311178 175.72556 
C 251.809752 175.226986 252.089887 174.550679 252.089887 173.845589 
C 252.089887 173.140499 251.809752 172.464192 251.311178 171.965618 
C 250.812604 171.467044 250.136297 171.186908 249.431207 171.186908 
C 248.726116 171.186908 248.04981 171.467044 247.551236 171.965618 
C 247.052661 172.464192 246.772526 173.140499 246.772526 173.845589 
C 246.772526 174.550679 247.052661 175.226986 247.551236 175.72556 
C 248.04981 176.224134 248.726116 176.50427 249.431207 176.50427 
z
" style="fill:#999999;fill-opacity:0.501961;stroke:#999999;stroke-opacity:0.501961;stroke-width:0.886227;"/>
    <path clip-path="url(#pa845e84231)" d="M 242.13918 176.50427 
C 242.84427 176.50427 243.520577 176.224134 244.019151 175.72556 
C 244.517725 175.226986 244.797861 174.550679 244.797861 173.845589 
C 244.797861 173.140499 244.517725 172.464192 244.019151 171.965618 
C 243.520577 171.467044 242.84427 171.186908 242.13918 171.186908 
C 241.434089 171.186908 240.757783 171.467044 240.259209 171.965618 
C 239.760634 172.464192 239.480499 173.140499 239.480499 173.845589 
C 239.480499 174.550679 239.760634 175.226986 240.259209 175.72556 
C 240.757783 176.224134 241.434089 176.50427 242.13918 176.50427 
z
" style="fill:#999999;fill-opacity:0.501961;stroke:#999999;stroke-opacity:0.501961;stroke-width:0.886227;"/>
    <path clip-path="url(#pa845e84231)" d="M 266.061301 176.50427 
C 266.766391 176.50427 267.442698 176.224134 267.941272 175.72556 
C 268.439846 175.226986 268.719981 174.550679 268.719981 173.845589 
C 268.719981 173.140499 268.439846 172.464192 267.941272 171.965618 
C 267.442698 171.467044 266.766391 171.186908 266.061301 171.186908 
C 265.35621 171.186908 264.679904 171.467044 264.181329 171.965618 
C 263.682755 172.464192 263.40262 173.140499 263.40262 173.845589 
C 263.40262 174.550679 263.682755 175.226986 264.181329 175.72556 
C 264.679904 176.224134 265.35621 176.50427 266.061301 176.50427 
z
" style="fill:#999999;fill-opacity:0.501961;stroke:#999999;stroke-opacity:0.501961;stroke-width:0.886227;"/>
   </g>
   <g id="LineCollection_1">
    <path clip-path="url(#pa845e84231)" d="M 48.624125 173.845589 
L 299.724125 173.845589 
" style="fill:none;stroke:#999999;stroke-dasharray:1.32934,2.193412;stroke-dashoffset:0;stroke-opacity:0.501961;stroke-width:1.32934;"/>
   </g>
   <g id="patch_3">
    <path d="M 48.624125 180.953281 
L 48.624125 14.633281 
" style="fill:none;stroke:#000000;stroke-linecap:square;stroke-linejoin:miter;"/>
   </g>
   <g id="patch_4">
    <path d="M 48.624125 180.953281 
L 299.724125 180.953281 
" style="fill:none;stroke:#000000;stroke-linecap:square;stroke-linejoin:miter;"/>
   </g>
   <g id="LineCollection_2">
    <path clip-path="url(#pa845e84231)" d="M 48.624125 120.348237 
L 299.724125 120.348237 
" style="fill:none;stroke:#56b4e9;stroke-dasharray:4.918559,2.126945;stroke-dashoffset:0;stroke-opacity:0.501961;stroke-width:1.32934;"/>
   </g>
   <g id="text_8">
    <g clip-path="url(#pa845e84231)">
     <!-- 8 / 27 -->
     <g transform="translate(82.73975 24.264356)scale(0.09 -0.09)">
      <defs>
       <path d="M 25.390625 72.90625 
L 33.6875 72.90625 
L 8.296875 -9.28125 
L 0 -9.28125 
z
" id="DejaVuSans-47"/>
       <path d="M 8.203125 72.90625 
L 55.078125 72.90625 
L 55.078125 68.703125 
L 28.609375 0 
L 18.3125 0 
L 43.21875 64.59375 
L 8.203125 64.59375 
z
" id="DejaVuSans-55"/>
      </defs>
      <use xlink:href="#DejaVuSans-56"/>
      <use x="63.623047" xlink:href="#DejaVuSans-32"/>
      <use x="95.410156" xlink:href="#DejaVuSans-47"/>
      <use x="129.101562" xlink:href="#DejaVuSans-32"/>
      <use x="160.888672" xlink:href="#DejaVuSans-50"/>
      <use x="224.511719" xlink:href="#DejaVuSans-55"/>
     </g>
    </g>
   </g>
   <g id="text_9">
    <g clip-path="url(#pa845e84231)">
     <!-- 5 / 19 -->
     <g transform="translate(161.2085 24.264356)scale(0.09 -0.09)">
      <use xlink:href="#DejaVuSans-53"/>
      <use x="63.623047" xlink:href="#DejaVuSans-32"/>
      <use x="95.410156" xlink:href="#DejaVuSans-47"/>
      <use x="129.101562" xlink:href="#DejaVuSans-32"/>
      <use x="160.888672" xlink:href="#DejaVuSans-49"/>
      <use x="224.511719" xlink:href="#DejaVuSans-57"/>
     </g>
    </g>
   </g>
   <g id="text_10">
    <g clip-path="url(#pa845e84231)">
     <!-- 7 / 31 -->
     <g transform="translate(239.67725 24.264356)scale(0.09 -0.09)">
      <defs>
       <path d="M 40.578125 39.3125 
Q 47.65625 37.796875 51.625 33 
Q 55.609375 28.21875 55.609375 21.1875 
Q 55.609375 10.40625 48.1875 4.484375 
Q 40.765625 -1.421875 27.09375 -1.421875 
Q 22.515625 -1.421875 17.65625 -0.515625 
Q 12.796875 0.390625 7.625 2.203125 
L 7.625 11.71875 
Q 11.71875 9.328125 16.59375 8.109375 
Q 21.484375 6.890625 26.8125 6.890625 
Q 36.078125 6.890625 40.9375 10.546875 
Q 45.796875 14.203125 45.796875 21.1875 
Q 45.796875 27.640625 41.28125 31.265625 
Q 36.765625 34.90625 28.71875 34.90625 
L 20.21875 34.90625 
L 20.21875 43.015625 
L 29.109375 43.015625 
Q 36.375 43.015625 40.234375 45.921875 
Q 44.09375 48.828125 44.09375 54.296875 
Q 44.09375 59.90625 40.109375 62.90625 
Q 36.140625 65.921875 28.71875 65.921875 
Q 24.65625 65.921875 20.015625 65.03125 
Q 15.375 64.15625 9.8125 62.3125 
L 9.8125 71.09375 
Q 15.4375 72.65625 20.34375 73.4375 
Q 25.25 74.21875 29.59375 74.21875 
Q 40.828125 74.21875 47.359375 69.109375 
Q 53.90625 64.015625 53.90625 55.328125 
Q 53.90625 49.265625 50.4375 45.09375 
Q 46.96875 40.921875 40.578125 39.3125 
z
" id="DejaVuSans-51"/>
      </defs>
      <use xlink:href="#DejaVuSans-55"/>
      <use x="63.623047" xlink:href="#DejaVuSans-32"/>
      <use x="95.410156" xlink:href="#DejaVuSans-47"/>
      <use x="129.101562" xlink:href="#DejaVuSans-32"/>
      <use x="160.888672" xlink:href="#DejaVuSans-51"/>
      <use x="224.511719" xlink:href="#DejaVuSans-49"/>
     </g>
    </g>
   </g>
   <g id="patch_5">
    <path d="M 306.924125 133.27625 
L 400.361156 133.27625 
L 400.361156 60.150313 
L 306.924125 60.150313 
z
" style="fill:#ffffff;"/>
   </g>
   <g id="text_11">
    <!-- above cutoff -->
    <g transform="translate(319.124125 83.743906)scale(0.11 -0.11)">
     <defs>
      <path d="M 48.6875 27.296875 
Q 48.6875 37.203125 44.609375 42.84375 
Q 40.53125 48.484375 33.40625 48.484375 
Q 26.265625 48.484375 22.1875 42.84375 
Q 18.109375 37.203125 18.109375 27.296875 
Q 18.109375 17.390625 22.1875 11.75 
Q 26.265625 6.109375 33.40625 6.109375 
Q 40.53125 6.109375 44.609375 11.75 
Q 48.6875 17.390625 48.6875 27.296875 
z
M 18.109375 46.390625 
Q 20.953125 51.265625 25.265625 53.625 
Q 29.59375 56 35.59375 56 
Q 45.5625 56 51.78125 48.09375 
Q 58.015625 40.1875 58.015625 27.296875 
Q 58.015625 14.40625 51.78125 6.484375 
Q 45.5625 -1.421875 35.59375 -1.421875 
Q 29.59375 -1.421875 25.265625 0.953125 
Q 20.953125 3.328125 18.109375 8.203125 
L 18.109375 0 
L 9.078125 0 
L 9.078125 75.984375 
L 18.109375 75.984375 
z
" id="DejaVuSans-98"/>
      <path d="M 37.109375 75.984375 
L 37.109375 68.5 
L 28.515625 68.5 
Q 23.6875 68.5 21.796875 66.546875 
Q 19.921875 64.59375 19.921875 59.515625 
L 19.921875 54.6875 
L 34.71875 54.6875 
L 34.71875 47.703125 
L 19.921875 47.703125 
L 19.921875 0 
L 10.890625 0 
L 10.890625 47.703125 
L 2.296875 47.703125 
L 2.296875 54.6875 
L 10.890625 54.6875 
L 10.890625 58.5 
Q 10.890625 67.625 15.140625 71.796875 
Q 19.390625 75.984375 28.609375 75.984375 
z
" id="DejaVuSans-102"/>
     </defs>
     <use xlink:href="#DejaVuSans-97"/>
     <use x="61.279297" xlink:href="#DejaVuSans-98"/>
     <use x="124.755859" xlink:href="#DejaVuSans-111"/>
     <use x="185.9375" xlink:href="#DejaVuSans-118"/>
     <use x="245.117188" xlink:href="#DejaVuSans-101"/>
     <use x="306.640625" xlink:href="#DejaVuSans-32"/>
     <use x="338.427734" xlink:href="#DejaVuSans-99"/>
     <use x="393.408203" xlink:href="#DejaVuSans-117"/>
     <use x="456.787109" xlink:href="#DejaVuSans-116"/>
     <use x="495.996094" xlink:href="#DejaVuSans-111"/>
     <use x="557.177734" xlink:href="#DejaVuSans-102"/>
     <use x="592.382812" xlink:href="#DejaVuSans-102"/>
    </g>
   </g>
   <g id="patch_6">
    <path clip-path="url(#p6ef524ea9f)" d="M 319.124125 103.23625 
L 334.964125 103.23625 
L 334.964125 87.39625 
L 319.124125 87.39625 
z
" style="fill:none;"/>
   </g>
   <g id="line2d_7">
    <path clip-path="url(#p6ef524ea9f)" d="M 327.044125 95.31625 
" style="fill:none;stroke:#1f77b4;stroke-linecap:square;stroke-opacity:0.5;stroke-width:1.5;"/>
    <defs>
     <path d="M 0 2.658681 
C 0.70509 2.658681 1.381397 2.378545 1.879971 1.879971 
C 2.378545 1.381397 2.658681 0.70509 2.658681 0 
C 2.658681 -0.70509 2.378545 -1.381397 1.879971 -1.879971 
C 1.381397 -2.378545 0.70509 -2.658681 0 -2.658681 
C -0.70509 -2.658681 -1.381397 -2.378545 -1.879971 -1.879971 
C -2.378545 -1.381397 -2.658681 -0.70509 -2.658681 0 
C -2.658681 0.70509 -2.378545 1.381397 -1.879971 1.879971 
C -1.381397 2.378545 -0.70509 2.658681 0 2.658681 
z
" id="mfa61fef045" style="stroke:#999999;stroke-opacity:0.5;stroke-width:0.886227;"/>
    </defs>
    <g clip-path="url(#p6ef524ea9f)">
     <use style="fill:#999999;fill-opacity:0.5;stroke:#999999;stroke-opacity:0.5;stroke-width:0.886227;" x="327.044125" xlink:href="#mfa61fef045" y="95.31625"/>
    </g>
   </g>
   <g id="text_12">
    <!-- False -->
    <g transform="translate(337.964125 97.7445)scale(0.088 -0.088)">
     <defs>
      <path d="M 9.8125 72.90625 
L 51.703125 72.90625 
L 51.703125 64.59375 
L 19.671875 64.59375 
L 19.671875 43.109375 
L 48.578125 43.109375 
L 48.578125 34.8125 
L 19.671875 34.8125 
L 19.671875 0 
L 9.8125 0 
z
" id="DejaVuSans-70"/>
     </defs>
     <use xlink:href="#DejaVuSans-70"/>
     <use x="48.394531" xlink:href="#DejaVuSans-97"/>
     <use x="109.673828" xlink:href="#DejaVuSans-108"/>
     <use x="137.457031" xlink:href="#DejaVuSans-115"/>
     <use x="189.556641" xlink:href="#DejaVuSans-101"/>
    </g>
   </g>
   <g id="patch_7">
    <path clip-path="url(#pdf4e8ce054)" d="M 319.124125 121.07625 
L 334.964125 121.07625 
L 334.964125 105.23625 
L 319.124125 105.23625 
z
" style="fill:none;"/>
   </g>
   <g id="line2d_8">
    <path clip-path="url(#pdf4e8ce054)" d="M 327.044125 113.15625 
" style="fill:none;stroke:#1f77b4;stroke-linecap:square;stroke-opacity:0.5;stroke-width:1.5;"/>
    <defs>
     <path d="M 0 -2.658681 
L -2.658681 2.658681 
L 2.658681 2.658681 
z
" id="m0220e65a71" style="stroke:#e69f00;stroke-linejoin:miter;stroke-opacity:0.5;stroke-width:0.886227;"/>
    </defs>
    <g clip-path="url(#pdf4e8ce054)">
     <use style="fill:#e69f00;fill-opacity:0.5;stroke:#e69f00;stroke-linejoin:miter;stroke-opacity:0.5;stroke-width:0.886227;" x="327.044125" xlink:href="#m0220e65a71" y="113.15625"/>
    </g>
   </g>
   <g id="text_13">
    <!-- True -->
    <g transform="translate(337.964125 115.5845)scale(0.088 -0.088)">
     <defs>
      <path d="M -0.296875 72.90625 
L 61.375 72.90625 
L 61.375 64.59375 
L 35.5 64.59375 
L 35.5 0 
L 25.59375 0 
L 25.59375 64.59375 
L -0.296875 64.59375 
z
" id="DejaVuSans-84"/>
     </defs>
     <use xlink:href="#DejaVuSans-84"/>
     <use x="46.333984" xlink:href="#DejaVuSans-114"/>
     <use x="87.447266" xlink:href="#DejaVuSans-117"/>
     <use x="150.826172" xlink:href="#DejaVuSans-101"/>
    </g>
   </g>
  </g>
 </g>
 <defs>
  <clipPath id="pa845e84231">
   <rect height="166.32" width="251.1" x="48.624125" y="14.633281"/>
  </clipPath>
  <clipPath id="p6ef524ea9f">
   <path d="M 319.124125 103.23625 
L 319.124125 87.39625 
L 334.964125 87.39625 
L 334.964125 103.23625 
"/>
  </clipPath>
  <clipPath id="pdf4e8ce054">
   <path d="M 319.124125 121.07625 
L 319.124125 105.23625 
L 334.964125 105.23625 
L 334.964125 121.07625 
"/>
  </clipPath>
 </defs>
</svg>
