<?xml version="1.0" encoding="utf-8" standalone="no"?>
<!DOCTYPE svg PUBLIC "-//W3C//DTD SVG 1.1//EN"
  "http://www.w3.org/Graphics/SVG/1.1/DTD/svg11.dtd">
<!-- Created with matplotlib (https://matplotlib.org/) -->
<svg height="246.746062pt" version="1.1" viewBox="0 0 186.350437 246.746062" width="186.350437pt" xmlns="http://www.w3.org/2000/svg" xmlns:xlink="http://www.w3.org/1999/xlink">
 <metadata>
  <rdf:RDF xmlns:cc="http://creativecommons.org/ns#" xmlns:dc="http://purl.org/dc/elements/1.1/" xmlns:rdf="http://www.w3.org/1999/02/22-rdf-syntax-ns#">
   <cc:Work>
    <dc:type rdf:resource="http://purl.org/dc/dcmitype/StillImage"/>
    <dc:date>2020-12-06T08:17:03.771562</dc:date>
    <dc:format>image/svg+xml</dc:format>
    <dc:creator>
     <cc:Agent>
      <dc:title>Matplotlib v3.3.2, https://matplotlib.org/</dc:title>
     </cc:Agent>
    </dc:creator>
   </cc:Work>
  </rdf:RDF>
 </metadata>
 <defs>
  <style type="text/css">*{stroke-linecap:butt;stroke-linejoin:round;}</style>
 </defs>
 <g id="figure_1">
  <g id="patch_1">
   <path d="M 0 246.746062 
L 186.350438 246.746062 
L 186.350438 0 
L 0 0 
z
" style="fill:#ffffff;stroke:#ffffff;stroke-linejoin:miter;"/>
  </g>
  <g id="axes_1">
   <g id="patch_2">
    <path d="M 45.989625 209.872 
L 168.749625 209.872 
L 168.749625 54.64 
L 45.989625 54.64 
z
" style="fill:#ffffff;"/>
   </g>
   <g id="matplotlib.axis_1">
    <g id="xtick_1">
     <g id="line2d_1">
      <path d="M 79.469625 209.872 
" style="fill:none;stroke:#333333;stroke-width:1.5;"/>
      <defs>
       <path d="M 0 0 
L 0 2.75 
" id="mddd8e37b4d" style="stroke:#000000;"/>
      </defs>
      <g>
       <use style="fill:#333333;stroke:#000000;" x="79.469625" xlink:href="#mddd8e37b4d" y="209.872"/>
      </g>
     </g>
     <g id="text_1">
      <!-- 8-9 yrs -->
      <g style="fill:#4d4d4d;" transform="translate(62.094625 222.420437)scale(0.1 -0.1)">
       <defs>
        <path d="M 31.78125 34.625 
Q 24.75 34.625 20.71875 30.859375 
Q 16.703125 27.09375 16.703125 20.515625 
Q 16.703125 13.921875 20.71875 10.15625 
Q 24.75 6.390625 31.78125 6.390625 
Q 38.8125 6.390625 42.859375 10.171875 
Q 46.921875 13.96875 46.921875 20.515625 
Q 46.921875 27.09375 42.890625 30.859375 
Q 38.875 34.625 31.78125 34.625 
z
M 21.921875 38.8125 
Q 15.578125 40.375 12.03125 44.71875 
Q 8.5 49.078125 8.5 55.328125 
Q 8.5 64.0625 14.71875 69.140625 
Q 20.953125 74.21875 31.78125 74.21875 
Q 42.671875 74.21875 48.875 69.140625 
Q 55.078125 64.0625 55.078125 55.328125 
Q 55.078125 49.078125 51.53125 44.71875 
Q 48 40.375 41.703125 38.8125 
Q 48.828125 37.15625 52.796875 32.3125 
Q 56.78125 27.484375 56.78125 20.515625 
Q 56.78125 9.90625 50.3125 4.234375 
Q 43.84375 -1.421875 31.78125 -1.421875 
Q 19.734375 -1.421875 13.25 4.234375 
Q 6.78125 9.90625 6.78125 20.515625 
Q 6.78125 27.484375 10.78125 32.3125 
Q 14.796875 37.15625 21.921875 38.8125 
z
M 18.3125 54.390625 
Q 18.3125 48.734375 21.84375 45.5625 
Q 25.390625 42.390625 31.78125 42.390625 
Q 38.140625 42.390625 41.71875 45.5625 
Q 45.3125 48.734375 45.3125 54.390625 
Q 45.3125 60.0625 41.71875 63.234375 
Q 38.140625 66.40625 31.78125 66.40625 
Q 25.390625 66.40625 21.84375 63.234375 
Q 18.3125 60.0625 18.3125 54.390625 
z
" id="DejaVuSans-56"/>
        <path d="M 4.890625 31.390625 
L 31.203125 31.390625 
L 31.203125 23.390625 
L 4.890625 23.390625 
z
" id="DejaVuSans-45"/>
        <path d="M 10.984375 1.515625 
L 10.984375 10.5 
Q 14.703125 8.734375 18.5 7.8125 
Q 22.3125 6.890625 25.984375 6.890625 
Q 35.75 6.890625 40.890625 13.453125 
Q 46.046875 20.015625 46.78125 33.40625 
Q 43.953125 29.203125 39.59375 26.953125 
Q 35.25 24.703125 29.984375 24.703125 
Q 19.046875 24.703125 12.671875 31.3125 
Q 6.296875 37.9375 6.296875 49.421875 
Q 6.296875 60.640625 12.9375 67.421875 
Q 19.578125 74.21875 30.609375 74.21875 
Q 43.265625 74.21875 49.921875 64.515625 
Q 56.59375 54.828125 56.59375 36.375 
Q 56.59375 19.140625 48.40625 8.859375 
Q 40.234375 -1.421875 26.421875 -1.421875 
Q 22.703125 -1.421875 18.890625 -0.6875 
Q 15.09375 0.046875 10.984375 1.515625 
z
M 30.609375 32.421875 
Q 37.25 32.421875 41.125 36.953125 
Q 45.015625 41.5 45.015625 49.421875 
Q 45.015625 57.28125 41.125 61.84375 
Q 37.25 66.40625 30.609375 66.40625 
Q 23.96875 66.40625 20.09375 61.84375 
Q 16.21875 57.28125 16.21875 49.421875 
Q 16.21875 41.5 20.09375 36.953125 
Q 23.96875 32.421875 30.609375 32.421875 
z
" id="DejaVuSans-57"/>
        <path id="DejaVuSans-32"/>
        <path d="M 32.171875 -5.078125 
Q 28.375 -14.84375 24.75 -17.8125 
Q 21.140625 -20.796875 15.09375 -20.796875 
L 7.90625 -20.796875 
L 7.90625 -13.28125 
L 13.1875 -13.28125 
Q 16.890625 -13.28125 18.9375 -11.515625 
Q 21 -9.765625 23.484375 -3.21875 
L 25.09375 0.875 
L 2.984375 54.6875 
L 12.5 54.6875 
L 29.59375 11.921875 
L 46.6875 54.6875 
L 56.203125 54.6875 
z
" id="DejaVuSans-121"/>
        <path d="M 41.109375 46.296875 
Q 39.59375 47.171875 37.8125 47.578125 
Q 36.03125 48 33.890625 48 
Q 26.265625 48 22.1875 43.046875 
Q 18.109375 38.09375 18.109375 28.8125 
L 18.109375 0 
L 9.078125 0 
L 9.078125 54.6875 
L 18.109375 54.6875 
L 18.109375 46.1875 
Q 20.953125 51.171875 25.484375 53.578125 
Q 30.03125 56 36.53125 56 
Q 37.453125 56 38.578125 55.875 
Q 39.703125 55.765625 41.0625 55.515625 
z
" id="DejaVuSans-114"/>
        <path d="M 44.28125 53.078125 
L 44.28125 44.578125 
Q 40.484375 46.53125 36.375 47.5 
Q 32.28125 48.484375 27.875 48.484375 
Q 21.1875 48.484375 17.84375 46.4375 
Q 14.5 44.390625 14.5 40.28125 
Q 14.5 37.15625 16.890625 35.375 
Q 19.28125 33.59375 26.515625 31.984375 
L 29.59375 31.296875 
Q 39.15625 29.25 43.1875 25.515625 
Q 47.21875 21.78125 47.21875 15.09375 
Q 47.21875 7.46875 41.1875 3.015625 
Q 35.15625 -1.421875 24.609375 -1.421875 
Q 20.21875 -1.421875 15.453125 -0.5625 
Q 10.6875 0.296875 5.421875 2 
L 5.421875 11.28125 
Q 10.40625 8.6875 15.234375 7.390625 
Q 20.0625 6.109375 24.8125 6.109375 
Q 31.15625 6.109375 34.5625 8.28125 
Q 37.984375 10.453125 37.984375 14.40625 
Q 37.984375 18.0625 35.515625 20.015625 
Q 33.0625 21.96875 24.703125 23.78125 
L 21.578125 24.515625 
Q 13.234375 26.265625 9.515625 29.90625 
Q 5.8125 33.546875 5.8125 39.890625 
Q 5.8125 47.609375 11.28125 51.796875 
Q 16.75 56 26.8125 56 
Q 31.78125 56 36.171875 55.265625 
Q 40.578125 54.546875 44.28125 53.078125 
z
" id="DejaVuSans-115"/>
       </defs>
       <use xlink:href="#DejaVuSans-56"/>
       <use x="63.623047" xlink:href="#DejaVuSans-45"/>
       <use x="99.707031" xlink:href="#DejaVuSans-57"/>
       <use x="163.330078" xlink:href="#DejaVuSans-32"/>
       <use x="195.117188" xlink:href="#DejaVuSans-121"/>
       <use x="254.296875" xlink:href="#DejaVuSans-114"/>
       <use x="295.410156" xlink:href="#DejaVuSans-115"/>
      </g>
     </g>
    </g>
    <g id="xtick_2">
     <g id="line2d_2">
      <path d="M 135.269625 209.872 
" style="fill:none;stroke:#333333;stroke-width:1.5;"/>
      <g>
       <use style="fill:#333333;stroke:#000000;" x="135.269625" xlink:href="#mddd8e37b4d" y="209.872"/>
      </g>
     </g>
     <g id="text_2">
      <!-- 16-17 yrs -->
      <g style="fill:#4d4d4d;" transform="translate(111.532125 222.420437)scale(0.1 -0.1)">
       <defs>
        <path d="M 12.40625 8.296875 
L 28.515625 8.296875 
L 28.515625 63.921875 
L 10.984375 60.40625 
L 10.984375 69.390625 
L 28.421875 72.90625 
L 38.28125 72.90625 
L 38.28125 8.296875 
L 54.390625 8.296875 
L 54.390625 0 
L 12.40625 0 
z
" id="DejaVuSans-49"/>
        <path d="M 33.015625 40.375 
Q 26.375 40.375 22.484375 35.828125 
Q 18.609375 31.296875 18.609375 23.390625 
Q 18.609375 15.53125 22.484375 10.953125 
Q 26.375 6.390625 33.015625 6.390625 
Q 39.65625 6.390625 43.53125 10.953125 
Q 47.40625 15.53125 47.40625 23.390625 
Q 47.40625 31.296875 43.53125 35.828125 
Q 39.65625 40.375 33.015625 40.375 
z
M 52.59375 71.296875 
L 52.59375 62.3125 
Q 48.875 64.0625 45.09375 64.984375 
Q 41.3125 65.921875 37.59375 65.921875 
Q 27.828125 65.921875 22.671875 59.328125 
Q 17.53125 52.734375 16.796875 39.40625 
Q 19.671875 43.65625 24.015625 45.921875 
Q 28.375 48.1875 33.59375 48.1875 
Q 44.578125 48.1875 50.953125 41.515625 
Q 57.328125 34.859375 57.328125 23.390625 
Q 57.328125 12.15625 50.6875 5.359375 
Q 44.046875 -1.421875 33.015625 -1.421875 
Q 20.359375 -1.421875 13.671875 8.265625 
Q 6.984375 17.96875 6.984375 36.375 
Q 6.984375 53.65625 15.1875 63.9375 
Q 23.390625 74.21875 37.203125 74.21875 
Q 40.921875 74.21875 44.703125 73.484375 
Q 48.484375 72.75 52.59375 71.296875 
z
" id="DejaVuSans-54"/>
        <path d="M 8.203125 72.90625 
L 55.078125 72.90625 
L 55.078125 68.703125 
L 28.609375 0 
L 18.3125 0 
L 43.21875 64.59375 
L 8.203125 64.59375 
z
" id="DejaVuSans-55"/>
       </defs>
       <use xlink:href="#DejaVuSans-49"/>
       <use x="63.623047" xlink:href="#DejaVuSans-54"/>
       <use x="127.246094" xlink:href="#DejaVuSans-45"/>
       <use x="163.330078" xlink:href="#DejaVuSans-49"/>
       <use x="226.953125" xlink:href="#DejaVuSans-55"/>
       <use x="290.576172" xlink:href="#DejaVuSans-32"/>
       <use x="322.363281" xlink:href="#DejaVuSans-121"/>
       <use x="381.542969" xlink:href="#DejaVuSans-114"/>
       <use x="422.65625" xlink:href="#DejaVuSans-115"/>
      </g>
     </g>
    </g>
    <g id="text_3">
     <!-- years in future -->
     <g transform="translate(65.158844 237.258406)scale(0.11 -0.11)">
      <defs>
       <path d="M 56.203125 29.59375 
L 56.203125 25.203125 
L 14.890625 25.203125 
Q 15.484375 15.921875 20.484375 11.0625 
Q 25.484375 6.203125 34.421875 6.203125 
Q 39.59375 6.203125 44.453125 7.46875 
Q 49.3125 8.734375 54.109375 11.28125 
L 54.109375 2.78125 
Q 49.265625 0.734375 44.1875 -0.34375 
Q 39.109375 -1.421875 33.890625 -1.421875 
Q 20.796875 -1.421875 13.15625 6.1875 
Q 5.515625 13.8125 5.515625 26.8125 
Q 5.515625 40.234375 12.765625 48.109375 
Q 20.015625 56 32.328125 56 
Q 43.359375 56 49.78125 48.890625 
Q 56.203125 41.796875 56.203125 29.59375 
z
M 47.21875 32.234375 
Q 47.125 39.59375 43.09375 43.984375 
Q 39.0625 48.390625 32.421875 48.390625 
Q 24.90625 48.390625 20.390625 44.140625 
Q 15.875 39.890625 15.1875 32.171875 
z
" id="DejaVuSans-101"/>
       <path d="M 34.28125 27.484375 
Q 23.390625 27.484375 19.1875 25 
Q 14.984375 22.515625 14.984375 16.5 
Q 14.984375 11.71875 18.140625 8.90625 
Q 21.296875 6.109375 26.703125 6.109375 
Q 34.1875 6.109375 38.703125 11.40625 
Q 43.21875 16.703125 43.21875 25.484375 
L 43.21875 27.484375 
z
M 52.203125 31.203125 
L 52.203125 0 
L 43.21875 0 
L 43.21875 8.296875 
Q 40.140625 3.328125 35.546875 0.953125 
Q 30.953125 -1.421875 24.3125 -1.421875 
Q 15.921875 -1.421875 10.953125 3.296875 
Q 6 8.015625 6 15.921875 
Q 6 25.140625 12.171875 29.828125 
Q 18.359375 34.515625 30.609375 34.515625 
L 43.21875 34.515625 
L 43.21875 35.40625 
Q 43.21875 41.609375 39.140625 45 
Q 35.0625 48.390625 27.6875 48.390625 
Q 23 48.390625 18.546875 47.265625 
Q 14.109375 46.140625 10.015625 43.890625 
L 10.015625 52.203125 
Q 14.9375 54.109375 19.578125 55.046875 
Q 24.21875 56 28.609375 56 
Q 40.484375 56 46.34375 49.84375 
Q 52.203125 43.703125 52.203125 31.203125 
z
" id="DejaVuSans-97"/>
       <path d="M 9.421875 54.6875 
L 18.40625 54.6875 
L 18.40625 0 
L 9.421875 0 
z
M 9.421875 75.984375 
L 18.40625 75.984375 
L 18.40625 64.59375 
L 9.421875 64.59375 
z
" id="DejaVuSans-105"/>
       <path d="M 54.890625 33.015625 
L 54.890625 0 
L 45.90625 0 
L 45.90625 32.71875 
Q 45.90625 40.484375 42.875 44.328125 
Q 39.84375 48.1875 33.796875 48.1875 
Q 26.515625 48.1875 22.3125 43.546875 
Q 18.109375 38.921875 18.109375 30.90625 
L 18.109375 0 
L 9.078125 0 
L 9.078125 54.6875 
L 18.109375 54.6875 
L 18.109375 46.1875 
Q 21.34375 51.125 25.703125 53.5625 
Q 30.078125 56 35.796875 56 
Q 45.21875 56 50.046875 50.171875 
Q 54.890625 44.34375 54.890625 33.015625 
z
" id="DejaVuSans-110"/>
       <path d="M 37.109375 75.984375 
L 37.109375 68.5 
L 28.515625 68.5 
Q 23.6875 68.5 21.796875 66.546875 
Q 19.921875 64.59375 19.921875 59.515625 
L 19.921875 54.6875 
L 34.71875 54.6875 
L 34.71875 47.703125 
L 19.921875 47.703125 
L 19.921875 0 
L 10.890625 0 
L 10.890625 47.703125 
L 2.296875 47.703125 
L 2.296875 54.6875 
L 10.890625 54.6875 
L 10.890625 58.5 
Q 10.890625 67.625 15.140625 71.796875 
Q 19.390625 75.984375 28.609375 75.984375 
z
" id="DejaVuSans-102"/>
       <path d="M 8.5 21.578125 
L 8.5 54.6875 
L 17.484375 54.6875 
L 17.484375 21.921875 
Q 17.484375 14.15625 20.5 10.265625 
Q 23.53125 6.390625 29.59375 6.390625 
Q 36.859375 6.390625 41.078125 11.03125 
Q 45.3125 15.671875 45.3125 23.6875 
L 45.3125 54.6875 
L 54.296875 54.6875 
L 54.296875 0 
L 45.3125 0 
L 45.3125 8.40625 
Q 42.046875 3.421875 37.71875 1 
Q 33.40625 -1.421875 27.6875 -1.421875 
Q 18.265625 -1.421875 13.375 4.4375 
Q 8.5 10.296875 8.5 21.578125 
z
M 31.109375 56 
z
" id="DejaVuSans-117"/>
       <path d="M 18.3125 70.21875 
L 18.3125 54.6875 
L 36.8125 54.6875 
L 36.8125 47.703125 
L 18.3125 47.703125 
L 18.3125 18.015625 
Q 18.3125 11.328125 20.140625 9.421875 
Q 21.96875 7.515625 27.59375 7.515625 
L 36.8125 7.515625 
L 36.8125 0 
L 27.59375 0 
Q 17.1875 0 13.234375 3.875 
Q 9.28125 7.765625 9.28125 18.015625 
L 9.28125 47.703125 
L 2.6875 47.703125 
L 2.6875 54.6875 
L 9.28125 54.6875 
L 9.28125 70.21875 
z
" id="DejaVuSans-116"/>
      </defs>
      <use xlink:href="#DejaVuSans-121"/>
      <use x="59.179688" xlink:href="#DejaVuSans-101"/>
      <use x="120.703125" xlink:href="#DejaVuSans-97"/>
      <use x="181.982422" xlink:href="#DejaVuSans-114"/>
      <use x="223.095703" xlink:href="#DejaVuSans-115"/>
      <use x="275.195312" xlink:href="#DejaVuSans-32"/>
      <use x="306.982422" xlink:href="#DejaVuSans-105"/>
      <use x="334.765625" xlink:href="#DejaVuSans-110"/>
      <use x="398.144531" xlink:href="#DejaVuSans-32"/>
      <use x="429.931641" xlink:href="#DejaVuSans-102"/>
      <use x="465.136719" xlink:href="#DejaVuSans-117"/>
      <use x="528.515625" xlink:href="#DejaVuSans-116"/>
      <use x="567.724609" xlink:href="#DejaVuSans-117"/>
      <use x="631.103516" xlink:href="#DejaVuSans-114"/>
      <use x="669.966797" xlink:href="#DejaVuSans-101"/>
     </g>
    </g>
   </g>
   <g id="matplotlib.axis_2">
    <g id="ytick_1">
     <g id="line2d_3">
      <path d="M 45.989625 72.302462 
" style="fill:none;stroke:#333333;stroke-width:1.5;"/>
      <defs>
       <path d="M 0 0 
L -2.75 0 
" id="m28e8cf1860" style="stroke:#000000;"/>
      </defs>
      <g>
       <use style="fill:#333333;stroke:#000000;" x="45.989625" xlink:href="#m28e8cf1860" y="72.302462"/>
      </g>
     </g>
     <g id="text_4">
      <!-- 1 -->
      <g style="fill:#4d4d4d;" transform="translate(35.440625 74.730712)scale(0.088 -0.088)">
       <use xlink:href="#DejaVuSans-49"/>
      </g>
     </g>
    </g>
    <g id="ytick_2">
     <g id="line2d_4">
      <path d="M 45.989625 94.568708 
" style="fill:none;stroke:#333333;stroke-width:1.5;"/>
      <g>
       <use style="fill:#333333;stroke:#000000;" x="45.989625" xlink:href="#m28e8cf1860" y="94.568708"/>
      </g>
     </g>
     <g id="text_5">
      <!-- 1/2 -->
      <g style="fill:#4d4d4d;" transform="translate(26.877125 96.996958)scale(0.088 -0.088)">
       <defs>
        <path d="M 25.390625 72.90625 
L 33.6875 72.90625 
L 8.296875 -9.28125 
L 0 -9.28125 
z
" id="DejaVuSans-47"/>
        <path d="M 19.1875 8.296875 
L 53.609375 8.296875 
L 53.609375 0 
L 7.328125 0 
L 7.328125 8.296875 
Q 12.9375 14.109375 22.625 23.890625 
Q 32.328125 33.6875 34.8125 36.53125 
Q 39.546875 41.84375 41.421875 45.53125 
Q 43.3125 49.21875 43.3125 52.78125 
Q 43.3125 58.59375 39.234375 62.25 
Q 35.15625 65.921875 28.609375 65.921875 
Q 23.96875 65.921875 18.8125 64.3125 
Q 13.671875 62.703125 7.8125 59.421875 
L 7.8125 69.390625 
Q 13.765625 71.78125 18.9375 73 
Q 24.125 74.21875 28.421875 74.21875 
Q 39.75 74.21875 46.484375 68.546875 
Q 53.21875 62.890625 53.21875 53.421875 
Q 53.21875 48.921875 51.53125 44.890625 
Q 49.859375 40.875 45.40625 35.40625 
Q 44.1875 33.984375 37.640625 27.21875 
Q 31.109375 20.453125 19.1875 8.296875 
z
" id="DejaVuSans-50"/>
       </defs>
       <use xlink:href="#DejaVuSans-49"/>
       <use x="63.623047" xlink:href="#DejaVuSans-47"/>
       <use x="97.314453" xlink:href="#DejaVuSans-50"/>
      </g>
     </g>
    </g>
    <g id="ytick_3">
     <g id="line2d_5">
      <path d="M 45.989625 116.834954 
" style="fill:none;stroke:#333333;stroke-width:1.5;"/>
      <g>
       <use style="fill:#333333;stroke:#000000;" x="45.989625" xlink:href="#m28e8cf1860" y="116.834954"/>
      </g>
     </g>
     <g id="text_6">
      <!-- 1/4 -->
      <g style="fill:#4d4d4d;" transform="translate(26.877125 119.263204)scale(0.088 -0.088)">
       <defs>
        <path d="M 37.796875 64.3125 
L 12.890625 25.390625 
L 37.796875 25.390625 
z
M 35.203125 72.90625 
L 47.609375 72.90625 
L 47.609375 25.390625 
L 58.015625 25.390625 
L 58.015625 17.1875 
L 47.609375 17.1875 
L 47.609375 0 
L 37.796875 0 
L 37.796875 17.1875 
L 4.890625 17.1875 
L 4.890625 26.703125 
z
" id="DejaVuSans-52"/>
       </defs>
       <use xlink:href="#DejaVuSans-49"/>
       <use x="63.623047" xlink:href="#DejaVuSans-47"/>
       <use x="97.314453" xlink:href="#DejaVuSans-52"/>
      </g>
     </g>
    </g>
    <g id="ytick_4">
     <g id="line2d_6">
      <path d="M 45.989625 139.101201 
" style="fill:none;stroke:#333333;stroke-width:1.5;"/>
      <g>
       <use style="fill:#333333;stroke:#000000;" x="45.989625" xlink:href="#m28e8cf1860" y="139.101201"/>
      </g>
     </g>
     <g id="text_7">
      <!-- 1/8 -->
      <g style="fill:#4d4d4d;" transform="translate(26.877125 141.529451)scale(0.088 -0.088)">
       <use xlink:href="#DejaVuSans-49"/>
       <use x="63.623047" xlink:href="#DejaVuSans-47"/>
       <use x="97.314453" xlink:href="#DejaVuSans-56"/>
      </g>
     </g>
    </g>
    <g id="ytick_5">
     <g id="line2d_7">
      <path d="M 45.989625 161.367447 
" style="fill:none;stroke:#333333;stroke-width:1.5;"/>
      <g>
       <use style="fill:#333333;stroke:#000000;" x="45.989625" xlink:href="#m28e8cf1860" y="161.367447"/>
      </g>
     </g>
     <g id="text_8">
      <!-- 1/16 -->
      <g style="fill:#4d4d4d;" transform="translate(21.278125 163.795697)scale(0.088 -0.088)">
       <use xlink:href="#DejaVuSans-49"/>
       <use x="63.623047" xlink:href="#DejaVuSans-47"/>
       <use x="97.314453" xlink:href="#DejaVuSans-49"/>
       <use x="160.9375" xlink:href="#DejaVuSans-54"/>
      </g>
     </g>
    </g>
    <g id="ytick_6">
     <g id="line2d_8">
      <path d="M 45.989625 183.633693 
" style="fill:none;stroke:#333333;stroke-width:1.5;"/>
      <g>
       <use style="fill:#333333;stroke:#000000;" x="45.989625" xlink:href="#m28e8cf1860" y="183.633693"/>
      </g>
     </g>
     <g id="text_9">
      <!-- 1/32 -->
      <g style="fill:#4d4d4d;" transform="translate(21.278125 186.061943)scale(0.088 -0.088)">
       <defs>
        <path d="M 40.578125 39.3125 
Q 47.65625 37.796875 51.625 33 
Q 55.609375 28.21875 55.609375 21.1875 
Q 55.609375 10.40625 48.1875 4.484375 
Q 40.765625 -1.421875 27.09375 -1.421875 
Q 22.515625 -1.421875 17.65625 -0.515625 
Q 12.796875 0.390625 7.625 2.203125 
L 7.625 11.71875 
Q 11.71875 9.328125 16.59375 8.109375 
Q 21.484375 6.890625 26.8125 6.890625 
Q 36.078125 6.890625 40.9375 10.546875 
Q 45.796875 14.203125 45.796875 21.1875 
Q 45.796875 27.640625 41.28125 31.265625 
Q 36.765625 34.90625 28.71875 34.90625 
L 20.21875 34.90625 
L 20.21875 43.015625 
L 29.109375 43.015625 
Q 36.375 43.015625 40.234375 45.921875 
Q 44.09375 48.828125 44.09375 54.296875 
Q 44.09375 59.90625 40.109375 62.90625 
Q 36.140625 65.921875 28.71875 65.921875 
Q 24.65625 65.921875 20.015625 65.03125 
Q 15.375 64.15625 9.8125 62.3125 
L 9.8125 71.09375 
Q 15.4375 72.65625 20.34375 73.4375 
Q 25.25 74.21875 29.59375 74.21875 
Q 40.828125 74.21875 47.359375 69.109375 
Q 53.90625 64.015625 53.90625 55.328125 
Q 53.90625 49.265625 50.4375 45.09375 
Q 46.96875 40.921875 40.578125 39.3125 
z
" id="DejaVuSans-51"/>
       </defs>
       <use xlink:href="#DejaVuSans-49"/>
       <use x="63.623047" xlink:href="#DejaVuSans-47"/>
       <use x="97.314453" xlink:href="#DejaVuSans-51"/>
       <use x="160.9375" xlink:href="#DejaVuSans-50"/>
      </g>
     </g>
    </g>
    <g id="ytick_7">
     <g id="line2d_9">
      <path d="M 45.989625 205.899939 
" style="fill:none;stroke:#333333;stroke-width:1.5;"/>
      <g>
       <use style="fill:#333333;stroke:#000000;" x="45.989625" xlink:href="#m28e8cf1860" y="205.899939"/>
      </g>
     </g>
     <g id="text_10">
      <!-- 1/64 -->
      <g style="fill:#4d4d4d;" transform="translate(21.278125 208.328189)scale(0.088 -0.088)">
       <use xlink:href="#DejaVuSans-49"/>
       <use x="63.623047" xlink:href="#DejaVuSans-47"/>
       <use x="97.314453" xlink:href="#DejaVuSans-54"/>
       <use x="160.9375" xlink:href="#DejaVuSans-52"/>
      </g>
     </g>
    </g>
    <g id="ytick_8"/>
    <g id="ytick_9"/>
    <g id="ytick_10"/>
    <g id="ytick_11"/>
    <g id="ytick_12"/>
    <g id="ytick_13"/>
    <g id="ytick_14"/>
    <g id="ytick_15"/>
    <g id="ytick_16"/>
    <g id="ytick_17"/>
    <g id="ytick_18"/>
    <g id="ytick_19"/>
    <g id="ytick_20"/>
    <g id="ytick_21"/>
    <g id="ytick_22"/>
    <g id="ytick_23"/>
    <g id="ytick_24"/>
    <g id="ytick_25"/>
    <g id="ytick_26"/>
    <g id="ytick_27"/>
    <g id="ytick_28"/>
    <g id="ytick_29"/>
    <g id="ytick_30"/>
    <g id="ytick_31"/>
    <g id="ytick_32"/>
    <g id="ytick_33"/>
    <g id="ytick_34"/>
    <g id="ytick_35"/>
    <g id="ytick_36"/>
    <g id="ytick_37"/>
    <g id="ytick_38"/>
    <g id="ytick_39"/>
    <g id="ytick_40"/>
    <g id="ytick_41"/>
    <g id="ytick_42"/>
    <g id="ytick_43"/>
    <g id="ytick_44"/>
    <g id="ytick_45"/>
    <g id="ytick_46"/>
    <g id="ytick_47"/>
    <g id="ytick_48"/>
    <g id="ytick_49"/>
    <g id="ytick_50"/>
    <g id="ytick_51"/>
    <g id="ytick_52"/>
    <g id="ytick_53"/>
    <g id="ytick_54"/>
    <g id="ytick_55"/>
    <g id="ytick_56"/>
    <g id="ytick_57"/>
    <g id="ytick_58"/>
    <g id="ytick_59"/>
    <g id="ytick_60"/>
    <g id="ytick_61"/>
    <g id="text_11">
     <!-- fold change neutralization titer -->
     <g transform="translate(14.798437 208.778469)rotate(-90)scale(0.1 -0.1)">
      <defs>
       <path d="M 30.609375 48.390625 
Q 23.390625 48.390625 19.1875 42.75 
Q 14.984375 37.109375 14.984375 27.296875 
Q 14.984375 17.484375 19.15625 11.84375 
Q 23.34375 6.203125 30.609375 6.203125 
Q 37.796875 6.203125 41.984375 11.859375 
Q 46.1875 17.53125 46.1875 27.296875 
Q 46.1875 37.015625 41.984375 42.703125 
Q 37.796875 48.390625 30.609375 48.390625 
z
M 30.609375 56 
Q 42.328125 56 49.015625 48.375 
Q 55.71875 40.765625 55.71875 27.296875 
Q 55.71875 13.875 49.015625 6.21875 
Q 42.328125 -1.421875 30.609375 -1.421875 
Q 18.84375 -1.421875 12.171875 6.21875 
Q 5.515625 13.875 5.515625 27.296875 
Q 5.515625 40.765625 12.171875 48.375 
Q 18.84375 56 30.609375 56 
z
" id="DejaVuSans-111"/>
       <path d="M 9.421875 75.984375 
L 18.40625 75.984375 
L 18.40625 0 
L 9.421875 0 
z
" id="DejaVuSans-108"/>
       <path d="M 45.40625 46.390625 
L 45.40625 75.984375 
L 54.390625 75.984375 
L 54.390625 0 
L 45.40625 0 
L 45.40625 8.203125 
Q 42.578125 3.328125 38.25 0.953125 
Q 33.9375 -1.421875 27.875 -1.421875 
Q 17.96875 -1.421875 11.734375 6.484375 
Q 5.515625 14.40625 5.515625 27.296875 
Q 5.515625 40.1875 11.734375 48.09375 
Q 17.96875 56 27.875 56 
Q 33.9375 56 38.25 53.625 
Q 42.578125 51.265625 45.40625 46.390625 
z
M 14.796875 27.296875 
Q 14.796875 17.390625 18.875 11.75 
Q 22.953125 6.109375 30.078125 6.109375 
Q 37.203125 6.109375 41.296875 11.75 
Q 45.40625 17.390625 45.40625 27.296875 
Q 45.40625 37.203125 41.296875 42.84375 
Q 37.203125 48.484375 30.078125 48.484375 
Q 22.953125 48.484375 18.875 42.84375 
Q 14.796875 37.203125 14.796875 27.296875 
z
" id="DejaVuSans-100"/>
       <path d="M 48.78125 52.59375 
L 48.78125 44.1875 
Q 44.96875 46.296875 41.140625 47.34375 
Q 37.3125 48.390625 33.40625 48.390625 
Q 24.65625 48.390625 19.8125 42.84375 
Q 14.984375 37.3125 14.984375 27.296875 
Q 14.984375 17.28125 19.8125 11.734375 
Q 24.65625 6.203125 33.40625 6.203125 
Q 37.3125 6.203125 41.140625 7.25 
Q 44.96875 8.296875 48.78125 10.40625 
L 48.78125 2.09375 
Q 45.015625 0.34375 40.984375 -0.53125 
Q 36.96875 -1.421875 32.421875 -1.421875 
Q 20.0625 -1.421875 12.78125 6.34375 
Q 5.515625 14.109375 5.515625 27.296875 
Q 5.515625 40.671875 12.859375 48.328125 
Q 20.21875 56 33.015625 56 
Q 37.15625 56 41.109375 55.140625 
Q 45.0625 54.296875 48.78125 52.59375 
z
" id="DejaVuSans-99"/>
       <path d="M 54.890625 33.015625 
L 54.890625 0 
L 45.90625 0 
L 45.90625 32.71875 
Q 45.90625 40.484375 42.875 44.328125 
Q 39.84375 48.1875 33.796875 48.1875 
Q 26.515625 48.1875 22.3125 43.546875 
Q 18.109375 38.921875 18.109375 30.90625 
L 18.109375 0 
L 9.078125 0 
L 9.078125 75.984375 
L 18.109375 75.984375 
L 18.109375 46.1875 
Q 21.34375 51.125 25.703125 53.5625 
Q 30.078125 56 35.796875 56 
Q 45.21875 56 50.046875 50.171875 
Q 54.890625 44.34375 54.890625 33.015625 
z
" id="DejaVuSans-104"/>
       <path d="M 45.40625 27.984375 
Q 45.40625 37.75 41.375 43.109375 
Q 37.359375 48.484375 30.078125 48.484375 
Q 22.859375 48.484375 18.828125 43.109375 
Q 14.796875 37.75 14.796875 27.984375 
Q 14.796875 18.265625 18.828125 12.890625 
Q 22.859375 7.515625 30.078125 7.515625 
Q 37.359375 7.515625 41.375 12.890625 
Q 45.40625 18.265625 45.40625 27.984375 
z
M 54.390625 6.78125 
Q 54.390625 -7.171875 48.1875 -13.984375 
Q 42 -20.796875 29.203125 -20.796875 
Q 24.46875 -20.796875 20.265625 -20.09375 
Q 16.0625 -19.390625 12.109375 -17.921875 
L 12.109375 -9.1875 
Q 16.0625 -11.328125 19.921875 -12.34375 
Q 23.78125 -13.375 27.78125 -13.375 
Q 36.625 -13.375 41.015625 -8.765625 
Q 45.40625 -4.15625 45.40625 5.171875 
L 45.40625 9.625 
Q 42.625 4.78125 38.28125 2.390625 
Q 33.9375 0 27.875 0 
Q 17.828125 0 11.671875 7.65625 
Q 5.515625 15.328125 5.515625 27.984375 
Q 5.515625 40.671875 11.671875 48.328125 
Q 17.828125 56 27.875 56 
Q 33.9375 56 38.28125 53.609375 
Q 42.625 51.21875 45.40625 46.390625 
L 45.40625 54.6875 
L 54.390625 54.6875 
z
" id="DejaVuSans-103"/>
       <path d="M 5.515625 54.6875 
L 48.1875 54.6875 
L 48.1875 46.484375 
L 14.40625 7.171875 
L 48.1875 7.171875 
L 48.1875 0 
L 4.296875 0 
L 4.296875 8.203125 
L 38.09375 47.515625 
L 5.515625 47.515625 
z
" id="DejaVuSans-122"/>
      </defs>
      <use xlink:href="#DejaVuSans-102"/>
      <use x="35.205078" xlink:href="#DejaVuSans-111"/>
      <use x="96.386719" xlink:href="#DejaVuSans-108"/>
      <use x="124.169922" xlink:href="#DejaVuSans-100"/>
      <use x="187.646484" xlink:href="#DejaVuSans-32"/>
      <use x="219.433594" xlink:href="#DejaVuSans-99"/>
      <use x="274.414062" xlink:href="#DejaVuSans-104"/>
      <use x="337.792969" xlink:href="#DejaVuSans-97"/>
      <use x="399.072266" xlink:href="#DejaVuSans-110"/>
      <use x="462.451172" xlink:href="#DejaVuSans-103"/>
      <use x="525.927734" xlink:href="#DejaVuSans-101"/>
      <use x="587.451172" xlink:href="#DejaVuSans-32"/>
      <use x="619.238281" xlink:href="#DejaVuSans-110"/>
      <use x="682.617188" xlink:href="#DejaVuSans-101"/>
      <use x="744.140625" xlink:href="#DejaVuSans-117"/>
      <use x="807.519531" xlink:href="#DejaVuSans-116"/>
      <use x="846.728516" xlink:href="#DejaVuSans-114"/>
      <use x="887.841797" xlink:href="#DejaVuSans-97"/>
      <use x="949.121094" xlink:href="#DejaVuSans-108"/>
      <use x="976.904297" xlink:href="#DejaVuSans-105"/>
      <use x="1004.6875" xlink:href="#DejaVuSans-122"/>
      <use x="1057.177734" xlink:href="#DejaVuSans-97"/>
      <use x="1118.457031" xlink:href="#DejaVuSans-116"/>
      <use x="1157.666016" xlink:href="#DejaVuSans-105"/>
      <use x="1185.449219" xlink:href="#DejaVuSans-111"/>
      <use x="1246.630859" xlink:href="#DejaVuSans-110"/>
      <use x="1310.009766" xlink:href="#DejaVuSans-32"/>
      <use x="1341.796875" xlink:href="#DejaVuSans-116"/>
      <use x="1381.005859" xlink:href="#DejaVuSans-105"/>
      <use x="1408.789062" xlink:href="#DejaVuSans-116"/>
      <use x="1447.998047" xlink:href="#DejaVuSans-101"/>
      <use x="1509.521484" xlink:href="#DejaVuSans-114"/>
     </g>
    </g>
   </g>
   <g id="LineCollection_1">
    <path clip-path="url(#p567107f6ec)" d="M 79.469625 90.949656 
L 79.469625 64.784366 
" style="fill:none;stroke:#333333;stroke-width:0.886227;"/>
    <path clip-path="url(#p567107f6ec)" d="M 79.469625 146.424044 
L 79.469625 202.816 
" style="fill:none;stroke:#333333;stroke-width:0.886227;"/>
   </g>
   <g id="PolyCollection_1">
    <defs>
     <path d="M 62.729625 -155.796406 
L 62.729625 -155.796406 
L 96.209625 -155.796406 
L 96.209625 -100.322018 
L 62.729625 -100.322018 
z
" id="mc87819f892" style="stroke:#333333;stroke-width:0.886227;"/>
    </defs>
    <g clip-path="url(#p567107f6ec)">
     <use style="fill:#dcdcdc;stroke:#333333;stroke-width:0.886227;" x="0" xlink:href="#mc87819f892" y="246.746062"/>
    </g>
   </g>
   <g id="LineCollection_2">
    <path clip-path="url(#p567107f6ec)" d="M 62.729625 116.087903 
L 96.209625 116.087903 
" style="fill:none;stroke:#333333;stroke-width:1.772454;"/>
   </g>
   <g id="LineCollection_3">
    <path clip-path="url(#p567107f6ec)" d="M 135.269625 98.252059 
L 135.269625 61.696 
" style="fill:none;stroke:#333333;stroke-width:0.886227;"/>
    <path clip-path="url(#p567107f6ec)" d="M 135.269625 153.403128 
L 135.269625 186.140325 
" style="fill:none;stroke:#333333;stroke-width:0.886227;"/>
   </g>
   <g id="PolyCollection_2">
    <defs>
     <path d="M 118.529625 -148.494004 
L 118.529625 -148.494004 
L 152.009625 -148.494004 
L 152.009625 -93.342934 
L 118.529625 -93.342934 
z
" id="mfcd94484d1" style="stroke:#333333;stroke-width:0.886227;"/>
    </defs>
    <g clip-path="url(#p567107f6ec)">
     <use style="fill:#dcdcdc;stroke:#333333;stroke-width:0.886227;" x="0" xlink:href="#mfcd94484d1" y="246.746062"/>
    </g>
   </g>
   <g id="LineCollection_4">
    <path clip-path="url(#p567107f6ec)" d="M 118.529625 129.519475 
L 152.009625 129.519475 
" style="fill:none;stroke:#333333;stroke-width:1.772454;"/>
   </g>
   <g id="PathCollection_1">
    <path clip-path="url(#p567107f6ec)" d="M 133.450309 149.253164 
L 131.456298 153.241186 
L 135.444319 153.241186 
z
" style="fill-opacity:0.501961;stroke:#000000;stroke-opacity:0.501961;stroke-width:0.886227;"/>
    <path clip-path="url(#p567107f6ec)" d="M 70.090824 151.409118 
L 68.096813 155.397139 
L 72.084834 155.397139 
z
" style="fill-opacity:0.501961;stroke:#000000;stroke-opacity:0.501961;stroke-width:0.886227;"/>
    <path clip-path="url(#p567107f6ec)" d="M 137.985242 151.409118 
L 135.991231 155.397139 
L 139.979253 155.397139 
z
" style="fill-opacity:0.501961;stroke:#000000;stroke-opacity:0.501961;stroke-width:0.886227;"/>
   </g>
   <g id="PathCollection_2">
    <path clip-path="url(#p567107f6ec)" d="M 92.499758 148.418055 
C 93.028575 148.418055 93.535805 148.207953 93.909736 147.834022 
C 94.283667 147.460092 94.493768 146.952862 94.493768 146.424044 
C 94.493768 145.895226 94.283667 145.387996 93.909736 145.014066 
C 93.535805 144.640135 93.028575 144.430033 92.499758 144.430033 
C 91.97094 144.430033 91.46371 144.640135 91.089779 145.014066 
C 90.715848 145.387996 90.505747 145.895226 90.505747 146.424044 
C 90.505747 146.952862 90.715848 147.460092 91.089779 147.834022 
C 91.46371 148.207953 91.97094 148.418055 92.499758 148.418055 
z
" style="fill-opacity:0.501961;stroke:#000000;stroke-opacity:0.501961;stroke-width:0.886227;"/>
    <path clip-path="url(#p567107f6ec)" d="M 136.587405 166.675839 
C 137.116223 166.675839 137.623453 166.465738 137.997383 166.091807 
C 138.371314 165.717876 138.581415 165.210646 138.581415 164.681829 
C 138.581415 164.153011 138.371314 163.645781 137.997383 163.27185 
C 137.623453 162.89792 137.116223 162.687818 136.587405 162.687818 
C 136.058587 162.687818 135.551357 162.89792 135.177426 163.27185 
C 134.803496 163.645781 134.593394 164.153011 134.593394 164.681829 
C 134.593394 165.210646 134.803496 165.717876 135.177426 166.091807 
C 135.551357 166.465738 136.058587 166.675839 136.587405 166.675839 
z
" style="fill-opacity:0.501961;stroke:#000000;stroke-opacity:0.501961;stroke-width:0.886227;"/>
    <path clip-path="url(#p567107f6ec)" d="M 92.657519 118.081913 
C 93.186336 118.081913 93.693566 117.871812 94.067497 117.497881 
C 94.441428 117.123951 94.651529 116.616721 94.651529 116.087903 
C 94.651529 115.559085 94.441428 115.051855 94.067497 114.677924 
C 93.693566 114.303994 93.186336 114.093892 92.657519 114.093892 
C 92.128701 114.093892 91.621471 114.303994 91.24754 114.677924 
C 90.87361 115.051855 90.663508 115.559085 90.663508 116.087903 
C 90.663508 116.616721 90.87361 117.123951 91.24754 117.497881 
C 91.621471 117.871812 92.128701 118.081913 92.657519 118.081913 
z
" style="fill-opacity:0.501961;stroke:#000000;stroke-opacity:0.501961;stroke-width:0.886227;"/>
    <path clip-path="url(#p567107f6ec)" d="M 141.262991 116.97875 
C 141.791809 116.97875 142.299039 116.768649 142.67297 116.394718 
C 143.0469 116.020787 143.257002 115.513557 143.257002 114.98474 
C 143.257002 114.455922 143.0469 113.948692 142.67297 113.574761 
C 142.299039 113.200831 141.791809 112.990729 141.262991 112.990729 
C 140.734173 112.990729 140.226943 113.200831 139.853013 113.574761 
C 139.479082 113.948692 139.268981 114.455922 139.268981 114.98474 
C 139.268981 115.513557 139.479082 116.020787 139.853013 116.394718 
C 140.226943 116.768649 140.734173 116.97875 141.262991 116.97875 
z
" style="fill-opacity:0.501961;stroke:#000000;stroke-opacity:0.501961;stroke-width:0.886227;"/>
    <path clip-path="url(#p567107f6ec)" d="M 84.986259 90.447803 
C 85.515077 90.447803 86.022307 90.237701 86.396238 89.863771 
C 86.770168 89.48984 86.98027 88.98261 86.98027 88.453792 
C 86.98027 87.924974 86.770168 87.417744 86.396238 87.043814 
C 86.022307 86.669883 85.515077 86.459782 84.986259 86.459782 
C 84.457441 86.459782 83.950211 86.669883 83.576281 87.043814 
C 83.20235 87.417744 82.992249 87.924974 82.992249 88.453792 
C 82.992249 88.98261 83.20235 89.48984 83.576281 89.863771 
C 83.950211 90.237701 84.457441 90.447803 84.986259 90.447803 
z
" style="fill-opacity:0.501961;stroke:#000000;stroke-opacity:0.501961;stroke-width:0.886227;"/>
    <path clip-path="url(#p567107f6ec)" d="M 127.348522 98.280347 
C 127.87734 98.280347 128.38457 98.070246 128.7585 97.696315 
C 129.132431 97.322384 129.342533 96.815154 129.342533 96.286337 
C 129.342533 95.757519 129.132431 95.250289 128.7585 94.876358 
C 128.38457 94.502428 127.87734 94.292326 127.348522 94.292326 
C 126.819704 94.292326 126.312474 94.502428 125.938544 94.876358 
C 125.564613 95.250289 125.354511 95.757519 125.354511 96.286337 
C 125.354511 96.815154 125.564613 97.322384 125.938544 97.696315 
C 126.312474 98.070246 126.819704 98.280347 127.348522 98.280347 
z
" style="fill-opacity:0.501961;stroke:#000000;stroke-opacity:0.501961;stroke-width:0.886227;"/>
    <path clip-path="url(#p567107f6ec)" d="M 92.757682 155.300531 
C 93.2865 155.300531 93.79373 155.090429 94.167661 154.716499 
C 94.541591 154.342568 94.751693 153.835338 94.751693 153.30652 
C 94.751693 152.777702 94.541591 152.270472 94.167661 151.896542 
C 93.79373 151.522611 93.2865 151.31251 92.757682 151.31251 
C 92.228865 151.31251 91.721635 151.522611 91.347704 151.896542 
C 90.973773 152.270472 90.763672 152.777702 90.763672 153.30652 
C 90.763672 153.835338 90.973773 154.342568 91.347704 154.716499 
C 91.721635 155.090429 92.228865 155.300531 92.757682 155.300531 
z
" style="fill-opacity:0.501961;stroke:#000000;stroke-opacity:0.501961;stroke-width:0.886227;"/>
    <path clip-path="url(#p567107f6ec)" d="M 121.493449 160.071262 
C 122.022267 160.071262 122.529497 159.861161 122.903428 159.48723 
C 123.277358 159.1133 123.48746 158.60607 123.48746 158.077252 
C 123.48746 157.548434 123.277358 157.041204 122.903428 156.667274 
C 122.529497 156.293343 122.022267 156.083241 121.493449 156.083241 
C 120.964631 156.083241 120.457401 156.293343 120.083471 156.667274 
C 119.70954 157.041204 119.499439 157.548434 119.499439 158.077252 
C 119.499439 158.60607 119.70954 159.1133 120.083471 159.48723 
C 120.457401 159.861161 120.964631 160.071262 121.493449 160.071262 
z
" style="fill-opacity:0.501961;stroke:#000000;stroke-opacity:0.501961;stroke-width:0.886227;"/>
    <path clip-path="url(#p567107f6ec)" d="M 72.577833 148.334477 
C 73.106651 148.334477 73.613881 148.124376 73.987811 147.750445 
C 74.361742 147.376514 74.571843 146.869285 74.571843 146.340467 
C 74.571843 145.811649 74.361742 145.304419 73.987811 144.930488 
C 73.613881 144.556558 73.106651 144.346456 72.577833 144.346456 
C 72.049015 144.346456 71.541785 144.556558 71.167855 144.930488 
C 70.793924 145.304419 70.583822 145.811649 70.583822 146.340467 
C 70.583822 146.869285 70.793924 147.376514 71.167855 147.750445 
C 71.541785 148.124376 72.049015 148.334477 72.577833 148.334477 
z
" style="fill-opacity:0.501961;stroke:#000000;stroke-opacity:0.501961;stroke-width:0.886227;"/>
    <path clip-path="url(#p567107f6ec)" d="M 87.264409 110.585597 
C 87.793226 110.585597 88.300456 110.375495 88.674387 110.001565 
C 89.048318 109.627634 89.258419 109.120404 89.258419 108.591586 
C 89.258419 108.062769 89.048318 107.555539 88.674387 107.181608 
C 88.300456 106.807677 87.793226 106.597576 87.264409 106.597576 
C 86.735591 106.597576 86.228361 106.807677 85.85443 107.181608 
C 85.480499 107.555539 85.270398 108.062769 85.270398 108.591586 
C 85.270398 109.120404 85.480499 109.627634 85.85443 110.001565 
C 86.228361 110.375495 86.735591 110.585597 87.264409 110.585597 
z
" style="fill-opacity:0.501961;stroke:#000000;stroke-opacity:0.501961;stroke-width:0.886227;"/>
    <path clip-path="url(#p567107f6ec)" d="M 126.835039 100.246069 
C 127.363856 100.246069 127.871086 100.035968 128.245017 99.662037 
C 128.618948 99.288106 128.829049 98.780876 128.829049 98.252059 
C 128.829049 97.723241 128.618948 97.216011 128.245017 96.84208 
C 127.871086 96.46815 127.363856 96.258048 126.835039 96.258048 
C 126.306221 96.258048 125.798991 96.46815 125.42506 96.84208 
C 125.05113 97.216011 124.841028 97.723241 124.841028 98.252059 
C 124.841028 98.780876 125.05113 99.288106 125.42506 99.662037 
C 125.798991 100.035968 126.306221 100.246069 126.835039 100.246069 
z
" style="fill-opacity:0.501961;stroke:#000000;stroke-opacity:0.501961;stroke-width:0.886227;"/>
    <path clip-path="url(#p567107f6ec)" d="M 89.597136 204.810011 
C 90.125954 204.810011 90.633184 204.599909 91.007115 204.225978 
C 91.381045 203.852048 91.591147 203.344818 91.591147 202.816 
C 91.591147 202.287182 91.381045 201.779952 91.007115 201.406022 
C 90.633184 201.032091 90.125954 200.821989 89.597136 200.821989 
C 89.068318 200.821989 88.561089 201.032091 88.187158 201.406022 
C 87.813227 201.779952 87.603126 202.287182 87.603126 202.816 
C 87.603126 203.344818 87.813227 203.852048 88.187158 204.225978 
C 88.561089 204.599909 89.068318 204.810011 89.597136 204.810011 
z
" style="fill-opacity:0.501961;stroke:#000000;stroke-opacity:0.501961;stroke-width:0.886227;"/>
    <path clip-path="url(#p567107f6ec)" d="M 148.756504 188.134336 
C 149.285322 188.134336 149.792552 187.924235 150.166482 187.550304 
C 150.540413 187.176373 150.750514 186.669143 150.750514 186.140325 
C 150.750514 185.611508 150.540413 185.104278 150.166482 184.730347 
C 149.792552 184.356416 149.285322 184.146315 148.756504 184.146315 
C 148.227686 184.146315 147.720456 184.356416 147.346525 184.730347 
C 146.972595 185.104278 146.762493 185.611508 146.762493 186.140325 
C 146.762493 186.669143 146.972595 187.176373 147.346525 187.550304 
C 147.720456 187.924235 148.227686 188.134336 148.756504 188.134336 
z
" style="fill-opacity:0.501961;stroke:#000000;stroke-opacity:0.501961;stroke-width:0.886227;"/>
    <path clip-path="url(#p567107f6ec)" d="M 65.770337 111.792609 
C 66.299155 111.792609 66.806385 111.582508 67.180316 111.208577 
C 67.554246 110.834646 67.764348 110.327416 67.764348 109.798598 
C 67.764348 109.269781 67.554246 108.762551 67.180316 108.38862 
C 66.806385 108.014689 66.299155 107.804588 65.770337 107.804588 
C 65.241519 107.804588 64.734289 108.014689 64.360359 108.38862 
C 63.986428 108.762551 63.776327 109.269781 63.776327 109.798598 
C 63.776327 110.327416 63.986428 110.834646 64.360359 111.208577 
C 64.734289 111.582508 65.241519 111.792609 65.770337 111.792609 
z
" style="fill-opacity:0.501961;stroke:#000000;stroke-opacity:0.501961;stroke-width:0.886227;"/>
    <path clip-path="url(#p567107f6ec)" d="M 132.104964 131.513486 
C 132.633782 131.513486 133.141012 131.303384 133.514942 130.929454 
C 133.888873 130.555523 134.098974 130.048293 134.098974 129.519475 
C 134.098974 128.990658 133.888873 128.483428 133.514942 128.109497 
C 133.141012 127.735566 132.633782 127.525465 132.104964 127.525465 
C 131.576146 127.525465 131.068916 127.735566 130.694985 128.109497 
C 130.321055 128.483428 130.110953 128.990658 130.110953 129.519475 
C 130.110953 130.048293 130.321055 130.555523 130.694985 130.929454 
C 131.068916 131.303384 131.576146 131.513486 132.104964 131.513486 
z
" style="fill-opacity:0.501961;stroke:#000000;stroke-opacity:0.501961;stroke-width:0.886227;"/>
    <path clip-path="url(#p567107f6ec)" d="M 66.751691 66.778377 
C 67.280508 66.778377 67.787738 66.568275 68.161669 66.194345 
C 68.5356 65.820414 68.745701 65.313184 68.745701 64.784366 
C 68.745701 64.255549 68.5356 63.748319 68.161669 63.374388 
C 67.787738 63.000457 67.280508 62.790356 66.751691 62.790356 
C 66.222873 62.790356 65.715643 63.000457 65.341712 63.374388 
C 64.967782 63.748319 64.75768 64.255549 64.75768 64.784366 
C 64.75768 65.313184 64.967782 65.820414 65.341712 66.194345 
C 65.715643 66.568275 66.222873 66.778377 66.751691 66.778377 
z
" style="fill-opacity:0.501961;stroke:#000000;stroke-opacity:0.501961;stroke-width:0.886227;"/>
    <path clip-path="url(#p567107f6ec)" d="M 148.010243 63.690011 
C 148.539061 63.690011 149.046291 63.479909 149.420221 63.105978 
C 149.794152 62.732048 150.004253 62.224818 150.004253 61.696 
C 150.004253 61.167182 149.794152 60.659952 149.420221 60.286022 
C 149.046291 59.912091 148.539061 59.701989 148.010243 59.701989 
C 147.481425 59.701989 146.974195 59.912091 146.600264 60.286022 
C 146.226334 60.659952 146.016232 61.167182 146.016232 61.696 
C 146.016232 62.224818 146.226334 62.732048 146.600264 63.105978 
C 146.974195 63.479909 147.481425 63.690011 148.010243 63.690011 
z
" style="fill-opacity:0.501961;stroke:#000000;stroke-opacity:0.501961;stroke-width:0.886227;"/>
    <path clip-path="url(#p567107f6ec)" d="M 77.688116 119.357323 
C 78.216934 119.357323 78.724164 119.147221 79.098095 118.773291 
C 79.472025 118.39936 79.682127 117.89213 79.682127 117.363312 
C 79.682127 116.834494 79.472025 116.327264 79.098095 115.953334 
C 78.724164 115.579403 78.216934 115.369302 77.688116 115.369302 
C 77.159299 115.369302 76.652069 115.579403 76.278138 115.953334 
C 75.904207 116.327264 75.694106 116.834494 75.694106 117.363312 
C 75.694106 117.89213 75.904207 118.39936 76.278138 118.773291 
C 76.652069 119.147221 77.159299 119.357323 77.688116 119.357323 
z
" style="fill-opacity:0.501961;stroke:#000000;stroke-opacity:0.501961;stroke-width:0.886227;"/>
    <path clip-path="url(#p567107f6ec)" d="M 147.796092 139.809798 
C 148.32491 139.809798 148.83214 139.599697 149.20607 139.225766 
C 149.580001 138.851835 149.790102 138.344605 149.790102 137.815787 
C 149.790102 137.28697 149.580001 136.77974 149.20607 136.405809 
C 148.83214 136.031878 148.32491 135.821777 147.796092 135.821777 
C 147.267274 135.821777 146.760044 136.031878 146.386113 136.405809 
C 146.012183 136.77974 145.802081 137.28697 145.802081 137.815787 
C 145.802081 138.344605 146.012183 138.851835 146.386113 139.225766 
C 146.760044 139.599697 147.267274 139.809798 147.796092 139.809798 
z
" style="fill-opacity:0.501961;stroke:#000000;stroke-opacity:0.501961;stroke-width:0.886227;"/>
    <path clip-path="url(#p567107f6ec)" d="M 87.457562 88.627419 
C 87.98638 88.627419 88.49361 88.417317 88.86754 88.043387 
C 89.241471 87.669456 89.451573 87.162226 89.451573 86.633408 
C 89.451573 86.10459 89.241471 85.59736 88.86754 85.22343 
C 88.49361 84.849499 87.98638 84.639398 87.457562 84.639398 
C 86.928744 84.639398 86.421514 84.849499 86.047584 85.22343 
C 85.673653 85.59736 85.463551 86.10459 85.463551 86.633408 
C 85.463551 87.162226 85.673653 87.669456 86.047584 88.043387 
C 86.421514 88.417317 86.928744 88.627419 87.457562 88.627419 
z
" style="fill-opacity:0.501961;stroke:#000000;stroke-opacity:0.501961;stroke-width:0.886227;"/>
    <path clip-path="url(#p567107f6ec)" d="M 145.489096 81.854841 
C 146.017914 81.854841 146.525144 81.644739 146.899075 81.270809 
C 147.273005 80.896878 147.483107 80.389648 147.483107 79.86083 
C 147.483107 79.332012 147.273005 78.824782 146.899075 78.450852 
C 146.525144 78.076921 146.017914 77.86682 145.489096 77.86682 
C 144.960279 77.86682 144.453049 78.076921 144.079118 78.450852 
C 143.705187 78.824782 143.495086 79.332012 143.495086 79.86083 
C 143.495086 80.389648 143.705187 80.896878 144.079118 81.270809 
C 144.453049 81.644739 144.960279 81.854841 145.489096 81.854841 
z
" style="fill-opacity:0.501961;stroke:#000000;stroke-opacity:0.501961;stroke-width:0.886227;"/>
    <path clip-path="url(#p567107f6ec)" d="M 70.35094 92.943667 
C 70.879758 92.943667 71.386988 92.733565 71.760919 92.359635 
C 72.134849 91.985704 72.344951 91.478474 72.344951 90.949656 
C 72.344951 90.420839 72.134849 89.913609 71.760919 89.539678 
C 71.386988 89.165747 70.879758 88.955646 70.35094 88.955646 
C 69.822122 88.955646 69.314892 89.165747 68.940962 89.539678 
C 68.567031 89.913609 68.35693 90.420839 68.35693 90.949656 
C 68.35693 91.478474 68.567031 91.985704 68.940962 92.359635 
C 69.314892 92.733565 69.822122 92.943667 70.35094 92.943667 
z
" style="fill-opacity:0.501961;stroke:#000000;stroke-opacity:0.501961;stroke-width:0.886227;"/>
    <path clip-path="url(#p567107f6ec)" d="M 123.410691 101.631055 
C 123.939508 101.631055 124.446738 101.420954 124.820669 101.047023 
C 125.1946 100.673093 125.404701 100.165863 125.404701 99.637045 
C 125.404701 99.108227 125.1946 98.600997 124.820669 98.227066 
C 124.446738 97.853136 123.939508 97.643034 123.410691 97.643034 
C 122.881873 97.643034 122.374643 97.853136 122.000712 98.227066 
C 121.626782 98.600997 121.41668 99.108227 121.41668 99.637045 
C 121.41668 100.165863 121.626782 100.673093 122.000712 101.047023 
C 122.374643 101.420954 122.881873 101.631055 123.410691 101.631055 
z
" style="fill-opacity:0.501961;stroke:#000000;stroke-opacity:0.501961;stroke-width:0.886227;"/>
   </g>
   <g id="patch_3">
    <path d="M 45.989625 209.872 
L 45.989625 54.64 
" style="fill:none;stroke:#000000;stroke-linecap:square;stroke-linejoin:miter;"/>
   </g>
   <g id="patch_4">
    <path d="M 45.989625 209.872 
L 168.749625 209.872 
" style="fill:none;stroke:#000000;stroke-linecap:square;stroke-linejoin:miter;"/>
   </g>
   <g id="patch_5">
    <path d="M 31.628812 47.44 
L 179.150438 47.44 
L 179.150438 7.2 
L 31.628812 7.2 
z
" style="fill:#ffffff;"/>
   </g>
   <g id="patch_6">
    <path clip-path="url(#pf3b36a1b48)" d="M 43.828812 35.24 
L 59.668813 35.24 
L 59.668813 19.4 
L 43.828812 19.4 
z
" style="fill:none;"/>
   </g>
   <g id="line2d_10">
    <path clip-path="url(#pf3b36a1b48)" d="M 51.748812 27.32 
" style="fill:none;stroke:#1f77b4;stroke-linecap:square;stroke-opacity:0.5;stroke-width:1.5;"/>
    <defs>
     <path d="M 0 1.994011 
C 0.528818 1.994011 1.036048 1.783909 1.409978 1.409978 
C 1.783909 1.036048 1.994011 0.528818 1.994011 0 
C 1.994011 -0.528818 1.783909 -1.036048 1.409978 -1.409978 
C 1.036048 -1.783909 0.528818 -1.994011 0 -1.994011 
C -0.528818 -1.994011 -1.036048 -1.783909 -1.409978 -1.409978 
C -1.783909 -1.036048 -1.994011 -0.528818 -1.994011 0 
C -1.994011 0.528818 -1.783909 1.036048 -1.409978 1.409978 
C -1.036048 1.783909 -0.528818 1.994011 0 1.994011 
z
" id="mafc4635991" style="stroke:#000000;stroke-opacity:0.5;stroke-width:0.886227;"/>
    </defs>
    <g clip-path="url(#pf3b36a1b48)">
     <use style="fill-opacity:0.5;stroke:#000000;stroke-opacity:0.5;stroke-width:0.886227;" x="51.748812" xlink:href="#mafc4635991" y="27.32"/>
    </g>
   </g>
   <g id="text_12">
    <!-- exact -->
    <g transform="translate(62.668813 29.74825)scale(0.088 -0.088)">
     <defs>
      <path d="M 54.890625 54.6875 
L 35.109375 28.078125 
L 55.90625 0 
L 45.3125 0 
L 29.390625 21.484375 
L 13.484375 0 
L 2.875 0 
L 24.125 28.609375 
L 4.6875 54.6875 
L 15.28125 54.6875 
L 29.78125 35.203125 
L 44.28125 54.6875 
z
" id="DejaVuSans-120"/>
     </defs>
     <use xlink:href="#DejaVuSans-101"/>
     <use x="59.773438" xlink:href="#DejaVuSans-120"/>
     <use x="118.953125" xlink:href="#DejaVuSans-97"/>
     <use x="180.232422" xlink:href="#DejaVuSans-99"/>
     <use x="235.212891" xlink:href="#DejaVuSans-116"/>
    </g>
   </g>
   <g id="patch_7">
    <path clip-path="url(#p98c2fb9ea4)" d="M 91.819312 35.24 
L 107.659312 35.24 
L 107.659312 19.4 
L 91.819312 19.4 
z
" style="fill:none;"/>
   </g>
   <g id="line2d_11">
    <path clip-path="url(#p98c2fb9ea4)" d="M 99.739312 27.32 
" style="fill:none;stroke:#1f77b4;stroke-linecap:square;stroke-opacity:0.5;stroke-width:1.5;"/>
    <defs>
     <path d="M 0 -1.994011 
L -1.994011 1.994011 
L 1.994011 1.994011 
z
" id="m2d1b7bbdd1" style="stroke:#000000;stroke-linejoin:miter;stroke-opacity:0.5;stroke-width:0.886227;"/>
    </defs>
    <g clip-path="url(#p98c2fb9ea4)">
     <use style="fill-opacity:0.5;stroke:#000000;stroke-linejoin:miter;stroke-opacity:0.5;stroke-width:0.886227;" x="99.739312" xlink:href="#m2d1b7bbdd1" y="27.32"/>
    </g>
   </g>
   <g id="text_13">
    <!-- upper bound -->
    <g transform="translate(110.659312 29.74825)scale(0.088 -0.088)">
     <defs>
      <path d="M 18.109375 8.203125 
L 18.109375 -20.796875 
L 9.078125 -20.796875 
L 9.078125 54.6875 
L 18.109375 54.6875 
L 18.109375 46.390625 
Q 20.953125 51.265625 25.265625 53.625 
Q 29.59375 56 35.59375 56 
Q 45.5625 56 51.78125 48.09375 
Q 58.015625 40.1875 58.015625 27.296875 
Q 58.015625 14.40625 51.78125 6.484375 
Q 45.5625 -1.421875 35.59375 -1.421875 
Q 29.59375 -1.421875 25.265625 0.953125 
Q 20.953125 3.328125 18.109375 8.203125 
z
M 48.6875 27.296875 
Q 48.6875 37.203125 44.609375 42.84375 
Q 40.53125 48.484375 33.40625 48.484375 
Q 26.265625 48.484375 22.1875 42.84375 
Q 18.109375 37.203125 18.109375 27.296875 
Q 18.109375 17.390625 22.1875 11.75 
Q 26.265625 6.109375 33.40625 6.109375 
Q 40.53125 6.109375 44.609375 11.75 
Q 48.6875 17.390625 48.6875 27.296875 
z
" id="DejaVuSans-112"/>
      <path d="M 48.6875 27.296875 
Q 48.6875 37.203125 44.609375 42.84375 
Q 40.53125 48.484375 33.40625 48.484375 
Q 26.265625 48.484375 22.1875 42.84375 
Q 18.109375 37.203125 18.109375 27.296875 
Q 18.109375 17.390625 22.1875 11.75 
Q 26.265625 6.109375 33.40625 6.109375 
Q 40.53125 6.109375 44.609375 11.75 
Q 48.6875 17.390625 48.6875 27.296875 
z
M 18.109375 46.390625 
Q 20.953125 51.265625 25.265625 53.625 
Q 29.59375 56 35.59375 56 
Q 45.5625 56 51.78125 48.09375 
Q 58.015625 40.1875 58.015625 27.296875 
Q 58.015625 14.40625 51.78125 6.484375 
Q 45.5625 -1.421875 35.59375 -1.421875 
Q 29.59375 -1.421875 25.265625 0.953125 
Q 20.953125 3.328125 18.109375 8.203125 
L 18.109375 0 
L 9.078125 0 
L 9.078125 75.984375 
L 18.109375 75.984375 
z
" id="DejaVuSans-98"/>
     </defs>
     <use xlink:href="#DejaVuSans-117"/>
     <use x="63.378906" xlink:href="#DejaVuSans-112"/>
     <use x="126.855469" xlink:href="#DejaVuSans-112"/>
     <use x="190.332031" xlink:href="#DejaVuSans-101"/>
     <use x="251.855469" xlink:href="#DejaVuSans-114"/>
     <use x="292.96875" xlink:href="#DejaVuSans-32"/>
     <use x="324.755859" xlink:href="#DejaVuSans-98"/>
     <use x="388.232422" xlink:href="#DejaVuSans-111"/>
     <use x="449.414062" xlink:href="#DejaVuSans-117"/>
     <use x="512.792969" xlink:href="#DejaVuSans-110"/>
     <use x="576.171875" xlink:href="#DejaVuSans-100"/>
    </g>
   </g>
  </g>
 </g>
 <defs>
  <clipPath id="p567107f6ec">
   <rect height="155.232" width="122.76" x="45.989625" y="54.64"/>
  </clipPath>
  <clipPath id="pf3b36a1b48">
   <path d="M 43.828812 35.24 
L 43.828812 19.4 
L 59.668813 19.4 
L 59.668813 35.24 
"/>
  </clipPath>
  <clipPath id="p98c2fb9ea4">
   <path d="M 91.819312 35.24 
L 91.819312 19.4 
L 107.659312 19.4 
L 107.659312 35.24 
"/>
  </clipPath>
 </defs>
</svg>
