<?xml version="1.0" encoding="utf-8" standalone="no"?>
<!DOCTYPE svg PUBLIC "-//W3C//DTD SVG 1.1//EN"
  "http://www.w3.org/Graphics/SVG/1.1/DTD/svg11.dtd">
<!-- Created with matplotlib (https://matplotlib.org/) -->
<svg height="254.043937pt" version="1.1" viewBox="0 0 427.842938 254.043937" width="427.842938pt" xmlns="http://www.w3.org/2000/svg" xmlns:xlink="http://www.w3.org/1999/xlink">
 <metadata>
  <rdf:RDF xmlns:cc="http://creativecommons.org/ns#" xmlns:dc="http://purl.org/dc/elements/1.1/" xmlns:rdf="http://www.w3.org/1999/02/22-rdf-syntax-ns#">
   <cc:Work>
    <dc:type rdf:resource="http://purl.org/dc/dcmitype/StillImage"/>
    <dc:date>2020-12-11T13:45:22.655335</dc:date>
    <dc:format>image/svg+xml</dc:format>
    <dc:creator>
     <cc:Agent>
      <dc:title>Matplotlib v3.3.2, https://matplotlib.org/</dc:title>
     </cc:Agent>
    </dc:creator>
   </cc:Work>
  </rdf:RDF>
 </metadata>
 <defs>
  <style type="text/css">*{stroke-linecap:butt;stroke-linejoin:round;}</style>
 </defs>
 <g id="figure_1">
  <g id="patch_1">
   <path d="M 0 254.043937 
L 427.842938 254.043937 
L 427.842938 0 
L 0 0 
z
" style="fill:#ffffff;stroke:#ffffff;stroke-linejoin:miter;"/>
  </g>
  <g id="axes_1">
   <g id="patch_2">
    <path d="M 43.992938 103.306 
L 166.182938 103.306 
L 166.182938 21.5 
L 43.992938 21.5 
z
" style="fill:#ffffff;"/>
   </g>
   <g id="matplotlib.axis_1">
    <g id="xtick_1"/>
    <g id="xtick_2"/>
    <g id="xtick_3"/>
    <g id="xtick_4"/>
    <g id="xtick_5"/>
    <g id="xtick_6"/>
    <g id="xtick_7"/>
    <g id="xtick_8"/>
    <g id="xtick_9"/>
   </g>
   <g id="matplotlib.axis_2">
    <g id="ytick_1">
     <g id="line2d_1">
      <path d="M 43.992938 97.664207 
" style="fill:none;stroke:#333333;stroke-width:1.5;"/>
      <defs>
       <path d="M 0 0 
L -2.75 0 
" id="m32d72bdb8a" style="stroke:#000000;"/>
      </defs>
      <g>
       <use style="fill:#333333;stroke:#000000;" x="43.992938" xlink:href="#m32d72bdb8a" y="97.664207"/>
      </g>
     </g>
     <g id="text_1">
      <!-- 10 -->
      <g style="fill:#4d4d4d;" transform="translate(27.844938 100.092457)scale(0.088 -0.088)">
       <defs>
        <path d="M 12.40625 8.296875 
L 28.515625 8.296875 
L 28.515625 63.921875 
L 10.984375 60.40625 
L 10.984375 69.390625 
L 28.421875 72.90625 
L 38.28125 72.90625 
L 38.28125 8.296875 
L 54.390625 8.296875 
L 54.390625 0 
L 12.40625 0 
z
" id="DejaVuSans-49"/>
        <path d="M 31.78125 66.40625 
Q 24.171875 66.40625 20.328125 58.90625 
Q 16.5 51.421875 16.5 36.375 
Q 16.5 21.390625 20.328125 13.890625 
Q 24.171875 6.390625 31.78125 6.390625 
Q 39.453125 6.390625 43.28125 13.890625 
Q 47.125 21.390625 47.125 36.375 
Q 47.125 51.421875 43.28125 58.90625 
Q 39.453125 66.40625 31.78125 66.40625 
z
M 31.78125 74.21875 
Q 44.046875 74.21875 50.515625 64.515625 
Q 56.984375 54.828125 56.984375 36.375 
Q 56.984375 17.96875 50.515625 8.265625 
Q 44.046875 -1.421875 31.78125 -1.421875 
Q 19.53125 -1.421875 13.0625 8.265625 
Q 6.59375 17.96875 6.59375 36.375 
Q 6.59375 54.828125 13.0625 64.515625 
Q 19.53125 74.21875 31.78125 74.21875 
z
" id="DejaVuSans-48"/>
       </defs>
       <use xlink:href="#DejaVuSans-49"/>
       <use x="63.623047" xlink:href="#DejaVuSans-48"/>
      </g>
     </g>
    </g>
    <g id="ytick_2">
     <g id="line2d_2">
      <path d="M 43.992938 76.803688 
" style="fill:none;stroke:#333333;stroke-width:1.5;"/>
      <g>
       <use style="fill:#333333;stroke:#000000;" x="43.992938" xlink:href="#m32d72bdb8a" y="76.803688"/>
      </g>
     </g>
     <g id="text_2">
      <!-- 30 -->
      <g style="fill:#4d4d4d;" transform="translate(27.844938 79.231938)scale(0.088 -0.088)">
       <defs>
        <path d="M 40.578125 39.3125 
Q 47.65625 37.796875 51.625 33 
Q 55.609375 28.21875 55.609375 21.1875 
Q 55.609375 10.40625 48.1875 4.484375 
Q 40.765625 -1.421875 27.09375 -1.421875 
Q 22.515625 -1.421875 17.65625 -0.515625 
Q 12.796875 0.390625 7.625 2.203125 
L 7.625 11.71875 
Q 11.71875 9.328125 16.59375 8.109375 
Q 21.484375 6.890625 26.8125 6.890625 
Q 36.078125 6.890625 40.9375 10.546875 
Q 45.796875 14.203125 45.796875 21.1875 
Q 45.796875 27.640625 41.28125 31.265625 
Q 36.765625 34.90625 28.71875 34.90625 
L 20.21875 34.90625 
L 20.21875 43.015625 
L 29.109375 43.015625 
Q 36.375 43.015625 40.234375 45.921875 
Q 44.09375 48.828125 44.09375 54.296875 
Q 44.09375 59.90625 40.109375 62.90625 
Q 36.140625 65.921875 28.71875 65.921875 
Q 24.65625 65.921875 20.015625 65.03125 
Q 15.375 64.15625 9.8125 62.3125 
L 9.8125 71.09375 
Q 15.4375 72.65625 20.34375 73.4375 
Q 25.25 74.21875 29.59375 74.21875 
Q 40.828125 74.21875 47.359375 69.109375 
Q 53.90625 64.015625 53.90625 55.328125 
Q 53.90625 49.265625 50.4375 45.09375 
Q 46.96875 40.921875 40.578125 39.3125 
z
" id="DejaVuSans-51"/>
       </defs>
       <use xlink:href="#DejaVuSans-51"/>
       <use x="63.623047" xlink:href="#DejaVuSans-48"/>
      </g>
     </g>
    </g>
    <g id="ytick_3">
     <g id="line2d_3">
      <path d="M 43.992938 53.942577 
" style="fill:none;stroke:#333333;stroke-width:1.5;"/>
      <g>
       <use style="fill:#333333;stroke:#000000;" x="43.992938" xlink:href="#m32d72bdb8a" y="53.942577"/>
      </g>
     </g>
     <g id="text_3">
      <!-- 100 -->
      <g style="fill:#4d4d4d;" transform="translate(22.245938 56.370827)scale(0.088 -0.088)">
       <use xlink:href="#DejaVuSans-49"/>
       <use x="63.623047" xlink:href="#DejaVuSans-48"/>
       <use x="127.246094" xlink:href="#DejaVuSans-48"/>
      </g>
     </g>
    </g>
    <g id="ytick_4">
     <g id="line2d_4">
      <path d="M 43.992938 33.082058 
" style="fill:none;stroke:#333333;stroke-width:1.5;"/>
      <g>
       <use style="fill:#333333;stroke:#000000;" x="43.992938" xlink:href="#m32d72bdb8a" y="33.082058"/>
      </g>
     </g>
     <g id="text_4">
      <!-- 300 -->
      <g style="fill:#4d4d4d;" transform="translate(22.245938 35.510308)scale(0.088 -0.088)">
       <use xlink:href="#DejaVuSans-51"/>
       <use x="63.623047" xlink:href="#DejaVuSans-48"/>
       <use x="127.246094" xlink:href="#DejaVuSans-48"/>
      </g>
     </g>
    </g>
    <g id="ytick_5"/>
    <g id="ytick_6"/>
    <g id="ytick_7"/>
    <g id="ytick_8"/>
    <g id="ytick_9"/>
    <g id="ytick_10"/>
    <g id="ytick_11"/>
    <g id="ytick_12"/>
    <g id="ytick_13"/>
    <g id="ytick_14"/>
    <g id="ytick_15"/>
    <g id="ytick_16"/>
    <g id="ytick_17"/>
    <g id="ytick_18"/>
    <g id="ytick_19"/>
    <g id="ytick_20"/>
    <g id="ytick_21"/>
    <g id="ytick_22"/>
    <g id="ytick_23"/>
    <g id="ytick_24"/>
    <g id="ytick_25"/>
    <g id="ytick_26"/>
    <g id="ytick_27"/>
    <g id="ytick_28"/>
    <g id="ytick_29"/>
    <g id="ytick_30"/>
    <g id="ytick_31"/>
    <g id="ytick_32"/>
    <g id="ytick_33"/>
    <g id="ytick_34"/>
    <g id="text_5">
     <!-- neutralization titer (reciprocal IC50) -->
     <g transform="translate(15.558281 210.252609)rotate(-90)scale(0.11 -0.11)">
      <defs>
       <path d="M 54.890625 33.015625 
L 54.890625 0 
L 45.90625 0 
L 45.90625 32.71875 
Q 45.90625 40.484375 42.875 44.328125 
Q 39.84375 48.1875 33.796875 48.1875 
Q 26.515625 48.1875 22.3125 43.546875 
Q 18.109375 38.921875 18.109375 30.90625 
L 18.109375 0 
L 9.078125 0 
L 9.078125 54.6875 
L 18.109375 54.6875 
L 18.109375 46.1875 
Q 21.34375 51.125 25.703125 53.5625 
Q 30.078125 56 35.796875 56 
Q 45.21875 56 50.046875 50.171875 
Q 54.890625 44.34375 54.890625 33.015625 
z
" id="DejaVuSans-110"/>
       <path d="M 56.203125 29.59375 
L 56.203125 25.203125 
L 14.890625 25.203125 
Q 15.484375 15.921875 20.484375 11.0625 
Q 25.484375 6.203125 34.421875 6.203125 
Q 39.59375 6.203125 44.453125 7.46875 
Q 49.3125 8.734375 54.109375 11.28125 
L 54.109375 2.78125 
Q 49.265625 0.734375 44.1875 -0.34375 
Q 39.109375 -1.421875 33.890625 -1.421875 
Q 20.796875 -1.421875 13.15625 6.1875 
Q 5.515625 13.8125 5.515625 26.8125 
Q 5.515625 40.234375 12.765625 48.109375 
Q 20.015625 56 32.328125 56 
Q 43.359375 56 49.78125 48.890625 
Q 56.203125 41.796875 56.203125 29.59375 
z
M 47.21875 32.234375 
Q 47.125 39.59375 43.09375 43.984375 
Q 39.0625 48.390625 32.421875 48.390625 
Q 24.90625 48.390625 20.390625 44.140625 
Q 15.875 39.890625 15.1875 32.171875 
z
" id="DejaVuSans-101"/>
       <path d="M 8.5 21.578125 
L 8.5 54.6875 
L 17.484375 54.6875 
L 17.484375 21.921875 
Q 17.484375 14.15625 20.5 10.265625 
Q 23.53125 6.390625 29.59375 6.390625 
Q 36.859375 6.390625 41.078125 11.03125 
Q 45.3125 15.671875 45.3125 23.6875 
L 45.3125 54.6875 
L 54.296875 54.6875 
L 54.296875 0 
L 45.3125 0 
L 45.3125 8.40625 
Q 42.046875 3.421875 37.71875 1 
Q 33.40625 -1.421875 27.6875 -1.421875 
Q 18.265625 -1.421875 13.375 4.4375 
Q 8.5 10.296875 8.5 21.578125 
z
M 31.109375 56 
z
" id="DejaVuSans-117"/>
       <path d="M 18.3125 70.21875 
L 18.3125 54.6875 
L 36.8125 54.6875 
L 36.8125 47.703125 
L 18.3125 47.703125 
L 18.3125 18.015625 
Q 18.3125 11.328125 20.140625 9.421875 
Q 21.96875 7.515625 27.59375 7.515625 
L 36.8125 7.515625 
L 36.8125 0 
L 27.59375 0 
Q 17.1875 0 13.234375 3.875 
Q 9.28125 7.765625 9.28125 18.015625 
L 9.28125 47.703125 
L 2.6875 47.703125 
L 2.6875 54.6875 
L 9.28125 54.6875 
L 9.28125 70.21875 
z
" id="DejaVuSans-116"/>
       <path d="M 41.109375 46.296875 
Q 39.59375 47.171875 37.8125 47.578125 
Q 36.03125 48 33.890625 48 
Q 26.265625 48 22.1875 43.046875 
Q 18.109375 38.09375 18.109375 28.8125 
L 18.109375 0 
L 9.078125 0 
L 9.078125 54.6875 
L 18.109375 54.6875 
L 18.109375 46.1875 
Q 20.953125 51.171875 25.484375 53.578125 
Q 30.03125 56 36.53125 56 
Q 37.453125 56 38.578125 55.875 
Q 39.703125 55.765625 41.0625 55.515625 
z
" id="DejaVuSans-114"/>
       <path d="M 34.28125 27.484375 
Q 23.390625 27.484375 19.1875 25 
Q 14.984375 22.515625 14.984375 16.5 
Q 14.984375 11.71875 18.140625 8.90625 
Q 21.296875 6.109375 26.703125 6.109375 
Q 34.1875 6.109375 38.703125 11.40625 
Q 43.21875 16.703125 43.21875 25.484375 
L 43.21875 27.484375 
z
M 52.203125 31.203125 
L 52.203125 0 
L 43.21875 0 
L 43.21875 8.296875 
Q 40.140625 3.328125 35.546875 0.953125 
Q 30.953125 -1.421875 24.3125 -1.421875 
Q 15.921875 -1.421875 10.953125 3.296875 
Q 6 8.015625 6 15.921875 
Q 6 25.140625 12.171875 29.828125 
Q 18.359375 34.515625 30.609375 34.515625 
L 43.21875 34.515625 
L 43.21875 35.40625 
Q 43.21875 41.609375 39.140625 45 
Q 35.0625 48.390625 27.6875 48.390625 
Q 23 48.390625 18.546875 47.265625 
Q 14.109375 46.140625 10.015625 43.890625 
L 10.015625 52.203125 
Q 14.9375 54.109375 19.578125 55.046875 
Q 24.21875 56 28.609375 56 
Q 40.484375 56 46.34375 49.84375 
Q 52.203125 43.703125 52.203125 31.203125 
z
" id="DejaVuSans-97"/>
       <path d="M 9.421875 75.984375 
L 18.40625 75.984375 
L 18.40625 0 
L 9.421875 0 
z
" id="DejaVuSans-108"/>
       <path d="M 9.421875 54.6875 
L 18.40625 54.6875 
L 18.40625 0 
L 9.421875 0 
z
M 9.421875 75.984375 
L 18.40625 75.984375 
L 18.40625 64.59375 
L 9.421875 64.59375 
z
" id="DejaVuSans-105"/>
       <path d="M 5.515625 54.6875 
L 48.1875 54.6875 
L 48.1875 46.484375 
L 14.40625 7.171875 
L 48.1875 7.171875 
L 48.1875 0 
L 4.296875 0 
L 4.296875 8.203125 
L 38.09375 47.515625 
L 5.515625 47.515625 
z
" id="DejaVuSans-122"/>
       <path d="M 30.609375 48.390625 
Q 23.390625 48.390625 19.1875 42.75 
Q 14.984375 37.109375 14.984375 27.296875 
Q 14.984375 17.484375 19.15625 11.84375 
Q 23.34375 6.203125 30.609375 6.203125 
Q 37.796875 6.203125 41.984375 11.859375 
Q 46.1875 17.53125 46.1875 27.296875 
Q 46.1875 37.015625 41.984375 42.703125 
Q 37.796875 48.390625 30.609375 48.390625 
z
M 30.609375 56 
Q 42.328125 56 49.015625 48.375 
Q 55.71875 40.765625 55.71875 27.296875 
Q 55.71875 13.875 49.015625 6.21875 
Q 42.328125 -1.421875 30.609375 -1.421875 
Q 18.84375 -1.421875 12.171875 6.21875 
Q 5.515625 13.875 5.515625 27.296875 
Q 5.515625 40.765625 12.171875 48.375 
Q 18.84375 56 30.609375 56 
z
" id="DejaVuSans-111"/>
       <path id="DejaVuSans-32"/>
       <path d="M 31 75.875 
Q 24.46875 64.65625 21.28125 53.65625 
Q 18.109375 42.671875 18.109375 31.390625 
Q 18.109375 20.125 21.3125 9.0625 
Q 24.515625 -2 31 -13.1875 
L 23.1875 -13.1875 
Q 15.875 -1.703125 12.234375 9.375 
Q 8.59375 20.453125 8.59375 31.390625 
Q 8.59375 42.28125 12.203125 53.3125 
Q 15.828125 64.359375 23.1875 75.875 
z
" id="DejaVuSans-40"/>
       <path d="M 48.78125 52.59375 
L 48.78125 44.1875 
Q 44.96875 46.296875 41.140625 47.34375 
Q 37.3125 48.390625 33.40625 48.390625 
Q 24.65625 48.390625 19.8125 42.84375 
Q 14.984375 37.3125 14.984375 27.296875 
Q 14.984375 17.28125 19.8125 11.734375 
Q 24.65625 6.203125 33.40625 6.203125 
Q 37.3125 6.203125 41.140625 7.25 
Q 44.96875 8.296875 48.78125 10.40625 
L 48.78125 2.09375 
Q 45.015625 0.34375 40.984375 -0.53125 
Q 36.96875 -1.421875 32.421875 -1.421875 
Q 20.0625 -1.421875 12.78125 6.34375 
Q 5.515625 14.109375 5.515625 27.296875 
Q 5.515625 40.671875 12.859375 48.328125 
Q 20.21875 56 33.015625 56 
Q 37.15625 56 41.109375 55.140625 
Q 45.0625 54.296875 48.78125 52.59375 
z
" id="DejaVuSans-99"/>
       <path d="M 18.109375 8.203125 
L 18.109375 -20.796875 
L 9.078125 -20.796875 
L 9.078125 54.6875 
L 18.109375 54.6875 
L 18.109375 46.390625 
Q 20.953125 51.265625 25.265625 53.625 
Q 29.59375 56 35.59375 56 
Q 45.5625 56 51.78125 48.09375 
Q 58.015625 40.1875 58.015625 27.296875 
Q 58.015625 14.40625 51.78125 6.484375 
Q 45.5625 -1.421875 35.59375 -1.421875 
Q 29.59375 -1.421875 25.265625 0.953125 
Q 20.953125 3.328125 18.109375 8.203125 
z
M 48.6875 27.296875 
Q 48.6875 37.203125 44.609375 42.84375 
Q 40.53125 48.484375 33.40625 48.484375 
Q 26.265625 48.484375 22.1875 42.84375 
Q 18.109375 37.203125 18.109375 27.296875 
Q 18.109375 17.390625 22.1875 11.75 
Q 26.265625 6.109375 33.40625 6.109375 
Q 40.53125 6.109375 44.609375 11.75 
Q 48.6875 17.390625 48.6875 27.296875 
z
" id="DejaVuSans-112"/>
       <path d="M 9.8125 72.90625 
L 19.671875 72.90625 
L 19.671875 0 
L 9.8125 0 
z
" id="DejaVuSans-73"/>
       <path d="M 64.40625 67.28125 
L 64.40625 56.890625 
Q 59.421875 61.53125 53.78125 63.8125 
Q 48.140625 66.109375 41.796875 66.109375 
Q 29.296875 66.109375 22.65625 58.46875 
Q 16.015625 50.828125 16.015625 36.375 
Q 16.015625 21.96875 22.65625 14.328125 
Q 29.296875 6.6875 41.796875 6.6875 
Q 48.140625 6.6875 53.78125 8.984375 
Q 59.421875 11.28125 64.40625 15.921875 
L 64.40625 5.609375 
Q 59.234375 2.09375 53.4375 0.328125 
Q 47.65625 -1.421875 41.21875 -1.421875 
Q 24.65625 -1.421875 15.125 8.703125 
Q 5.609375 18.84375 5.609375 36.375 
Q 5.609375 53.953125 15.125 64.078125 
Q 24.65625 74.21875 41.21875 74.21875 
Q 47.75 74.21875 53.53125 72.484375 
Q 59.328125 70.75 64.40625 67.28125 
z
" id="DejaVuSans-67"/>
       <path d="M 10.796875 72.90625 
L 49.515625 72.90625 
L 49.515625 64.59375 
L 19.828125 64.59375 
L 19.828125 46.734375 
Q 21.96875 47.46875 24.109375 47.828125 
Q 26.265625 48.1875 28.421875 48.1875 
Q 40.625 48.1875 47.75 41.5 
Q 54.890625 34.8125 54.890625 23.390625 
Q 54.890625 11.625 47.5625 5.09375 
Q 40.234375 -1.421875 26.90625 -1.421875 
Q 22.3125 -1.421875 17.546875 -0.640625 
Q 12.796875 0.140625 7.71875 1.703125 
L 7.71875 11.625 
Q 12.109375 9.234375 16.796875 8.0625 
Q 21.484375 6.890625 26.703125 6.890625 
Q 35.15625 6.890625 40.078125 11.328125 
Q 45.015625 15.765625 45.015625 23.390625 
Q 45.015625 31 40.078125 35.4375 
Q 35.15625 39.890625 26.703125 39.890625 
Q 22.75 39.890625 18.8125 39.015625 
Q 14.890625 38.140625 10.796875 36.28125 
z
" id="DejaVuSans-53"/>
       <path d="M 8.015625 75.875 
L 15.828125 75.875 
Q 23.140625 64.359375 26.78125 53.3125 
Q 30.421875 42.28125 30.421875 31.390625 
Q 30.421875 20.453125 26.78125 9.375 
Q 23.140625 -1.703125 15.828125 -13.1875 
L 8.015625 -13.1875 
Q 14.5 -2 17.703125 9.0625 
Q 20.90625 20.125 20.90625 31.390625 
Q 20.90625 42.671875 17.703125 53.65625 
Q 14.5 64.65625 8.015625 75.875 
z
" id="DejaVuSans-41"/>
      </defs>
      <use xlink:href="#DejaVuSans-110"/>
      <use x="63.378906" xlink:href="#DejaVuSans-101"/>
      <use x="124.902344" xlink:href="#DejaVuSans-117"/>
      <use x="188.28125" xlink:href="#DejaVuSans-116"/>
      <use x="227.490234" xlink:href="#DejaVuSans-114"/>
      <use x="268.603516" xlink:href="#DejaVuSans-97"/>
      <use x="329.882812" xlink:href="#DejaVuSans-108"/>
      <use x="357.666016" xlink:href="#DejaVuSans-105"/>
      <use x="385.449219" xlink:href="#DejaVuSans-122"/>
      <use x="437.939453" xlink:href="#DejaVuSans-97"/>
      <use x="499.21875" xlink:href="#DejaVuSans-116"/>
      <use x="538.427734" xlink:href="#DejaVuSans-105"/>
      <use x="566.210938" xlink:href="#DejaVuSans-111"/>
      <use x="627.392578" xlink:href="#DejaVuSans-110"/>
      <use x="690.771484" xlink:href="#DejaVuSans-32"/>
      <use x="722.558594" xlink:href="#DejaVuSans-116"/>
      <use x="761.767578" xlink:href="#DejaVuSans-105"/>
      <use x="789.550781" xlink:href="#DejaVuSans-116"/>
      <use x="828.759766" xlink:href="#DejaVuSans-101"/>
      <use x="890.283203" xlink:href="#DejaVuSans-114"/>
      <use x="931.396484" xlink:href="#DejaVuSans-32"/>
      <use x="963.183594" xlink:href="#DejaVuSans-40"/>
      <use x="1002.197266" xlink:href="#DejaVuSans-114"/>
      <use x="1041.060547" xlink:href="#DejaVuSans-101"/>
      <use x="1102.583984" xlink:href="#DejaVuSans-99"/>
      <use x="1157.564453" xlink:href="#DejaVuSans-105"/>
      <use x="1185.347656" xlink:href="#DejaVuSans-112"/>
      <use x="1248.824219" xlink:href="#DejaVuSans-114"/>
      <use x="1287.6875" xlink:href="#DejaVuSans-111"/>
      <use x="1348.869141" xlink:href="#DejaVuSans-99"/>
      <use x="1403.849609" xlink:href="#DejaVuSans-97"/>
      <use x="1465.128906" xlink:href="#DejaVuSans-108"/>
      <use x="1492.912109" xlink:href="#DejaVuSans-32"/>
      <use x="1524.699219" xlink:href="#DejaVuSans-73"/>
      <use x="1554.191406" xlink:href="#DejaVuSans-67"/>
      <use x="1624.015625" xlink:href="#DejaVuSans-53"/>
      <use x="1687.638672" xlink:href="#DejaVuSans-48"/>
      <use x="1751.261719" xlink:href="#DejaVuSans-41"/>
     </g>
    </g>
   </g>
   <g id="PathCollection_1">
    <path clip-path="url(#p590ffe19c4)" d="M 50.393992 29.35736 
C 50.981568 29.35736 51.545157 29.123914 51.960635 28.708436 
C 52.376114 28.292957 52.60956 27.729368 52.60956 27.141793 
C 52.60956 26.554218 52.376114 25.990629 51.960635 25.57515 
C 51.545157 25.159672 50.981568 24.926226 50.393992 24.926226 
C 49.806417 24.926226 49.242828 25.159672 48.82735 25.57515 
C 48.411871 25.990629 48.178425 26.554218 48.178425 27.141793 
C 48.178425 27.729368 48.411871 28.292957 48.82735 28.708436 
C 49.242828 29.123914 49.806417 29.35736 50.393992 29.35736 
z
" style="stroke:#000000;stroke-width:0.886227;"/>
    <path clip-path="url(#p590ffe19c4)" d="M 75.998212 38.568382 
C 76.585787 38.568382 77.149376 38.334936 77.564855 37.919457 
C 77.980333 37.503979 78.213779 36.94039 78.213779 36.352815 
C 78.213779 35.765239 77.980333 35.20165 77.564855 34.786172 
C 77.149376 34.370693 76.585787 34.137247 75.998212 34.137247 
C 75.410637 34.137247 74.847048 34.370693 74.431569 34.786172 
C 74.016091 35.20165 73.782645 35.765239 73.782645 36.352815 
C 73.782645 36.94039 74.016091 37.503979 74.431569 37.919457 
C 74.847048 38.334936 75.410637 38.568382 75.998212 38.568382 
z
" style="stroke:#000000;stroke-width:0.886227;"/>
    <path clip-path="url(#p590ffe19c4)" d="M 104.802959 60.732254 
C 105.390534 60.732254 105.954123 60.498808 106.369602 60.083329 
C 106.78508 59.667851 107.018526 59.104262 107.018526 58.516687 
C 107.018526 57.929111 106.78508 57.365522 106.369602 56.950044 
C 105.954123 56.534565 105.390534 56.301119 104.802959 56.301119 
C 104.215384 56.301119 103.651795 56.534565 103.236316 56.950044 
C 102.820838 57.365522 102.587392 57.929111 102.587392 58.516687 
C 102.587392 59.104262 102.820838 59.667851 103.236316 60.083329 
C 103.651795 60.498808 104.215384 60.732254 104.802959 60.732254 
z
" style="stroke:#000000;stroke-width:0.886227;"/>
    <path clip-path="url(#p590ffe19c4)" d="M 127.206651 72.389214 
C 127.794226 72.389214 128.357815 72.155768 128.773294 71.74029 
C 129.188772 71.324811 129.422218 70.761222 129.422218 70.173647 
C 129.422218 69.586072 129.188772 69.022483 128.773294 68.607004 
C 128.357815 68.191526 127.794226 67.95808 127.206651 67.95808 
C 126.619076 67.95808 126.055487 68.191526 125.640008 68.607004 
C 125.22453 69.022483 124.991084 69.586072 124.991084 70.173647 
C 124.991084 70.761222 125.22453 71.324811 125.640008 71.74029 
C 126.055487 72.155768 126.619076 72.389214 127.206651 72.389214 
z
" style="stroke:#000000;stroke-width:0.886227;"/>
    <path clip-path="url(#p590ffe19c4)" d="M 152.810871 96.538954 
C 153.398446 96.538954 153.962035 96.305508 154.377513 95.89003 
C 154.792992 95.474551 155.026438 94.910962 155.026438 94.323387 
C 155.026438 93.735812 154.792992 93.172223 154.377513 92.756744 
C 153.962035 92.341266 153.398446 92.10782 152.810871 92.10782 
C 152.223295 92.10782 151.659707 92.341266 151.244228 92.756744 
C 150.82875 93.172223 150.595303 93.735812 150.595303 94.323387 
C 150.595303 94.910962 150.82875 95.474551 151.244228 95.89003 
C 151.659707 96.305508 152.223295 96.538954 152.810871 96.538954 
z
" style="stroke:#000000;stroke-width:0.886227;"/>
   </g>
   <g id="line2d_5">
    <path clip-path="url(#p590ffe19c4)" d="M 50.393992 27.141793 
L 75.998212 36.352815 
L 104.802959 58.516687 
L 127.206651 70.173647 
L 152.810871 94.323387 
" style="fill:none;stroke:#000000;stroke-width:0.886227;"/>
   </g>
   <g id="patch_3">
    <path d="M 43.992938 21.5 
L 166.182938 21.5 
L 166.182938 7.2 
L 43.992938 7.2 
z
" style="fill:none;stroke:#000000;stroke-linejoin:miter;"/>
   </g>
   <g id="patch_4">
    <path d="M 43.992938 103.306 
L 43.992938 21.5 
" style="fill:none;stroke:#000000;stroke-linecap:square;stroke-linejoin:miter;"/>
   </g>
   <g id="patch_5">
    <path d="M 43.992938 103.306 
L 166.182938 103.306 
" style="fill:none;stroke:#000000;stroke-linecap:square;stroke-linejoin:miter;"/>
   </g>
   <g id="PolyCollection_1">
    <path clip-path="url(#p590ffe19c4)" d="M 43.992938 141.385837 
L 43.992938 -4230.777153 
L 79.838845 -4230.777153 
L 79.838845 141.385837 
z
" style="fill:#56b4e9;fill-opacity:0.14902;"/>
   </g>
   <g id="text_6">
    <!-- 1993, 20yr (SD93_4) -->
    <g style="fill:#1a1a1a;" transform="translate(59.469563 16.651062)scale(0.088 -0.088)">
     <defs>
      <path d="M 10.984375 1.515625 
L 10.984375 10.5 
Q 14.703125 8.734375 18.5 7.8125 
Q 22.3125 6.890625 25.984375 6.890625 
Q 35.75 6.890625 40.890625 13.453125 
Q 46.046875 20.015625 46.78125 33.40625 
Q 43.953125 29.203125 39.59375 26.953125 
Q 35.25 24.703125 29.984375 24.703125 
Q 19.046875 24.703125 12.671875 31.3125 
Q 6.296875 37.9375 6.296875 49.421875 
Q 6.296875 60.640625 12.9375 67.421875 
Q 19.578125 74.21875 30.609375 74.21875 
Q 43.265625 74.21875 49.921875 64.515625 
Q 56.59375 54.828125 56.59375 36.375 
Q 56.59375 19.140625 48.40625 8.859375 
Q 40.234375 -1.421875 26.421875 -1.421875 
Q 22.703125 -1.421875 18.890625 -0.6875 
Q 15.09375 0.046875 10.984375 1.515625 
z
M 30.609375 32.421875 
Q 37.25 32.421875 41.125 36.953125 
Q 45.015625 41.5 45.015625 49.421875 
Q 45.015625 57.28125 41.125 61.84375 
Q 37.25 66.40625 30.609375 66.40625 
Q 23.96875 66.40625 20.09375 61.84375 
Q 16.21875 57.28125 16.21875 49.421875 
Q 16.21875 41.5 20.09375 36.953125 
Q 23.96875 32.421875 30.609375 32.421875 
z
" id="DejaVuSans-57"/>
      <path d="M 11.71875 12.40625 
L 22.015625 12.40625 
L 22.015625 4 
L 14.015625 -11.625 
L 7.71875 -11.625 
L 11.71875 4 
z
" id="DejaVuSans-44"/>
      <path d="M 19.1875 8.296875 
L 53.609375 8.296875 
L 53.609375 0 
L 7.328125 0 
L 7.328125 8.296875 
Q 12.9375 14.109375 22.625 23.890625 
Q 32.328125 33.6875 34.8125 36.53125 
Q 39.546875 41.84375 41.421875 45.53125 
Q 43.3125 49.21875 43.3125 52.78125 
Q 43.3125 58.59375 39.234375 62.25 
Q 35.15625 65.921875 28.609375 65.921875 
Q 23.96875 65.921875 18.8125 64.3125 
Q 13.671875 62.703125 7.8125 59.421875 
L 7.8125 69.390625 
Q 13.765625 71.78125 18.9375 73 
Q 24.125 74.21875 28.421875 74.21875 
Q 39.75 74.21875 46.484375 68.546875 
Q 53.21875 62.890625 53.21875 53.421875 
Q 53.21875 48.921875 51.53125 44.890625 
Q 49.859375 40.875 45.40625 35.40625 
Q 44.1875 33.984375 37.640625 27.21875 
Q 31.109375 20.453125 19.1875 8.296875 
z
" id="DejaVuSans-50"/>
      <path d="M 32.171875 -5.078125 
Q 28.375 -14.84375 24.75 -17.8125 
Q 21.140625 -20.796875 15.09375 -20.796875 
L 7.90625 -20.796875 
L 7.90625 -13.28125 
L 13.1875 -13.28125 
Q 16.890625 -13.28125 18.9375 -11.515625 
Q 21 -9.765625 23.484375 -3.21875 
L 25.09375 0.875 
L 2.984375 54.6875 
L 12.5 54.6875 
L 29.59375 11.921875 
L 46.6875 54.6875 
L 56.203125 54.6875 
z
" id="DejaVuSans-121"/>
      <path d="M 53.515625 70.515625 
L 53.515625 60.890625 
Q 47.90625 63.578125 42.921875 64.890625 
Q 37.9375 66.21875 33.296875 66.21875 
Q 25.25 66.21875 20.875 63.09375 
Q 16.5 59.96875 16.5 54.203125 
Q 16.5 49.359375 19.40625 46.890625 
Q 22.3125 44.4375 30.421875 42.921875 
L 36.375 41.703125 
Q 47.40625 39.59375 52.65625 34.296875 
Q 57.90625 29 57.90625 20.125 
Q 57.90625 9.515625 50.796875 4.046875 
Q 43.703125 -1.421875 29.984375 -1.421875 
Q 24.8125 -1.421875 18.96875 -0.25 
Q 13.140625 0.921875 6.890625 3.21875 
L 6.890625 13.375 
Q 12.890625 10.015625 18.65625 8.296875 
Q 24.421875 6.59375 29.984375 6.59375 
Q 38.421875 6.59375 43.015625 9.90625 
Q 47.609375 13.234375 47.609375 19.390625 
Q 47.609375 24.75 44.3125 27.78125 
Q 41.015625 30.8125 33.5 32.328125 
L 27.484375 33.5 
Q 16.453125 35.6875 11.515625 40.375 
Q 6.59375 45.0625 6.59375 53.421875 
Q 6.59375 63.09375 13.40625 68.65625 
Q 20.21875 74.21875 32.171875 74.21875 
Q 37.3125 74.21875 42.625 73.28125 
Q 47.953125 72.359375 53.515625 70.515625 
z
" id="DejaVuSans-83"/>
      <path d="M 19.671875 64.796875 
L 19.671875 8.109375 
L 31.59375 8.109375 
Q 46.6875 8.109375 53.6875 14.9375 
Q 60.6875 21.78125 60.6875 36.53125 
Q 60.6875 51.171875 53.6875 57.984375 
Q 46.6875 64.796875 31.59375 64.796875 
z
M 9.8125 72.90625 
L 30.078125 72.90625 
Q 51.265625 72.90625 61.171875 64.09375 
Q 71.09375 55.28125 71.09375 36.53125 
Q 71.09375 17.671875 61.125 8.828125 
Q 51.171875 0 30.078125 0 
L 9.8125 0 
z
" id="DejaVuSans-68"/>
      <path d="M 50.984375 -16.609375 
L 50.984375 -23.578125 
L -0.984375 -23.578125 
L -0.984375 -16.609375 
z
" id="DejaVuSans-95"/>
      <path d="M 37.796875 64.3125 
L 12.890625 25.390625 
L 37.796875 25.390625 
z
M 35.203125 72.90625 
L 47.609375 72.90625 
L 47.609375 25.390625 
L 58.015625 25.390625 
L 58.015625 17.1875 
L 47.609375 17.1875 
L 47.609375 0 
L 37.796875 0 
L 37.796875 17.1875 
L 4.890625 17.1875 
L 4.890625 26.703125 
z
" id="DejaVuSans-52"/>
     </defs>
     <use xlink:href="#DejaVuSans-49"/>
     <use x="63.623047" xlink:href="#DejaVuSans-57"/>
     <use x="127.246094" xlink:href="#DejaVuSans-57"/>
     <use x="190.869141" xlink:href="#DejaVuSans-51"/>
     <use x="254.492188" xlink:href="#DejaVuSans-44"/>
     <use x="286.279297" xlink:href="#DejaVuSans-32"/>
     <use x="318.066406" xlink:href="#DejaVuSans-50"/>
     <use x="381.689453" xlink:href="#DejaVuSans-48"/>
     <use x="445.3125" xlink:href="#DejaVuSans-121"/>
     <use x="504.492188" xlink:href="#DejaVuSans-114"/>
     <use x="545.605469" xlink:href="#DejaVuSans-32"/>
     <use x="577.392578" xlink:href="#DejaVuSans-40"/>
     <use x="616.40625" xlink:href="#DejaVuSans-83"/>
     <use x="679.882812" xlink:href="#DejaVuSans-68"/>
     <use x="756.884766" xlink:href="#DejaVuSans-57"/>
     <use x="820.507812" xlink:href="#DejaVuSans-51"/>
     <use x="884.130859" xlink:href="#DejaVuSans-95"/>
     <use x="934.130859" xlink:href="#DejaVuSans-52"/>
     <use x="997.753906" xlink:href="#DejaVuSans-41"/>
    </g>
   </g>
   <g id="LineCollection_1">
    <path clip-path="url(#p590ffe19c4)" d="M 43.992938 97.664207 
L 166.182938 97.664207 
" style="fill:none;stroke:#999999;stroke-dasharray:1.32934,2.193412;stroke-dashoffset:0;stroke-width:1.32934;"/>
   </g>
  </g>
  <g id="axes_2">
   <g id="patch_6">
    <path d="M 171.222938 103.306 
L 293.412937 103.306 
L 293.412937 21.5 
L 171.222938 21.5 
z
" style="fill:#ffffff;"/>
   </g>
   <g id="matplotlib.axis_3">
    <g id="xtick_10"/>
    <g id="xtick_11"/>
    <g id="xtick_12"/>
    <g id="xtick_13"/>
    <g id="xtick_14"/>
    <g id="xtick_15"/>
    <g id="xtick_16"/>
    <g id="xtick_17"/>
    <g id="xtick_18"/>
   </g>
   <g id="matplotlib.axis_4">
    <g id="ytick_35"/>
    <g id="ytick_36"/>
    <g id="ytick_37"/>
    <g id="ytick_38"/>
    <g id="ytick_39"/>
    <g id="ytick_40"/>
    <g id="ytick_41"/>
    <g id="ytick_42"/>
    <g id="ytick_43"/>
    <g id="ytick_44"/>
    <g id="ytick_45"/>
    <g id="ytick_46"/>
    <g id="ytick_47"/>
    <g id="ytick_48"/>
    <g id="ytick_49"/>
    <g id="ytick_50"/>
    <g id="ytick_51"/>
    <g id="ytick_52"/>
    <g id="ytick_53"/>
    <g id="ytick_54"/>
    <g id="ytick_55"/>
    <g id="ytick_56"/>
    <g id="ytick_57"/>
    <g id="ytick_58"/>
    <g id="ytick_59"/>
    <g id="ytick_60"/>
    <g id="ytick_61"/>
    <g id="ytick_62"/>
    <g id="ytick_63"/>
    <g id="ytick_64"/>
    <g id="ytick_65"/>
    <g id="ytick_66"/>
    <g id="ytick_67"/>
    <g id="ytick_68"/>
   </g>
   <g id="PathCollection_2">
    <path clip-path="url(#p0bf09e738b)" d="M 177.623992 48.024875 
C 178.211568 48.024875 178.775157 47.791429 179.190635 47.375951 
C 179.606114 46.960472 179.83956 46.396883 179.83956 45.809308 
C 179.83956 45.221733 179.606114 44.658144 179.190635 44.242665 
C 178.775157 43.827187 178.211568 43.593741 177.623992 43.593741 
C 177.036417 43.593741 176.472828 43.827187 176.05735 44.242665 
C 175.641871 44.658144 175.408425 45.221733 175.408425 45.809308 
C 175.408425 46.396883 175.641871 46.960472 176.05735 47.375951 
C 176.472828 47.791429 177.036417 48.024875 177.623992 48.024875 
z
" style="stroke:#000000;stroke-width:0.886227;"/>
    <path clip-path="url(#p0bf09e738b)" d="M 203.228212 57.108978 
C 203.815787 57.108978 204.379376 56.875532 204.794855 56.460054 
C 205.210333 56.044575 205.443779 55.480986 205.443779 54.893411 
C 205.443779 54.305836 205.210333 53.742247 204.794855 53.326768 
C 204.379376 52.91129 203.815787 52.677844 203.228212 52.677844 
C 202.640637 52.677844 202.077048 52.91129 201.661569 53.326768 
C 201.246091 53.742247 201.012645 54.305836 201.012645 54.893411 
C 201.012645 55.480986 201.246091 56.044575 201.661569 56.460054 
C 202.077048 56.875532 202.640637 57.108978 203.228212 57.108978 
z
" style="stroke:#000000;stroke-width:0.886227;"/>
    <path clip-path="url(#p0bf09e738b)" d="M 232.032959 52.665051 
C 232.620534 52.665051 233.184123 52.431605 233.599602 52.016126 
C 234.01508 51.600648 234.248526 51.037059 234.248526 50.449484 
C 234.248526 49.861908 234.01508 49.29832 233.599602 48.882841 
C 233.184123 48.467363 232.620534 48.233916 232.032959 48.233916 
C 231.445384 48.233916 230.881795 48.467363 230.466316 48.882841 
C 230.050838 49.29832 229.817392 49.861908 229.817392 50.449484 
C 229.817392 51.037059 230.050838 51.600648 230.466316 52.016126 
C 230.881795 52.431605 231.445384 52.665051 232.032959 52.665051 
z
" style="stroke:#000000;stroke-width:0.886227;"/>
    <path clip-path="url(#p0bf09e738b)" d="M 254.436651 50.839526 
C 255.024226 50.839526 255.587815 50.606079 256.003294 50.190601 
C 256.418772 49.775122 256.652218 49.211534 256.652218 48.623958 
C 256.652218 48.036383 256.418772 47.472794 256.003294 47.057316 
C 255.587815 46.641837 255.024226 46.408391 254.436651 46.408391 
C 253.849076 46.408391 253.285487 46.641837 252.870008 47.057316 
C 252.45453 47.472794 252.221084 48.036383 252.221084 48.623958 
C 252.221084 49.211534 252.45453 49.775122 252.870008 50.190601 
C 253.285487 50.606079 253.849076 50.839526 254.436651 50.839526 
z
" style="stroke:#000000;stroke-width:0.886227;"/>
    <path clip-path="url(#p0bf09e738b)" d="M 280.040871 58.927153 
C 280.628446 58.927153 281.192035 58.693707 281.607513 58.278228 
C 282.022992 57.86275 282.256438 57.299161 282.256438 56.711586 
C 282.256438 56.12401 282.022992 55.560422 281.607513 55.144943 
C 281.192035 54.729465 280.628446 54.496018 280.040871 54.496018 
C 279.453295 54.496018 278.889707 54.729465 278.474228 55.144943 
C 278.05875 55.560422 277.825303 56.12401 277.825303 56.711586 
C 277.825303 57.299161 278.05875 57.86275 278.474228 58.278228 
C 278.889707 58.693707 279.453295 58.927153 280.040871 58.927153 
z
" style="stroke:#000000;stroke-width:0.886227;"/>
   </g>
   <g id="line2d_6">
    <path clip-path="url(#p0bf09e738b)" d="M 177.623992 45.809308 
L 203.228212 54.893411 
L 232.032959 50.449484 
L 254.436651 48.623958 
L 280.040871 56.711586 
" style="fill:none;stroke:#000000;stroke-width:0.886227;"/>
   </g>
   <g id="patch_7">
    <path d="M 171.222938 21.5 
L 293.412937 21.5 
L 293.412937 7.2 
L 171.222938 7.2 
z
" style="fill:none;stroke:#000000;stroke-linejoin:miter;"/>
   </g>
   <g id="patch_8">
    <path d="M 171.222938 103.306 
L 171.222938 21.5 
" style="fill:none;stroke:#000000;stroke-linecap:square;stroke-linejoin:miter;"/>
   </g>
   <g id="patch_9">
    <path d="M 171.222937 103.306 
L 293.412938 103.306 
" style="fill:none;stroke:#000000;stroke-linecap:square;stroke-linejoin:miter;"/>
   </g>
   <g id="PolyCollection_2">
    <path clip-path="url(#p0bf09e738b)" d="M 171.222937 141.385837 
L 171.222937 -4230.777153 
L 206.612879 -4230.777153 
L 206.612879 141.385837 
z
" style="fill:#56b4e9;fill-opacity:0.14902;"/>
   </g>
   <g id="text_7">
    <!-- 1993, adult (SD93_1) -->
    <g style="fill:#1a1a1a;" transform="translate(185.486125 16.655875)scale(0.088 -0.088)">
     <defs>
      <path d="M 45.40625 46.390625 
L 45.40625 75.984375 
L 54.390625 75.984375 
L 54.390625 0 
L 45.40625 0 
L 45.40625 8.203125 
Q 42.578125 3.328125 38.25 0.953125 
Q 33.9375 -1.421875 27.875 -1.421875 
Q 17.96875 -1.421875 11.734375 6.484375 
Q 5.515625 14.40625 5.515625 27.296875 
Q 5.515625 40.1875 11.734375 48.09375 
Q 17.96875 56 27.875 56 
Q 33.9375 56 38.25 53.625 
Q 42.578125 51.265625 45.40625 46.390625 
z
M 14.796875 27.296875 
Q 14.796875 17.390625 18.875 11.75 
Q 22.953125 6.109375 30.078125 6.109375 
Q 37.203125 6.109375 41.296875 11.75 
Q 45.40625 17.390625 45.40625 27.296875 
Q 45.40625 37.203125 41.296875 42.84375 
Q 37.203125 48.484375 30.078125 48.484375 
Q 22.953125 48.484375 18.875 42.84375 
Q 14.796875 37.203125 14.796875 27.296875 
z
" id="DejaVuSans-100"/>
     </defs>
     <use xlink:href="#DejaVuSans-49"/>
     <use x="63.623047" xlink:href="#DejaVuSans-57"/>
     <use x="127.246094" xlink:href="#DejaVuSans-57"/>
     <use x="190.869141" xlink:href="#DejaVuSans-51"/>
     <use x="254.492188" xlink:href="#DejaVuSans-44"/>
     <use x="286.279297" xlink:href="#DejaVuSans-32"/>
     <use x="318.066406" xlink:href="#DejaVuSans-97"/>
     <use x="379.345703" xlink:href="#DejaVuSans-100"/>
     <use x="442.822266" xlink:href="#DejaVuSans-117"/>
     <use x="506.201172" xlink:href="#DejaVuSans-108"/>
     <use x="533.984375" xlink:href="#DejaVuSans-116"/>
     <use x="573.193359" xlink:href="#DejaVuSans-32"/>
     <use x="604.980469" xlink:href="#DejaVuSans-40"/>
     <use x="643.994141" xlink:href="#DejaVuSans-83"/>
     <use x="707.470703" xlink:href="#DejaVuSans-68"/>
     <use x="784.472656" xlink:href="#DejaVuSans-57"/>
     <use x="848.095703" xlink:href="#DejaVuSans-51"/>
     <use x="911.71875" xlink:href="#DejaVuSans-95"/>
     <use x="961.71875" xlink:href="#DejaVuSans-49"/>
     <use x="1025.341797" xlink:href="#DejaVuSans-41"/>
    </g>
   </g>
   <g id="LineCollection_2">
    <path clip-path="url(#p0bf09e738b)" d="M 171.222937 97.664207 
L 293.412938 97.664207 
" style="fill:none;stroke:#999999;stroke-dasharray:1.32934,2.193412;stroke-dashoffset:0;stroke-width:1.32934;"/>
   </g>
  </g>
  <g id="axes_3">
   <g id="patch_10">
    <path d="M 298.452937 103.306 
L 420.642937 103.306 
L 420.642937 21.5 
L 298.452937 21.5 
z
" style="fill:#ffffff;"/>
   </g>
   <g id="matplotlib.axis_5">
    <g id="xtick_19">
     <g id="line2d_7">
      <path d="M 304.853992 103.306 
" style="fill:none;stroke:#333333;stroke-linecap:square;stroke-width:1.5;"/>
      <defs>
       <path d="M 0 0 
L 0 2.75 
" id="md64cff360a" style="stroke:#000000;"/>
      </defs>
      <g>
       <use style="fill:#333333;stroke:#000000;" x="304.853992" xlink:href="#md64cff360a" y="103.306"/>
      </g>
     </g>
     <g id="text_8">
      <!-- 1984 -->
      <g style="fill:#4d4d4d;" transform="translate(307.282242 130.652)rotate(-90)scale(0.088 -0.088)">
       <defs>
        <path d="M 31.78125 34.625 
Q 24.75 34.625 20.71875 30.859375 
Q 16.703125 27.09375 16.703125 20.515625 
Q 16.703125 13.921875 20.71875 10.15625 
Q 24.75 6.390625 31.78125 6.390625 
Q 38.8125 6.390625 42.859375 10.171875 
Q 46.921875 13.96875 46.921875 20.515625 
Q 46.921875 27.09375 42.890625 30.859375 
Q 38.875 34.625 31.78125 34.625 
z
M 21.921875 38.8125 
Q 15.578125 40.375 12.03125 44.71875 
Q 8.5 49.078125 8.5 55.328125 
Q 8.5 64.0625 14.71875 69.140625 
Q 20.953125 74.21875 31.78125 74.21875 
Q 42.671875 74.21875 48.875 69.140625 
Q 55.078125 64.0625 55.078125 55.328125 
Q 55.078125 49.078125 51.53125 44.71875 
Q 48 40.375 41.703125 38.8125 
Q 48.828125 37.15625 52.796875 32.3125 
Q 56.78125 27.484375 56.78125 20.515625 
Q 56.78125 9.90625 50.3125 4.234375 
Q 43.84375 -1.421875 31.78125 -1.421875 
Q 19.734375 -1.421875 13.25 4.234375 
Q 6.78125 9.90625 6.78125 20.515625 
Q 6.78125 27.484375 10.78125 32.3125 
Q 14.796875 37.15625 21.921875 38.8125 
z
M 18.3125 54.390625 
Q 18.3125 48.734375 21.84375 45.5625 
Q 25.390625 42.390625 31.78125 42.390625 
Q 38.140625 42.390625 41.71875 45.5625 
Q 45.3125 48.734375 45.3125 54.390625 
Q 45.3125 60.0625 41.71875 63.234375 
Q 38.140625 66.40625 31.78125 66.40625 
Q 25.390625 66.40625 21.84375 63.234375 
Q 18.3125 60.0625 18.3125 54.390625 
z
" id="DejaVuSans-56"/>
       </defs>
       <use xlink:href="#DejaVuSans-49"/>
       <use x="63.623047" xlink:href="#DejaVuSans-57"/>
       <use x="127.246094" xlink:href="#DejaVuSans-56"/>
       <use x="190.869141" xlink:href="#DejaVuSans-52"/>
      </g>
     </g>
    </g>
    <g id="xtick_20">
     <g id="line2d_8">
      <path d="M 330.458212 103.306 
" style="fill:none;stroke:#333333;stroke-linecap:square;stroke-width:1.5;"/>
      <g>
       <use style="fill:#333333;stroke:#000000;" x="330.458212" xlink:href="#md64cff360a" y="103.306"/>
      </g>
     </g>
     <g id="text_9">
      <!-- 1992 -->
      <g style="fill:#4d4d4d;" transform="translate(332.886462 130.652)rotate(-90)scale(0.088 -0.088)">
       <use xlink:href="#DejaVuSans-49"/>
       <use x="63.623047" xlink:href="#DejaVuSans-57"/>
       <use x="127.246094" xlink:href="#DejaVuSans-57"/>
       <use x="190.869141" xlink:href="#DejaVuSans-50"/>
      </g>
     </g>
    </g>
    <g id="xtick_21">
     <g id="line2d_9">
      <path d="M 359.262959 103.306 
" style="fill:none;stroke:#333333;stroke-linecap:square;stroke-width:1.5;"/>
      <g>
       <use style="fill:#333333;stroke:#000000;" x="359.262959" xlink:href="#md64cff360a" y="103.306"/>
      </g>
     </g>
     <g id="text_10">
      <!-- 2001 -->
      <g style="fill:#4d4d4d;" transform="translate(361.691209 130.652)rotate(-90)scale(0.088 -0.088)">
       <use xlink:href="#DejaVuSans-50"/>
       <use x="63.623047" xlink:href="#DejaVuSans-48"/>
       <use x="127.246094" xlink:href="#DejaVuSans-48"/>
       <use x="190.869141" xlink:href="#DejaVuSans-49"/>
      </g>
     </g>
    </g>
    <g id="xtick_22">
     <g id="line2d_10">
      <path d="M 381.666651 103.306 
" style="fill:none;stroke:#333333;stroke-linecap:square;stroke-width:1.5;"/>
      <g>
       <use style="fill:#333333;stroke:#000000;" x="381.666651" xlink:href="#md64cff360a" y="103.306"/>
      </g>
     </g>
     <g id="text_11">
      <!-- 2008 -->
      <g style="fill:#4d4d4d;" transform="translate(384.094901 130.652)rotate(-90)scale(0.088 -0.088)">
       <use xlink:href="#DejaVuSans-50"/>
       <use x="63.623047" xlink:href="#DejaVuSans-48"/>
       <use x="127.246094" xlink:href="#DejaVuSans-48"/>
       <use x="190.869141" xlink:href="#DejaVuSans-56"/>
      </g>
     </g>
    </g>
    <g id="xtick_23">
     <g id="line2d_11">
      <path d="M 407.270871 103.306 
" style="fill:none;stroke:#333333;stroke-linecap:square;stroke-width:1.5;"/>
      <g>
       <use style="fill:#333333;stroke:#000000;" x="407.270871" xlink:href="#md64cff360a" y="103.306"/>
      </g>
     </g>
     <g id="text_12">
      <!-- 2016 -->
      <g style="fill:#4d4d4d;" transform="translate(409.699121 130.652)rotate(-90)scale(0.088 -0.088)">
       <defs>
        <path d="M 33.015625 40.375 
Q 26.375 40.375 22.484375 35.828125 
Q 18.609375 31.296875 18.609375 23.390625 
Q 18.609375 15.53125 22.484375 10.953125 
Q 26.375 6.390625 33.015625 6.390625 
Q 39.65625 6.390625 43.53125 10.953125 
Q 47.40625 15.53125 47.40625 23.390625 
Q 47.40625 31.296875 43.53125 35.828125 
Q 39.65625 40.375 33.015625 40.375 
z
M 52.59375 71.296875 
L 52.59375 62.3125 
Q 48.875 64.0625 45.09375 64.984375 
Q 41.3125 65.921875 37.59375 65.921875 
Q 27.828125 65.921875 22.671875 59.328125 
Q 17.53125 52.734375 16.796875 39.40625 
Q 19.671875 43.65625 24.015625 45.921875 
Q 28.375 48.1875 33.59375 48.1875 
Q 44.578125 48.1875 50.953125 41.515625 
Q 57.328125 34.859375 57.328125 23.390625 
Q 57.328125 12.15625 50.6875 5.359375 
Q 44.046875 -1.421875 33.015625 -1.421875 
Q 20.359375 -1.421875 13.671875 8.265625 
Q 6.984375 17.96875 6.984375 36.375 
Q 6.984375 53.65625 15.1875 63.9375 
Q 23.390625 74.21875 37.203125 74.21875 
Q 40.921875 74.21875 44.703125 73.484375 
Q 48.484375 72.75 52.59375 71.296875 
z
" id="DejaVuSans-54"/>
       </defs>
       <use xlink:href="#DejaVuSans-50"/>
       <use x="63.623047" xlink:href="#DejaVuSans-48"/>
       <use x="127.246094" xlink:href="#DejaVuSans-49"/>
       <use x="190.869141" xlink:href="#DejaVuSans-54"/>
      </g>
     </g>
    </g>
    <g id="xtick_24"/>
    <g id="xtick_25"/>
    <g id="xtick_26"/>
    <g id="xtick_27"/>
   </g>
   <g id="matplotlib.axis_6">
    <g id="ytick_69"/>
    <g id="ytick_70"/>
    <g id="ytick_71"/>
    <g id="ytick_72"/>
    <g id="ytick_73"/>
    <g id="ytick_74"/>
    <g id="ytick_75"/>
    <g id="ytick_76"/>
    <g id="ytick_77"/>
    <g id="ytick_78"/>
    <g id="ytick_79"/>
    <g id="ytick_80"/>
    <g id="ytick_81"/>
    <g id="ytick_82"/>
    <g id="ytick_83"/>
    <g id="ytick_84"/>
    <g id="ytick_85"/>
    <g id="ytick_86"/>
    <g id="ytick_87"/>
    <g id="ytick_88"/>
    <g id="ytick_89"/>
    <g id="ytick_90"/>
    <g id="ytick_91"/>
    <g id="ytick_92"/>
    <g id="ytick_93"/>
    <g id="ytick_94"/>
    <g id="ytick_95"/>
    <g id="ytick_96"/>
    <g id="ytick_97"/>
    <g id="ytick_98"/>
    <g id="ytick_99"/>
    <g id="ytick_100"/>
    <g id="ytick_101"/>
    <g id="ytick_102"/>
   </g>
   <g id="PathCollection_3">
    <path clip-path="url(#p976ce3a982)" d="M 304.853992 67.341093 
C 305.441568 67.341093 306.005157 67.107647 306.420635 66.692168 
C 306.836114 66.27669 307.06956 65.713101 307.06956 65.125525 
C 307.06956 64.53795 306.836114 63.974361 306.420635 63.558883 
C 306.005157 63.143404 305.441568 62.909958 304.853992 62.909958 
C 304.266417 62.909958 303.702828 63.143404 303.28735 63.558883 
C 302.871871 63.974361 302.638425 64.53795 302.638425 65.125525 
C 302.638425 65.713101 302.871871 66.27669 303.28735 66.692168 
C 303.702828 67.107647 304.266417 67.341093 304.853992 67.341093 
z
" style="stroke:#000000;stroke-width:0.886227;"/>
    <path clip-path="url(#p976ce3a982)" d="M 330.458212 54.670746 
C 331.045787 54.670746 331.609376 54.437299 332.024855 54.021821 
C 332.440333 53.606342 332.673779 53.042754 332.673779 52.455178 
C 332.673779 51.867603 332.440333 51.304014 332.024855 50.888536 
C 331.609376 50.473057 331.045787 50.239611 330.458212 50.239611 
C 329.870637 50.239611 329.307048 50.473057 328.891569 50.888536 
C 328.476091 51.304014 328.242645 51.867603 328.242645 52.455178 
C 328.242645 53.042754 328.476091 53.606342 328.891569 54.021821 
C 329.307048 54.437299 329.870637 54.670746 330.458212 54.670746 
z
" style="stroke:#000000;stroke-width:0.886227;"/>
    <path clip-path="url(#p976ce3a982)" d="M 359.262959 81.306101 
C 359.850534 81.306101 360.414123 81.072655 360.829602 80.657176 
C 361.24508 80.241698 361.478526 79.678109 361.478526 79.090533 
C 361.478526 78.502958 361.24508 77.939369 360.829602 77.523891 
C 360.414123 77.108412 359.850534 76.874966 359.262959 76.874966 
C 358.675384 76.874966 358.111795 77.108412 357.696316 77.523891 
C 357.280838 77.939369 357.047392 78.502958 357.047392 79.090533 
C 357.047392 79.678109 357.280838 80.241698 357.696316 80.657176 
C 358.111795 81.072655 358.675384 81.306101 359.262959 81.306101 
z
" style="stroke:#000000;stroke-width:0.886227;"/>
    <path clip-path="url(#p976ce3a982)" d="M 381.666651 93.395507 
C 382.254226 93.395507 382.817815 93.162061 383.233294 92.746583 
C 383.648772 92.331104 383.882218 91.767515 383.882218 91.17994 
C 383.882218 90.592365 383.648772 90.028776 383.233294 89.613297 
C 382.817815 89.197819 382.254226 88.964373 381.666651 88.964373 
C 381.079076 88.964373 380.515487 89.197819 380.100008 89.613297 
C 379.68453 90.028776 379.451084 90.592365 379.451084 91.17994 
C 379.451084 91.767515 379.68453 92.331104 380.100008 92.746583 
C 380.515487 93.162061 381.079076 93.395507 381.666651 93.395507 
z
" style="stroke:#000000;stroke-width:0.886227;"/>
    <path clip-path="url(#p976ce3a982)" d="M 407.270871 99.879774 
C 407.858446 99.879774 408.422035 99.646328 408.837513 99.23085 
C 409.252992 98.815371 409.486438 98.251782 409.486438 97.664207 
C 409.486438 97.076632 409.252992 96.513043 408.837513 96.097564 
C 408.422035 95.682086 407.858446 95.44864 407.270871 95.44864 
C 406.683295 95.44864 406.119707 95.682086 405.704228 96.097564 
C 405.28875 96.513043 405.055303 97.076632 405.055303 97.664207 
C 405.055303 98.251782 405.28875 98.815371 405.704228 99.23085 
C 406.119707 99.646328 406.683295 99.879774 407.270871 99.879774 
z
" style="stroke:#000000;stroke-width:0.886227;"/>
   </g>
   <g id="line2d_12">
    <path clip-path="url(#p976ce3a982)" d="M 304.853992 65.125525 
L 330.458212 52.455178 
L 359.262959 79.090533 
L 381.666651 91.17994 
L 407.270871 97.664207 
" style="fill:none;stroke:#000000;stroke-width:0.886227;"/>
   </g>
   <g id="patch_11">
    <path d="M 298.452937 21.5 
L 420.642937 21.5 
L 420.642937 7.2 
L 298.452937 7.2 
z
" style="fill:none;stroke:#000000;stroke-linejoin:miter;"/>
   </g>
   <g id="patch_12">
    <path d="M 298.452937 103.306 
L 298.452937 21.5 
" style="fill:none;stroke:#000000;stroke-linecap:square;stroke-linejoin:miter;"/>
   </g>
   <g id="patch_13">
    <path d="M 298.452938 103.306 
L 420.642938 103.306 
" style="fill:none;stroke:#000000;stroke-linecap:square;stroke-linejoin:miter;"/>
   </g>
   <g id="PolyCollection_3">
    <path clip-path="url(#p976ce3a982)" d="M 302.495248 141.385837 
L 302.495248 -4230.777153 
L 340.901577 -4230.777153 
L 340.901577 141.385837 
z
" style="fill:#56b4e9;fill-opacity:0.14902;"/>
   </g>
   <g id="text_13">
    <!-- 1995, 12yr (SD95_7) -->
    <g style="fill:#1a1a1a;" transform="translate(313.929562 16.651062)scale(0.088 -0.088)">
     <defs>
      <path d="M 8.203125 72.90625 
L 55.078125 72.90625 
L 55.078125 68.703125 
L 28.609375 0 
L 18.3125 0 
L 43.21875 64.59375 
L 8.203125 64.59375 
z
" id="DejaVuSans-55"/>
     </defs>
     <use xlink:href="#DejaVuSans-49"/>
     <use x="63.623047" xlink:href="#DejaVuSans-57"/>
     <use x="127.246094" xlink:href="#DejaVuSans-57"/>
     <use x="190.869141" xlink:href="#DejaVuSans-53"/>
     <use x="254.492188" xlink:href="#DejaVuSans-44"/>
     <use x="286.279297" xlink:href="#DejaVuSans-32"/>
     <use x="318.066406" xlink:href="#DejaVuSans-49"/>
     <use x="381.689453" xlink:href="#DejaVuSans-50"/>
     <use x="445.3125" xlink:href="#DejaVuSans-121"/>
     <use x="504.492188" xlink:href="#DejaVuSans-114"/>
     <use x="545.605469" xlink:href="#DejaVuSans-32"/>
     <use x="577.392578" xlink:href="#DejaVuSans-40"/>
     <use x="616.40625" xlink:href="#DejaVuSans-83"/>
     <use x="679.882812" xlink:href="#DejaVuSans-68"/>
     <use x="756.884766" xlink:href="#DejaVuSans-57"/>
     <use x="820.507812" xlink:href="#DejaVuSans-53"/>
     <use x="884.130859" xlink:href="#DejaVuSans-95"/>
     <use x="934.130859" xlink:href="#DejaVuSans-55"/>
     <use x="997.753906" xlink:href="#DejaVuSans-41"/>
    </g>
   </g>
   <g id="LineCollection_3">
    <path clip-path="url(#p976ce3a982)" d="M 298.452938 97.664207 
L 420.642938 97.664207 
" style="fill:none;stroke:#999999;stroke-dasharray:1.32934,2.193412;stroke-dashoffset:0;stroke-width:1.32934;"/>
   </g>
  </g>
  <g id="axes_4">
   <g id="patch_14">
    <path d="M 43.992938 204.452 
L 166.182938 204.452 
L 166.182938 122.646 
L 43.992938 122.646 
z
" style="fill:#ffffff;"/>
   </g>
   <g id="matplotlib.axis_7">
    <g id="xtick_28">
     <g id="line2d_13">
      <path d="M 50.393992 204.452 
" style="fill:none;stroke:#333333;stroke-linecap:square;stroke-width:1.5;"/>
      <g>
       <use style="fill:#333333;stroke:#000000;" x="50.393992" xlink:href="#md64cff360a" y="204.452"/>
      </g>
     </g>
     <g id="text_14">
      <!-- 1984 -->
      <g style="fill:#4d4d4d;" transform="translate(52.822242 231.798)rotate(-90)scale(0.088 -0.088)">
       <use xlink:href="#DejaVuSans-49"/>
       <use x="63.623047" xlink:href="#DejaVuSans-57"/>
       <use x="127.246094" xlink:href="#DejaVuSans-56"/>
       <use x="190.869141" xlink:href="#DejaVuSans-52"/>
      </g>
     </g>
    </g>
    <g id="xtick_29">
     <g id="line2d_14">
      <path d="M 75.998212 204.452 
" style="fill:none;stroke:#333333;stroke-linecap:square;stroke-width:1.5;"/>
      <g>
       <use style="fill:#333333;stroke:#000000;" x="75.998212" xlink:href="#md64cff360a" y="204.452"/>
      </g>
     </g>
     <g id="text_15">
      <!-- 1992 -->
      <g style="fill:#4d4d4d;" transform="translate(78.426462 231.798)rotate(-90)scale(0.088 -0.088)">
       <use xlink:href="#DejaVuSans-49"/>
       <use x="63.623047" xlink:href="#DejaVuSans-57"/>
       <use x="127.246094" xlink:href="#DejaVuSans-57"/>
       <use x="190.869141" xlink:href="#DejaVuSans-50"/>
      </g>
     </g>
    </g>
    <g id="xtick_30">
     <g id="line2d_15">
      <path d="M 104.802959 204.452 
" style="fill:none;stroke:#333333;stroke-linecap:square;stroke-width:1.5;"/>
      <g>
       <use style="fill:#333333;stroke:#000000;" x="104.802959" xlink:href="#md64cff360a" y="204.452"/>
      </g>
     </g>
     <g id="text_16">
      <!-- 2001 -->
      <g style="fill:#4d4d4d;" transform="translate(107.231209 231.798)rotate(-90)scale(0.088 -0.088)">
       <use xlink:href="#DejaVuSans-50"/>
       <use x="63.623047" xlink:href="#DejaVuSans-48"/>
       <use x="127.246094" xlink:href="#DejaVuSans-48"/>
       <use x="190.869141" xlink:href="#DejaVuSans-49"/>
      </g>
     </g>
    </g>
    <g id="xtick_31">
     <g id="line2d_16">
      <path d="M 127.206651 204.452 
" style="fill:none;stroke:#333333;stroke-linecap:square;stroke-width:1.5;"/>
      <g>
       <use style="fill:#333333;stroke:#000000;" x="127.206651" xlink:href="#md64cff360a" y="204.452"/>
      </g>
     </g>
     <g id="text_17">
      <!-- 2008 -->
      <g style="fill:#4d4d4d;" transform="translate(129.634901 231.798)rotate(-90)scale(0.088 -0.088)">
       <use xlink:href="#DejaVuSans-50"/>
       <use x="63.623047" xlink:href="#DejaVuSans-48"/>
       <use x="127.246094" xlink:href="#DejaVuSans-48"/>
       <use x="190.869141" xlink:href="#DejaVuSans-56"/>
      </g>
     </g>
    </g>
    <g id="xtick_32">
     <g id="line2d_17">
      <path d="M 152.810871 204.452 
" style="fill:none;stroke:#333333;stroke-linecap:square;stroke-width:1.5;"/>
      <g>
       <use style="fill:#333333;stroke:#000000;" x="152.810871" xlink:href="#md64cff360a" y="204.452"/>
      </g>
     </g>
     <g id="text_18">
      <!-- 2016 -->
      <g style="fill:#4d4d4d;" transform="translate(155.239121 231.798)rotate(-90)scale(0.088 -0.088)">
       <use xlink:href="#DejaVuSans-50"/>
       <use x="63.623047" xlink:href="#DejaVuSans-48"/>
       <use x="127.246094" xlink:href="#DejaVuSans-49"/>
       <use x="190.869141" xlink:href="#DejaVuSans-54"/>
      </g>
     </g>
    </g>
    <g id="xtick_33"/>
    <g id="xtick_34"/>
    <g id="xtick_35"/>
    <g id="xtick_36"/>
   </g>
   <g id="matplotlib.axis_8">
    <g id="ytick_103">
     <g id="line2d_18">
      <path d="M 43.992938 198.810207 
" style="fill:none;stroke:#333333;stroke-linecap:square;stroke-width:1.5;"/>
      <g>
       <use style="fill:#333333;stroke:#000000;" x="43.992938" xlink:href="#m32d72bdb8a" y="198.810207"/>
      </g>
     </g>
     <g id="text_19">
      <!-- 10 -->
      <g style="fill:#4d4d4d;" transform="translate(27.844938 201.238457)scale(0.088 -0.088)">
       <use xlink:href="#DejaVuSans-49"/>
       <use x="63.623047" xlink:href="#DejaVuSans-48"/>
      </g>
     </g>
    </g>
    <g id="ytick_104">
     <g id="line2d_19">
      <path d="M 43.992938 177.949688 
" style="fill:none;stroke:#333333;stroke-linecap:square;stroke-width:1.5;"/>
      <g>
       <use style="fill:#333333;stroke:#000000;" x="43.992938" xlink:href="#m32d72bdb8a" y="177.949688"/>
      </g>
     </g>
     <g id="text_20">
      <!-- 30 -->
      <g style="fill:#4d4d4d;" transform="translate(27.844938 180.377938)scale(0.088 -0.088)">
       <use xlink:href="#DejaVuSans-51"/>
       <use x="63.623047" xlink:href="#DejaVuSans-48"/>
      </g>
     </g>
    </g>
    <g id="ytick_105">
     <g id="line2d_20">
      <path d="M 43.992938 155.088577 
" style="fill:none;stroke:#333333;stroke-linecap:square;stroke-width:1.5;"/>
      <g>
       <use style="fill:#333333;stroke:#000000;" x="43.992938" xlink:href="#m32d72bdb8a" y="155.088577"/>
      </g>
     </g>
     <g id="text_21">
      <!-- 100 -->
      <g style="fill:#4d4d4d;" transform="translate(22.245938 157.516827)scale(0.088 -0.088)">
       <use xlink:href="#DejaVuSans-49"/>
       <use x="63.623047" xlink:href="#DejaVuSans-48"/>
       <use x="127.246094" xlink:href="#DejaVuSans-48"/>
      </g>
     </g>
    </g>
    <g id="ytick_106">
     <g id="line2d_21">
      <path d="M 43.992938 134.228058 
" style="fill:none;stroke:#333333;stroke-linecap:square;stroke-width:1.5;"/>
      <g>
       <use style="fill:#333333;stroke:#000000;" x="43.992938" xlink:href="#m32d72bdb8a" y="134.228058"/>
      </g>
     </g>
     <g id="text_22">
      <!-- 300 -->
      <g style="fill:#4d4d4d;" transform="translate(22.245938 136.656308)scale(0.088 -0.088)">
       <use xlink:href="#DejaVuSans-51"/>
       <use x="63.623047" xlink:href="#DejaVuSans-48"/>
       <use x="127.246094" xlink:href="#DejaVuSans-48"/>
      </g>
     </g>
    </g>
    <g id="ytick_107"/>
    <g id="ytick_108"/>
    <g id="ytick_109"/>
    <g id="ytick_110"/>
    <g id="ytick_111"/>
    <g id="ytick_112"/>
    <g id="ytick_113"/>
    <g id="ytick_114"/>
    <g id="ytick_115"/>
    <g id="ytick_116"/>
    <g id="ytick_117"/>
    <g id="ytick_118"/>
    <g id="ytick_119"/>
    <g id="ytick_120"/>
    <g id="ytick_121"/>
    <g id="ytick_122"/>
    <g id="ytick_123"/>
    <g id="ytick_124"/>
    <g id="ytick_125"/>
    <g id="ytick_126"/>
    <g id="ytick_127"/>
    <g id="ytick_128"/>
    <g id="ytick_129"/>
    <g id="ytick_130"/>
    <g id="ytick_131"/>
    <g id="ytick_132"/>
    <g id="ytick_133"/>
    <g id="ytick_134"/>
    <g id="ytick_135"/>
    <g id="ytick_136"/>
   </g>
   <g id="PathCollection_4">
    <path clip-path="url(#p0ba49eb01f)" d="M 50.393992 141.725256 
C 50.981568 141.725256 51.545157 141.49181 51.960635 141.076331 
C 52.376114 140.660853 52.60956 140.097264 52.60956 139.509688 
C 52.60956 138.922113 52.376114 138.358524 51.960635 137.943046 
C 51.545157 137.527567 50.981568 137.294121 50.393992 137.294121 
C 49.806417 137.294121 49.242828 137.527567 48.82735 137.943046 
C 48.411871 138.358524 48.178425 138.922113 48.178425 139.509688 
C 48.178425 140.097264 48.411871 140.660853 48.82735 141.076331 
C 49.242828 141.49181 49.806417 141.725256 50.393992 141.725256 
z
" style="stroke:#000000;stroke-width:0.886227;"/>
    <path clip-path="url(#p0ba49eb01f)" d="M 75.998212 158.970324 
C 76.585787 158.970324 77.149376 158.736878 77.564855 158.321399 
C 77.980333 157.905921 78.213779 157.342332 78.213779 156.754756 
C 78.213779 156.167181 77.980333 155.603592 77.564855 155.188114 
C 77.149376 154.772635 76.585787 154.539189 75.998212 154.539189 
C 75.410637 154.539189 74.847048 154.772635 74.431569 155.188114 
C 74.016091 155.603592 73.782645 156.167181 73.782645 156.754756 
C 73.782645 157.342332 74.016091 157.905921 74.431569 158.321399 
C 74.847048 158.736878 75.410637 158.970324 75.998212 158.970324 
z
" style="stroke:#000000;stroke-width:0.886227;"/>
    <path clip-path="url(#p0ba49eb01f)" d="M 104.802959 167.44131 
C 105.390534 167.44131 105.954123 167.207864 106.369602 166.792385 
C 106.78508 166.376907 107.018526 165.813318 107.018526 165.225743 
C 107.018526 164.638167 106.78508 164.074579 106.369602 163.6591 
C 105.954123 163.243622 105.390534 163.010175 104.802959 163.010175 
C 104.215384 163.010175 103.651795 163.243622 103.236316 163.6591 
C 102.820838 164.074579 102.587392 164.638167 102.587392 165.225743 
C 102.587392 165.813318 102.820838 166.376907 103.236316 166.792385 
C 103.651795 167.207864 104.215384 167.44131 104.802959 167.44131 
z
" style="stroke:#000000;stroke-width:0.886227;"/>
    <path clip-path="url(#p0ba49eb01f)" d="M 127.206651 163.438056 
C 127.794226 163.438056 128.357815 163.20461 128.773294 162.789132 
C 129.188772 162.373653 129.422218 161.810064 129.422218 161.222489 
C 129.422218 160.634914 129.188772 160.071325 128.773294 159.655846 
C 128.357815 159.240368 127.794226 159.006922 127.206651 159.006922 
C 126.619076 159.006922 126.055487 159.240368 125.640008 159.655846 
C 125.22453 160.071325 124.991084 160.634914 124.991084 161.222489 
C 124.991084 161.810064 125.22453 162.373653 125.640008 162.789132 
C 126.055487 163.20461 126.619076 163.438056 127.206651 163.438056 
z
" style="stroke:#000000;stroke-width:0.886227;"/>
    <path clip-path="url(#p0ba49eb01f)" d="M 152.810871 181.027275 
C 153.398446 181.027275 153.962035 180.793829 154.377513 180.37835 
C 154.792992 179.962872 155.026438 179.399283 155.026438 178.811708 
C 155.026438 178.224132 154.792992 177.660544 154.377513 177.245065 
C 153.962035 176.829587 153.398446 176.596141 152.810871 176.596141 
C 152.223295 176.596141 151.659707 176.829587 151.244228 177.245065 
C 150.82875 177.660544 150.595303 178.224132 150.595303 178.811708 
C 150.595303 179.399283 150.82875 179.962872 151.244228 180.37835 
C 151.659707 180.793829 152.223295 181.027275 152.810871 181.027275 
z
" style="stroke:#000000;stroke-width:0.886227;"/>
   </g>
   <g id="line2d_22">
    <path clip-path="url(#p0ba49eb01f)" d="M 50.393992 139.509688 
L 75.998212 156.754756 
L 104.802959 165.225743 
L 127.206651 161.222489 
L 152.810871 178.811708 
" style="fill:none;stroke:#000000;stroke-width:0.886227;"/>
   </g>
   <g id="patch_15">
    <path d="M 43.992938 122.646 
L 166.182938 122.646 
L 166.182938 108.346 
L 43.992938 108.346 
z
" style="fill:none;stroke:#000000;stroke-linejoin:miter;"/>
   </g>
   <g id="patch_16">
    <path d="M 43.992938 204.452 
L 43.992938 122.646 
" style="fill:none;stroke:#000000;stroke-linecap:square;stroke-linejoin:miter;"/>
   </g>
   <g id="patch_17">
    <path d="M 43.992938 204.452 
L 166.182938 204.452 
" style="fill:none;stroke:#000000;stroke-linecap:square;stroke-linejoin:miter;"/>
   </g>
   <g id="PolyCollection_4">
    <path clip-path="url(#p0ba49eb01f)" d="M 43.992938 242.531837 
L 43.992938 -4129.631153 
L 86.046991 -4129.631153 
L 86.046991 242.531837 
z
" style="fill:#56b4e9;fill-opacity:0.14902;"/>
   </g>
   <g id="text_23">
    <!-- 1995, adult (SD95_3) -->
    <g style="fill:#1a1a1a;" transform="translate(58.256125 117.801875)scale(0.088 -0.088)">
     <use xlink:href="#DejaVuSans-49"/>
     <use x="63.623047" xlink:href="#DejaVuSans-57"/>
     <use x="127.246094" xlink:href="#DejaVuSans-57"/>
     <use x="190.869141" xlink:href="#DejaVuSans-53"/>
     <use x="254.492188" xlink:href="#DejaVuSans-44"/>
     <use x="286.279297" xlink:href="#DejaVuSans-32"/>
     <use x="318.066406" xlink:href="#DejaVuSans-97"/>
     <use x="379.345703" xlink:href="#DejaVuSans-100"/>
     <use x="442.822266" xlink:href="#DejaVuSans-117"/>
     <use x="506.201172" xlink:href="#DejaVuSans-108"/>
     <use x="533.984375" xlink:href="#DejaVuSans-116"/>
     <use x="573.193359" xlink:href="#DejaVuSans-32"/>
     <use x="604.980469" xlink:href="#DejaVuSans-40"/>
     <use x="643.994141" xlink:href="#DejaVuSans-83"/>
     <use x="707.470703" xlink:href="#DejaVuSans-68"/>
     <use x="784.472656" xlink:href="#DejaVuSans-57"/>
     <use x="848.095703" xlink:href="#DejaVuSans-53"/>
     <use x="911.71875" xlink:href="#DejaVuSans-95"/>
     <use x="961.71875" xlink:href="#DejaVuSans-51"/>
     <use x="1025.341797" xlink:href="#DejaVuSans-41"/>
    </g>
   </g>
   <g id="LineCollection_4">
    <path clip-path="url(#p0ba49eb01f)" d="M 43.992938 198.810207 
L 166.182938 198.810207 
" style="fill:none;stroke:#999999;stroke-dasharray:1.32934,2.193412;stroke-dashoffset:0;stroke-width:1.32934;"/>
   </g>
  </g>
  <g id="axes_5">
   <g id="patch_18">
    <path d="M 171.222938 204.452 
L 293.412937 204.452 
L 293.412937 122.646 
L 171.222938 122.646 
z
" style="fill:#ffffff;"/>
   </g>
   <g id="matplotlib.axis_9">
    <g id="xtick_37">
     <g id="line2d_23">
      <path d="M 177.623992 204.452 
" style="fill:none;stroke:#333333;stroke-linecap:square;stroke-width:1.5;"/>
      <g>
       <use style="fill:#333333;stroke:#000000;" x="177.623992" xlink:href="#md64cff360a" y="204.452"/>
      </g>
     </g>
     <g id="text_24">
      <!-- 1984 -->
      <g style="fill:#4d4d4d;" transform="translate(180.052242 231.798)rotate(-90)scale(0.088 -0.088)">
       <use xlink:href="#DejaVuSans-49"/>
       <use x="63.623047" xlink:href="#DejaVuSans-57"/>
       <use x="127.246094" xlink:href="#DejaVuSans-56"/>
       <use x="190.869141" xlink:href="#DejaVuSans-52"/>
      </g>
     </g>
    </g>
    <g id="xtick_38">
     <g id="line2d_24">
      <path d="M 203.228212 204.452 
" style="fill:none;stroke:#333333;stroke-linecap:square;stroke-width:1.5;"/>
      <g>
       <use style="fill:#333333;stroke:#000000;" x="203.228212" xlink:href="#md64cff360a" y="204.452"/>
      </g>
     </g>
     <g id="text_25">
      <!-- 1992 -->
      <g style="fill:#4d4d4d;" transform="translate(205.656462 231.798)rotate(-90)scale(0.088 -0.088)">
       <use xlink:href="#DejaVuSans-49"/>
       <use x="63.623047" xlink:href="#DejaVuSans-57"/>
       <use x="127.246094" xlink:href="#DejaVuSans-57"/>
       <use x="190.869141" xlink:href="#DejaVuSans-50"/>
      </g>
     </g>
    </g>
    <g id="xtick_39">
     <g id="line2d_25">
      <path d="M 232.032959 204.452 
" style="fill:none;stroke:#333333;stroke-linecap:square;stroke-width:1.5;"/>
      <g>
       <use style="fill:#333333;stroke:#000000;" x="232.032959" xlink:href="#md64cff360a" y="204.452"/>
      </g>
     </g>
     <g id="text_26">
      <!-- 2001 -->
      <g style="fill:#4d4d4d;" transform="translate(234.461209 231.798)rotate(-90)scale(0.088 -0.088)">
       <use xlink:href="#DejaVuSans-50"/>
       <use x="63.623047" xlink:href="#DejaVuSans-48"/>
       <use x="127.246094" xlink:href="#DejaVuSans-48"/>
       <use x="190.869141" xlink:href="#DejaVuSans-49"/>
      </g>
     </g>
    </g>
    <g id="xtick_40">
     <g id="line2d_26">
      <path d="M 254.436651 204.452 
" style="fill:none;stroke:#333333;stroke-linecap:square;stroke-width:1.5;"/>
      <g>
       <use style="fill:#333333;stroke:#000000;" x="254.436651" xlink:href="#md64cff360a" y="204.452"/>
      </g>
     </g>
     <g id="text_27">
      <!-- 2008 -->
      <g style="fill:#4d4d4d;" transform="translate(256.864901 231.798)rotate(-90)scale(0.088 -0.088)">
       <use xlink:href="#DejaVuSans-50"/>
       <use x="63.623047" xlink:href="#DejaVuSans-48"/>
       <use x="127.246094" xlink:href="#DejaVuSans-48"/>
       <use x="190.869141" xlink:href="#DejaVuSans-56"/>
      </g>
     </g>
    </g>
    <g id="xtick_41">
     <g id="line2d_27">
      <path d="M 280.040871 204.452 
" style="fill:none;stroke:#333333;stroke-linecap:square;stroke-width:1.5;"/>
      <g>
       <use style="fill:#333333;stroke:#000000;" x="280.040871" xlink:href="#md64cff360a" y="204.452"/>
      </g>
     </g>
     <g id="text_28">
      <!-- 2016 -->
      <g style="fill:#4d4d4d;" transform="translate(282.469121 231.798)rotate(-90)scale(0.088 -0.088)">
       <use xlink:href="#DejaVuSans-50"/>
       <use x="63.623047" xlink:href="#DejaVuSans-48"/>
       <use x="127.246094" xlink:href="#DejaVuSans-49"/>
       <use x="190.869141" xlink:href="#DejaVuSans-54"/>
      </g>
     </g>
    </g>
    <g id="xtick_42"/>
    <g id="xtick_43"/>
    <g id="xtick_44"/>
    <g id="xtick_45"/>
    <g id="text_29">
     <!-- year of virus isolation -->
     <g transform="translate(166.8395 244.556281)scale(0.11 -0.11)">
      <defs>
       <path d="M 37.109375 75.984375 
L 37.109375 68.5 
L 28.515625 68.5 
Q 23.6875 68.5 21.796875 66.546875 
Q 19.921875 64.59375 19.921875 59.515625 
L 19.921875 54.6875 
L 34.71875 54.6875 
L 34.71875 47.703125 
L 19.921875 47.703125 
L 19.921875 0 
L 10.890625 0 
L 10.890625 47.703125 
L 2.296875 47.703125 
L 2.296875 54.6875 
L 10.890625 54.6875 
L 10.890625 58.5 
Q 10.890625 67.625 15.140625 71.796875 
Q 19.390625 75.984375 28.609375 75.984375 
z
" id="DejaVuSans-102"/>
       <path d="M 2.984375 54.6875 
L 12.5 54.6875 
L 29.59375 8.796875 
L 46.6875 54.6875 
L 56.203125 54.6875 
L 35.6875 0 
L 23.484375 0 
z
" id="DejaVuSans-118"/>
       <path d="M 44.28125 53.078125 
L 44.28125 44.578125 
Q 40.484375 46.53125 36.375 47.5 
Q 32.28125 48.484375 27.875 48.484375 
Q 21.1875 48.484375 17.84375 46.4375 
Q 14.5 44.390625 14.5 40.28125 
Q 14.5 37.15625 16.890625 35.375 
Q 19.28125 33.59375 26.515625 31.984375 
L 29.59375 31.296875 
Q 39.15625 29.25 43.1875 25.515625 
Q 47.21875 21.78125 47.21875 15.09375 
Q 47.21875 7.46875 41.1875 3.015625 
Q 35.15625 -1.421875 24.609375 -1.421875 
Q 20.21875 -1.421875 15.453125 -0.5625 
Q 10.6875 0.296875 5.421875 2 
L 5.421875 11.28125 
Q 10.40625 8.6875 15.234375 7.390625 
Q 20.0625 6.109375 24.8125 6.109375 
Q 31.15625 6.109375 34.5625 8.28125 
Q 37.984375 10.453125 37.984375 14.40625 
Q 37.984375 18.0625 35.515625 20.015625 
Q 33.0625 21.96875 24.703125 23.78125 
L 21.578125 24.515625 
Q 13.234375 26.265625 9.515625 29.90625 
Q 5.8125 33.546875 5.8125 39.890625 
Q 5.8125 47.609375 11.28125 51.796875 
Q 16.75 56 26.8125 56 
Q 31.78125 56 36.171875 55.265625 
Q 40.578125 54.546875 44.28125 53.078125 
z
" id="DejaVuSans-115"/>
      </defs>
      <use xlink:href="#DejaVuSans-121"/>
      <use x="59.179688" xlink:href="#DejaVuSans-101"/>
      <use x="120.703125" xlink:href="#DejaVuSans-97"/>
      <use x="181.982422" xlink:href="#DejaVuSans-114"/>
      <use x="223.095703" xlink:href="#DejaVuSans-32"/>
      <use x="254.882812" xlink:href="#DejaVuSans-111"/>
      <use x="316.064453" xlink:href="#DejaVuSans-102"/>
      <use x="351.269531" xlink:href="#DejaVuSans-32"/>
      <use x="383.056641" xlink:href="#DejaVuSans-118"/>
      <use x="442.236328" xlink:href="#DejaVuSans-105"/>
      <use x="470.019531" xlink:href="#DejaVuSans-114"/>
      <use x="511.132812" xlink:href="#DejaVuSans-117"/>
      <use x="574.511719" xlink:href="#DejaVuSans-115"/>
      <use x="626.611328" xlink:href="#DejaVuSans-32"/>
      <use x="658.398438" xlink:href="#DejaVuSans-105"/>
      <use x="686.181641" xlink:href="#DejaVuSans-115"/>
      <use x="738.28125" xlink:href="#DejaVuSans-111"/>
      <use x="799.462891" xlink:href="#DejaVuSans-108"/>
      <use x="827.246094" xlink:href="#DejaVuSans-97"/>
      <use x="888.525391" xlink:href="#DejaVuSans-116"/>
      <use x="927.734375" xlink:href="#DejaVuSans-105"/>
      <use x="955.517578" xlink:href="#DejaVuSans-111"/>
      <use x="1016.699219" xlink:href="#DejaVuSans-110"/>
     </g>
    </g>
   </g>
   <g id="matplotlib.axis_10">
    <g id="ytick_137"/>
    <g id="ytick_138"/>
    <g id="ytick_139"/>
    <g id="ytick_140"/>
    <g id="ytick_141"/>
    <g id="ytick_142"/>
    <g id="ytick_143"/>
    <g id="ytick_144"/>
    <g id="ytick_145"/>
    <g id="ytick_146"/>
    <g id="ytick_147"/>
    <g id="ytick_148"/>
    <g id="ytick_149"/>
    <g id="ytick_150"/>
    <g id="ytick_151"/>
    <g id="ytick_152"/>
    <g id="ytick_153"/>
    <g id="ytick_154"/>
    <g id="ytick_155"/>
    <g id="ytick_156"/>
    <g id="ytick_157"/>
    <g id="ytick_158"/>
    <g id="ytick_159"/>
    <g id="ytick_160"/>
    <g id="ytick_161"/>
    <g id="ytick_162"/>
    <g id="ytick_163"/>
    <g id="ytick_164"/>
    <g id="ytick_165"/>
    <g id="ytick_166"/>
    <g id="ytick_167"/>
    <g id="ytick_168"/>
    <g id="ytick_169"/>
    <g id="ytick_170"/>
   </g>
   <g id="PathCollection_5">
    <path clip-path="url(#p1b695d118c)" d="M 177.623992 165.474016 
C 178.211568 165.474016 178.775157 165.24057 179.190635 164.825092 
C 179.606114 164.409613 179.83956 163.846024 179.83956 163.258449 
C 179.83956 162.670874 179.606114 162.107285 179.190635 161.691806 
C 178.775157 161.276328 178.211568 161.042882 177.623992 161.042882 
C 177.036417 161.042882 176.472828 161.276328 176.05735 161.691806 
C 175.641871 162.107285 175.408425 162.670874 175.408425 163.258449 
C 175.408425 163.846024 175.641871 164.409613 176.05735 164.825092 
C 176.472828 165.24057 177.036417 165.474016 177.623992 165.474016 
z
" style="stroke:#000000;stroke-width:0.886227;"/>
    <path clip-path="url(#p1b695d118c)" d="M 203.228212 156.649683 
C 203.815787 156.649683 204.379376 156.416237 204.794855 156.000759 
C 205.210333 155.58528 205.443779 155.021691 205.443779 154.434116 
C 205.443779 153.846541 205.210333 153.282952 204.794855 152.867473 
C 204.379376 152.451995 203.815787 152.218549 203.228212 152.218549 
C 202.640637 152.218549 202.077048 152.451995 201.661569 152.867473 
C 201.246091 153.282952 201.012645 153.846541 201.012645 154.434116 
C 201.012645 155.021691 201.246091 155.58528 201.661569 156.000759 
C 202.077048 156.416237 202.640637 156.649683 203.228212 156.649683 
z
" style="stroke:#000000;stroke-width:0.886227;"/>
    <path clip-path="url(#p1b695d118c)" d="M 232.032959 167.671993 
C 232.620534 167.671993 233.184123 167.438547 233.599602 167.023068 
C 234.01508 166.60759 234.248526 166.044001 234.248526 165.456426 
C 234.248526 164.86885 234.01508 164.305262 233.599602 163.889783 
C 233.184123 163.474305 232.620534 163.240858 232.032959 163.240858 
C 231.445384 163.240858 230.881795 163.474305 230.466316 163.889783 
C 230.050838 164.305262 229.817392 164.86885 229.817392 165.456426 
C 229.817392 166.044001 230.050838 166.60759 230.466316 167.023068 
C 230.881795 167.438547 231.445384 167.671993 232.032959 167.671993 
z
" style="stroke:#000000;stroke-width:0.886227;"/>
    <path clip-path="url(#p1b695d118c)" d="M 254.436651 172.807086 
C 255.024226 172.807086 255.587815 172.57364 256.003294 172.158162 
C 256.418772 171.742683 256.652218 171.179094 256.652218 170.591519 
C 256.652218 170.003944 256.418772 169.440355 256.003294 169.024876 
C 255.587815 168.609398 255.024226 168.375952 254.436651 168.375952 
C 253.849076 168.375952 253.285487 168.609398 252.870008 169.024876 
C 252.45453 169.440355 252.221084 170.003944 252.221084 170.591519 
C 252.221084 171.179094 252.45453 171.742683 252.870008 172.158162 
C 253.285487 172.57364 253.849076 172.807086 254.436651 172.807086 
z
" style="stroke:#000000;stroke-width:0.886227;"/>
    <path clip-path="url(#p1b695d118c)" d="M 280.040871 196.019912 
C 280.628446 196.019912 281.192035 195.786466 281.607513 195.370987 
C 282.022992 194.955509 282.256438 194.39192 282.256438 193.804345 
C 282.256438 193.216769 282.022992 192.653181 281.607513 192.237702 
C 281.192035 191.822224 280.628446 191.588777 280.040871 191.588777 
C 279.453295 191.588777 278.889707 191.822224 278.474228 192.237702 
C 278.05875 192.653181 277.825303 193.216769 277.825303 193.804345 
C 277.825303 194.39192 278.05875 194.955509 278.474228 195.370987 
C 278.889707 195.786466 279.453295 196.019912 280.040871 196.019912 
z
" style="stroke:#000000;stroke-width:0.886227;"/>
   </g>
   <g id="line2d_28">
    <path clip-path="url(#p1b695d118c)" d="M 177.623992 163.258449 
L 203.228212 154.434116 
L 232.032959 165.456426 
L 254.436651 170.591519 
L 280.040871 193.804345 
" style="fill:none;stroke:#000000;stroke-width:0.886227;"/>
   </g>
   <g id="patch_19">
    <path d="M 171.222938 122.646 
L 293.412937 122.646 
L 293.412937 108.346 
L 171.222938 108.346 
z
" style="fill:none;stroke:#000000;stroke-linejoin:miter;"/>
   </g>
   <g id="patch_20">
    <path d="M 171.222938 204.452 
L 171.222938 122.646 
" style="fill:none;stroke:#000000;stroke-linecap:square;stroke-linejoin:miter;"/>
   </g>
   <g id="patch_21">
    <path d="M 171.222937 204.452 
L 293.412938 204.452 
" style="fill:none;stroke:#000000;stroke-linecap:square;stroke-linejoin:miter;"/>
   </g>
   <g id="PolyCollection_5">
    <path clip-path="url(#p1b695d118c)" d="M 171.222937 242.531837 
L 171.222937 -4129.631153 
L 213.338371 -4129.631153 
L 213.338371 242.531837 
z
" style="fill:#56b4e9;fill-opacity:0.14902;"/>
   </g>
   <g id="text_30">
    <!-- 1995, adult (SD95_4) -->
    <g style="fill:#1a1a1a;" transform="translate(185.486125 117.801875)scale(0.088 -0.088)">
     <use xlink:href="#DejaVuSans-49"/>
     <use x="63.623047" xlink:href="#DejaVuSans-57"/>
     <use x="127.246094" xlink:href="#DejaVuSans-57"/>
     <use x="190.869141" xlink:href="#DejaVuSans-53"/>
     <use x="254.492188" xlink:href="#DejaVuSans-44"/>
     <use x="286.279297" xlink:href="#DejaVuSans-32"/>
     <use x="318.066406" xlink:href="#DejaVuSans-97"/>
     <use x="379.345703" xlink:href="#DejaVuSans-100"/>
     <use x="442.822266" xlink:href="#DejaVuSans-117"/>
     <use x="506.201172" xlink:href="#DejaVuSans-108"/>
     <use x="533.984375" xlink:href="#DejaVuSans-116"/>
     <use x="573.193359" xlink:href="#DejaVuSans-32"/>
     <use x="604.980469" xlink:href="#DejaVuSans-40"/>
     <use x="643.994141" xlink:href="#DejaVuSans-83"/>
     <use x="707.470703" xlink:href="#DejaVuSans-68"/>
     <use x="784.472656" xlink:href="#DejaVuSans-57"/>
     <use x="848.095703" xlink:href="#DejaVuSans-53"/>
     <use x="911.71875" xlink:href="#DejaVuSans-95"/>
     <use x="961.71875" xlink:href="#DejaVuSans-52"/>
     <use x="1025.341797" xlink:href="#DejaVuSans-41"/>
    </g>
   </g>
   <g id="LineCollection_5">
    <path clip-path="url(#p1b695d118c)" d="M 171.222937 198.810207 
L 293.412938 198.810207 
" style="fill:none;stroke:#999999;stroke-dasharray:1.32934,2.193412;stroke-dashoffset:0;stroke-width:1.32934;"/>
   </g>
  </g>
 </g>
 <defs>
  <clipPath id="p590ffe19c4">
   <rect height="81.806" width="122.19" x="43.992938" y="21.5"/>
  </clipPath>
  <clipPath id="p0bf09e738b">
   <rect height="81.806" width="122.19" x="171.222938" y="21.5"/>
  </clipPath>
  <clipPath id="p976ce3a982">
   <rect height="81.806" width="122.19" x="298.452937" y="21.5"/>
  </clipPath>
  <clipPath id="p0ba49eb01f">
   <rect height="81.806" width="122.19" x="43.992938" y="122.646"/>
  </clipPath>
  <clipPath id="p1b695d118c">
   <rect height="81.806" width="122.19" x="171.222938" y="122.646"/>
  </clipPath>
 </defs>
</svg>
