<?xml version="1.0" encoding="utf-8" standalone="no"?>
<!DOCTYPE svg PUBLIC "-//W3C//DTD SVG 1.1//EN"
  "http://www.w3.org/Graphics/SVG/1.1/DTD/svg11.dtd">
<!-- Created with matplotlib (https://matplotlib.org/) -->
<svg height="254.043937pt" version="1.1" viewBox="0 0 558.991938 254.043937" width="558.991938pt" xmlns="http://www.w3.org/2000/svg" xmlns:xlink="http://www.w3.org/1999/xlink">
 <metadata>
  <rdf:RDF xmlns:cc="http://creativecommons.org/ns#" xmlns:dc="http://purl.org/dc/elements/1.1/" xmlns:rdf="http://www.w3.org/1999/02/22-rdf-syntax-ns#">
   <cc:Work>
    <dc:type rdf:resource="http://purl.org/dc/dcmitype/StillImage"/>
    <dc:date>2020-12-06T18:38:47.444357</dc:date>
    <dc:format>image/svg+xml</dc:format>
    <dc:creator>
     <cc:Agent>
      <dc:title>Matplotlib v3.3.2, https://matplotlib.org/</dc:title>
     </cc:Agent>
    </dc:creator>
   </cc:Work>
  </rdf:RDF>
 </metadata>
 <defs>
  <style type="text/css">*{stroke-linecap:butt;stroke-linejoin:round;}</style>
 </defs>
 <g id="figure_1">
  <g id="patch_1">
   <path d="M -0 254.043937 
L 558.991938 254.043937 
L 558.991938 0 
L -0 0 
z
" style="fill:#ffffff;stroke:#ffffff;stroke-linejoin:miter;"/>
  </g>
  <g id="axes_1">
   <g id="patch_2">
    <path d="M 49.591938 103.306 
L 171.361938 103.306 
L 171.361938 21.5 
L 49.591938 21.5 
z
" style="fill:#ffffff;"/>
   </g>
   <g id="matplotlib.axis_1">
    <g id="xtick_1"/>
    <g id="xtick_2"/>
    <g id="xtick_3"/>
    <g id="xtick_4"/>
    <g id="xtick_5"/>
   </g>
   <g id="matplotlib.axis_2">
    <g id="ytick_1">
     <g id="line2d_1">
      <path d="M 49.591938 97.664207 
" style="fill:none;stroke:#333333;stroke-width:1.5;"/>
      <defs>
       <path d="M 0 0 
L -2.75 0 
" id="m83eaa729a8" style="stroke:#000000;"/>
      </defs>
      <g>
       <use style="fill:#333333;stroke:#000000;" x="49.591938" xlink:href="#m83eaa729a8" y="97.664207"/>
      </g>
     </g>
     <g id="text_1">
      <!-- 10 -->
      <g style="fill:#4d4d4d;" transform="translate(33.443938 100.092457)scale(0.088 -0.088)">
       <defs>
        <path d="M 12.40625 8.296875 
L 28.515625 8.296875 
L 28.515625 63.921875 
L 10.984375 60.40625 
L 10.984375 69.390625 
L 28.421875 72.90625 
L 38.28125 72.90625 
L 38.28125 8.296875 
L 54.390625 8.296875 
L 54.390625 0 
L 12.40625 0 
z
" id="DejaVuSans-49"/>
        <path d="M 31.78125 66.40625 
Q 24.171875 66.40625 20.328125 58.90625 
Q 16.5 51.421875 16.5 36.375 
Q 16.5 21.390625 20.328125 13.890625 
Q 24.171875 6.390625 31.78125 6.390625 
Q 39.453125 6.390625 43.28125 13.890625 
Q 47.125 21.390625 47.125 36.375 
Q 47.125 51.421875 43.28125 58.90625 
Q 39.453125 66.40625 31.78125 66.40625 
z
M 31.78125 74.21875 
Q 44.046875 74.21875 50.515625 64.515625 
Q 56.984375 54.828125 56.984375 36.375 
Q 56.984375 17.96875 50.515625 8.265625 
Q 44.046875 -1.421875 31.78125 -1.421875 
Q 19.53125 -1.421875 13.0625 8.265625 
Q 6.59375 17.96875 6.59375 36.375 
Q 6.59375 54.828125 13.0625 64.515625 
Q 19.53125 74.21875 31.78125 74.21875 
z
" id="DejaVuSans-48"/>
       </defs>
       <use xlink:href="#DejaVuSans-49"/>
       <use x="63.623047" xlink:href="#DejaVuSans-48"/>
      </g>
     </g>
    </g>
    <g id="ytick_2">
     <g id="line2d_2">
      <path d="M 49.591938 69.851576 
" style="fill:none;stroke:#333333;stroke-width:1.5;"/>
      <g>
       <use style="fill:#333333;stroke:#000000;" x="49.591938" xlink:href="#m83eaa729a8" y="69.851576"/>
      </g>
     </g>
     <g id="text_2">
      <!-- 100 -->
      <g style="fill:#4d4d4d;" transform="translate(27.844938 72.279826)scale(0.088 -0.088)">
       <use xlink:href="#DejaVuSans-49"/>
       <use x="63.623047" xlink:href="#DejaVuSans-48"/>
       <use x="127.246094" xlink:href="#DejaVuSans-48"/>
      </g>
     </g>
    </g>
    <g id="ytick_3">
     <g id="line2d_3">
      <path d="M 49.591938 42.038944 
" style="fill:none;stroke:#333333;stroke-width:1.5;"/>
      <g>
       <use style="fill:#333333;stroke:#000000;" x="49.591938" xlink:href="#m83eaa729a8" y="42.038944"/>
      </g>
     </g>
     <g id="text_3">
      <!-- 1000 -->
      <g style="fill:#4d4d4d;" transform="translate(22.245938 44.467194)scale(0.088 -0.088)">
       <use xlink:href="#DejaVuSans-49"/>
       <use x="63.623047" xlink:href="#DejaVuSans-48"/>
       <use x="127.246094" xlink:href="#DejaVuSans-48"/>
       <use x="190.869141" xlink:href="#DejaVuSans-48"/>
      </g>
     </g>
    </g>
    <g id="ytick_4"/>
    <g id="ytick_5"/>
    <g id="ytick_6"/>
    <g id="ytick_7"/>
    <g id="ytick_8"/>
    <g id="ytick_9"/>
    <g id="ytick_10"/>
    <g id="ytick_11"/>
    <g id="ytick_12"/>
    <g id="ytick_13"/>
    <g id="ytick_14"/>
    <g id="ytick_15"/>
    <g id="ytick_16"/>
    <g id="ytick_17"/>
    <g id="ytick_18"/>
    <g id="ytick_19"/>
    <g id="ytick_20"/>
    <g id="ytick_21"/>
    <g id="ytick_22"/>
    <g id="ytick_23"/>
    <g id="ytick_24"/>
    <g id="ytick_25"/>
    <g id="ytick_26"/>
    <g id="text_4">
     <!-- neutralization titer (reciprocal IC50) -->
     <g transform="translate(15.558281 210.252609)rotate(-90)scale(0.11 -0.11)">
      <defs>
       <path d="M 54.890625 33.015625 
L 54.890625 0 
L 45.90625 0 
L 45.90625 32.71875 
Q 45.90625 40.484375 42.875 44.328125 
Q 39.84375 48.1875 33.796875 48.1875 
Q 26.515625 48.1875 22.3125 43.546875 
Q 18.109375 38.921875 18.109375 30.90625 
L 18.109375 0 
L 9.078125 0 
L 9.078125 54.6875 
L 18.109375 54.6875 
L 18.109375 46.1875 
Q 21.34375 51.125 25.703125 53.5625 
Q 30.078125 56 35.796875 56 
Q 45.21875 56 50.046875 50.171875 
Q 54.890625 44.34375 54.890625 33.015625 
z
" id="DejaVuSans-110"/>
       <path d="M 56.203125 29.59375 
L 56.203125 25.203125 
L 14.890625 25.203125 
Q 15.484375 15.921875 20.484375 11.0625 
Q 25.484375 6.203125 34.421875 6.203125 
Q 39.59375 6.203125 44.453125 7.46875 
Q 49.3125 8.734375 54.109375 11.28125 
L 54.109375 2.78125 
Q 49.265625 0.734375 44.1875 -0.34375 
Q 39.109375 -1.421875 33.890625 -1.421875 
Q 20.796875 -1.421875 13.15625 6.1875 
Q 5.515625 13.8125 5.515625 26.8125 
Q 5.515625 40.234375 12.765625 48.109375 
Q 20.015625 56 32.328125 56 
Q 43.359375 56 49.78125 48.890625 
Q 56.203125 41.796875 56.203125 29.59375 
z
M 47.21875 32.234375 
Q 47.125 39.59375 43.09375 43.984375 
Q 39.0625 48.390625 32.421875 48.390625 
Q 24.90625 48.390625 20.390625 44.140625 
Q 15.875 39.890625 15.1875 32.171875 
z
" id="DejaVuSans-101"/>
       <path d="M 8.5 21.578125 
L 8.5 54.6875 
L 17.484375 54.6875 
L 17.484375 21.921875 
Q 17.484375 14.15625 20.5 10.265625 
Q 23.53125 6.390625 29.59375 6.390625 
Q 36.859375 6.390625 41.078125 11.03125 
Q 45.3125 15.671875 45.3125 23.6875 
L 45.3125 54.6875 
L 54.296875 54.6875 
L 54.296875 0 
L 45.3125 0 
L 45.3125 8.40625 
Q 42.046875 3.421875 37.71875 1 
Q 33.40625 -1.421875 27.6875 -1.421875 
Q 18.265625 -1.421875 13.375 4.4375 
Q 8.5 10.296875 8.5 21.578125 
z
M 31.109375 56 
z
" id="DejaVuSans-117"/>
       <path d="M 18.3125 70.21875 
L 18.3125 54.6875 
L 36.8125 54.6875 
L 36.8125 47.703125 
L 18.3125 47.703125 
L 18.3125 18.015625 
Q 18.3125 11.328125 20.140625 9.421875 
Q 21.96875 7.515625 27.59375 7.515625 
L 36.8125 7.515625 
L 36.8125 0 
L 27.59375 0 
Q 17.1875 0 13.234375 3.875 
Q 9.28125 7.765625 9.28125 18.015625 
L 9.28125 47.703125 
L 2.6875 47.703125 
L 2.6875 54.6875 
L 9.28125 54.6875 
L 9.28125 70.21875 
z
" id="DejaVuSans-116"/>
       <path d="M 41.109375 46.296875 
Q 39.59375 47.171875 37.8125 47.578125 
Q 36.03125 48 33.890625 48 
Q 26.265625 48 22.1875 43.046875 
Q 18.109375 38.09375 18.109375 28.8125 
L 18.109375 0 
L 9.078125 0 
L 9.078125 54.6875 
L 18.109375 54.6875 
L 18.109375 46.1875 
Q 20.953125 51.171875 25.484375 53.578125 
Q 30.03125 56 36.53125 56 
Q 37.453125 56 38.578125 55.875 
Q 39.703125 55.765625 41.0625 55.515625 
z
" id="DejaVuSans-114"/>
       <path d="M 34.28125 27.484375 
Q 23.390625 27.484375 19.1875 25 
Q 14.984375 22.515625 14.984375 16.5 
Q 14.984375 11.71875 18.140625 8.90625 
Q 21.296875 6.109375 26.703125 6.109375 
Q 34.1875 6.109375 38.703125 11.40625 
Q 43.21875 16.703125 43.21875 25.484375 
L 43.21875 27.484375 
z
M 52.203125 31.203125 
L 52.203125 0 
L 43.21875 0 
L 43.21875 8.296875 
Q 40.140625 3.328125 35.546875 0.953125 
Q 30.953125 -1.421875 24.3125 -1.421875 
Q 15.921875 -1.421875 10.953125 3.296875 
Q 6 8.015625 6 15.921875 
Q 6 25.140625 12.171875 29.828125 
Q 18.359375 34.515625 30.609375 34.515625 
L 43.21875 34.515625 
L 43.21875 35.40625 
Q 43.21875 41.609375 39.140625 45 
Q 35.0625 48.390625 27.6875 48.390625 
Q 23 48.390625 18.546875 47.265625 
Q 14.109375 46.140625 10.015625 43.890625 
L 10.015625 52.203125 
Q 14.9375 54.109375 19.578125 55.046875 
Q 24.21875 56 28.609375 56 
Q 40.484375 56 46.34375 49.84375 
Q 52.203125 43.703125 52.203125 31.203125 
z
" id="DejaVuSans-97"/>
       <path d="M 9.421875 75.984375 
L 18.40625 75.984375 
L 18.40625 0 
L 9.421875 0 
z
" id="DejaVuSans-108"/>
       <path d="M 9.421875 54.6875 
L 18.40625 54.6875 
L 18.40625 0 
L 9.421875 0 
z
M 9.421875 75.984375 
L 18.40625 75.984375 
L 18.40625 64.59375 
L 9.421875 64.59375 
z
" id="DejaVuSans-105"/>
       <path d="M 5.515625 54.6875 
L 48.1875 54.6875 
L 48.1875 46.484375 
L 14.40625 7.171875 
L 48.1875 7.171875 
L 48.1875 0 
L 4.296875 0 
L 4.296875 8.203125 
L 38.09375 47.515625 
L 5.515625 47.515625 
z
" id="DejaVuSans-122"/>
       <path d="M 30.609375 48.390625 
Q 23.390625 48.390625 19.1875 42.75 
Q 14.984375 37.109375 14.984375 27.296875 
Q 14.984375 17.484375 19.15625 11.84375 
Q 23.34375 6.203125 30.609375 6.203125 
Q 37.796875 6.203125 41.984375 11.859375 
Q 46.1875 17.53125 46.1875 27.296875 
Q 46.1875 37.015625 41.984375 42.703125 
Q 37.796875 48.390625 30.609375 48.390625 
z
M 30.609375 56 
Q 42.328125 56 49.015625 48.375 
Q 55.71875 40.765625 55.71875 27.296875 
Q 55.71875 13.875 49.015625 6.21875 
Q 42.328125 -1.421875 30.609375 -1.421875 
Q 18.84375 -1.421875 12.171875 6.21875 
Q 5.515625 13.875 5.515625 27.296875 
Q 5.515625 40.765625 12.171875 48.375 
Q 18.84375 56 30.609375 56 
z
" id="DejaVuSans-111"/>
       <path id="DejaVuSans-32"/>
       <path d="M 31 75.875 
Q 24.46875 64.65625 21.28125 53.65625 
Q 18.109375 42.671875 18.109375 31.390625 
Q 18.109375 20.125 21.3125 9.0625 
Q 24.515625 -2 31 -13.1875 
L 23.1875 -13.1875 
Q 15.875 -1.703125 12.234375 9.375 
Q 8.59375 20.453125 8.59375 31.390625 
Q 8.59375 42.28125 12.203125 53.3125 
Q 15.828125 64.359375 23.1875 75.875 
z
" id="DejaVuSans-40"/>
       <path d="M 48.78125 52.59375 
L 48.78125 44.1875 
Q 44.96875 46.296875 41.140625 47.34375 
Q 37.3125 48.390625 33.40625 48.390625 
Q 24.65625 48.390625 19.8125 42.84375 
Q 14.984375 37.3125 14.984375 27.296875 
Q 14.984375 17.28125 19.8125 11.734375 
Q 24.65625 6.203125 33.40625 6.203125 
Q 37.3125 6.203125 41.140625 7.25 
Q 44.96875 8.296875 48.78125 10.40625 
L 48.78125 2.09375 
Q 45.015625 0.34375 40.984375 -0.53125 
Q 36.96875 -1.421875 32.421875 -1.421875 
Q 20.0625 -1.421875 12.78125 6.34375 
Q 5.515625 14.109375 5.515625 27.296875 
Q 5.515625 40.671875 12.859375 48.328125 
Q 20.21875 56 33.015625 56 
Q 37.15625 56 41.109375 55.140625 
Q 45.0625 54.296875 48.78125 52.59375 
z
" id="DejaVuSans-99"/>
       <path d="M 18.109375 8.203125 
L 18.109375 -20.796875 
L 9.078125 -20.796875 
L 9.078125 54.6875 
L 18.109375 54.6875 
L 18.109375 46.390625 
Q 20.953125 51.265625 25.265625 53.625 
Q 29.59375 56 35.59375 56 
Q 45.5625 56 51.78125 48.09375 
Q 58.015625 40.1875 58.015625 27.296875 
Q 58.015625 14.40625 51.78125 6.484375 
Q 45.5625 -1.421875 35.59375 -1.421875 
Q 29.59375 -1.421875 25.265625 0.953125 
Q 20.953125 3.328125 18.109375 8.203125 
z
M 48.6875 27.296875 
Q 48.6875 37.203125 44.609375 42.84375 
Q 40.53125 48.484375 33.40625 48.484375 
Q 26.265625 48.484375 22.1875 42.84375 
Q 18.109375 37.203125 18.109375 27.296875 
Q 18.109375 17.390625 22.1875 11.75 
Q 26.265625 6.109375 33.40625 6.109375 
Q 40.53125 6.109375 44.609375 11.75 
Q 48.6875 17.390625 48.6875 27.296875 
z
" id="DejaVuSans-112"/>
       <path d="M 9.8125 72.90625 
L 19.671875 72.90625 
L 19.671875 0 
L 9.8125 0 
z
" id="DejaVuSans-73"/>
       <path d="M 64.40625 67.28125 
L 64.40625 56.890625 
Q 59.421875 61.53125 53.78125 63.8125 
Q 48.140625 66.109375 41.796875 66.109375 
Q 29.296875 66.109375 22.65625 58.46875 
Q 16.015625 50.828125 16.015625 36.375 
Q 16.015625 21.96875 22.65625 14.328125 
Q 29.296875 6.6875 41.796875 6.6875 
Q 48.140625 6.6875 53.78125 8.984375 
Q 59.421875 11.28125 64.40625 15.921875 
L 64.40625 5.609375 
Q 59.234375 2.09375 53.4375 0.328125 
Q 47.65625 -1.421875 41.21875 -1.421875 
Q 24.65625 -1.421875 15.125 8.703125 
Q 5.609375 18.84375 5.609375 36.375 
Q 5.609375 53.953125 15.125 64.078125 
Q 24.65625 74.21875 41.21875 74.21875 
Q 47.75 74.21875 53.53125 72.484375 
Q 59.328125 70.75 64.40625 67.28125 
z
" id="DejaVuSans-67"/>
       <path d="M 10.796875 72.90625 
L 49.515625 72.90625 
L 49.515625 64.59375 
L 19.828125 64.59375 
L 19.828125 46.734375 
Q 21.96875 47.46875 24.109375 47.828125 
Q 26.265625 48.1875 28.421875 48.1875 
Q 40.625 48.1875 47.75 41.5 
Q 54.890625 34.8125 54.890625 23.390625 
Q 54.890625 11.625 47.5625 5.09375 
Q 40.234375 -1.421875 26.90625 -1.421875 
Q 22.3125 -1.421875 17.546875 -0.640625 
Q 12.796875 0.140625 7.71875 1.703125 
L 7.71875 11.625 
Q 12.109375 9.234375 16.796875 8.0625 
Q 21.484375 6.890625 26.703125 6.890625 
Q 35.15625 6.890625 40.078125 11.328125 
Q 45.015625 15.765625 45.015625 23.390625 
Q 45.015625 31 40.078125 35.4375 
Q 35.15625 39.890625 26.703125 39.890625 
Q 22.75 39.890625 18.8125 39.015625 
Q 14.890625 38.140625 10.796875 36.28125 
z
" id="DejaVuSans-53"/>
       <path d="M 8.015625 75.875 
L 15.828125 75.875 
Q 23.140625 64.359375 26.78125 53.3125 
Q 30.421875 42.28125 30.421875 31.390625 
Q 30.421875 20.453125 26.78125 9.375 
Q 23.140625 -1.703125 15.828125 -13.1875 
L 8.015625 -13.1875 
Q 14.5 -2 17.703125 9.0625 
Q 20.90625 20.125 20.90625 31.390625 
Q 20.90625 42.671875 17.703125 53.65625 
Q 14.5 64.65625 8.015625 75.875 
z
" id="DejaVuSans-41"/>
      </defs>
      <use xlink:href="#DejaVuSans-110"/>
      <use x="63.378906" xlink:href="#DejaVuSans-101"/>
      <use x="124.902344" xlink:href="#DejaVuSans-117"/>
      <use x="188.28125" xlink:href="#DejaVuSans-116"/>
      <use x="227.490234" xlink:href="#DejaVuSans-114"/>
      <use x="268.603516" xlink:href="#DejaVuSans-97"/>
      <use x="329.882812" xlink:href="#DejaVuSans-108"/>
      <use x="357.666016" xlink:href="#DejaVuSans-105"/>
      <use x="385.449219" xlink:href="#DejaVuSans-122"/>
      <use x="437.939453" xlink:href="#DejaVuSans-97"/>
      <use x="499.21875" xlink:href="#DejaVuSans-116"/>
      <use x="538.427734" xlink:href="#DejaVuSans-105"/>
      <use x="566.210938" xlink:href="#DejaVuSans-111"/>
      <use x="627.392578" xlink:href="#DejaVuSans-110"/>
      <use x="690.771484" xlink:href="#DejaVuSans-32"/>
      <use x="722.558594" xlink:href="#DejaVuSans-116"/>
      <use x="761.767578" xlink:href="#DejaVuSans-105"/>
      <use x="789.550781" xlink:href="#DejaVuSans-116"/>
      <use x="828.759766" xlink:href="#DejaVuSans-101"/>
      <use x="890.283203" xlink:href="#DejaVuSans-114"/>
      <use x="931.396484" xlink:href="#DejaVuSans-32"/>
      <use x="963.183594" xlink:href="#DejaVuSans-40"/>
      <use x="1002.197266" xlink:href="#DejaVuSans-114"/>
      <use x="1041.060547" xlink:href="#DejaVuSans-101"/>
      <use x="1102.583984" xlink:href="#DejaVuSans-99"/>
      <use x="1157.564453" xlink:href="#DejaVuSans-105"/>
      <use x="1185.347656" xlink:href="#DejaVuSans-112"/>
      <use x="1248.824219" xlink:href="#DejaVuSans-114"/>
      <use x="1287.6875" xlink:href="#DejaVuSans-111"/>
      <use x="1348.869141" xlink:href="#DejaVuSans-99"/>
      <use x="1403.849609" xlink:href="#DejaVuSans-97"/>
      <use x="1465.128906" xlink:href="#DejaVuSans-108"/>
      <use x="1492.912109" xlink:href="#DejaVuSans-32"/>
      <use x="1524.699219" xlink:href="#DejaVuSans-73"/>
      <use x="1554.191406" xlink:href="#DejaVuSans-67"/>
      <use x="1624.015625" xlink:href="#DejaVuSans-53"/>
      <use x="1687.638672" xlink:href="#DejaVuSans-48"/>
      <use x="1751.261719" xlink:href="#DejaVuSans-41"/>
     </g>
    </g>
   </g>
   <g id="PathCollection_1">
    <path clip-path="url(#p40cdf322c3)" d="M 110.192939 86.307805 
C 110.780514 86.307805 111.344103 86.074359 111.759581 85.658881 
C 112.17506 85.243402 112.408506 84.679813 112.408506 84.092238 
C 112.408506 83.504663 112.17506 82.941074 111.759581 82.525595 
C 111.344103 82.110117 110.780514 81.876671 110.192939 81.876671 
C 109.605363 81.876671 109.041774 82.110117 108.626296 82.525595 
C 108.210817 82.941074 107.977371 83.504663 107.977371 84.092238 
C 107.977371 84.679813 108.210817 85.243402 108.626296 85.658881 
C 109.041774 86.074359 109.605363 86.307805 110.192939 86.307805 
z
" style="stroke:#000000;stroke-width:0.886227;"/>
    <path clip-path="url(#p40cdf322c3)" d="M 132.519623 87.95974 
C 133.107199 87.95974 133.670787 87.726294 134.086266 87.310815 
C 134.501744 86.895337 134.73519 86.331748 134.73519 85.744173 
C 134.73519 85.156597 134.501744 84.593009 134.086266 84.17753 
C 133.670787 83.762052 133.107199 83.528605 132.519623 83.528605 
C 131.932048 83.528605 131.368459 83.762052 130.952981 84.17753 
C 130.537502 84.593009 130.304056 85.156597 130.304056 85.744173 
C 130.304056 86.331748 130.537502 86.895337 130.952981 87.310815 
C 131.368459 87.726294 131.932048 87.95974 132.519623 87.95974 
z
" style="stroke:#000000;stroke-width:0.886227;"/>
    <path clip-path="url(#p40cdf322c3)" d="M 158.035834 70.508067 
C 158.623409 70.508067 159.186998 70.274621 159.602477 69.859143 
C 160.017955 69.443664 160.251401 68.880075 160.251401 68.2925 
C 160.251401 67.704925 160.017955 67.141336 159.602477 66.725857 
C 159.186998 66.310379 158.623409 66.076933 158.035834 66.076933 
C 157.448259 66.076933 156.88467 66.310379 156.469191 66.725857 
C 156.053713 67.141336 155.820267 67.704925 155.820267 68.2925 
C 155.820267 68.880075 156.053713 69.443664 156.469191 69.859143 
C 156.88467 70.274621 157.448259 70.508067 158.035834 70.508067 
z
" style="stroke:#000000;stroke-width:0.886227;"/>
   </g>
   <g id="line2d_4">
    <path clip-path="url(#p40cdf322c3)" d="M 110.192939 84.092238 
L 132.519623 85.744173 
L 158.035834 68.2925 
" style="fill:none;stroke:#000000;stroke-width:0.886227;"/>
   </g>
   <g id="patch_3">
    <path d="M 49.591938 21.5 
L 171.361938 21.5 
L 171.361938 7.2 
L 49.591938 7.2 
z
" style="fill:none;stroke:#000000;stroke-linejoin:miter;"/>
   </g>
   <g id="patch_4">
    <path d="M 49.591938 103.306 
L 49.591938 21.5 
" style="fill:none;stroke:#000000;stroke-linecap:square;stroke-linejoin:miter;"/>
   </g>
   <g id="patch_5">
    <path d="M 49.591938 103.306 
L 171.361938 103.306 
" style="fill:none;stroke:#000000;stroke-linecap:square;stroke-linejoin:miter;"/>
   </g>
   <g id="PolyCollection_1">
    <path clip-path="url(#p40cdf322c3)" d="M 149.017776 125.476838 
L 149.017776 -2655.786301 
L 171.344461 -2655.786301 
L 171.344461 125.476838 
z
" style="fill:#56b4e9;fill-opacity:0.14902;"/>
   </g>
   <g id="text_5">
    <!-- 2020, 5-9yr (POP_0030) -->
    <g style="fill:#1a1a1a;" transform="translate(57.883188 16.651062)scale(0.088 -0.088)">
     <defs>
      <path d="M 19.1875 8.296875 
L 53.609375 8.296875 
L 53.609375 0 
L 7.328125 0 
L 7.328125 8.296875 
Q 12.9375 14.109375 22.625 23.890625 
Q 32.328125 33.6875 34.8125 36.53125 
Q 39.546875 41.84375 41.421875 45.53125 
Q 43.3125 49.21875 43.3125 52.78125 
Q 43.3125 58.59375 39.234375 62.25 
Q 35.15625 65.921875 28.609375 65.921875 
Q 23.96875 65.921875 18.8125 64.3125 
Q 13.671875 62.703125 7.8125 59.421875 
L 7.8125 69.390625 
Q 13.765625 71.78125 18.9375 73 
Q 24.125 74.21875 28.421875 74.21875 
Q 39.75 74.21875 46.484375 68.546875 
Q 53.21875 62.890625 53.21875 53.421875 
Q 53.21875 48.921875 51.53125 44.890625 
Q 49.859375 40.875 45.40625 35.40625 
Q 44.1875 33.984375 37.640625 27.21875 
Q 31.109375 20.453125 19.1875 8.296875 
z
" id="DejaVuSans-50"/>
      <path d="M 11.71875 12.40625 
L 22.015625 12.40625 
L 22.015625 4 
L 14.015625 -11.625 
L 7.71875 -11.625 
L 11.71875 4 
z
" id="DejaVuSans-44"/>
      <path d="M 4.890625 31.390625 
L 31.203125 31.390625 
L 31.203125 23.390625 
L 4.890625 23.390625 
z
" id="DejaVuSans-45"/>
      <path d="M 10.984375 1.515625 
L 10.984375 10.5 
Q 14.703125 8.734375 18.5 7.8125 
Q 22.3125 6.890625 25.984375 6.890625 
Q 35.75 6.890625 40.890625 13.453125 
Q 46.046875 20.015625 46.78125 33.40625 
Q 43.953125 29.203125 39.59375 26.953125 
Q 35.25 24.703125 29.984375 24.703125 
Q 19.046875 24.703125 12.671875 31.3125 
Q 6.296875 37.9375 6.296875 49.421875 
Q 6.296875 60.640625 12.9375 67.421875 
Q 19.578125 74.21875 30.609375 74.21875 
Q 43.265625 74.21875 49.921875 64.515625 
Q 56.59375 54.828125 56.59375 36.375 
Q 56.59375 19.140625 48.40625 8.859375 
Q 40.234375 -1.421875 26.421875 -1.421875 
Q 22.703125 -1.421875 18.890625 -0.6875 
Q 15.09375 0.046875 10.984375 1.515625 
z
M 30.609375 32.421875 
Q 37.25 32.421875 41.125 36.953125 
Q 45.015625 41.5 45.015625 49.421875 
Q 45.015625 57.28125 41.125 61.84375 
Q 37.25 66.40625 30.609375 66.40625 
Q 23.96875 66.40625 20.09375 61.84375 
Q 16.21875 57.28125 16.21875 49.421875 
Q 16.21875 41.5 20.09375 36.953125 
Q 23.96875 32.421875 30.609375 32.421875 
z
" id="DejaVuSans-57"/>
      <path d="M 32.171875 -5.078125 
Q 28.375 -14.84375 24.75 -17.8125 
Q 21.140625 -20.796875 15.09375 -20.796875 
L 7.90625 -20.796875 
L 7.90625 -13.28125 
L 13.1875 -13.28125 
Q 16.890625 -13.28125 18.9375 -11.515625 
Q 21 -9.765625 23.484375 -3.21875 
L 25.09375 0.875 
L 2.984375 54.6875 
L 12.5 54.6875 
L 29.59375 11.921875 
L 46.6875 54.6875 
L 56.203125 54.6875 
z
" id="DejaVuSans-121"/>
      <path d="M 19.671875 64.796875 
L 19.671875 37.40625 
L 32.078125 37.40625 
Q 38.96875 37.40625 42.71875 40.96875 
Q 46.484375 44.53125 46.484375 51.125 
Q 46.484375 57.671875 42.71875 61.234375 
Q 38.96875 64.796875 32.078125 64.796875 
z
M 9.8125 72.90625 
L 32.078125 72.90625 
Q 44.34375 72.90625 50.609375 67.359375 
Q 56.890625 61.8125 56.890625 51.125 
Q 56.890625 40.328125 50.609375 34.8125 
Q 44.34375 29.296875 32.078125 29.296875 
L 19.671875 29.296875 
L 19.671875 0 
L 9.8125 0 
z
" id="DejaVuSans-80"/>
      <path d="M 39.40625 66.21875 
Q 28.65625 66.21875 22.328125 58.203125 
Q 16.015625 50.203125 16.015625 36.375 
Q 16.015625 22.609375 22.328125 14.59375 
Q 28.65625 6.59375 39.40625 6.59375 
Q 50.140625 6.59375 56.421875 14.59375 
Q 62.703125 22.609375 62.703125 36.375 
Q 62.703125 50.203125 56.421875 58.203125 
Q 50.140625 66.21875 39.40625 66.21875 
z
M 39.40625 74.21875 
Q 54.734375 74.21875 63.90625 63.9375 
Q 73.09375 53.65625 73.09375 36.375 
Q 73.09375 19.140625 63.90625 8.859375 
Q 54.734375 -1.421875 39.40625 -1.421875 
Q 24.03125 -1.421875 14.8125 8.828125 
Q 5.609375 19.09375 5.609375 36.375 
Q 5.609375 53.65625 14.8125 63.9375 
Q 24.03125 74.21875 39.40625 74.21875 
z
" id="DejaVuSans-79"/>
      <path d="M 50.984375 -16.609375 
L 50.984375 -23.578125 
L -0.984375 -23.578125 
L -0.984375 -16.609375 
z
" id="DejaVuSans-95"/>
      <path d="M 40.578125 39.3125 
Q 47.65625 37.796875 51.625 33 
Q 55.609375 28.21875 55.609375 21.1875 
Q 55.609375 10.40625 48.1875 4.484375 
Q 40.765625 -1.421875 27.09375 -1.421875 
Q 22.515625 -1.421875 17.65625 -0.515625 
Q 12.796875 0.390625 7.625 2.203125 
L 7.625 11.71875 
Q 11.71875 9.328125 16.59375 8.109375 
Q 21.484375 6.890625 26.8125 6.890625 
Q 36.078125 6.890625 40.9375 10.546875 
Q 45.796875 14.203125 45.796875 21.1875 
Q 45.796875 27.640625 41.28125 31.265625 
Q 36.765625 34.90625 28.71875 34.90625 
L 20.21875 34.90625 
L 20.21875 43.015625 
L 29.109375 43.015625 
Q 36.375 43.015625 40.234375 45.921875 
Q 44.09375 48.828125 44.09375 54.296875 
Q 44.09375 59.90625 40.109375 62.90625 
Q 36.140625 65.921875 28.71875 65.921875 
Q 24.65625 65.921875 20.015625 65.03125 
Q 15.375 64.15625 9.8125 62.3125 
L 9.8125 71.09375 
Q 15.4375 72.65625 20.34375 73.4375 
Q 25.25 74.21875 29.59375 74.21875 
Q 40.828125 74.21875 47.359375 69.109375 
Q 53.90625 64.015625 53.90625 55.328125 
Q 53.90625 49.265625 50.4375 45.09375 
Q 46.96875 40.921875 40.578125 39.3125 
z
" id="DejaVuSans-51"/>
     </defs>
     <use xlink:href="#DejaVuSans-50"/>
     <use x="63.623047" xlink:href="#DejaVuSans-48"/>
     <use x="127.246094" xlink:href="#DejaVuSans-50"/>
     <use x="190.869141" xlink:href="#DejaVuSans-48"/>
     <use x="254.492188" xlink:href="#DejaVuSans-44"/>
     <use x="286.279297" xlink:href="#DejaVuSans-32"/>
     <use x="318.066406" xlink:href="#DejaVuSans-53"/>
     <use x="381.689453" xlink:href="#DejaVuSans-45"/>
     <use x="417.773438" xlink:href="#DejaVuSans-57"/>
     <use x="481.396484" xlink:href="#DejaVuSans-121"/>
     <use x="540.576172" xlink:href="#DejaVuSans-114"/>
     <use x="581.689453" xlink:href="#DejaVuSans-32"/>
     <use x="613.476562" xlink:href="#DejaVuSans-40"/>
     <use x="652.490234" xlink:href="#DejaVuSans-80"/>
     <use x="712.792969" xlink:href="#DejaVuSans-79"/>
     <use x="791.503906" xlink:href="#DejaVuSans-80"/>
     <use x="851.806641" xlink:href="#DejaVuSans-95"/>
     <use x="901.806641" xlink:href="#DejaVuSans-48"/>
     <use x="965.429688" xlink:href="#DejaVuSans-48"/>
     <use x="1029.052734" xlink:href="#DejaVuSans-51"/>
     <use x="1092.675781" xlink:href="#DejaVuSans-48"/>
     <use x="1156.298828" xlink:href="#DejaVuSans-41"/>
    </g>
   </g>
   <g id="LineCollection_1">
    <path clip-path="url(#p40cdf322c3)" d="M 49.591938 97.664207 
L 171.361938 97.664207 
" style="fill:none;stroke:#999999;stroke-dasharray:1.32934,2.193412;stroke-dashoffset:0;stroke-width:1.32934;"/>
   </g>
  </g>
  <g id="axes_2">
   <g id="patch_6">
    <path d="M 176.401938 103.306 
L 298.171938 103.306 
L 298.171938 21.5 
L 176.401938 21.5 
z
" style="fill:#ffffff;"/>
   </g>
   <g id="matplotlib.axis_3">
    <g id="xtick_6"/>
    <g id="xtick_7"/>
    <g id="xtick_8"/>
    <g id="xtick_9"/>
    <g id="xtick_10"/>
   </g>
   <g id="matplotlib.axis_4">
    <g id="ytick_27"/>
    <g id="ytick_28"/>
    <g id="ytick_29"/>
    <g id="ytick_30"/>
    <g id="ytick_31"/>
    <g id="ytick_32"/>
    <g id="ytick_33"/>
    <g id="ytick_34"/>
    <g id="ytick_35"/>
    <g id="ytick_36"/>
    <g id="ytick_37"/>
    <g id="ytick_38"/>
    <g id="ytick_39"/>
    <g id="ytick_40"/>
    <g id="ytick_41"/>
    <g id="ytick_42"/>
    <g id="ytick_43"/>
    <g id="ytick_44"/>
    <g id="ytick_45"/>
    <g id="ytick_46"/>
    <g id="ytick_47"/>
    <g id="ytick_48"/>
    <g id="ytick_49"/>
    <g id="ytick_50"/>
    <g id="ytick_51"/>
    <g id="ytick_52"/>
   </g>
   <g id="PathCollection_2">
    <path clip-path="url(#p7c7104031a)" d="M 237.002939 99.879774 
C 237.590514 99.879774 238.154103 99.646328 238.569581 99.23085 
C 238.98506 98.815371 239.218506 98.251782 239.218506 97.664207 
C 239.218506 97.076632 238.98506 96.513043 238.569581 96.097564 
C 238.154103 95.682086 237.590514 95.44864 237.002939 95.44864 
C 236.415363 95.44864 235.851774 95.682086 235.436296 96.097564 
C 235.020817 96.513043 234.787371 97.076632 234.787371 97.664207 
C 234.787371 98.251782 235.020817 98.815371 235.436296 99.23085 
C 235.851774 99.646328 236.415363 99.879774 237.002939 99.879774 
z
" style="stroke:#000000;stroke-width:0.886227;"/>
    <path clip-path="url(#p7c7104031a)" d="M 259.329623 83.945929 
C 259.917199 83.945929 260.480787 83.712483 260.896266 83.297005 
C 261.311744 82.881526 261.54519 82.317937 261.54519 81.730362 
C 261.54519 81.142787 261.311744 80.579198 260.896266 80.163719 
C 260.480787 79.748241 259.917199 79.514795 259.329623 79.514795 
C 258.742048 79.514795 258.178459 79.748241 257.762981 80.163719 
C 257.347502 80.579198 257.114056 81.142787 257.114056 81.730362 
C 257.114056 82.317937 257.347502 82.881526 257.762981 83.297005 
C 258.178459 83.712483 258.742048 83.945929 259.329623 83.945929 
z
" style="stroke:#000000;stroke-width:0.886227;"/>
    <path clip-path="url(#p7c7104031a)" d="M 284.845834 29.35736 
C 285.433409 29.35736 285.996998 29.123914 286.412477 28.708436 
C 286.827955 28.292957 287.061401 27.729368 287.061401 27.141793 
C 287.061401 26.554218 286.827955 25.990629 286.412477 25.57515 
C 285.996998 25.159672 285.433409 24.926226 284.845834 24.926226 
C 284.258259 24.926226 283.69467 25.159672 283.279191 25.57515 
C 282.863713 25.990629 282.630267 26.554218 282.630267 27.141793 
C 282.630267 27.729368 282.863713 28.292957 283.279191 28.708436 
C 283.69467 29.123914 284.258259 29.35736 284.845834 29.35736 
z
" style="stroke:#000000;stroke-width:0.886227;"/>
   </g>
   <g id="line2d_5">
    <path clip-path="url(#p7c7104031a)" d="M 237.002939 97.664207 
L 259.329623 81.730362 
L 284.845834 27.141793 
" style="fill:none;stroke:#000000;stroke-width:0.886227;"/>
   </g>
   <g id="patch_7">
    <path d="M 176.401938 21.5 
L 298.171938 21.5 
L 298.171938 7.2 
L 176.401938 7.2 
z
" style="fill:none;stroke:#000000;stroke-linejoin:miter;"/>
   </g>
   <g id="patch_8">
    <path d="M 176.401938 103.306 
L 176.401938 21.5 
" style="fill:none;stroke:#000000;stroke-linecap:square;stroke-linejoin:miter;"/>
   </g>
   <g id="patch_9">
    <path d="M 176.401937 103.306 
L 298.171938 103.306 
" style="fill:none;stroke:#000000;stroke-linecap:square;stroke-linejoin:miter;"/>
   </g>
   <g id="PolyCollection_2">
    <path clip-path="url(#p7c7104031a)" d="M 259.871406 125.476838 
L 259.871406 -2655.786301 
L 298.145722 -2655.786301 
L 298.145722 125.476838 
z
" style="fill:#56b4e9;fill-opacity:0.14902;"/>
   </g>
   <g id="text_6">
    <!-- 2020, 10-14yr (POP_0013) -->
    <g style="fill:#1a1a1a;" transform="translate(179.094188 16.651062)scale(0.088 -0.088)">
     <defs>
      <path d="M 37.796875 64.3125 
L 12.890625 25.390625 
L 37.796875 25.390625 
z
M 35.203125 72.90625 
L 47.609375 72.90625 
L 47.609375 25.390625 
L 58.015625 25.390625 
L 58.015625 17.1875 
L 47.609375 17.1875 
L 47.609375 0 
L 37.796875 0 
L 37.796875 17.1875 
L 4.890625 17.1875 
L 4.890625 26.703125 
z
" id="DejaVuSans-52"/>
     </defs>
     <use xlink:href="#DejaVuSans-50"/>
     <use x="63.623047" xlink:href="#DejaVuSans-48"/>
     <use x="127.246094" xlink:href="#DejaVuSans-50"/>
     <use x="190.869141" xlink:href="#DejaVuSans-48"/>
     <use x="254.492188" xlink:href="#DejaVuSans-44"/>
     <use x="286.279297" xlink:href="#DejaVuSans-32"/>
     <use x="318.066406" xlink:href="#DejaVuSans-49"/>
     <use x="381.689453" xlink:href="#DejaVuSans-48"/>
     <use x="445.3125" xlink:href="#DejaVuSans-45"/>
     <use x="481.396484" xlink:href="#DejaVuSans-49"/>
     <use x="545.019531" xlink:href="#DejaVuSans-52"/>
     <use x="608.642578" xlink:href="#DejaVuSans-121"/>
     <use x="667.822266" xlink:href="#DejaVuSans-114"/>
     <use x="708.935547" xlink:href="#DejaVuSans-32"/>
     <use x="740.722656" xlink:href="#DejaVuSans-40"/>
     <use x="779.736328" xlink:href="#DejaVuSans-80"/>
     <use x="840.039062" xlink:href="#DejaVuSans-79"/>
     <use x="918.75" xlink:href="#DejaVuSans-80"/>
     <use x="979.052734" xlink:href="#DejaVuSans-95"/>
     <use x="1029.052734" xlink:href="#DejaVuSans-48"/>
     <use x="1092.675781" xlink:href="#DejaVuSans-48"/>
     <use x="1156.298828" xlink:href="#DejaVuSans-49"/>
     <use x="1219.921875" xlink:href="#DejaVuSans-51"/>
     <use x="1283.544922" xlink:href="#DejaVuSans-41"/>
    </g>
   </g>
   <g id="LineCollection_2">
    <path clip-path="url(#p7c7104031a)" d="M 176.401937 97.664207 
L 298.171938 97.664207 
" style="fill:none;stroke:#999999;stroke-dasharray:1.32934,2.193412;stroke-dashoffset:0;stroke-width:1.32934;"/>
   </g>
  </g>
  <g id="axes_3">
   <g id="patch_10">
    <path d="M 303.211938 103.306 
L 424.981938 103.306 
L 424.981938 21.5 
L 303.211938 21.5 
z
" style="fill:#ffffff;"/>
   </g>
   <g id="matplotlib.axis_5">
    <g id="xtick_11"/>
    <g id="xtick_12"/>
    <g id="xtick_13"/>
    <g id="xtick_14"/>
    <g id="xtick_15"/>
   </g>
   <g id="matplotlib.axis_6">
    <g id="ytick_53"/>
    <g id="ytick_54"/>
    <g id="ytick_55"/>
    <g id="ytick_56"/>
    <g id="ytick_57"/>
    <g id="ytick_58"/>
    <g id="ytick_59"/>
    <g id="ytick_60"/>
    <g id="ytick_61"/>
    <g id="ytick_62"/>
    <g id="ytick_63"/>
    <g id="ytick_64"/>
    <g id="ytick_65"/>
    <g id="ytick_66"/>
    <g id="ytick_67"/>
    <g id="ytick_68"/>
    <g id="ytick_69"/>
    <g id="ytick_70"/>
    <g id="ytick_71"/>
    <g id="ytick_72"/>
    <g id="ytick_73"/>
    <g id="ytick_74"/>
    <g id="ytick_75"/>
    <g id="ytick_76"/>
    <g id="ytick_77"/>
    <g id="ytick_78"/>
   </g>
   <g id="PathCollection_3">
    <path clip-path="url(#p012b27a7d0)" d="M 363.812939 67.984568 
C 364.400514 67.984568 364.964103 67.751121 365.379581 67.335643 
C 365.79506 66.920164 366.028506 66.356576 366.028506 65.769 
C 366.028506 65.181425 365.79506 64.617836 365.379581 64.202358 
C 364.964103 63.786879 364.400514 63.553433 363.812939 63.553433 
C 363.225363 63.553433 362.661774 63.786879 362.246296 64.202358 
C 361.830817 64.617836 361.597371 65.181425 361.597371 65.769 
C 361.597371 66.356576 361.830817 66.920164 362.246296 67.335643 
C 362.661774 67.751121 363.225363 67.984568 363.812939 67.984568 
z
" style="stroke:#000000;stroke-width:0.886227;"/>
    <path clip-path="url(#p012b27a7d0)" d="M 386.139623 68.912845 
C 386.727199 68.912845 387.290787 68.679399 387.706266 68.26392 
C 388.121744 67.848442 388.35519 67.284853 388.35519 66.697278 
C 388.35519 66.109702 388.121744 65.546113 387.706266 65.130635 
C 387.290787 64.715156 386.727199 64.48171 386.139623 64.48171 
C 385.552048 64.48171 384.988459 64.715156 384.572981 65.130635 
C 384.157502 65.546113 383.924056 66.109702 383.924056 66.697278 
C 383.924056 67.284853 384.157502 67.848442 384.572981 68.26392 
C 384.988459 68.679399 385.552048 68.912845 386.139623 68.912845 
z
" style="stroke:#000000;stroke-width:0.886227;"/>
    <path clip-path="url(#p012b27a7d0)" d="M 411.655834 55.327375 
C 412.243409 55.327375 412.806998 55.093929 413.222477 54.67845 
C 413.637955 54.262972 413.871401 53.699383 413.871401 53.111808 
C 413.871401 52.524232 413.637955 51.960643 413.222477 51.545165 
C 412.806998 51.129686 412.243409 50.89624 411.655834 50.89624 
C 411.068259 50.89624 410.50467 51.129686 410.089191 51.545165 
C 409.673713 51.960643 409.440267 52.524232 409.440267 53.111808 
C 409.440267 53.699383 409.673713 54.262972 410.089191 54.67845 
C 410.50467 55.093929 411.068259 55.327375 411.655834 55.327375 
z
" style="stroke:#000000;stroke-width:0.886227;"/>
   </g>
   <g id="line2d_6">
    <path clip-path="url(#p012b27a7d0)" d="M 363.812939 65.769 
L 386.139623 66.697278 
L 411.655834 53.111808 
" style="fill:none;stroke:#000000;stroke-width:0.886227;"/>
   </g>
   <g id="patch_11">
    <path d="M 303.211938 21.5 
L 424.981938 21.5 
L 424.981938 7.2 
L 303.211938 7.2 
z
" style="fill:none;stroke:#000000;stroke-linejoin:miter;"/>
   </g>
   <g id="patch_12">
    <path d="M 303.211938 103.306 
L 303.211938 21.5 
" style="fill:none;stroke:#000000;stroke-linecap:square;stroke-linejoin:miter;"/>
   </g>
   <g id="patch_13">
    <path d="M 303.211938 103.306 
L 424.981938 103.306 
" style="fill:none;stroke:#000000;stroke-linecap:square;stroke-linejoin:miter;"/>
   </g>
   <g id="PolyCollection_3">
    <path clip-path="url(#p012b27a7d0)" d="M 386.707621 125.476838 
L 386.707621 -2655.786301 
L 424.981938 -2655.786301 
L 424.981938 125.476838 
z
" style="fill:#56b4e9;fill-opacity:0.14902;"/>
   </g>
   <g id="text_7">
    <!-- 2020, 10-14yr (POP_0074) -->
    <g style="fill:#1a1a1a;" transform="translate(305.904188 16.651062)scale(0.088 -0.088)">
     <defs>
      <path d="M 8.203125 72.90625 
L 55.078125 72.90625 
L 55.078125 68.703125 
L 28.609375 0 
L 18.3125 0 
L 43.21875 64.59375 
L 8.203125 64.59375 
z
" id="DejaVuSans-55"/>
     </defs>
     <use xlink:href="#DejaVuSans-50"/>
     <use x="63.623047" xlink:href="#DejaVuSans-48"/>
     <use x="127.246094" xlink:href="#DejaVuSans-50"/>
     <use x="190.869141" xlink:href="#DejaVuSans-48"/>
     <use x="254.492188" xlink:href="#DejaVuSans-44"/>
     <use x="286.279297" xlink:href="#DejaVuSans-32"/>
     <use x="318.066406" xlink:href="#DejaVuSans-49"/>
     <use x="381.689453" xlink:href="#DejaVuSans-48"/>
     <use x="445.3125" xlink:href="#DejaVuSans-45"/>
     <use x="481.396484" xlink:href="#DejaVuSans-49"/>
     <use x="545.019531" xlink:href="#DejaVuSans-52"/>
     <use x="608.642578" xlink:href="#DejaVuSans-121"/>
     <use x="667.822266" xlink:href="#DejaVuSans-114"/>
     <use x="708.935547" xlink:href="#DejaVuSans-32"/>
     <use x="740.722656" xlink:href="#DejaVuSans-40"/>
     <use x="779.736328" xlink:href="#DejaVuSans-80"/>
     <use x="840.039062" xlink:href="#DejaVuSans-79"/>
     <use x="918.75" xlink:href="#DejaVuSans-80"/>
     <use x="979.052734" xlink:href="#DejaVuSans-95"/>
     <use x="1029.052734" xlink:href="#DejaVuSans-48"/>
     <use x="1092.675781" xlink:href="#DejaVuSans-48"/>
     <use x="1156.298828" xlink:href="#DejaVuSans-55"/>
     <use x="1219.921875" xlink:href="#DejaVuSans-52"/>
     <use x="1283.544922" xlink:href="#DejaVuSans-41"/>
    </g>
   </g>
   <g id="LineCollection_3">
    <path clip-path="url(#p012b27a7d0)" d="M 303.211938 97.664207 
L 424.981938 97.664207 
" style="fill:none;stroke:#999999;stroke-dasharray:1.32934,2.193412;stroke-dashoffset:0;stroke-width:1.32934;"/>
   </g>
  </g>
  <g id="axes_4">
   <g id="patch_14">
    <path d="M 430.021937 103.306 
L 551.791937 103.306 
L 551.791937 21.5 
L 430.021937 21.5 
z
" style="fill:#ffffff;"/>
   </g>
   <g id="matplotlib.axis_7">
    <g id="xtick_16">
     <g id="line2d_7">
      <path d="M 490.622939 103.306 
" style="fill:none;stroke:#333333;stroke-linecap:square;stroke-width:1.5;"/>
      <defs>
       <path d="M 0 0 
L 0 2.75 
" id="m6b97359b2e" style="stroke:#000000;"/>
      </defs>
      <g>
       <use style="fill:#333333;stroke:#000000;" x="490.622939" xlink:href="#m6b97359b2e" y="103.306"/>
      </g>
     </g>
     <g id="text_8">
      <!-- 2001 -->
      <g style="fill:#4d4d4d;" transform="translate(493.051189 130.652)rotate(-90)scale(0.088 -0.088)">
       <use xlink:href="#DejaVuSans-50"/>
       <use x="63.623047" xlink:href="#DejaVuSans-48"/>
       <use x="127.246094" xlink:href="#DejaVuSans-48"/>
       <use x="190.869141" xlink:href="#DejaVuSans-49"/>
      </g>
     </g>
    </g>
    <g id="xtick_17">
     <g id="line2d_8">
      <path d="M 512.949623 103.306 
" style="fill:none;stroke:#333333;stroke-linecap:square;stroke-width:1.5;"/>
      <g>
       <use style="fill:#333333;stroke:#000000;" x="512.949623" xlink:href="#m6b97359b2e" y="103.306"/>
      </g>
     </g>
     <g id="text_9">
      <!-- 2008 -->
      <g style="fill:#4d4d4d;" transform="translate(515.377873 130.652)rotate(-90)scale(0.088 -0.088)">
       <defs>
        <path d="M 31.78125 34.625 
Q 24.75 34.625 20.71875 30.859375 
Q 16.703125 27.09375 16.703125 20.515625 
Q 16.703125 13.921875 20.71875 10.15625 
Q 24.75 6.390625 31.78125 6.390625 
Q 38.8125 6.390625 42.859375 10.171875 
Q 46.921875 13.96875 46.921875 20.515625 
Q 46.921875 27.09375 42.890625 30.859375 
Q 38.875 34.625 31.78125 34.625 
z
M 21.921875 38.8125 
Q 15.578125 40.375 12.03125 44.71875 
Q 8.5 49.078125 8.5 55.328125 
Q 8.5 64.0625 14.71875 69.140625 
Q 20.953125 74.21875 31.78125 74.21875 
Q 42.671875 74.21875 48.875 69.140625 
Q 55.078125 64.0625 55.078125 55.328125 
Q 55.078125 49.078125 51.53125 44.71875 
Q 48 40.375 41.703125 38.8125 
Q 48.828125 37.15625 52.796875 32.3125 
Q 56.78125 27.484375 56.78125 20.515625 
Q 56.78125 9.90625 50.3125 4.234375 
Q 43.84375 -1.421875 31.78125 -1.421875 
Q 19.734375 -1.421875 13.25 4.234375 
Q 6.78125 9.90625 6.78125 20.515625 
Q 6.78125 27.484375 10.78125 32.3125 
Q 14.796875 37.15625 21.921875 38.8125 
z
M 18.3125 54.390625 
Q 18.3125 48.734375 21.84375 45.5625 
Q 25.390625 42.390625 31.78125 42.390625 
Q 38.140625 42.390625 41.71875 45.5625 
Q 45.3125 48.734375 45.3125 54.390625 
Q 45.3125 60.0625 41.71875 63.234375 
Q 38.140625 66.40625 31.78125 66.40625 
Q 25.390625 66.40625 21.84375 63.234375 
Q 18.3125 60.0625 18.3125 54.390625 
z
" id="DejaVuSans-56"/>
       </defs>
       <use xlink:href="#DejaVuSans-50"/>
       <use x="63.623047" xlink:href="#DejaVuSans-48"/>
       <use x="127.246094" xlink:href="#DejaVuSans-48"/>
       <use x="190.869141" xlink:href="#DejaVuSans-56"/>
      </g>
     </g>
    </g>
    <g id="xtick_18">
     <g id="line2d_9">
      <path d="M 538.465834 103.306 
" style="fill:none;stroke:#333333;stroke-linecap:square;stroke-width:1.5;"/>
      <g>
       <use style="fill:#333333;stroke:#000000;" x="538.465834" xlink:href="#m6b97359b2e" y="103.306"/>
      </g>
     </g>
     <g id="text_10">
      <!-- 2016 -->
      <g style="fill:#4d4d4d;" transform="translate(540.894084 130.652)rotate(-90)scale(0.088 -0.088)">
       <defs>
        <path d="M 33.015625 40.375 
Q 26.375 40.375 22.484375 35.828125 
Q 18.609375 31.296875 18.609375 23.390625 
Q 18.609375 15.53125 22.484375 10.953125 
Q 26.375 6.390625 33.015625 6.390625 
Q 39.65625 6.390625 43.53125 10.953125 
Q 47.40625 15.53125 47.40625 23.390625 
Q 47.40625 31.296875 43.53125 35.828125 
Q 39.65625 40.375 33.015625 40.375 
z
M 52.59375 71.296875 
L 52.59375 62.3125 
Q 48.875 64.0625 45.09375 64.984375 
Q 41.3125 65.921875 37.59375 65.921875 
Q 27.828125 65.921875 22.671875 59.328125 
Q 17.53125 52.734375 16.796875 39.40625 
Q 19.671875 43.65625 24.015625 45.921875 
Q 28.375 48.1875 33.59375 48.1875 
Q 44.578125 48.1875 50.953125 41.515625 
Q 57.328125 34.859375 57.328125 23.390625 
Q 57.328125 12.15625 50.6875 5.359375 
Q 44.046875 -1.421875 33.015625 -1.421875 
Q 20.359375 -1.421875 13.671875 8.265625 
Q 6.984375 17.96875 6.984375 36.375 
Q 6.984375 53.65625 15.1875 63.9375 
Q 23.390625 74.21875 37.203125 74.21875 
Q 40.921875 74.21875 44.703125 73.484375 
Q 48.484375 72.75 52.59375 71.296875 
z
" id="DejaVuSans-54"/>
       </defs>
       <use xlink:href="#DejaVuSans-50"/>
       <use x="63.623047" xlink:href="#DejaVuSans-48"/>
       <use x="127.246094" xlink:href="#DejaVuSans-49"/>
       <use x="190.869141" xlink:href="#DejaVuSans-54"/>
      </g>
     </g>
    </g>
    <g id="xtick_19"/>
    <g id="xtick_20"/>
   </g>
   <g id="matplotlib.axis_8">
    <g id="ytick_79"/>
    <g id="ytick_80"/>
    <g id="ytick_81"/>
    <g id="ytick_82"/>
    <g id="ytick_83"/>
    <g id="ytick_84"/>
    <g id="ytick_85"/>
    <g id="ytick_86"/>
    <g id="ytick_87"/>
    <g id="ytick_88"/>
    <g id="ytick_89"/>
    <g id="ytick_90"/>
    <g id="ytick_91"/>
    <g id="ytick_92"/>
    <g id="ytick_93"/>
    <g id="ytick_94"/>
    <g id="ytick_95"/>
    <g id="ytick_96"/>
    <g id="ytick_97"/>
    <g id="ytick_98"/>
    <g id="ytick_99"/>
    <g id="ytick_100"/>
    <g id="ytick_101"/>
    <g id="ytick_102"/>
    <g id="ytick_103"/>
    <g id="ytick_104"/>
   </g>
   <g id="PathCollection_4">
    <path clip-path="url(#p525d8a406e)" d="M 490.622939 71.291783 
C 491.210514 71.291783 491.774103 71.058337 492.189581 70.642859 
C 492.60506 70.22738 492.838506 69.663791 492.838506 69.076216 
C 492.838506 68.488641 492.60506 67.925052 492.189581 67.509573 
C 491.774103 67.094095 491.210514 66.860649 490.622939 66.860649 
C 490.035363 66.860649 489.471774 67.094095 489.056296 67.509573 
C 488.640817 67.925052 488.407371 68.488641 488.407371 69.076216 
C 488.407371 69.663791 488.640817 70.22738 489.056296 70.642859 
C 489.471774 71.058337 490.035363 71.291783 490.622939 71.291783 
z
" style="stroke:#000000;stroke-width:0.886227;"/>
    <path clip-path="url(#p525d8a406e)" d="M 512.949623 65.397793 
C 513.537199 65.397793 514.100787 65.164347 514.516266 64.748868 
C 514.931744 64.33339 515.16519 63.769801 515.16519 63.182226 
C 515.16519 62.59465 514.931744 62.031062 514.516266 61.615583 
C 514.100787 61.200105 513.537199 60.966658 512.949623 60.966658 
C 512.362048 60.966658 511.798459 61.200105 511.382981 61.615583 
C 510.967502 62.031062 510.734056 62.59465 510.734056 63.182226 
C 510.734056 63.769801 510.967502 64.33339 511.382981 64.748868 
C 511.798459 65.164347 512.362048 65.397793 512.949623 65.397793 
z
" style="stroke:#000000;stroke-width:0.886227;"/>
    <path clip-path="url(#p525d8a406e)" d="M 538.465834 63.143755 
C 539.053409 63.143755 539.616998 62.910309 540.032477 62.494831 
C 540.447955 62.079352 540.681401 61.515763 540.681401 60.928188 
C 540.681401 60.340613 540.447955 59.777024 540.032477 59.361545 
C 539.616998 58.946067 539.053409 58.712621 538.465834 58.712621 
C 537.878259 58.712621 537.31467 58.946067 536.899191 59.361545 
C 536.483713 59.777024 536.250267 60.340613 536.250267 60.928188 
C 536.250267 61.515763 536.483713 62.079352 536.899191 62.494831 
C 537.31467 62.910309 537.878259 63.143755 538.465834 63.143755 
z
" style="stroke:#000000;stroke-width:0.886227;"/>
   </g>
   <g id="line2d_10">
    <path clip-path="url(#p525d8a406e)" d="M 490.622939 69.076216 
L 512.949623 63.182226 
L 538.465834 60.928188 
" style="fill:none;stroke:#000000;stroke-width:0.886227;"/>
   </g>
   <g id="patch_15">
    <path d="M 430.021937 21.5 
L 551.791937 21.5 
L 551.791937 7.2 
L 430.021937 7.2 
z
" style="fill:none;stroke:#000000;stroke-linejoin:miter;"/>
   </g>
   <g id="patch_16">
    <path d="M 430.021937 103.306 
L 430.021937 21.5 
" style="fill:none;stroke:#000000;stroke-linecap:square;stroke-linejoin:miter;"/>
   </g>
   <g id="patch_17">
    <path d="M 430.021938 103.306 
L 551.791938 103.306 
" style="fill:none;stroke:#000000;stroke-linecap:square;stroke-linejoin:miter;"/>
   </g>
   <g id="PolyCollection_4">
    <path clip-path="url(#p525d8a406e)" d="M 500.759516 125.476838 
L 500.759516 -2655.786301 
L 551.791938 -2655.786301 
L 551.791938 125.476838 
z
" style="fill:#56b4e9;fill-opacity:0.14902;"/>
   </g>
   <g id="text_11">
    <!-- 2020, 15-18yr (POP_0097) -->
    <g style="fill:#1a1a1a;" transform="translate(432.714187 16.651062)scale(0.088 -0.088)">
     <use xlink:href="#DejaVuSans-50"/>
     <use x="63.623047" xlink:href="#DejaVuSans-48"/>
     <use x="127.246094" xlink:href="#DejaVuSans-50"/>
     <use x="190.869141" xlink:href="#DejaVuSans-48"/>
     <use x="254.492188" xlink:href="#DejaVuSans-44"/>
     <use x="286.279297" xlink:href="#DejaVuSans-32"/>
     <use x="318.066406" xlink:href="#DejaVuSans-49"/>
     <use x="381.689453" xlink:href="#DejaVuSans-53"/>
     <use x="445.3125" xlink:href="#DejaVuSans-45"/>
     <use x="481.396484" xlink:href="#DejaVuSans-49"/>
     <use x="545.019531" xlink:href="#DejaVuSans-56"/>
     <use x="608.642578" xlink:href="#DejaVuSans-121"/>
     <use x="667.822266" xlink:href="#DejaVuSans-114"/>
     <use x="708.935547" xlink:href="#DejaVuSans-32"/>
     <use x="740.722656" xlink:href="#DejaVuSans-40"/>
     <use x="779.736328" xlink:href="#DejaVuSans-80"/>
     <use x="840.039062" xlink:href="#DejaVuSans-79"/>
     <use x="918.75" xlink:href="#DejaVuSans-80"/>
     <use x="979.052734" xlink:href="#DejaVuSans-95"/>
     <use x="1029.052734" xlink:href="#DejaVuSans-48"/>
     <use x="1092.675781" xlink:href="#DejaVuSans-48"/>
     <use x="1156.298828" xlink:href="#DejaVuSans-57"/>
     <use x="1219.921875" xlink:href="#DejaVuSans-55"/>
     <use x="1283.544922" xlink:href="#DejaVuSans-41"/>
    </g>
   </g>
   <g id="LineCollection_4">
    <path clip-path="url(#p525d8a406e)" d="M 430.021938 97.664207 
L 551.791938 97.664207 
" style="fill:none;stroke:#999999;stroke-dasharray:1.32934,2.193412;stroke-dashoffset:0;stroke-width:1.32934;"/>
   </g>
  </g>
  <g id="axes_5">
   <g id="patch_18">
    <path d="M 49.591938 204.452 
L 171.361938 204.452 
L 171.361938 122.646 
L 49.591938 122.646 
z
" style="fill:#ffffff;"/>
   </g>
   <g id="matplotlib.axis_9">
    <g id="xtick_21">
     <g id="line2d_11">
      <path d="M 110.192939 204.452 
" style="fill:none;stroke:#333333;stroke-linecap:square;stroke-width:1.5;"/>
      <g>
       <use style="fill:#333333;stroke:#000000;" x="110.192939" xlink:href="#m6b97359b2e" y="204.452"/>
      </g>
     </g>
     <g id="text_12">
      <!-- 2001 -->
      <g style="fill:#4d4d4d;" transform="translate(112.621189 231.798)rotate(-90)scale(0.088 -0.088)">
       <use xlink:href="#DejaVuSans-50"/>
       <use x="63.623047" xlink:href="#DejaVuSans-48"/>
       <use x="127.246094" xlink:href="#DejaVuSans-48"/>
       <use x="190.869141" xlink:href="#DejaVuSans-49"/>
      </g>
     </g>
    </g>
    <g id="xtick_22">
     <g id="line2d_12">
      <path d="M 132.519623 204.452 
" style="fill:none;stroke:#333333;stroke-linecap:square;stroke-width:1.5;"/>
      <g>
       <use style="fill:#333333;stroke:#000000;" x="132.519623" xlink:href="#m6b97359b2e" y="204.452"/>
      </g>
     </g>
     <g id="text_13">
      <!-- 2008 -->
      <g style="fill:#4d4d4d;" transform="translate(134.947873 231.798)rotate(-90)scale(0.088 -0.088)">
       <use xlink:href="#DejaVuSans-50"/>
       <use x="63.623047" xlink:href="#DejaVuSans-48"/>
       <use x="127.246094" xlink:href="#DejaVuSans-48"/>
       <use x="190.869141" xlink:href="#DejaVuSans-56"/>
      </g>
     </g>
    </g>
    <g id="xtick_23">
     <g id="line2d_13">
      <path d="M 158.035834 204.452 
" style="fill:none;stroke:#333333;stroke-linecap:square;stroke-width:1.5;"/>
      <g>
       <use style="fill:#333333;stroke:#000000;" x="158.035834" xlink:href="#m6b97359b2e" y="204.452"/>
      </g>
     </g>
     <g id="text_14">
      <!-- 2016 -->
      <g style="fill:#4d4d4d;" transform="translate(160.464084 231.798)rotate(-90)scale(0.088 -0.088)">
       <use xlink:href="#DejaVuSans-50"/>
       <use x="63.623047" xlink:href="#DejaVuSans-48"/>
       <use x="127.246094" xlink:href="#DejaVuSans-49"/>
       <use x="190.869141" xlink:href="#DejaVuSans-54"/>
      </g>
     </g>
    </g>
    <g id="xtick_24"/>
    <g id="xtick_25"/>
   </g>
   <g id="matplotlib.axis_10">
    <g id="ytick_105">
     <g id="line2d_14">
      <path d="M 49.591938 198.810207 
" style="fill:none;stroke:#333333;stroke-linecap:square;stroke-width:1.5;"/>
      <g>
       <use style="fill:#333333;stroke:#000000;" x="49.591938" xlink:href="#m83eaa729a8" y="198.810207"/>
      </g>
     </g>
     <g id="text_15">
      <!-- 10 -->
      <g style="fill:#4d4d4d;" transform="translate(33.443938 201.238457)scale(0.088 -0.088)">
       <use xlink:href="#DejaVuSans-49"/>
       <use x="63.623047" xlink:href="#DejaVuSans-48"/>
      </g>
     </g>
    </g>
    <g id="ytick_106">
     <g id="line2d_15">
      <path d="M 49.591938 170.997576 
" style="fill:none;stroke:#333333;stroke-linecap:square;stroke-width:1.5;"/>
      <g>
       <use style="fill:#333333;stroke:#000000;" x="49.591938" xlink:href="#m83eaa729a8" y="170.997576"/>
      </g>
     </g>
     <g id="text_16">
      <!-- 100 -->
      <g style="fill:#4d4d4d;" transform="translate(27.844938 173.425826)scale(0.088 -0.088)">
       <use xlink:href="#DejaVuSans-49"/>
       <use x="63.623047" xlink:href="#DejaVuSans-48"/>
       <use x="127.246094" xlink:href="#DejaVuSans-48"/>
      </g>
     </g>
    </g>
    <g id="ytick_107">
     <g id="line2d_16">
      <path d="M 49.591938 143.184944 
" style="fill:none;stroke:#333333;stroke-linecap:square;stroke-width:1.5;"/>
      <g>
       <use style="fill:#333333;stroke:#000000;" x="49.591938" xlink:href="#m83eaa729a8" y="143.184944"/>
      </g>
     </g>
     <g id="text_17">
      <!-- 1000 -->
      <g style="fill:#4d4d4d;" transform="translate(22.245938 145.613194)scale(0.088 -0.088)">
       <use xlink:href="#DejaVuSans-49"/>
       <use x="63.623047" xlink:href="#DejaVuSans-48"/>
       <use x="127.246094" xlink:href="#DejaVuSans-48"/>
       <use x="190.869141" xlink:href="#DejaVuSans-48"/>
      </g>
     </g>
    </g>
    <g id="ytick_108"/>
    <g id="ytick_109"/>
    <g id="ytick_110"/>
    <g id="ytick_111"/>
    <g id="ytick_112"/>
    <g id="ytick_113"/>
    <g id="ytick_114"/>
    <g id="ytick_115"/>
    <g id="ytick_116"/>
    <g id="ytick_117"/>
    <g id="ytick_118"/>
    <g id="ytick_119"/>
    <g id="ytick_120"/>
    <g id="ytick_121"/>
    <g id="ytick_122"/>
    <g id="ytick_123"/>
    <g id="ytick_124"/>
    <g id="ytick_125"/>
    <g id="ytick_126"/>
    <g id="ytick_127"/>
    <g id="ytick_128"/>
    <g id="ytick_129"/>
    <g id="ytick_130"/>
   </g>
   <g id="PathCollection_5">
    <path clip-path="url(#p4f0bdcfb0a)" d="M 110.192939 155.863215 
C 110.780514 155.863215 111.344103 155.629769 111.759581 155.21429 
C 112.17506 154.798812 112.408506 154.235223 112.408506 153.647647 
C 112.408506 153.060072 112.17506 152.496483 111.759581 152.081005 
C 111.344103 151.665526 110.780514 151.43208 110.192939 151.43208 
C 109.605363 151.43208 109.041774 151.665526 108.626296 152.081005 
C 108.210817 152.496483 107.977371 153.060072 107.977371 153.647647 
C 107.977371 154.235223 108.210817 154.798812 108.626296 155.21429 
C 109.041774 155.629769 109.605363 155.863215 110.192939 155.863215 
z
" style="stroke:#000000;stroke-width:0.886227;"/>
    <path clip-path="url(#p4f0bdcfb0a)" d="M 132.519623 160.783886 
C 133.107199 160.783886 133.670787 160.550439 134.086266 160.134961 
C 134.501744 159.719482 134.73519 159.155894 134.73519 158.568318 
C 134.73519 157.980743 134.501744 157.417154 134.086266 157.001676 
C 133.670787 156.586197 133.107199 156.352751 132.519623 156.352751 
C 131.932048 156.352751 131.368459 156.586197 130.952981 157.001676 
C 130.537502 157.417154 130.304056 157.980743 130.304056 158.568318 
C 130.304056 159.155894 130.537502 159.719482 130.952981 160.134961 
C 131.368459 160.550439 131.932048 160.783886 132.519623 160.783886 
z
" style="stroke:#000000;stroke-width:0.886227;"/>
    <path clip-path="url(#p4f0bdcfb0a)" d="M 158.035834 167.326944 
C 158.623409 167.326944 159.186998 167.093498 159.602477 166.678019 
C 160.017955 166.262541 160.251401 165.698952 160.251401 165.111376 
C 160.251401 164.523801 160.017955 163.960212 159.602477 163.544734 
C 159.186998 163.129255 158.623409 162.895809 158.035834 162.895809 
C 157.448259 162.895809 156.88467 163.129255 156.469191 163.544734 
C 156.053713 163.960212 155.820267 164.523801 155.820267 165.111376 
C 155.820267 165.698952 156.053713 166.262541 156.469191 166.678019 
C 156.88467 167.093498 157.448259 167.326944 158.035834 167.326944 
z
" style="stroke:#000000;stroke-width:0.886227;"/>
   </g>
   <g id="line2d_17">
    <path clip-path="url(#p4f0bdcfb0a)" d="M 110.192939 153.647647 
L 132.519623 158.568318 
L 158.035834 165.111376 
" style="fill:none;stroke:#000000;stroke-width:0.886227;"/>
   </g>
   <g id="patch_19">
    <path d="M 49.591938 122.646 
L 171.361938 122.646 
L 171.361938 108.346 
L 49.591938 108.346 
z
" style="fill:none;stroke:#000000;stroke-linejoin:miter;"/>
   </g>
   <g id="patch_20">
    <path d="M 49.591938 204.452 
L 49.591938 122.646 
" style="fill:none;stroke:#000000;stroke-linecap:square;stroke-linejoin:miter;"/>
   </g>
   <g id="patch_21">
    <path d="M 49.591938 204.452 
L 171.361938 204.452 
" style="fill:none;stroke:#000000;stroke-linecap:square;stroke-linejoin:miter;"/>
   </g>
   <g id="PolyCollection_5">
    <path clip-path="url(#p4f0bdcfb0a)" d="M 49.591938 226.622838 
L 49.591938 -2554.640301 
L 170.79394 -2554.640301 
L 170.79394 226.622838 
z
" style="fill:#56b4e9;fill-opacity:0.14902;"/>
   </g>
   <g id="text_18">
    <!-- 2020, 40yr (AUSAB-17) -->
    <g style="fill:#1a1a1a;" transform="translate(59.317313 117.92425)scale(0.088 -0.088)">
     <defs>
      <path d="M 34.1875 63.1875 
L 20.796875 26.90625 
L 47.609375 26.90625 
z
M 28.609375 72.90625 
L 39.796875 72.90625 
L 67.578125 0 
L 57.328125 0 
L 50.6875 18.703125 
L 17.828125 18.703125 
L 11.1875 0 
L 0.78125 0 
z
" id="DejaVuSans-65"/>
      <path d="M 8.6875 72.90625 
L 18.609375 72.90625 
L 18.609375 28.609375 
Q 18.609375 16.890625 22.84375 11.734375 
Q 27.09375 6.59375 36.625 6.59375 
Q 46.09375 6.59375 50.34375 11.734375 
Q 54.59375 16.890625 54.59375 28.609375 
L 54.59375 72.90625 
L 64.5 72.90625 
L 64.5 27.390625 
Q 64.5 13.140625 57.4375 5.859375 
Q 50.390625 -1.421875 36.625 -1.421875 
Q 22.796875 -1.421875 15.734375 5.859375 
Q 8.6875 13.140625 8.6875 27.390625 
z
" id="DejaVuSans-85"/>
      <path d="M 53.515625 70.515625 
L 53.515625 60.890625 
Q 47.90625 63.578125 42.921875 64.890625 
Q 37.9375 66.21875 33.296875 66.21875 
Q 25.25 66.21875 20.875 63.09375 
Q 16.5 59.96875 16.5 54.203125 
Q 16.5 49.359375 19.40625 46.890625 
Q 22.3125 44.4375 30.421875 42.921875 
L 36.375 41.703125 
Q 47.40625 39.59375 52.65625 34.296875 
Q 57.90625 29 57.90625 20.125 
Q 57.90625 9.515625 50.796875 4.046875 
Q 43.703125 -1.421875 29.984375 -1.421875 
Q 24.8125 -1.421875 18.96875 -0.25 
Q 13.140625 0.921875 6.890625 3.21875 
L 6.890625 13.375 
Q 12.890625 10.015625 18.65625 8.296875 
Q 24.421875 6.59375 29.984375 6.59375 
Q 38.421875 6.59375 43.015625 9.90625 
Q 47.609375 13.234375 47.609375 19.390625 
Q 47.609375 24.75 44.3125 27.78125 
Q 41.015625 30.8125 33.5 32.328125 
L 27.484375 33.5 
Q 16.453125 35.6875 11.515625 40.375 
Q 6.59375 45.0625 6.59375 53.421875 
Q 6.59375 63.09375 13.40625 68.65625 
Q 20.21875 74.21875 32.171875 74.21875 
Q 37.3125 74.21875 42.625 73.28125 
Q 47.953125 72.359375 53.515625 70.515625 
z
" id="DejaVuSans-83"/>
      <path d="M 19.671875 34.8125 
L 19.671875 8.109375 
L 35.5 8.109375 
Q 43.453125 8.109375 47.28125 11.40625 
Q 51.125 14.703125 51.125 21.484375 
Q 51.125 28.328125 47.28125 31.5625 
Q 43.453125 34.8125 35.5 34.8125 
z
M 19.671875 64.796875 
L 19.671875 42.828125 
L 34.28125 42.828125 
Q 41.5 42.828125 45.03125 45.53125 
Q 48.578125 48.25 48.578125 53.8125 
Q 48.578125 59.328125 45.03125 62.0625 
Q 41.5 64.796875 34.28125 64.796875 
z
M 9.8125 72.90625 
L 35.015625 72.90625 
Q 46.296875 72.90625 52.390625 68.21875 
Q 58.5 63.53125 58.5 54.890625 
Q 58.5 48.1875 55.375 44.234375 
Q 52.25 40.28125 46.1875 39.3125 
Q 53.46875 37.75 57.5 32.78125 
Q 61.53125 27.828125 61.53125 20.40625 
Q 61.53125 10.640625 54.890625 5.3125 
Q 48.25 0 35.984375 0 
L 9.8125 0 
z
" id="DejaVuSans-66"/>
     </defs>
     <use xlink:href="#DejaVuSans-50"/>
     <use x="63.623047" xlink:href="#DejaVuSans-48"/>
     <use x="127.246094" xlink:href="#DejaVuSans-50"/>
     <use x="190.869141" xlink:href="#DejaVuSans-48"/>
     <use x="254.492188" xlink:href="#DejaVuSans-44"/>
     <use x="286.279297" xlink:href="#DejaVuSans-32"/>
     <use x="318.066406" xlink:href="#DejaVuSans-52"/>
     <use x="381.689453" xlink:href="#DejaVuSans-48"/>
     <use x="445.3125" xlink:href="#DejaVuSans-121"/>
     <use x="504.492188" xlink:href="#DejaVuSans-114"/>
     <use x="545.605469" xlink:href="#DejaVuSans-32"/>
     <use x="577.392578" xlink:href="#DejaVuSans-40"/>
     <use x="616.40625" xlink:href="#DejaVuSans-65"/>
     <use x="684.814453" xlink:href="#DejaVuSans-85"/>
     <use x="758.007812" xlink:href="#DejaVuSans-83"/>
     <use x="823.359375" xlink:href="#DejaVuSans-65"/>
     <use x="891.767578" xlink:href="#DejaVuSans-66"/>
     <use x="960.371094" xlink:href="#DejaVuSans-45"/>
     <use x="996.455078" xlink:href="#DejaVuSans-49"/>
     <use x="1060.078125" xlink:href="#DejaVuSans-55"/>
     <use x="1123.701172" xlink:href="#DejaVuSans-41"/>
    </g>
   </g>
   <g id="LineCollection_5">
    <path clip-path="url(#p4f0bdcfb0a)" d="M 49.591938 198.810207 
L 171.361938 198.810207 
" style="fill:none;stroke:#999999;stroke-dasharray:1.32934,2.193412;stroke-dashoffset:0;stroke-width:1.32934;"/>
   </g>
  </g>
  <g id="axes_6">
   <g id="patch_22">
    <path d="M 176.401938 204.452 
L 298.171938 204.452 
L 298.171938 122.646 
L 176.401938 122.646 
z
" style="fill:#ffffff;"/>
   </g>
   <g id="matplotlib.axis_11">
    <g id="xtick_26">
     <g id="line2d_18">
      <path d="M 237.002939 204.452 
" style="fill:none;stroke:#333333;stroke-linecap:square;stroke-width:1.5;"/>
      <g>
       <use style="fill:#333333;stroke:#000000;" x="237.002939" xlink:href="#m6b97359b2e" y="204.452"/>
      </g>
     </g>
     <g id="text_19">
      <!-- 2001 -->
      <g style="fill:#4d4d4d;" transform="translate(239.431189 231.798)rotate(-90)scale(0.088 -0.088)">
       <use xlink:href="#DejaVuSans-50"/>
       <use x="63.623047" xlink:href="#DejaVuSans-48"/>
       <use x="127.246094" xlink:href="#DejaVuSans-48"/>
       <use x="190.869141" xlink:href="#DejaVuSans-49"/>
      </g>
     </g>
    </g>
    <g id="xtick_27">
     <g id="line2d_19">
      <path d="M 259.329623 204.452 
" style="fill:none;stroke:#333333;stroke-linecap:square;stroke-width:1.5;"/>
      <g>
       <use style="fill:#333333;stroke:#000000;" x="259.329623" xlink:href="#m6b97359b2e" y="204.452"/>
      </g>
     </g>
     <g id="text_20">
      <!-- 2008 -->
      <g style="fill:#4d4d4d;" transform="translate(261.757873 231.798)rotate(-90)scale(0.088 -0.088)">
       <use xlink:href="#DejaVuSans-50"/>
       <use x="63.623047" xlink:href="#DejaVuSans-48"/>
       <use x="127.246094" xlink:href="#DejaVuSans-48"/>
       <use x="190.869141" xlink:href="#DejaVuSans-56"/>
      </g>
     </g>
    </g>
    <g id="xtick_28">
     <g id="line2d_20">
      <path d="M 284.845834 204.452 
" style="fill:none;stroke:#333333;stroke-linecap:square;stroke-width:1.5;"/>
      <g>
       <use style="fill:#333333;stroke:#000000;" x="284.845834" xlink:href="#m6b97359b2e" y="204.452"/>
      </g>
     </g>
     <g id="text_21">
      <!-- 2016 -->
      <g style="fill:#4d4d4d;" transform="translate(287.274084 231.798)rotate(-90)scale(0.088 -0.088)">
       <use xlink:href="#DejaVuSans-50"/>
       <use x="63.623047" xlink:href="#DejaVuSans-48"/>
       <use x="127.246094" xlink:href="#DejaVuSans-49"/>
       <use x="190.869141" xlink:href="#DejaVuSans-54"/>
      </g>
     </g>
    </g>
    <g id="xtick_29"/>
    <g id="xtick_30"/>
   </g>
   <g id="matplotlib.axis_12">
    <g id="ytick_131"/>
    <g id="ytick_132"/>
    <g id="ytick_133"/>
    <g id="ytick_134"/>
    <g id="ytick_135"/>
    <g id="ytick_136"/>
    <g id="ytick_137"/>
    <g id="ytick_138"/>
    <g id="ytick_139"/>
    <g id="ytick_140"/>
    <g id="ytick_141"/>
    <g id="ytick_142"/>
    <g id="ytick_143"/>
    <g id="ytick_144"/>
    <g id="ytick_145"/>
    <g id="ytick_146"/>
    <g id="ytick_147"/>
    <g id="ytick_148"/>
    <g id="ytick_149"/>
    <g id="ytick_150"/>
    <g id="ytick_151"/>
    <g id="ytick_152"/>
    <g id="ytick_153"/>
    <g id="ytick_154"/>
    <g id="ytick_155"/>
    <g id="ytick_156"/>
   </g>
   <g id="PathCollection_6">
    <path clip-path="url(#p2681bf7ae8)" d="M 237.002939 156.181917 
C 237.590514 156.181917 238.154103 155.948471 238.569581 155.532993 
C 238.98506 155.117514 239.218506 154.553925 239.218506 153.96635 
C 239.218506 153.378775 238.98506 152.815186 238.569581 152.399707 
C 238.154103 151.984229 237.590514 151.750783 237.002939 151.750783 
C 236.415363 151.750783 235.851774 151.984229 235.436296 152.399707 
C 235.020817 152.815186 234.787371 153.378775 234.787371 153.96635 
C 234.787371 154.553925 235.020817 155.117514 235.436296 155.532993 
C 235.851774 155.948471 236.415363 156.181917 237.002939 156.181917 
z
" style="stroke:#000000;stroke-width:0.886227;"/>
    <path clip-path="url(#p2681bf7ae8)" d="M 259.329623 162.174722 
C 259.917199 162.174722 260.480787 161.941276 260.896266 161.525797 
C 261.311744 161.110319 261.54519 160.54673 261.54519 159.959155 
C 261.54519 159.371579 261.311744 158.80799 260.896266 158.392512 
C 260.480787 157.977033 259.917199 157.743587 259.329623 157.743587 
C 258.742048 157.743587 258.178459 157.977033 257.762981 158.392512 
C 257.347502 158.80799 257.114056 159.371579 257.114056 159.959155 
C 257.114056 160.54673 257.347502 161.110319 257.762981 161.525797 
C 258.178459 161.941276 258.742048 162.174722 259.329623 162.174722 
z
" style="stroke:#000000;stroke-width:0.886227;"/>
    <path clip-path="url(#p2681bf7ae8)" d="M 284.845834 170.891583 
C 285.433409 170.891583 285.996998 170.658137 286.412477 170.242659 
C 286.827955 169.82718 287.061401 169.263591 287.061401 168.676016 
C 287.061401 168.088441 286.827955 167.524852 286.412477 167.109373 
C 285.996998 166.693895 285.433409 166.460449 284.845834 166.460449 
C 284.258259 166.460449 283.69467 166.693895 283.279191 167.109373 
C 282.863713 167.524852 282.630267 168.088441 282.630267 168.676016 
C 282.630267 169.263591 282.863713 169.82718 283.279191 170.242659 
C 283.69467 170.658137 284.258259 170.891583 284.845834 170.891583 
z
" style="stroke:#000000;stroke-width:0.886227;"/>
   </g>
   <g id="line2d_21">
    <path clip-path="url(#p2681bf7ae8)" d="M 237.002939 153.96635 
L 259.329623 159.959155 
L 284.845834 168.676016 
" style="fill:none;stroke:#000000;stroke-width:0.886227;"/>
   </g>
   <g id="patch_23">
    <path d="M 176.401938 122.646 
L 298.171938 122.646 
L 298.171938 108.346 
L 176.401938 108.346 
z
" style="fill:none;stroke:#000000;stroke-linejoin:miter;"/>
   </g>
   <g id="patch_24">
    <path d="M 176.401938 204.452 
L 176.401938 122.646 
" style="fill:none;stroke:#000000;stroke-linecap:square;stroke-linejoin:miter;"/>
   </g>
   <g id="patch_25">
    <path d="M 176.401937 204.452 
L 298.171938 204.452 
" style="fill:none;stroke:#000000;stroke-linecap:square;stroke-linejoin:miter;"/>
   </g>
   <g id="PolyCollection_6">
    <path clip-path="url(#p2681bf7ae8)" d="M 176.401937 226.622838 
L 176.401937 -2554.640301 
L 297.60394 -2554.640301 
L 297.60394 226.622838 
z
" style="fill:#56b4e9;fill-opacity:0.14902;"/>
   </g>
   <g id="text_22">
    <!-- 2020, 47yr (AUSAB-20) -->
    <g style="fill:#1a1a1a;" transform="translate(186.127313 117.92425)scale(0.088 -0.088)">
     <use xlink:href="#DejaVuSans-50"/>
     <use x="63.623047" xlink:href="#DejaVuSans-48"/>
     <use x="127.246094" xlink:href="#DejaVuSans-50"/>
     <use x="190.869141" xlink:href="#DejaVuSans-48"/>
     <use x="254.492188" xlink:href="#DejaVuSans-44"/>
     <use x="286.279297" xlink:href="#DejaVuSans-32"/>
     <use x="318.066406" xlink:href="#DejaVuSans-52"/>
     <use x="381.689453" xlink:href="#DejaVuSans-55"/>
     <use x="445.3125" xlink:href="#DejaVuSans-121"/>
     <use x="504.492188" xlink:href="#DejaVuSans-114"/>
     <use x="545.605469" xlink:href="#DejaVuSans-32"/>
     <use x="577.392578" xlink:href="#DejaVuSans-40"/>
     <use x="616.40625" xlink:href="#DejaVuSans-65"/>
     <use x="684.814453" xlink:href="#DejaVuSans-85"/>
     <use x="758.007812" xlink:href="#DejaVuSans-83"/>
     <use x="823.359375" xlink:href="#DejaVuSans-65"/>
     <use x="891.767578" xlink:href="#DejaVuSans-66"/>
     <use x="960.371094" xlink:href="#DejaVuSans-45"/>
     <use x="996.455078" xlink:href="#DejaVuSans-50"/>
     <use x="1060.078125" xlink:href="#DejaVuSans-48"/>
     <use x="1123.701172" xlink:href="#DejaVuSans-41"/>
    </g>
   </g>
   <g id="LineCollection_6">
    <path clip-path="url(#p2681bf7ae8)" d="M 176.401937 198.810207 
L 298.171938 198.810207 
" style="fill:none;stroke:#999999;stroke-dasharray:1.32934,2.193412;stroke-dashoffset:0;stroke-width:1.32934;"/>
   </g>
  </g>
  <g id="axes_7">
   <g id="patch_26">
    <path d="M 303.211938 204.452 
L 424.981938 204.452 
L 424.981938 122.646 
L 303.211938 122.646 
z
" style="fill:#ffffff;"/>
   </g>
   <g id="matplotlib.axis_13">
    <g id="xtick_31">
     <g id="line2d_22">
      <path d="M 363.812939 204.452 
" style="fill:none;stroke:#333333;stroke-linecap:square;stroke-width:1.5;"/>
      <g>
       <use style="fill:#333333;stroke:#000000;" x="363.812939" xlink:href="#m6b97359b2e" y="204.452"/>
      </g>
     </g>
     <g id="text_23">
      <!-- 2001 -->
      <g style="fill:#4d4d4d;" transform="translate(366.241189 231.798)rotate(-90)scale(0.088 -0.088)">
       <use xlink:href="#DejaVuSans-50"/>
       <use x="63.623047" xlink:href="#DejaVuSans-48"/>
       <use x="127.246094" xlink:href="#DejaVuSans-48"/>
       <use x="190.869141" xlink:href="#DejaVuSans-49"/>
      </g>
     </g>
    </g>
    <g id="xtick_32">
     <g id="line2d_23">
      <path d="M 386.139623 204.452 
" style="fill:none;stroke:#333333;stroke-linecap:square;stroke-width:1.5;"/>
      <g>
       <use style="fill:#333333;stroke:#000000;" x="386.139623" xlink:href="#m6b97359b2e" y="204.452"/>
      </g>
     </g>
     <g id="text_24">
      <!-- 2008 -->
      <g style="fill:#4d4d4d;" transform="translate(388.567873 231.798)rotate(-90)scale(0.088 -0.088)">
       <use xlink:href="#DejaVuSans-50"/>
       <use x="63.623047" xlink:href="#DejaVuSans-48"/>
       <use x="127.246094" xlink:href="#DejaVuSans-48"/>
       <use x="190.869141" xlink:href="#DejaVuSans-56"/>
      </g>
     </g>
    </g>
    <g id="xtick_33">
     <g id="line2d_24">
      <path d="M 411.655834 204.452 
" style="fill:none;stroke:#333333;stroke-linecap:square;stroke-width:1.5;"/>
      <g>
       <use style="fill:#333333;stroke:#000000;" x="411.655834" xlink:href="#m6b97359b2e" y="204.452"/>
      </g>
     </g>
     <g id="text_25">
      <!-- 2016 -->
      <g style="fill:#4d4d4d;" transform="translate(414.084084 231.798)rotate(-90)scale(0.088 -0.088)">
       <use xlink:href="#DejaVuSans-50"/>
       <use x="63.623047" xlink:href="#DejaVuSans-48"/>
       <use x="127.246094" xlink:href="#DejaVuSans-49"/>
       <use x="190.869141" xlink:href="#DejaVuSans-54"/>
      </g>
     </g>
    </g>
    <g id="xtick_34"/>
    <g id="xtick_35"/>
    <g id="text_26">
     <!-- year of virus isolation -->
     <g transform="translate(233.1885 244.556281)scale(0.11 -0.11)">
      <defs>
       <path d="M 37.109375 75.984375 
L 37.109375 68.5 
L 28.515625 68.5 
Q 23.6875 68.5 21.796875 66.546875 
Q 19.921875 64.59375 19.921875 59.515625 
L 19.921875 54.6875 
L 34.71875 54.6875 
L 34.71875 47.703125 
L 19.921875 47.703125 
L 19.921875 0 
L 10.890625 0 
L 10.890625 47.703125 
L 2.296875 47.703125 
L 2.296875 54.6875 
L 10.890625 54.6875 
L 10.890625 58.5 
Q 10.890625 67.625 15.140625 71.796875 
Q 19.390625 75.984375 28.609375 75.984375 
z
" id="DejaVuSans-102"/>
       <path d="M 2.984375 54.6875 
L 12.5 54.6875 
L 29.59375 8.796875 
L 46.6875 54.6875 
L 56.203125 54.6875 
L 35.6875 0 
L 23.484375 0 
z
" id="DejaVuSans-118"/>
       <path d="M 44.28125 53.078125 
L 44.28125 44.578125 
Q 40.484375 46.53125 36.375 47.5 
Q 32.28125 48.484375 27.875 48.484375 
Q 21.1875 48.484375 17.84375 46.4375 
Q 14.5 44.390625 14.5 40.28125 
Q 14.5 37.15625 16.890625 35.375 
Q 19.28125 33.59375 26.515625 31.984375 
L 29.59375 31.296875 
Q 39.15625 29.25 43.1875 25.515625 
Q 47.21875 21.78125 47.21875 15.09375 
Q 47.21875 7.46875 41.1875 3.015625 
Q 35.15625 -1.421875 24.609375 -1.421875 
Q 20.21875 -1.421875 15.453125 -0.5625 
Q 10.6875 0.296875 5.421875 2 
L 5.421875 11.28125 
Q 10.40625 8.6875 15.234375 7.390625 
Q 20.0625 6.109375 24.8125 6.109375 
Q 31.15625 6.109375 34.5625 8.28125 
Q 37.984375 10.453125 37.984375 14.40625 
Q 37.984375 18.0625 35.515625 20.015625 
Q 33.0625 21.96875 24.703125 23.78125 
L 21.578125 24.515625 
Q 13.234375 26.265625 9.515625 29.90625 
Q 5.8125 33.546875 5.8125 39.890625 
Q 5.8125 47.609375 11.28125 51.796875 
Q 16.75 56 26.8125 56 
Q 31.78125 56 36.171875 55.265625 
Q 40.578125 54.546875 44.28125 53.078125 
z
" id="DejaVuSans-115"/>
      </defs>
      <use xlink:href="#DejaVuSans-121"/>
      <use x="59.179688" xlink:href="#DejaVuSans-101"/>
      <use x="120.703125" xlink:href="#DejaVuSans-97"/>
      <use x="181.982422" xlink:href="#DejaVuSans-114"/>
      <use x="223.095703" xlink:href="#DejaVuSans-32"/>
      <use x="254.882812" xlink:href="#DejaVuSans-111"/>
      <use x="316.064453" xlink:href="#DejaVuSans-102"/>
      <use x="351.269531" xlink:href="#DejaVuSans-32"/>
      <use x="383.056641" xlink:href="#DejaVuSans-118"/>
      <use x="442.236328" xlink:href="#DejaVuSans-105"/>
      <use x="470.019531" xlink:href="#DejaVuSans-114"/>
      <use x="511.132812" xlink:href="#DejaVuSans-117"/>
      <use x="574.511719" xlink:href="#DejaVuSans-115"/>
      <use x="626.611328" xlink:href="#DejaVuSans-32"/>
      <use x="658.398438" xlink:href="#DejaVuSans-105"/>
      <use x="686.181641" xlink:href="#DejaVuSans-115"/>
      <use x="738.28125" xlink:href="#DejaVuSans-111"/>
      <use x="799.462891" xlink:href="#DejaVuSans-108"/>
      <use x="827.246094" xlink:href="#DejaVuSans-97"/>
      <use x="888.525391" xlink:href="#DejaVuSans-116"/>
      <use x="927.734375" xlink:href="#DejaVuSans-105"/>
      <use x="955.517578" xlink:href="#DejaVuSans-111"/>
      <use x="1016.699219" xlink:href="#DejaVuSans-110"/>
     </g>
    </g>
   </g>
   <g id="matplotlib.axis_14">
    <g id="ytick_157"/>
    <g id="ytick_158"/>
    <g id="ytick_159"/>
    <g id="ytick_160"/>
    <g id="ytick_161"/>
    <g id="ytick_162"/>
    <g id="ytick_163"/>
    <g id="ytick_164"/>
    <g id="ytick_165"/>
    <g id="ytick_166"/>
    <g id="ytick_167"/>
    <g id="ytick_168"/>
    <g id="ytick_169"/>
    <g id="ytick_170"/>
    <g id="ytick_171"/>
    <g id="ytick_172"/>
    <g id="ytick_173"/>
    <g id="ytick_174"/>
    <g id="ytick_175"/>
    <g id="ytick_176"/>
    <g id="ytick_177"/>
    <g id="ytick_178"/>
    <g id="ytick_179"/>
    <g id="ytick_180"/>
    <g id="ytick_181"/>
    <g id="ytick_182"/>
   </g>
   <g id="PathCollection_7">
    <path clip-path="url(#p76450c7c4c)" d="M 363.812939 189.720343 
C 364.400514 189.720343 364.964103 189.486897 365.379581 189.071418 
C 365.79506 188.65594 366.028506 188.092351 366.028506 187.504775 
C 366.028506 186.9172 365.79506 186.353611 365.379581 185.938133 
C 364.964103 185.522654 364.400514 185.289208 363.812939 185.289208 
C 363.225363 185.289208 362.661774 185.522654 362.246296 185.938133 
C 361.830817 186.353611 361.597371 186.9172 361.597371 187.504775 
C 361.597371 188.092351 361.830817 188.65594 362.246296 189.071418 
C 362.661774 189.486897 363.225363 189.720343 363.812939 189.720343 
z
" style="stroke:#000000;stroke-width:0.886227;"/>
    <path clip-path="url(#p76450c7c4c)" d="M 386.139623 180.687859 
C 386.727199 180.687859 387.290787 180.454413 387.706266 180.038934 
C 388.121744 179.623456 388.35519 179.059867 388.35519 178.472291 
C 388.35519 177.884716 388.121744 177.321127 387.706266 176.905649 
C 387.290787 176.49017 386.727199 176.256724 386.139623 176.256724 
C 385.552048 176.256724 384.988459 176.49017 384.572981 176.905649 
C 384.157502 177.321127 383.924056 177.884716 383.924056 178.472291 
C 383.924056 179.059867 384.157502 179.623456 384.572981 180.038934 
C 384.988459 180.454413 385.552048 180.687859 386.139623 180.687859 
z
" style="stroke:#000000;stroke-width:0.886227;"/>
    <path clip-path="url(#p76450c7c4c)" d="M 411.655834 160.381586 
C 412.243409 160.381586 412.806998 160.148139 413.222477 159.732661 
C 413.637955 159.317182 413.871401 158.753594 413.871401 158.166018 
C 413.871401 157.578443 413.637955 157.014854 413.222477 156.599376 
C 412.806998 156.183897 412.243409 155.950451 411.655834 155.950451 
C 411.068259 155.950451 410.50467 156.183897 410.089191 156.599376 
C 409.673713 157.014854 409.440267 157.578443 409.440267 158.166018 
C 409.440267 158.753594 409.673713 159.317182 410.089191 159.732661 
C 410.50467 160.148139 411.068259 160.381586 411.655834 160.381586 
z
" style="stroke:#000000;stroke-width:0.886227;"/>
   </g>
   <g id="line2d_25">
    <path clip-path="url(#p76450c7c4c)" d="M 363.812939 187.504775 
L 386.139623 178.472291 
L 411.655834 158.166018 
" style="fill:none;stroke:#000000;stroke-width:0.886227;"/>
   </g>
   <g id="patch_27">
    <path d="M 303.211938 122.646 
L 424.981938 122.646 
L 424.981938 108.346 
L 303.211938 108.346 
z
" style="fill:none;stroke:#000000;stroke-linejoin:miter;"/>
   </g>
   <g id="patch_28">
    <path d="M 303.211938 204.452 
L 303.211938 122.646 
" style="fill:none;stroke:#000000;stroke-linecap:square;stroke-linejoin:miter;"/>
   </g>
   <g id="patch_29">
    <path d="M 303.211938 204.452 
L 424.981938 204.452 
" style="fill:none;stroke:#000000;stroke-linecap:square;stroke-linejoin:miter;"/>
   </g>
   <g id="PolyCollection_7">
    <path clip-path="url(#p76450c7c4c)" d="M 303.211938 226.622838 
L 303.211938 -2554.640301 
L 424.41394 -2554.640301 
L 424.41394 226.622838 
z
" style="fill:#56b4e9;fill-opacity:0.14902;"/>
   </g>
   <g id="text_27">
    <!-- 2020, 73yr (AUSAB-10) -->
    <g style="fill:#1a1a1a;" transform="translate(312.937313 117.92425)scale(0.088 -0.088)">
     <use xlink:href="#DejaVuSans-50"/>
     <use x="63.623047" xlink:href="#DejaVuSans-48"/>
     <use x="127.246094" xlink:href="#DejaVuSans-50"/>
     <use x="190.869141" xlink:href="#DejaVuSans-48"/>
     <use x="254.492188" xlink:href="#DejaVuSans-44"/>
     <use x="286.279297" xlink:href="#DejaVuSans-32"/>
     <use x="318.066406" xlink:href="#DejaVuSans-55"/>
     <use x="381.689453" xlink:href="#DejaVuSans-51"/>
     <use x="445.3125" xlink:href="#DejaVuSans-121"/>
     <use x="504.492188" xlink:href="#DejaVuSans-114"/>
     <use x="545.605469" xlink:href="#DejaVuSans-32"/>
     <use x="577.392578" xlink:href="#DejaVuSans-40"/>
     <use x="616.40625" xlink:href="#DejaVuSans-65"/>
     <use x="684.814453" xlink:href="#DejaVuSans-85"/>
     <use x="758.007812" xlink:href="#DejaVuSans-83"/>
     <use x="823.359375" xlink:href="#DejaVuSans-65"/>
     <use x="891.767578" xlink:href="#DejaVuSans-66"/>
     <use x="960.371094" xlink:href="#DejaVuSans-45"/>
     <use x="996.455078" xlink:href="#DejaVuSans-49"/>
     <use x="1060.078125" xlink:href="#DejaVuSans-48"/>
     <use x="1123.701172" xlink:href="#DejaVuSans-41"/>
    </g>
   </g>
   <g id="LineCollection_7">
    <path clip-path="url(#p76450c7c4c)" d="M 303.211938 198.810207 
L 424.981938 198.810207 
" style="fill:none;stroke:#999999;stroke-dasharray:1.32934,2.193412;stroke-dashoffset:0;stroke-width:1.32934;"/>
   </g>
  </g>
 </g>
 <defs>
  <clipPath id="p40cdf322c3">
   <rect height="81.806" width="121.77" x="49.591938" y="21.5"/>
  </clipPath>
  <clipPath id="p7c7104031a">
   <rect height="81.806" width="121.77" x="176.401938" y="21.5"/>
  </clipPath>
  <clipPath id="p012b27a7d0">
   <rect height="81.806" width="121.77" x="303.211938" y="21.5"/>
  </clipPath>
  <clipPath id="p525d8a406e">
   <rect height="81.806" width="121.77" x="430.021937" y="21.5"/>
  </clipPath>
  <clipPath id="p4f0bdcfb0a">
   <rect height="81.806" width="121.77" x="49.591938" y="122.646"/>
  </clipPath>
  <clipPath id="p2681bf7ae8">
   <rect height="81.806" width="121.77" x="176.401938" y="122.646"/>
  </clipPath>
  <clipPath id="p76450c7c4c">
   <rect height="81.806" width="121.77" x="303.211938" y="122.646"/>
  </clipPath>
 </defs>
</svg>
