<svg xmlns="http://www.w3.org/2000/svg" xmlns:xlink="http://www.w3.org/1999/xlink" version="1.1" width="637.930311px" viewBox="0 0 637.930311px 261.28581199999996px" height="261.28581199999996px">
  <g>
    <g transform="translate(0, 10) scale(1) ">
      <g><metadata>
  <rdf:RDF xmlns:cc="http://creativecommons.org/ns#" xmlns:dc="http://purl.org/dc/elements/1.1/" xmlns:rdf="http://www.w3.org/1999/02/22-rdf-syntax-ns#">
   <cc:Work>
    <dc:type rdf:resource="http://purl.org/dc/dcmitype/StillImage"/>
    <dc:date>2020-12-12T06:18:48.757045</dc:date>
    <dc:format>image/svg+xml</dc:format>
    <dc:creator>
     <cc:Agent>
      <dc:title>Matplotlib v3.3.2, https://matplotlib.org/</dc:title>
     </cc:Agent>
    </dc:creator>
   </cc:Work>
  </rdf:RDF>
 </metadata>
 <defs>
  <style type="text/css">*{stroke-linecap:butt;stroke-linejoin:round;}</style>
 </defs>
 <g id="figure_1">
  <g id="patch_1">
   <path d="M 0 217.71975  L 137.268687 217.71975  L 137.268687 -0  L 0 -0  z " style="fill:#ffffff;stroke:#ffffff;stroke-linejoin:miter;"/>
  </g>
  <g id="axes_1">
   <g id="patch_2">
    <path d="M 43.808687 131.1535  L 127.508687 131.1535  L 127.508687 9.1855  L 43.808687 9.1855  z " style="fill:#ffffff;"/>
   </g>
   <g id="matplotlib.axis_1">
    <g id="xtick_1">
     <g id="line2d_1">
      <path d="M 59.502437 131.1535  " style="fill:none;stroke:#333333;stroke-width:1.5;"/>
      <defs>
       <path d="M 0 0  L 0 2.75  " id="m9c9b90548c" style="stroke:#000000;"/>
      </defs>
      <g>
       <use style="fill:#333333;stroke:#000000;" x="59.502437" xlink:href="#m9c9b90548c" y="131.1535"/>
      </g>
     </g>
     <g id="text_1">
      <!-- full tail -->
      <g style="fill:#4d4d4d;" transform="translate(62.261812 170.300375)rotate(-90)scale(0.1 -0.1)">
       <defs>
        <path d="M 37.109375 75.984375  L 37.109375 68.5  L 28.515625 68.5  Q 23.6875 68.5 21.796875 66.546875  Q 19.921875 64.59375 19.921875 59.515625  L 19.921875 54.6875  L 34.71875 54.6875  L 34.71875 47.703125  L 19.921875 47.703125  L 19.921875 0  L 10.890625 0  L 10.890625 47.703125  L 2.296875 47.703125  L 2.296875 54.6875  L 10.890625 54.6875  L 10.890625 58.5  Q 10.890625 67.625 15.140625 71.796875  Q 19.390625 75.984375 28.609375 75.984375  z " id="DejaVuSans-102"/>
        <path d="M 8.5 21.578125  L 8.5 54.6875  L 17.484375 54.6875  L 17.484375 21.921875  Q 17.484375 14.15625 20.5 10.265625  Q 23.53125 6.390625 29.59375 6.390625  Q 36.859375 6.390625 41.078125 11.03125  Q 45.3125 15.671875 45.3125 23.6875  L 45.3125 54.6875  L 54.296875 54.6875  L 54.296875 0  L 45.3125 0  L 45.3125 8.40625  Q 42.046875 3.421875 37.71875 1  Q 33.40625 -1.421875 27.6875 -1.421875  Q 18.265625 -1.421875 13.375 4.4375  Q 8.5 10.296875 8.5 21.578125  z M 31.109375 56  z " id="DejaVuSans-117"/>
        <path d="M 9.421875 75.984375  L 18.40625 75.984375  L 18.40625 0  L 9.421875 0  z " id="DejaVuSans-108"/>
        <path id="DejaVuSans-32"/>
        <path d="M 18.3125 70.21875  L 18.3125 54.6875  L 36.8125 54.6875  L 36.8125 47.703125  L 18.3125 47.703125  L 18.3125 18.015625  Q 18.3125 11.328125 20.140625 9.421875  Q 21.96875 7.515625 27.59375 7.515625  L 36.8125 7.515625  L 36.8125 0  L 27.59375 0  Q 17.1875 0 13.234375 3.875  Q 9.28125 7.765625 9.28125 18.015625  L 9.28125 47.703125  L 2.6875 47.703125  L 2.6875 54.6875  L 9.28125 54.6875  L 9.28125 70.21875  z " id="DejaVuSans-116"/>
        <path d="M 34.28125 27.484375  Q 23.390625 27.484375 19.1875 25  Q 14.984375 22.515625 14.984375 16.5  Q 14.984375 11.71875 18.140625 8.90625  Q 21.296875 6.109375 26.703125 6.109375  Q 34.1875 6.109375 38.703125 11.40625  Q 43.21875 16.703125 43.21875 25.484375  L 43.21875 27.484375  z M 52.203125 31.203125  L 52.203125 0  L 43.21875 0  L 43.21875 8.296875  Q 40.140625 3.328125 35.546875 0.953125  Q 30.953125 -1.421875 24.3125 -1.421875  Q 15.921875 -1.421875 10.953125 3.296875  Q 6 8.015625 6 15.921875  Q 6 25.140625 12.171875 29.828125  Q 18.359375 34.515625 30.609375 34.515625  L 43.21875 34.515625  L 43.21875 35.40625  Q 43.21875 41.609375 39.140625 45  Q 35.0625 48.390625 27.6875 48.390625  Q 23 48.390625 18.546875 47.265625  Q 14.109375 46.140625 10.015625 43.890625  L 10.015625 52.203125  Q 14.9375 54.109375 19.578125 55.046875  Q 24.21875 56 28.609375 56  Q 40.484375 56 46.34375 49.84375  Q 52.203125 43.703125 52.203125 31.203125  z " id="DejaVuSans-97"/>
        <path d="M 9.421875 54.6875  L 18.40625 54.6875  L 18.40625 0  L 9.421875 0  z M 9.421875 75.984375  L 18.40625 75.984375  L 18.40625 64.59375  L 9.421875 64.59375  z " id="DejaVuSans-105"/>
       </defs>
       <use xlink:href="#DejaVuSans-102"/>
       <use x="35.205078" xlink:href="#DejaVuSans-117"/>
       <use x="98.583984" xlink:href="#DejaVuSans-108"/>
       <use x="126.367188" xlink:href="#DejaVuSans-108"/>
       <use x="154.150391" xlink:href="#DejaVuSans-32"/>
       <use x="185.9375" xlink:href="#DejaVuSans-116"/>
       <use x="225.146484" xlink:href="#DejaVuSans-97"/>
       <use x="286.425781" xlink:href="#DejaVuSans-105"/>
       <use x="314.208984" xlink:href="#DejaVuSans-108"/>
      </g>
     </g>
    </g>
    <g id="xtick_2">
     <g id="line2d_2">
      <path d="M 85.658687 131.1535  " style="fill:none;stroke:#333333;stroke-width:1.5;"/>
      <g>
       <use style="fill:#333333;stroke:#000000;" x="85.658687" xlink:href="#m9c9b90548c" y="131.1535"/>
      </g>
     </g>
     <g id="text_2">
      <!-- no spike -->
      <g style="fill:#4d4d4d;" transform="translate(88.418062 177.655062)rotate(-90)scale(0.1 -0.1)">
       <defs>
        <path d="M 54.890625 33.015625  L 54.890625 0  L 45.90625 0  L 45.90625 32.71875  Q 45.90625 40.484375 42.875 44.328125  Q 39.84375 48.1875 33.796875 48.1875  Q 26.515625 48.1875 22.3125 43.546875  Q 18.109375 38.921875 18.109375 30.90625  L 18.109375 0  L 9.078125 0  L 9.078125 54.6875  L 18.109375 54.6875  L 18.109375 46.1875  Q 21.34375 51.125 25.703125 53.5625  Q 30.078125 56 35.796875 56  Q 45.21875 56 50.046875 50.171875  Q 54.890625 44.34375 54.890625 33.015625  z " id="DejaVuSans-110"/>
        <path d="M 30.609375 48.390625  Q 23.390625 48.390625 19.1875 42.75  Q 14.984375 37.109375 14.984375 27.296875  Q 14.984375 17.484375 19.15625 11.84375  Q 23.34375 6.203125 30.609375 6.203125  Q 37.796875 6.203125 41.984375 11.859375  Q 46.1875 17.53125 46.1875 27.296875  Q 46.1875 37.015625 41.984375 42.703125  Q 37.796875 48.390625 30.609375 48.390625  z M 30.609375 56  Q 42.328125 56 49.015625 48.375  Q 55.71875 40.765625 55.71875 27.296875  Q 55.71875 13.875 49.015625 6.21875  Q 42.328125 -1.421875 30.609375 -1.421875  Q 18.84375 -1.421875 12.171875 6.21875  Q 5.515625 13.875 5.515625 27.296875  Q 5.515625 40.765625 12.171875 48.375  Q 18.84375 56 30.609375 56  z " id="DejaVuSans-111"/>
        <path d="M 44.28125 53.078125  L 44.28125 44.578125  Q 40.484375 46.53125 36.375 47.5  Q 32.28125 48.484375 27.875 48.484375  Q 21.1875 48.484375 17.84375 46.4375  Q 14.5 44.390625 14.5 40.28125  Q 14.5 37.15625 16.890625 35.375  Q 19.28125 33.59375 26.515625 31.984375  L 29.59375 31.296875  Q 39.15625 29.25 43.1875 25.515625  Q 47.21875 21.78125 47.21875 15.09375  Q 47.21875 7.46875 41.1875 3.015625  Q 35.15625 -1.421875 24.609375 -1.421875  Q 20.21875 -1.421875 15.453125 -0.5625  Q 10.6875 0.296875 5.421875 2  L 5.421875 11.28125  Q 10.40625 8.6875 15.234375 7.390625  Q 20.0625 6.109375 24.8125 6.109375  Q 31.15625 6.109375 34.5625 8.28125  Q 37.984375 10.453125 37.984375 14.40625  Q 37.984375 18.0625 35.515625 20.015625  Q 33.0625 21.96875 24.703125 23.78125  L 21.578125 24.515625  Q 13.234375 26.265625 9.515625 29.90625  Q 5.8125 33.546875 5.8125 39.890625  Q 5.8125 47.609375 11.28125 51.796875  Q 16.75 56 26.8125 56  Q 31.78125 56 36.171875 55.265625  Q 40.578125 54.546875 44.28125 53.078125  z " id="DejaVuSans-115"/>
        <path d="M 18.109375 8.203125  L 18.109375 -20.796875  L 9.078125 -20.796875  L 9.078125 54.6875  L 18.109375 54.6875  L 18.109375 46.390625  Q 20.953125 51.265625 25.265625 53.625  Q 29.59375 56 35.59375 56  Q 45.5625 56 51.78125 48.09375  Q 58.015625 40.1875 58.015625 27.296875  Q 58.015625 14.40625 51.78125 6.484375  Q 45.5625 -1.421875 35.59375 -1.421875  Q 29.59375 -1.421875 25.265625 0.953125  Q 20.953125 3.328125 18.109375 8.203125  z M 48.6875 27.296875  Q 48.6875 37.203125 44.609375 42.84375  Q 40.53125 48.484375 33.40625 48.484375  Q 26.265625 48.484375 22.1875 42.84375  Q 18.109375 37.203125 18.109375 27.296875  Q 18.109375 17.390625 22.1875 11.75  Q 26.265625 6.109375 33.40625 6.109375  Q 40.53125 6.109375 44.609375 11.75  Q 48.6875 17.390625 48.6875 27.296875  z " id="DejaVuSans-112"/>
        <path d="M 9.078125 75.984375  L 18.109375 75.984375  L 18.109375 31.109375  L 44.921875 54.6875  L 56.390625 54.6875  L 27.390625 29.109375  L 57.625 0  L 45.90625 0  L 18.109375 26.703125  L 18.109375 0  L 9.078125 0  z " id="DejaVuSans-107"/>
        <path d="M 56.203125 29.59375  L 56.203125 25.203125  L 14.890625 25.203125  Q 15.484375 15.921875 20.484375 11.0625  Q 25.484375 6.203125 34.421875 6.203125  Q 39.59375 6.203125 44.453125 7.46875  Q 49.3125 8.734375 54.109375 11.28125  L 54.109375 2.78125  Q 49.265625 0.734375 44.1875 -0.34375  Q 39.109375 -1.421875 33.890625 -1.421875  Q 20.796875 -1.421875 13.15625 6.1875  Q 5.515625 13.8125 5.515625 26.8125  Q 5.515625 40.234375 12.765625 48.109375  Q 20.015625 56 32.328125 56  Q 43.359375 56 49.78125 48.890625  Q 56.203125 41.796875 56.203125 29.59375  z M 47.21875 32.234375  Q 47.125 39.59375 43.09375 43.984375  Q 39.0625 48.390625 32.421875 48.390625  Q 24.90625 48.390625 20.390625 44.140625  Q 15.875 39.890625 15.1875 32.171875  z " id="DejaVuSans-101"/>
       </defs>
       <use xlink:href="#DejaVuSans-110"/>
       <use x="63.378906" xlink:href="#DejaVuSans-111"/>
       <use x="124.560547" xlink:href="#DejaVuSans-32"/>
       <use x="156.347656" xlink:href="#DejaVuSans-115"/>
       <use x="208.447266" xlink:href="#DejaVuSans-112"/>
       <use x="271.923828" xlink:href="#DejaVuSans-105"/>
       <use x="299.707031" xlink:href="#DejaVuSans-107"/>
       <use x="353.992188" xlink:href="#DejaVuSans-101"/>
      </g>
     </g>
    </g>
    <g id="xtick_3">
     <g id="line2d_3">
      <path d="M 111.814937 131.1535  " style="fill:none;stroke:#333333;stroke-width:1.5;"/>
      <g>
       <use style="fill:#333333;stroke:#000000;" x="111.814937" xlink:href="#m9c9b90548c" y="131.1535"/>
      </g>
     </g>
     <g id="text_3">
      <!-- tail deletion -->
      <g style="fill:#4d4d4d;" transform="translate(114.574312 195.473813)rotate(-90)scale(0.1 -0.1)">
       <defs>
        <path d="M 45.40625 46.390625  L 45.40625 75.984375  L 54.390625 75.984375  L 54.390625 0  L 45.40625 0  L 45.40625 8.203125  Q 42.578125 3.328125 38.25 0.953125  Q 33.9375 -1.421875 27.875 -1.421875  Q 17.96875 -1.421875 11.734375 6.484375  Q 5.515625 14.40625 5.515625 27.296875  Q 5.515625 40.1875 11.734375 48.09375  Q 17.96875 56 27.875 56  Q 33.9375 56 38.25 53.625  Q 42.578125 51.265625 45.40625 46.390625  z M 14.796875 27.296875  Q 14.796875 17.390625 18.875 11.75  Q 22.953125 6.109375 30.078125 6.109375  Q 37.203125 6.109375 41.296875 11.75  Q 45.40625 17.390625 45.40625 27.296875  Q 45.40625 37.203125 41.296875 42.84375  Q 37.203125 48.484375 30.078125 48.484375  Q 22.953125 48.484375 18.875 42.84375  Q 14.796875 37.203125 14.796875 27.296875  z " id="DejaVuSans-100"/>
       </defs>
       <use xlink:href="#DejaVuSans-116"/>
       <use x="39.208984" xlink:href="#DejaVuSans-97"/>
       <use x="100.488281" xlink:href="#DejaVuSans-105"/>
       <use x="128.271484" xlink:href="#DejaVuSans-108"/>
       <use x="156.054688" xlink:href="#DejaVuSans-32"/>
       <use x="187.841797" xlink:href="#DejaVuSans-100"/>
       <use x="251.318359" xlink:href="#DejaVuSans-101"/>
       <use x="312.841797" xlink:href="#DejaVuSans-108"/>
       <use x="340.625" xlink:href="#DejaVuSans-101"/>
       <use x="402.148438" xlink:href="#DejaVuSans-116"/>
       <use x="441.357422" xlink:href="#DejaVuSans-105"/>
       <use x="469.140625" xlink:href="#DejaVuSans-111"/>
       <use x="530.322266" xlink:href="#DejaVuSans-110"/>
      </g>
     </g>
    </g>
    <g id="text_4">
     <!-- spike tail variant -->
     <g transform="translate(38.548687 208.232094)scale(0.11 -0.11)">
      <defs>
       <path d="M 2.984375 54.6875  L 12.5 54.6875  L 29.59375 8.796875  L 46.6875 54.6875  L 56.203125 54.6875  L 35.6875 0  L 23.484375 0  z " id="DejaVuSans-118"/>
       <path d="M 41.109375 46.296875  Q 39.59375 47.171875 37.8125 47.578125  Q 36.03125 48 33.890625 48  Q 26.265625 48 22.1875 43.046875  Q 18.109375 38.09375 18.109375 28.8125  L 18.109375 0  L 9.078125 0  L 9.078125 54.6875  L 18.109375 54.6875  L 18.109375 46.1875  Q 20.953125 51.171875 25.484375 53.578125  Q 30.03125 56 36.53125 56  Q 37.453125 56 38.578125 55.875  Q 39.703125 55.765625 41.0625 55.515625  z " id="DejaVuSans-114"/>
      </defs>
      <use xlink:href="#DejaVuSans-115"/>
      <use x="52.099609" xlink:href="#DejaVuSans-112"/>
      <use x="115.576172" xlink:href="#DejaVuSans-105"/>
      <use x="143.359375" xlink:href="#DejaVuSans-107"/>
      <use x="197.644531" xlink:href="#DejaVuSans-101"/>
      <use x="259.167969" xlink:href="#DejaVuSans-32"/>
      <use x="290.955078" xlink:href="#DejaVuSans-116"/>
      <use x="330.164062" xlink:href="#DejaVuSans-97"/>
      <use x="391.443359" xlink:href="#DejaVuSans-105"/>
      <use x="419.226562" xlink:href="#DejaVuSans-108"/>
      <use x="447.009766" xlink:href="#DejaVuSans-32"/>
      <use x="478.796875" xlink:href="#DejaVuSans-118"/>
      <use x="537.976562" xlink:href="#DejaVuSans-97"/>
      <use x="599.255859" xlink:href="#DejaVuSans-114"/>
      <use x="640.369141" xlink:href="#DejaVuSans-105"/>
      <use x="668.152344" xlink:href="#DejaVuSans-97"/>
      <use x="729.431641" xlink:href="#DejaVuSans-110"/>
      <use x="792.810547" xlink:href="#DejaVuSans-116"/>
     </g>
    </g>
   </g>
   <g id="matplotlib.axis_2">
    <g id="ytick_1">
     <g id="line2d_4">
      <path d="M 43.808687 117.54529  " style="fill:none;stroke:#333333;stroke-width:1.5;"/>
      <defs>
       <path d="M 0 0  L -2.75 0  " id="mbe158c56f3" style="stroke:#000000;"/>
      </defs>
      <g>
       <use style="fill:#333333;stroke:#000000;" x="43.808687" xlink:href="#mbe158c56f3" y="117.54529"/>
      </g>
     </g>
     <g id="text_5">
      <!-- 1e2 -->
      <g style="fill:#4d4d4d;" transform="translate(22.245937 119.97354)scale(0.088 -0.088)">
       <defs>
        <path d="M 12.40625 8.296875  L 28.515625 8.296875  L 28.515625 63.921875  L 10.984375 60.40625  L 10.984375 69.390625  L 28.421875 72.90625  L 38.28125 72.90625  L 38.28125 8.296875  L 54.390625 8.296875  L 54.390625 0  L 12.40625 0  z " id="DejaVuSans-49"/>
        <path d="M 19.1875 8.296875  L 53.609375 8.296875  L 53.609375 0  L 7.328125 0  L 7.328125 8.296875  Q 12.9375 14.109375 22.625 23.890625  Q 32.328125 33.6875 34.8125 36.53125  Q 39.546875 41.84375 41.421875 45.53125  Q 43.3125 49.21875 43.3125 52.78125  Q 43.3125 58.59375 39.234375 62.25  Q 35.15625 65.921875 28.609375 65.921875  Q 23.96875 65.921875 18.8125 64.3125  Q 13.671875 62.703125 7.8125 59.421875  L 7.8125 69.390625  Q 13.765625 71.78125 18.9375 73  Q 24.125 74.21875 28.421875 74.21875  Q 39.75 74.21875 46.484375 68.546875  Q 53.21875 62.890625 53.21875 53.421875  Q 53.21875 48.921875 51.53125 44.890625  Q 49.859375 40.875 45.40625 35.40625  Q 44.1875 33.984375 37.640625 27.21875  Q 31.109375 20.453125 19.1875 8.296875  z " id="DejaVuSans-50"/>
       </defs>
       <use xlink:href="#DejaVuSans-49"/>
       <use x="63.623047" xlink:href="#DejaVuSans-101"/>
       <use x="125.146484" xlink:href="#DejaVuSans-50"/>
      </g>
     </g>
    </g>
    <g id="ytick_2">
     <g id="line2d_5">
      <path d="M 43.808687 71.179322  " style="fill:none;stroke:#333333;stroke-width:1.5;"/>
      <g>
       <use style="fill:#333333;stroke:#000000;" x="43.808687" xlink:href="#mbe158c56f3" y="71.179322"/>
      </g>
     </g>
     <g id="text_6">
      <!-- 1e3 -->
      <g style="fill:#4d4d4d;" transform="translate(22.245937 73.607572)scale(0.088 -0.088)">
       <defs>
        <path d="M 40.578125 39.3125  Q 47.65625 37.796875 51.625 33  Q 55.609375 28.21875 55.609375 21.1875  Q 55.609375 10.40625 48.1875 4.484375  Q 40.765625 -1.421875 27.09375 -1.421875  Q 22.515625 -1.421875 17.65625 -0.515625  Q 12.796875 0.390625 7.625 2.203125  L 7.625 11.71875  Q 11.71875 9.328125 16.59375 8.109375  Q 21.484375 6.890625 26.8125 6.890625  Q 36.078125 6.890625 40.9375 10.546875  Q 45.796875 14.203125 45.796875 21.1875  Q 45.796875 27.640625 41.28125 31.265625  Q 36.765625 34.90625 28.71875 34.90625  L 20.21875 34.90625  L 20.21875 43.015625  L 29.109375 43.015625  Q 36.375 43.015625 40.234375 45.921875  Q 44.09375 48.828125 44.09375 54.296875  Q 44.09375 59.90625 40.109375 62.90625  Q 36.140625 65.921875 28.71875 65.921875  Q 24.65625 65.921875 20.015625 65.03125  Q 15.375 64.15625 9.8125 62.3125  L 9.8125 71.09375  Q 15.4375 72.65625 20.34375 73.4375  Q 25.25 74.21875 29.59375 74.21875  Q 40.828125 74.21875 47.359375 69.109375  Q 53.90625 64.015625 53.90625 55.328125  Q 53.90625 49.265625 50.4375 45.09375  Q 46.96875 40.921875 40.578125 39.3125  z " id="DejaVuSans-51"/>
       </defs>
       <use xlink:href="#DejaVuSans-49"/>
       <use x="63.623047" xlink:href="#DejaVuSans-101"/>
       <use x="125.146484" xlink:href="#DejaVuSans-51"/>
      </g>
     </g>
    </g>
    <g id="ytick_3">
     <g id="line2d_6">
      <path d="M 43.808687 24.813354  " style="fill:none;stroke:#333333;stroke-width:1.5;"/>
      <g>
       <use style="fill:#333333;stroke:#000000;" x="43.808687" xlink:href="#mbe158c56f3" y="24.813354"/>
      </g>
     </g>
     <g id="text_7">
      <!-- 1e4 -->
      <g style="fill:#4d4d4d;" transform="translate(22.245937 27.241604)scale(0.088 -0.088)">
       <defs>
        <path d="M 37.796875 64.3125  L 12.890625 25.390625  L 37.796875 25.390625  z M 35.203125 72.90625  L 47.609375 72.90625  L 47.609375 25.390625  L 58.015625 25.390625  L 58.015625 17.1875  L 47.609375 17.1875  L 47.609375 0  L 37.796875 0  L 37.796875 17.1875  L 4.890625 17.1875  L 4.890625 26.703125  z " id="DejaVuSans-52"/>
       </defs>
       <use xlink:href="#DejaVuSans-49"/>
       <use x="63.623047" xlink:href="#DejaVuSans-101"/>
       <use x="125.146484" xlink:href="#DejaVuSans-52"/>
      </g>
     </g>
    </g>
    <g id="ytick_4"/>
    <g id="ytick_5"/>
    <g id="ytick_6"/>
    <g id="ytick_7"/>
    <g id="ytick_8"/>
    <g id="ytick_9"/>
    <g id="ytick_10"/>
    <g id="ytick_11"/>
    <g id="ytick_12"/>
    <g id="ytick_13"/>
    <g id="ytick_14"/>
    <g id="ytick_15"/>
    <g id="ytick_16"/>
    <g id="ytick_17"/>
    <g id="ytick_18"/>
    <g id="ytick_19"/>
    <g id="ytick_20"/>
    <g id="ytick_21"/>
    <g id="ytick_22"/>
    <g id="ytick_23"/>
    <g id="ytick_24"/>
    <g id="text_8">
     <!-- transduction units / ml -->
     <g transform="translate(15.558281 131.555)rotate(-90)scale(0.11 -0.11)">
      <defs>
       <path d="M 48.78125 52.59375  L 48.78125 44.1875  Q 44.96875 46.296875 41.140625 47.34375  Q 37.3125 48.390625 33.40625 48.390625  Q 24.65625 48.390625 19.8125 42.84375  Q 14.984375 37.3125 14.984375 27.296875  Q 14.984375 17.28125 19.8125 11.734375  Q 24.65625 6.203125 33.40625 6.203125  Q 37.3125 6.203125 41.140625 7.25  Q 44.96875 8.296875 48.78125 10.40625  L 48.78125 2.09375  Q 45.015625 0.34375 40.984375 -0.53125  Q 36.96875 -1.421875 32.421875 -1.421875  Q 20.0625 -1.421875 12.78125 6.34375  Q 5.515625 14.109375 5.515625 27.296875  Q 5.515625 40.671875 12.859375 48.328125  Q 20.21875 56 33.015625 56  Q 37.15625 56 41.109375 55.140625  Q 45.0625 54.296875 48.78125 52.59375  z " id="DejaVuSans-99"/>
       <path d="M 25.390625 72.90625  L 33.6875 72.90625  L 8.296875 -9.28125  L 0 -9.28125  z " id="DejaVuSans-47"/>
       <path d="M 52 44.1875  Q 55.375 50.25 60.0625 53.125  Q 64.75 56 71.09375 56  Q 79.640625 56 84.28125 50.015625  Q 88.921875 44.046875 88.921875 33.015625  L 88.921875 0  L 79.890625 0  L 79.890625 32.71875  Q 79.890625 40.578125 77.09375 44.375  Q 74.3125 48.1875 68.609375 48.1875  Q 61.625 48.1875 57.5625 43.546875  Q 53.515625 38.921875 53.515625 30.90625  L 53.515625 0  L 44.484375 0  L 44.484375 32.71875  Q 44.484375 40.625 41.703125 44.40625  Q 38.921875 48.1875 33.109375 48.1875  Q 26.21875 48.1875 22.15625 43.53125  Q 18.109375 38.875 18.109375 30.90625  L 18.109375 0  L 9.078125 0  L 9.078125 54.6875  L 18.109375 54.6875  L 18.109375 46.1875  Q 21.1875 51.21875 25.484375 53.609375  Q 29.78125 56 35.6875 56  Q 41.65625 56 45.828125 52.96875  Q 50 49.953125 52 44.1875  z " id="DejaVuSans-109"/>
      </defs>
      <use xlink:href="#DejaVuSans-116"/>
      <use x="39.208984" xlink:href="#DejaVuSans-114"/>
      <use x="80.322266" xlink:href="#DejaVuSans-97"/>
      <use x="141.601562" xlink:href="#DejaVuSans-110"/>
      <use x="204.980469" xlink:href="#DejaVuSans-115"/>
      <use x="257.080078" xlink:href="#DejaVuSans-100"/>
      <use x="320.556641" xlink:href="#DejaVuSans-117"/>
      <use x="383.935547" xlink:href="#DejaVuSans-99"/>
      <use x="438.916016" xlink:href="#DejaVuSans-116"/>
      <use x="478.125" xlink:href="#DejaVuSans-105"/>
      <use x="505.908203" xlink:href="#DejaVuSans-111"/>
      <use x="567.089844" xlink:href="#DejaVuSans-110"/>
      <use x="630.46875" xlink:href="#DejaVuSans-32"/>
      <use x="662.255859" xlink:href="#DejaVuSans-117"/>
      <use x="725.634766" xlink:href="#DejaVuSans-110"/>
      <use x="789.013672" xlink:href="#DejaVuSans-105"/>
      <use x="816.796875" xlink:href="#DejaVuSans-116"/>
      <use x="856.005859" xlink:href="#DejaVuSans-115"/>
      <use x="908.105469" xlink:href="#DejaVuSans-32"/>
      <use x="939.892578" xlink:href="#DejaVuSans-47"/>
      <use x="973.583984" xlink:href="#DejaVuSans-32"/>
      <use x="1005.371094" xlink:href="#DejaVuSans-109"/>
      <use x="1102.783203" xlink:href="#DejaVuSans-108"/>
     </g>
    </g>
   </g>
   <g id="PathCollection_1">
    <path clip-path="url(#p1c7fb28234)" d="M 64.388737 45.922908  C 65.093828 45.922908 65.770134 45.642773 66.268708 45.144199  C 66.767283 44.645624 67.047418 43.969318 67.047418 43.264227  C 67.047418 42.559137 66.767283 41.88283 66.268708 41.384256  C 65.770134 40.885682 65.093828 40.605547 64.388737 40.605547  C 63.683647 40.605547 63.00734 40.885682 62.508766 41.384256  C 62.010192 41.88283 61.730056 42.559137 61.730056 43.264227  C 61.730056 43.969318 62.010192 44.645624 62.508766 45.144199  C 63.00734 45.642773 63.683647 45.922908 64.388737 45.922908  z " style="fill-opacity:0.6;stroke:#000000;stroke-opacity:0.6;stroke-width:0.886227;"/>
    <path clip-path="url(#p1c7fb28234)" d="M 59.996605 63.153015  C 60.701695 63.153015 61.378002 62.87288 61.876576 62.374306  C 62.37515 61.875731 62.655286 61.199425 62.655286 60.494334  C 62.655286 59.789244 62.37515 59.112937 61.876576 58.614363  C 61.378002 58.115789 60.701695 57.835654 59.996605 57.835654  C 59.291515 57.835654 58.615208 58.115789 58.116634 58.614363  C 57.61806 59.112937 57.337924 59.789244 57.337924 60.494334  C 57.337924 61.199425 57.61806 61.875731 58.116634 62.374306  C 58.615208 62.87288 59.291515 63.153015 59.996605 63.153015  z " style="fill-opacity:0.6;stroke:#000000;stroke-opacity:0.6;stroke-width:0.886227;"/>
    <path clip-path="url(#p1c7fb28234)" d="M 116.760398 25.552822  C 117.465488 25.552822 118.141795 25.272687 118.640369 24.774113  C 119.138943 24.275539 119.419078 23.599232 119.419078 22.894142  C 119.419078 22.189051 119.138943 21.512745 118.640369 21.01417  C 118.141795 20.515596 117.465488 20.235461 116.760398 20.235461  C 116.055307 20.235461 115.379001 20.515596 114.880426 21.01417  C 114.381852 21.512745 114.101717 22.189051 114.101717 22.894142  C 114.101717 23.599232 114.381852 24.275539 114.880426 24.774113  C 115.379001 25.272687 116.055307 25.552822 116.760398 25.552822  z " style="fill-opacity:0.6;stroke:#000000;stroke-opacity:0.6;stroke-width:0.886227;"/>
    <path clip-path="url(#p1c7fb28234)" d="M 114.06245 27.472034  C 114.76754 27.472034 115.443847 27.191899 115.942421 26.693325  C 116.440995 26.194751 116.721131 25.518444 116.721131 24.813354  C 116.721131 24.108263 116.440995 23.431957 115.942421 22.933382  C 115.443847 22.434808 114.76754 22.154673 114.06245 22.154673  C 113.357359 22.154673 112.681053 22.434808 112.182479 22.933382  C 111.683904 23.431957 111.403769 24.108263 111.403769 24.813354  C 111.403769 25.518444 111.683904 26.194751 112.182479 26.693325  C 112.681053 27.191899 113.357359 27.472034 114.06245 27.472034  z " style="fill-opacity:0.6;stroke:#000000;stroke-opacity:0.6;stroke-width:0.886227;"/>
    <path clip-path="url(#p1c7fb28234)" d="M 87.727425 133.812181  C 88.432516 133.812181 89.108822 133.532045 89.607397 133.033471  C 90.105971 132.534897 90.386106 131.85859 90.386106 131.1535  C 90.386106 130.44841 90.105971 129.772103 89.607397 129.273529  C 89.108822 128.774955 88.432516 128.494819 87.727425 128.494819  C 87.022335 128.494819 86.346028 128.774955 85.847454 129.273529  C 85.34888 129.772103 85.068745 130.44841 85.068745 131.1535  C 85.068745 131.85859 85.34888 132.534897 85.847454 133.033471  C 86.346028 133.532045 87.022335 133.812181 87.727425 133.812181  z " style="fill-opacity:0.6;stroke:#000000;stroke-opacity:0.6;stroke-width:0.886227;"/>
    <path clip-path="url(#p1c7fb28234)" d="M 82.688274 133.812181  C 83.393364 133.812181 84.069671 133.532045 84.568245 133.033471  C 85.066819 132.534897 85.346955 131.85859 85.346955 131.1535  C 85.346955 130.44841 85.066819 129.772103 84.568245 129.273529  C 84.069671 128.774955 83.393364 128.494819 82.688274 128.494819  C 81.983183 128.494819 81.306877 128.774955 80.808303 129.273529  C 80.309728 129.772103 80.029593 130.44841 80.029593 131.1535  C 80.029593 131.85859 80.309728 132.534897 80.808303 133.033471  C 81.306877 133.532045 81.983183 133.812181 82.688274 133.812181  z " style="fill-opacity:0.6;stroke:#000000;stroke-opacity:0.6;stroke-width:0.886227;"/>
   </g>
   <g id="LineCollection_1">
    <path clip-path="url(#p1c7fb28234)" d="M 43.808687 117.54529  L 127.508687 117.54529  " style="fill:none;stroke:#808080;stroke-dasharray:1.772454,2.924549;stroke-dashoffset:0;stroke-opacity:0.501961;stroke-width:1.772454;"/>
   </g>
   <g id="patch_3">
    <path d="M 43.808687 131.1535  L 43.808687 9.1855  " style="fill:none;stroke:#000000;stroke-linecap:square;stroke-linejoin:miter;"/>
   </g>
   <g id="patch_4">
    <path d="M 43.808687 131.1535  L 127.508687 131.1535  " style="fill:none;stroke:#000000;stroke-linecap:square;stroke-linejoin:miter;"/>
   </g>
  </g>
 </g>
 <defs>
  <clipPath id="p1c7fb28234">
   <rect height="121.968" width="83.7" x="43.808687" y="9.1855"/>
  </clipPath>
 </defs>
</g>
      <text x="2" y="4" font-size="18" font-family="Arial" font-weight="normal" letter-spacing="0" text-anchor="start" fill="black">A</text>
    </g>
    <g transform="translate(167.268687, 10) scale(1) ">
      <g><metadata>
  <rdf:RDF xmlns:cc="http://creativecommons.org/ns#" xmlns:dc="http://purl.org/dc/elements/1.1/" xmlns:rdf="http://www.w3.org/1999/02/22-rdf-syntax-ns#">
   <cc:Work>
    <dc:type rdf:resource="http://purl.org/dc/dcmitype/StillImage"/>
    <dc:date>2020-12-12T06:18:49.212505</dc:date>
    <dc:format>image/svg+xml</dc:format>
    <dc:creator>
     <cc:Agent>
      <dc:title>Matplotlib v3.3.2, https://matplotlib.org/</dc:title>
     </cc:Agent>
    </dc:creator>
   </cc:Work>
  </rdf:RDF>
 </metadata>
 <defs>
  <style type="text/css">*{stroke-linecap:butt;stroke-linejoin:round;}</style>
 </defs>
 <g id="figure_1">
  <g id="patch_1">
   <path d="M 0 238.224875  L 138.552937 238.224875  L 138.552937 0  L 0 0  z " style="fill:#ffffff;stroke:#ffffff;stroke-linejoin:miter;"/>
  </g>
  <g id="axes_1">
   <g id="patch_2">
    <path d="M 46.983563 129.168  L 130.683562 129.168  L 130.683562 7.2  L 46.983563 7.2  z " style="fill:#ffffff;"/>
   </g>
   <g id="matplotlib.axis_1">
    <g id="xtick_1">
     <g id="line2d_1">
      <path d="M 62.677312 129.168  " style="fill:none;stroke:#333333;stroke-width:1.5;"/>
      <defs>
       <path d="M 0 0  L 0 2.75  " id="m77e9de5c26" style="stroke:#000000;"/>
      </defs>
      <g>
       <use style="fill:#333333;stroke:#000000;" x="62.677312" xlink:href="#m77e9de5c26" y="129.168"/>
      </g>
     </g>
     <g id="text_1">
      <!-- APN + TMPRSS2 -->
      <g style="fill:#4d4d4d;" transform="translate(65.436687 215.978938)rotate(-90)scale(0.1 -0.1)">
       <defs>
        <path d="M 34.1875 63.1875  L 20.796875 26.90625  L 47.609375 26.90625  z M 28.609375 72.90625  L 39.796875 72.90625  L 67.578125 0  L 57.328125 0  L 50.6875 18.703125  L 17.828125 18.703125  L 11.1875 0  L 0.78125 0  z " id="DejaVuSans-65"/>
        <path d="M 19.671875 64.796875  L 19.671875 37.40625  L 32.078125 37.40625  Q 38.96875 37.40625 42.71875 40.96875  Q 46.484375 44.53125 46.484375 51.125  Q 46.484375 57.671875 42.71875 61.234375  Q 38.96875 64.796875 32.078125 64.796875  z M 9.8125 72.90625  L 32.078125 72.90625  Q 44.34375 72.90625 50.609375 67.359375  Q 56.890625 61.8125 56.890625 51.125  Q 56.890625 40.328125 50.609375 34.8125  Q 44.34375 29.296875 32.078125 29.296875  L 19.671875 29.296875  L 19.671875 0  L 9.8125 0  z " id="DejaVuSans-80"/>
        <path d="M 9.8125 72.90625  L 23.09375 72.90625  L 55.421875 11.921875  L 55.421875 72.90625  L 64.984375 72.90625  L 64.984375 0  L 51.703125 0  L 19.390625 60.984375  L 19.390625 0  L 9.8125 0  z " id="DejaVuSans-78"/>
        <path id="DejaVuSans-32"/>
        <path d="M 46 62.703125  L 46 35.5  L 73.1875 35.5  L 73.1875 27.203125  L 46 27.203125  L 46 0  L 37.796875 0  L 37.796875 27.203125  L 10.59375 27.203125  L 10.59375 35.5  L 37.796875 35.5  L 37.796875 62.703125  z " id="DejaVuSans-43"/>
        <path d="M -0.296875 72.90625  L 61.375 72.90625  L 61.375 64.59375  L 35.5 64.59375  L 35.5 0  L 25.59375 0  L 25.59375 64.59375  L -0.296875 64.59375  z " id="DejaVuSans-84"/>
        <path d="M 9.8125 72.90625  L 24.515625 72.90625  L 43.109375 23.296875  L 61.8125 72.90625  L 76.515625 72.90625  L 76.515625 0  L 66.890625 0  L 66.890625 64.015625  L 48.09375 14.015625  L 38.1875 14.015625  L 19.390625 64.015625  L 19.390625 0  L 9.8125 0  z " id="DejaVuSans-77"/>
        <path d="M 44.390625 34.1875  Q 47.5625 33.109375 50.5625 29.59375  Q 53.5625 26.078125 56.59375 19.921875  L 66.609375 0  L 56 0  L 46.6875 18.703125  Q 43.0625 26.03125 39.671875 28.421875  Q 36.28125 30.8125 30.421875 30.8125  L 19.671875 30.8125  L 19.671875 0  L 9.8125 0  L 9.8125 72.90625  L 32.078125 72.90625  Q 44.578125 72.90625 50.734375 67.671875  Q 56.890625 62.453125 56.890625 51.90625  Q 56.890625 45.015625 53.6875 40.46875  Q 50.484375 35.9375 44.390625 34.1875  z M 19.671875 64.796875  L 19.671875 38.921875  L 32.078125 38.921875  Q 39.203125 38.921875 42.84375 42.21875  Q 46.484375 45.515625 46.484375 51.90625  Q 46.484375 58.296875 42.84375 61.546875  Q 39.203125 64.796875 32.078125 64.796875  z " id="DejaVuSans-82"/>
        <path d="M 53.515625 70.515625  L 53.515625 60.890625  Q 47.90625 63.578125 42.921875 64.890625  Q 37.9375 66.21875 33.296875 66.21875  Q 25.25 66.21875 20.875 63.09375  Q 16.5 59.96875 16.5 54.203125  Q 16.5 49.359375 19.40625 46.890625  Q 22.3125 44.4375 30.421875 42.921875  L 36.375 41.703125  Q 47.40625 39.59375 52.65625 34.296875  Q 57.90625 29 57.90625 20.125  Q 57.90625 9.515625 50.796875 4.046875  Q 43.703125 -1.421875 29.984375 -1.421875  Q 24.8125 -1.421875 18.96875 -0.25  Q 13.140625 0.921875 6.890625 3.21875  L 6.890625 13.375  Q 12.890625 10.015625 18.65625 8.296875  Q 24.421875 6.59375 29.984375 6.59375  Q 38.421875 6.59375 43.015625 9.90625  Q 47.609375 13.234375 47.609375 19.390625  Q 47.609375 24.75 44.3125 27.78125  Q 41.015625 30.8125 33.5 32.328125  L 27.484375 33.5  Q 16.453125 35.6875 11.515625 40.375  Q 6.59375 45.0625 6.59375 53.421875  Q 6.59375 63.09375 13.40625 68.65625  Q 20.21875 74.21875 32.171875 74.21875  Q 37.3125 74.21875 42.625 73.28125  Q 47.953125 72.359375 53.515625 70.515625  z " id="DejaVuSans-83"/>
        <path d="M 19.1875 8.296875  L 53.609375 8.296875  L 53.609375 0  L 7.328125 0  L 7.328125 8.296875  Q 12.9375 14.109375 22.625 23.890625  Q 32.328125 33.6875 34.8125 36.53125  Q 39.546875 41.84375 41.421875 45.53125  Q 43.3125 49.21875 43.3125 52.78125  Q 43.3125 58.59375 39.234375 62.25  Q 35.15625 65.921875 28.609375 65.921875  Q 23.96875 65.921875 18.8125 64.3125  Q 13.671875 62.703125 7.8125 59.421875  L 7.8125 69.390625  Q 13.765625 71.78125 18.9375 73  Q 24.125 74.21875 28.421875 74.21875  Q 39.75 74.21875 46.484375 68.546875  Q 53.21875 62.890625 53.21875 53.421875  Q 53.21875 48.921875 51.53125 44.890625  Q 49.859375 40.875 45.40625 35.40625  Q 44.1875 33.984375 37.640625 27.21875  Q 31.109375 20.453125 19.1875 8.296875  z " id="DejaVuSans-50"/>
       </defs>
       <use xlink:href="#DejaVuSans-65"/>
       <use x="68.408203" xlink:href="#DejaVuSans-80"/>
       <use x="128.710938" xlink:href="#DejaVuSans-78"/>
       <use x="203.515625" xlink:href="#DejaVuSans-32"/>
       <use x="235.302734" xlink:href="#DejaVuSans-43"/>
       <use x="319.091797" xlink:href="#DejaVuSans-32"/>
       <use x="350.878906" xlink:href="#DejaVuSans-84"/>
       <use x="411.962891" xlink:href="#DejaVuSans-77"/>
       <use x="498.242188" xlink:href="#DejaVuSans-80"/>
       <use x="558.544922" xlink:href="#DejaVuSans-82"/>
       <use x="628.027344" xlink:href="#DejaVuSans-83"/>
       <use x="691.503906" xlink:href="#DejaVuSans-83"/>
       <use x="754.980469" xlink:href="#DejaVuSans-50"/>
      </g>
     </g>
    </g>
    <g id="xtick_2">
     <g id="line2d_2">
      <path d="M 88.833562 129.168  " style="fill:none;stroke:#333333;stroke-width:1.5;"/>
      <g>
       <use style="fill:#333333;stroke:#000000;" x="88.833562" xlink:href="#m77e9de5c26" y="129.168"/>
      </g>
     </g>
     <g id="text_2">
      <!-- APN only -->
      <g style="fill:#4d4d4d;" transform="translate(91.592938 178.800813)rotate(-90)scale(0.1 -0.1)">
       <defs>
        <path d="M 30.609375 48.390625  Q 23.390625 48.390625 19.1875 42.75  Q 14.984375 37.109375 14.984375 27.296875  Q 14.984375 17.484375 19.15625 11.84375  Q 23.34375 6.203125 30.609375 6.203125  Q 37.796875 6.203125 41.984375 11.859375  Q 46.1875 17.53125 46.1875 27.296875  Q 46.1875 37.015625 41.984375 42.703125  Q 37.796875 48.390625 30.609375 48.390625  z M 30.609375 56  Q 42.328125 56 49.015625 48.375  Q 55.71875 40.765625 55.71875 27.296875  Q 55.71875 13.875 49.015625 6.21875  Q 42.328125 -1.421875 30.609375 -1.421875  Q 18.84375 -1.421875 12.171875 6.21875  Q 5.515625 13.875 5.515625 27.296875  Q 5.515625 40.765625 12.171875 48.375  Q 18.84375 56 30.609375 56  z " id="DejaVuSans-111"/>
        <path d="M 54.890625 33.015625  L 54.890625 0  L 45.90625 0  L 45.90625 32.71875  Q 45.90625 40.484375 42.875 44.328125  Q 39.84375 48.1875 33.796875 48.1875  Q 26.515625 48.1875 22.3125 43.546875  Q 18.109375 38.921875 18.109375 30.90625  L 18.109375 0  L 9.078125 0  L 9.078125 54.6875  L 18.109375 54.6875  L 18.109375 46.1875  Q 21.34375 51.125 25.703125 53.5625  Q 30.078125 56 35.796875 56  Q 45.21875 56 50.046875 50.171875  Q 54.890625 44.34375 54.890625 33.015625  z " id="DejaVuSans-110"/>
        <path d="M 9.421875 75.984375  L 18.40625 75.984375  L 18.40625 0  L 9.421875 0  z " id="DejaVuSans-108"/>
        <path d="M 32.171875 -5.078125  Q 28.375 -14.84375 24.75 -17.8125  Q 21.140625 -20.796875 15.09375 -20.796875  L 7.90625 -20.796875  L 7.90625 -13.28125  L 13.1875 -13.28125  Q 16.890625 -13.28125 18.9375 -11.515625  Q 21 -9.765625 23.484375 -3.21875  L 25.09375 0.875  L 2.984375 54.6875  L 12.5 54.6875  L 29.59375 11.921875  L 46.6875 54.6875  L 56.203125 54.6875  z " id="DejaVuSans-121"/>
       </defs>
       <use xlink:href="#DejaVuSans-65"/>
       <use x="68.408203" xlink:href="#DejaVuSans-80"/>
       <use x="128.710938" xlink:href="#DejaVuSans-78"/>
       <use x="203.515625" xlink:href="#DejaVuSans-32"/>
       <use x="235.302734" xlink:href="#DejaVuSans-111"/>
       <use x="296.484375" xlink:href="#DejaVuSans-110"/>
       <use x="359.863281" xlink:href="#DejaVuSans-108"/>
       <use x="387.646484" xlink:href="#DejaVuSans-121"/>
      </g>
     </g>
    </g>
    <g id="xtick_3">
     <g id="line2d_3">
      <path d="M 114.989812 129.168  " style="fill:none;stroke:#333333;stroke-width:1.5;"/>
      <g>
       <use style="fill:#333333;stroke:#000000;" x="114.989812" xlink:href="#m77e9de5c26" y="129.168"/>
      </g>
     </g>
     <g id="text_3">
      <!-- TMPRSS2 only -->
      <g style="fill:#4d4d4d;" transform="translate(117.749188 205.222688)rotate(-90)scale(0.1 -0.1)">
       <use xlink:href="#DejaVuSans-84"/>
       <use x="61.083984" xlink:href="#DejaVuSans-77"/>
       <use x="147.363281" xlink:href="#DejaVuSans-80"/>
       <use x="207.666016" xlink:href="#DejaVuSans-82"/>
       <use x="277.148438" xlink:href="#DejaVuSans-83"/>
       <use x="340.625" xlink:href="#DejaVuSans-83"/>
       <use x="404.101562" xlink:href="#DejaVuSans-50"/>
       <use x="467.724609" xlink:href="#DejaVuSans-32"/>
       <use x="499.511719" xlink:href="#DejaVuSans-111"/>
       <use x="560.693359" xlink:href="#DejaVuSans-110"/>
       <use x="624.072266" xlink:href="#DejaVuSans-108"/>
       <use x="651.855469" xlink:href="#DejaVuSans-121"/>
      </g>
     </g>
    </g>
    <g id="text_4">
     <!-- cells expressing -->
     <g transform="translate(43.614188 228.737219)scale(0.11 -0.11)">
      <defs>
       <path d="M 48.78125 52.59375  L 48.78125 44.1875  Q 44.96875 46.296875 41.140625 47.34375  Q 37.3125 48.390625 33.40625 48.390625  Q 24.65625 48.390625 19.8125 42.84375  Q 14.984375 37.3125 14.984375 27.296875  Q 14.984375 17.28125 19.8125 11.734375  Q 24.65625 6.203125 33.40625 6.203125  Q 37.3125 6.203125 41.140625 7.25  Q 44.96875 8.296875 48.78125 10.40625  L 48.78125 2.09375  Q 45.015625 0.34375 40.984375 -0.53125  Q 36.96875 -1.421875 32.421875 -1.421875  Q 20.0625 -1.421875 12.78125 6.34375  Q 5.515625 14.109375 5.515625 27.296875  Q 5.515625 40.671875 12.859375 48.328125  Q 20.21875 56 33.015625 56  Q 37.15625 56 41.109375 55.140625  Q 45.0625 54.296875 48.78125 52.59375  z " id="DejaVuSans-99"/>
       <path d="M 56.203125 29.59375  L 56.203125 25.203125  L 14.890625 25.203125  Q 15.484375 15.921875 20.484375 11.0625  Q 25.484375 6.203125 34.421875 6.203125  Q 39.59375 6.203125 44.453125 7.46875  Q 49.3125 8.734375 54.109375 11.28125  L 54.109375 2.78125  Q 49.265625 0.734375 44.1875 -0.34375  Q 39.109375 -1.421875 33.890625 -1.421875  Q 20.796875 -1.421875 13.15625 6.1875  Q 5.515625 13.8125 5.515625 26.8125  Q 5.515625 40.234375 12.765625 48.109375  Q 20.015625 56 32.328125 56  Q 43.359375 56 49.78125 48.890625  Q 56.203125 41.796875 56.203125 29.59375  z M 47.21875 32.234375  Q 47.125 39.59375 43.09375 43.984375  Q 39.0625 48.390625 32.421875 48.390625  Q 24.90625 48.390625 20.390625 44.140625  Q 15.875 39.890625 15.1875 32.171875  z " id="DejaVuSans-101"/>
       <path d="M 44.28125 53.078125  L 44.28125 44.578125  Q 40.484375 46.53125 36.375 47.5  Q 32.28125 48.484375 27.875 48.484375  Q 21.1875 48.484375 17.84375 46.4375  Q 14.5 44.390625 14.5 40.28125  Q 14.5 37.15625 16.890625 35.375  Q 19.28125 33.59375 26.515625 31.984375  L 29.59375 31.296875  Q 39.15625 29.25 43.1875 25.515625  Q 47.21875 21.78125 47.21875 15.09375  Q 47.21875 7.46875 41.1875 3.015625  Q 35.15625 -1.421875 24.609375 -1.421875  Q 20.21875 -1.421875 15.453125 -0.5625  Q 10.6875 0.296875 5.421875 2  L 5.421875 11.28125  Q 10.40625 8.6875 15.234375 7.390625  Q 20.0625 6.109375 24.8125 6.109375  Q 31.15625 6.109375 34.5625 8.28125  Q 37.984375 10.453125 37.984375 14.40625  Q 37.984375 18.0625 35.515625 20.015625  Q 33.0625 21.96875 24.703125 23.78125  L 21.578125 24.515625  Q 13.234375 26.265625 9.515625 29.90625  Q 5.8125 33.546875 5.8125 39.890625  Q 5.8125 47.609375 11.28125 51.796875  Q 16.75 56 26.8125 56  Q 31.78125 56 36.171875 55.265625  Q 40.578125 54.546875 44.28125 53.078125  z " id="DejaVuSans-115"/>
       <path d="M 54.890625 54.6875  L 35.109375 28.078125  L 55.90625 0  L 45.3125 0  L 29.390625 21.484375  L 13.484375 0  L 2.875 0  L 24.125 28.609375  L 4.6875 54.6875  L 15.28125 54.6875  L 29.78125 35.203125  L 44.28125 54.6875  z " id="DejaVuSans-120"/>
       <path d="M 18.109375 8.203125  L 18.109375 -20.796875  L 9.078125 -20.796875  L 9.078125 54.6875  L 18.109375 54.6875  L 18.109375 46.390625  Q 20.953125 51.265625 25.265625 53.625  Q 29.59375 56 35.59375 56  Q 45.5625 56 51.78125 48.09375  Q 58.015625 40.1875 58.015625 27.296875  Q 58.015625 14.40625 51.78125 6.484375  Q 45.5625 -1.421875 35.59375 -1.421875  Q 29.59375 -1.421875 25.265625 0.953125  Q 20.953125 3.328125 18.109375 8.203125  z M 48.6875 27.296875  Q 48.6875 37.203125 44.609375 42.84375  Q 40.53125 48.484375 33.40625 48.484375  Q 26.265625 48.484375 22.1875 42.84375  Q 18.109375 37.203125 18.109375 27.296875  Q 18.109375 17.390625 22.1875 11.75  Q 26.265625 6.109375 33.40625 6.109375  Q 40.53125 6.109375 44.609375 11.75  Q 48.6875 17.390625 48.6875 27.296875  z " id="DejaVuSans-112"/>
       <path d="M 41.109375 46.296875  Q 39.59375 47.171875 37.8125 47.578125  Q 36.03125 48 33.890625 48  Q 26.265625 48 22.1875 43.046875  Q 18.109375 38.09375 18.109375 28.8125  L 18.109375 0  L 9.078125 0  L 9.078125 54.6875  L 18.109375 54.6875  L 18.109375 46.1875  Q 20.953125 51.171875 25.484375 53.578125  Q 30.03125 56 36.53125 56  Q 37.453125 56 38.578125 55.875  Q 39.703125 55.765625 41.0625 55.515625  z " id="DejaVuSans-114"/>
       <path d="M 9.421875 54.6875  L 18.40625 54.6875  L 18.40625 0  L 9.421875 0  z M 9.421875 75.984375  L 18.40625 75.984375  L 18.40625 64.59375  L 9.421875 64.59375  z " id="DejaVuSans-105"/>
       <path d="M 45.40625 27.984375  Q 45.40625 37.75 41.375 43.109375  Q 37.359375 48.484375 30.078125 48.484375  Q 22.859375 48.484375 18.828125 43.109375  Q 14.796875 37.75 14.796875 27.984375  Q 14.796875 18.265625 18.828125 12.890625  Q 22.859375 7.515625 30.078125 7.515625  Q 37.359375 7.515625 41.375 12.890625  Q 45.40625 18.265625 45.40625 27.984375  z M 54.390625 6.78125  Q 54.390625 -7.171875 48.1875 -13.984375  Q 42 -20.796875 29.203125 -20.796875  Q 24.46875 -20.796875 20.265625 -20.09375  Q 16.0625 -19.390625 12.109375 -17.921875  L 12.109375 -9.1875  Q 16.0625 -11.328125 19.921875 -12.34375  Q 23.78125 -13.375 27.78125 -13.375  Q 36.625 -13.375 41.015625 -8.765625  Q 45.40625 -4.15625 45.40625 5.171875  L 45.40625 9.625  Q 42.625 4.78125 38.28125 2.390625  Q 33.9375 0 27.875 0  Q 17.828125 0 11.671875 7.65625  Q 5.515625 15.328125 5.515625 27.984375  Q 5.515625 40.671875 11.671875 48.328125  Q 17.828125 56 27.875 56  Q 33.9375 56 38.28125 53.609375  Q 42.625 51.21875 45.40625 46.390625  L 45.40625 54.6875  L 54.390625 54.6875  z " id="DejaVuSans-103"/>
      </defs>
      <use xlink:href="#DejaVuSans-99"/>
      <use x="54.980469" xlink:href="#DejaVuSans-101"/>
      <use x="116.503906" xlink:href="#DejaVuSans-108"/>
      <use x="144.287109" xlink:href="#DejaVuSans-108"/>
      <use x="172.070312" xlink:href="#DejaVuSans-115"/>
      <use x="224.169922" xlink:href="#DejaVuSans-32"/>
      <use x="255.957031" xlink:href="#DejaVuSans-101"/>
      <use x="315.730469" xlink:href="#DejaVuSans-120"/>
      <use x="374.910156" xlink:href="#DejaVuSans-112"/>
      <use x="438.386719" xlink:href="#DejaVuSans-114"/>
      <use x="477.25" xlink:href="#DejaVuSans-101"/>
      <use x="538.773438" xlink:href="#DejaVuSans-115"/>
      <use x="590.873047" xlink:href="#DejaVuSans-115"/>
      <use x="642.972656" xlink:href="#DejaVuSans-105"/>
      <use x="670.755859" xlink:href="#DejaVuSans-110"/>
      <use x="734.134766" xlink:href="#DejaVuSans-103"/>
     </g>
    </g>
   </g>
   <g id="matplotlib.axis_2">
    <g id="ytick_1">
     <g id="line2d_4">
      <path d="M 46.983563 99.294201  " style="fill:none;stroke:#333333;stroke-width:1.5;"/>
      <defs>
       <path d="M 0 0  L -2.75 0  " id="m3954281628" style="stroke:#000000;"/>
      </defs>
      <g>
       <use style="fill:#333333;stroke:#000000;" x="46.983563" xlink:href="#m3954281628" y="99.294201"/>
      </g>
     </g>
     <g id="text_5">
      <!-- 1e-4 -->
      <g style="fill:#4d4d4d;" transform="translate(22.245938 101.722451)scale(0.088 -0.088)">
       <defs>
        <path d="M 12.40625 8.296875  L 28.515625 8.296875  L 28.515625 63.921875  L 10.984375 60.40625  L 10.984375 69.390625  L 28.421875 72.90625  L 38.28125 72.90625  L 38.28125 8.296875  L 54.390625 8.296875  L 54.390625 0  L 12.40625 0  z " id="DejaVuSans-49"/>
        <path d="M 4.890625 31.390625  L 31.203125 31.390625  L 31.203125 23.390625  L 4.890625 23.390625  z " id="DejaVuSans-45"/>
        <path d="M 37.796875 64.3125  L 12.890625 25.390625  L 37.796875 25.390625  z M 35.203125 72.90625  L 47.609375 72.90625  L 47.609375 25.390625  L 58.015625 25.390625  L 58.015625 17.1875  L 47.609375 17.1875  L 47.609375 0  L 37.796875 0  L 37.796875 17.1875  L 4.890625 17.1875  L 4.890625 26.703125  z " id="DejaVuSans-52"/>
       </defs>
       <use xlink:href="#DejaVuSans-49"/>
       <use x="63.623047" xlink:href="#DejaVuSans-101"/>
       <use x="125.146484" xlink:href="#DejaVuSans-45"/>
       <use x="161.230469" xlink:href="#DejaVuSans-52"/>
      </g>
     </g>
    </g>
    <g id="ytick_2">
     <g id="line2d_5">
      <path d="M 46.983563 57.843861  " style="fill:none;stroke:#333333;stroke-width:1.5;"/>
      <g>
       <use style="fill:#333333;stroke:#000000;" x="46.983563" xlink:href="#m3954281628" y="57.843861"/>
      </g>
     </g>
     <g id="text_6">
      <!-- 1e-2 -->
      <g style="fill:#4d4d4d;" transform="translate(22.245938 60.272111)scale(0.088 -0.088)">
       <use xlink:href="#DejaVuSans-49"/>
       <use x="63.623047" xlink:href="#DejaVuSans-101"/>
       <use x="125.146484" xlink:href="#DejaVuSans-45"/>
       <use x="161.230469" xlink:href="#DejaVuSans-50"/>
      </g>
     </g>
    </g>
    <g id="ytick_3">
     <g id="line2d_6">
      <path d="M 46.983563 16.393521  " style="fill:none;stroke:#333333;stroke-width:1.5;"/>
      <g>
       <use style="fill:#333333;stroke:#000000;" x="46.983563" xlink:href="#m3954281628" y="16.393521"/>
      </g>
     </g>
     <g id="text_7">
      <!-- 1 -->
      <g style="fill:#4d4d4d;" transform="translate(36.434562 18.821771)scale(0.088 -0.088)">
       <use xlink:href="#DejaVuSans-49"/>
      </g>
     </g>
    </g>
    <g id="ytick_4"/>
    <g id="ytick_5"/>
    <g id="ytick_6"/>
    <g id="ytick_7"/>
    <g id="ytick_8"/>
    <g id="ytick_9"/>
    <g id="ytick_10"/>
    <g id="ytick_11"/>
    <g id="ytick_12"/>
    <g id="ytick_13"/>
    <g id="ytick_14"/>
    <g id="ytick_15"/>
    <g id="ytick_16"/>
    <g id="ytick_17"/>
    <g id="ytick_18"/>
    <g id="ytick_19"/>
    <g id="ytick_20"/>
    <g id="ytick_21"/>
    <g id="ytick_22"/>
    <g id="ytick_23"/>
    <g id="ytick_24"/>
    <g id="ytick_25"/>
    <g id="ytick_26"/>
    <g id="ytick_27"/>
    <g id="text_8">
     <!-- relative titer -->
     <g transform="translate(15.558281 101.369109)rotate(-90)scale(0.11 -0.11)">
      <defs>
       <path d="M 34.28125 27.484375  Q 23.390625 27.484375 19.1875 25  Q 14.984375 22.515625 14.984375 16.5  Q 14.984375 11.71875 18.140625 8.90625  Q 21.296875 6.109375 26.703125 6.109375  Q 34.1875 6.109375 38.703125 11.40625  Q 43.21875 16.703125 43.21875 25.484375  L 43.21875 27.484375  z M 52.203125 31.203125  L 52.203125 0  L 43.21875 0  L 43.21875 8.296875  Q 40.140625 3.328125 35.546875 0.953125  Q 30.953125 -1.421875 24.3125 -1.421875  Q 15.921875 -1.421875 10.953125 3.296875  Q 6 8.015625 6 15.921875  Q 6 25.140625 12.171875 29.828125  Q 18.359375 34.515625 30.609375 34.515625  L 43.21875 34.515625  L 43.21875 35.40625  Q 43.21875 41.609375 39.140625 45  Q 35.0625 48.390625 27.6875 48.390625  Q 23 48.390625 18.546875 47.265625  Q 14.109375 46.140625 10.015625 43.890625  L 10.015625 52.203125  Q 14.9375 54.109375 19.578125 55.046875  Q 24.21875 56 28.609375 56  Q 40.484375 56 46.34375 49.84375  Q 52.203125 43.703125 52.203125 31.203125  z " id="DejaVuSans-97"/>
       <path d="M 18.3125 70.21875  L 18.3125 54.6875  L 36.8125 54.6875  L 36.8125 47.703125  L 18.3125 47.703125  L 18.3125 18.015625  Q 18.3125 11.328125 20.140625 9.421875  Q 21.96875 7.515625 27.59375 7.515625  L 36.8125 7.515625  L 36.8125 0  L 27.59375 0  Q 17.1875 0 13.234375 3.875  Q 9.28125 7.765625 9.28125 18.015625  L 9.28125 47.703125  L 2.6875 47.703125  L 2.6875 54.6875  L 9.28125 54.6875  L 9.28125 70.21875  z " id="DejaVuSans-116"/>
       <path d="M 2.984375 54.6875  L 12.5 54.6875  L 29.59375 8.796875  L 46.6875 54.6875  L 56.203125 54.6875  L 35.6875 0  L 23.484375 0  z " id="DejaVuSans-118"/>
      </defs>
      <use xlink:href="#DejaVuSans-114"/>
      <use x="38.863281" xlink:href="#DejaVuSans-101"/>
      <use x="100.386719" xlink:href="#DejaVuSans-108"/>
      <use x="128.169922" xlink:href="#DejaVuSans-97"/>
      <use x="189.449219" xlink:href="#DejaVuSans-116"/>
      <use x="228.658203" xlink:href="#DejaVuSans-105"/>
      <use x="256.441406" xlink:href="#DejaVuSans-118"/>
      <use x="315.621094" xlink:href="#DejaVuSans-101"/>
      <use x="377.144531" xlink:href="#DejaVuSans-32"/>
      <use x="408.931641" xlink:href="#DejaVuSans-116"/>
      <use x="448.140625" xlink:href="#DejaVuSans-105"/>
      <use x="475.923828" xlink:href="#DejaVuSans-116"/>
      <use x="515.132812" xlink:href="#DejaVuSans-101"/>
      <use x="576.65625" xlink:href="#DejaVuSans-114"/>
     </g>
    </g>
   </g>
   <g id="PathCollection_1">
    <path clip-path="url(#pd9eaaa48f5)" d="M 93.719862 39.33822  C 94.424953 39.33822 95.101259 39.058085 95.599833 38.559511  C 96.098408 38.060936 96.378543 37.38463 96.378543 36.679539  C 96.378543 35.974449 96.098408 35.298142 95.599833 34.799568  C 95.101259 34.300994 94.424953 34.020859 93.719862 34.020859  C 93.014772 34.020859 92.338465 34.300994 91.839891 34.799568  C 91.341317 35.298142 91.061181 35.974449 91.061181 36.679539  C 91.061181 37.38463 91.341317 38.060936 91.839891 38.559511  C 92.338465 39.058085 93.014772 39.33822 93.719862 39.33822  z " style="fill-opacity:0.6;stroke:#000000;stroke-opacity:0.6;stroke-width:0.886227;"/>
    <path clip-path="url(#pd9eaaa48f5)" d="M 89.32773 40.144804  C 90.03282 40.144804 90.709127 39.864668 91.207701 39.366094  C 91.706275 38.86752 91.986411 38.191213 91.986411 37.486123  C 91.986411 36.781032 91.706275 36.104726 91.207701 35.606152  C 90.709127 35.107577 90.03282 34.827442 89.32773 34.827442  C 88.62264 34.827442 87.946333 35.107577 87.447759 35.606152  C 86.949185 36.104726 86.669049 36.781032 86.669049 37.486123  C 86.669049 38.191213 86.949185 38.86752 87.447759 39.366094  C 87.946333 39.864668 88.62264 40.144804 89.32773 40.144804  z " style="fill-opacity:0.6;stroke:#000000;stroke-opacity:0.6;stroke-width:0.886227;"/>
    <path clip-path="url(#pd9eaaa48f5)" d="M 119.935273 95.713984  C 120.640363 95.713984 121.31667 95.433848 121.815244 94.935274  C 122.313818 94.4367 122.593953 93.760393 122.593953 93.055303  C 122.593953 92.350213 122.313818 91.673906 121.815244 91.175332  C 121.31667 90.676758 120.640363 90.396622 119.935273 90.396622  C 119.230182 90.396622 118.553876 90.676758 118.055301 91.175332  C 117.556727 91.673906 117.276592 92.350213 117.276592 93.055303  C 117.276592 93.760393 117.556727 94.4367 118.055301 94.935274  C 118.553876 95.433848 119.230182 95.713984 119.935273 95.713984  z " style="fill-opacity:0.6;stroke:#000000;stroke-opacity:0.6;stroke-width:0.886227;"/>
    <path clip-path="url(#pd9eaaa48f5)" d="M 117.237325 122.678052  C 117.942415 122.678052 118.618722 122.397916 119.117296 121.899342  C 119.61587 121.400768 119.896006 120.724461 119.896006 120.019371  C 119.896006 119.31428 119.61587 118.637974 119.117296 118.1394  C 118.618722 117.640825 117.942415 117.36069 117.237325 117.36069  C 116.532234 117.36069 115.855928 117.640825 115.357354 118.1394  C 114.858779 118.637974 114.578644 119.31428 114.578644 120.019371  C 114.578644 120.724461 114.858779 121.400768 115.357354 121.899342  C 115.855928 122.397916 116.532234 122.678052 117.237325 122.678052  z " style="fill-opacity:0.6;stroke:#000000;stroke-opacity:0.6;stroke-width:0.886227;"/>
    <path clip-path="url(#pd9eaaa48f5)" d="M 64.74605 19.052202  C 65.451141 19.052202 66.127447 18.772067 66.626022 18.273492  C 67.124596 17.774918 67.404731 17.098612 67.404731 16.393521  C 67.404731 15.688431 67.124596 15.012124 66.626022 14.51355  C 66.127447 14.014976 65.451141 13.73484 64.74605 13.73484  C 64.04096 13.73484 63.364653 14.014976 62.866079 14.51355  C 62.367505 15.012124 62.08737 15.688431 62.08737 16.393521  C 62.08737 17.098612 62.367505 17.774918 62.866079 18.273492  C 63.364653 18.772067 64.04096 19.052202 64.74605 19.052202  z " style="fill-opacity:0.6;stroke:#000000;stroke-opacity:0.6;stroke-width:0.886227;"/>
    <path clip-path="url(#pd9eaaa48f5)" d="M 59.706899 19.052202  C 60.411989 19.052202 61.088296 18.772067 61.58687 18.273492  C 62.085444 17.774918 62.36558 17.098612 62.36558 16.393521  C 62.36558 15.688431 62.085444 15.012124 61.58687 14.51355  C 61.088296 14.014976 60.411989 13.73484 59.706899 13.73484  C 59.001808 13.73484 58.325502 14.014976 57.826928 14.51355  C 57.328353 15.012124 57.048218 15.688431 57.048218 16.393521  C 57.048218 17.098612 57.328353 17.774918 57.826928 18.273492  C 58.325502 18.772067 59.001808 19.052202 59.706899 19.052202  z " style="fill-opacity:0.6;stroke:#000000;stroke-opacity:0.6;stroke-width:0.886227;"/>
   </g>
   <g id="patch_3">
    <path d="M 46.983563 129.168  L 46.983563 7.2  " style="fill:none;stroke:#000000;stroke-linecap:square;stroke-linejoin:miter;"/>
   </g>
   <g id="patch_4">
    <path d="M 46.983563 129.168  L 130.683562 129.168  " style="fill:none;stroke:#000000;stroke-linecap:square;stroke-linejoin:miter;"/>
   </g>
  </g>
 </g>
 <defs>
  <clipPath id="pd9eaaa48f5">
   <rect height="121.968" width="83.7" x="46.983563" y="7.2"/>
  </clipPath>
 </defs>
</g>
      <text x="2" y="4" font-size="18" font-family="Arial" font-weight="normal" letter-spacing="0" text-anchor="start" fill="black">B</text>
    </g>
    <g transform="translate(335.821624, 10) scale(1) ">
      <g><metadata>
  <rdf:RDF xmlns:cc="http://creativecommons.org/ns#" xmlns:dc="http://purl.org/dc/elements/1.1/" xmlns:rdf="http://www.w3.org/1999/02/22-rdf-syntax-ns#">
   <cc:Work>
    <dc:type rdf:resource="http://purl.org/dc/dcmitype/StillImage"/>
    <dc:date>2020-12-12T06:18:49.671951</dc:date>
    <dc:format>image/svg+xml</dc:format>
    <dc:creator>
     <cc:Agent>
      <dc:title>Matplotlib v3.3.2, https://matplotlib.org/</dc:title>
     </cc:Agent>
    </dc:creator>
   </cc:Work>
  </rdf:RDF>
 </metadata>
 <defs>
  <style type="text/css">*{stroke-linecap:butt;stroke-linejoin:round;}</style>
 </defs>
 <g id="figure_1">
  <g id="patch_1">
   <path d="M 0 251.285813  L 302.108687 251.285813  L 302.108687 0  L 0 0  z " style="fill:#ffffff;stroke:#ffffff;stroke-linejoin:miter;"/>
  </g>
  <g id="axes_1">
   <g id="patch_2">
    <path d="M 43.808688 129.168  L 294.908688 129.168  L 294.908688 7.2  L 43.808688 7.2  z " style="fill:#ffffff;"/>
   </g>
   <g id="matplotlib.axis_1">
    <g id="xtick_1">
     <g id="line2d_1">
      <path d="M 60.184774 129.168  " style="fill:none;stroke:#333333;stroke-width:1.5;"/>
      <defs>
       <path d="M 0 0  L 0 2.75  " id="m14607c94c7" style="stroke:#000000;"/>
      </defs>
      <g>
       <use style="fill:#333333;stroke:#000000;" x="60.184774" xlink:href="#m14607c94c7" y="129.168"/>
      </g>
     </g>
     <g id="text_1">
      <!-- 1984 -->
      <g style="fill:#4d4d4d;" transform="translate(62.944149 159.568)rotate(-90)scale(0.1 -0.1)">
       <defs>
        <path d="M 12.40625 8.296875  L 28.515625 8.296875  L 28.515625 63.921875  L 10.984375 60.40625  L 10.984375 69.390625  L 28.421875 72.90625  L 38.28125 72.90625  L 38.28125 8.296875  L 54.390625 8.296875  L 54.390625 0  L 12.40625 0  z " id="DejaVuSans-49"/>
        <path d="M 10.984375 1.515625  L 10.984375 10.5  Q 14.703125 8.734375 18.5 7.8125  Q 22.3125 6.890625 25.984375 6.890625  Q 35.75 6.890625 40.890625 13.453125  Q 46.046875 20.015625 46.78125 33.40625  Q 43.953125 29.203125 39.59375 26.953125  Q 35.25 24.703125 29.984375 24.703125  Q 19.046875 24.703125 12.671875 31.3125  Q 6.296875 37.9375 6.296875 49.421875  Q 6.296875 60.640625 12.9375 67.421875  Q 19.578125 74.21875 30.609375 74.21875  Q 43.265625 74.21875 49.921875 64.515625  Q 56.59375 54.828125 56.59375 36.375  Q 56.59375 19.140625 48.40625 8.859375  Q 40.234375 -1.421875 26.421875 -1.421875  Q 22.703125 -1.421875 18.890625 -0.6875  Q 15.09375 0.046875 10.984375 1.515625  z M 30.609375 32.421875  Q 37.25 32.421875 41.125 36.953125  Q 45.015625 41.5 45.015625 49.421875  Q 45.015625 57.28125 41.125 61.84375  Q 37.25 66.40625 30.609375 66.40625  Q 23.96875 66.40625 20.09375 61.84375  Q 16.21875 57.28125 16.21875 49.421875  Q 16.21875 41.5 20.09375 36.953125  Q 23.96875 32.421875 30.609375 32.421875  z " id="DejaVuSans-57"/>
        <path d="M 31.78125 34.625  Q 24.75 34.625 20.71875 30.859375  Q 16.703125 27.09375 16.703125 20.515625  Q 16.703125 13.921875 20.71875 10.15625  Q 24.75 6.390625 31.78125 6.390625  Q 38.8125 6.390625 42.859375 10.171875  Q 46.921875 13.96875 46.921875 20.515625  Q 46.921875 27.09375 42.890625 30.859375  Q 38.875 34.625 31.78125 34.625  z M 21.921875 38.8125  Q 15.578125 40.375 12.03125 44.71875  Q 8.5 49.078125 8.5 55.328125  Q 8.5 64.0625 14.71875 69.140625  Q 20.953125 74.21875 31.78125 74.21875  Q 42.671875 74.21875 48.875 69.140625  Q 55.078125 64.0625 55.078125 55.328125  Q 55.078125 49.078125 51.53125 44.71875  Q 48 40.375 41.703125 38.8125  Q 48.828125 37.15625 52.796875 32.3125  Q 56.78125 27.484375 56.78125 20.515625  Q 56.78125 9.90625 50.3125 4.234375  Q 43.84375 -1.421875 31.78125 -1.421875  Q 19.734375 -1.421875 13.25 4.234375  Q 6.78125 9.90625 6.78125 20.515625  Q 6.78125 27.484375 10.78125 32.3125  Q 14.796875 37.15625 21.921875 38.8125  z M 18.3125 54.390625  Q 18.3125 48.734375 21.84375 45.5625  Q 25.390625 42.390625 31.78125 42.390625  Q 38.140625 42.390625 41.71875 45.5625  Q 45.3125 48.734375 45.3125 54.390625  Q 45.3125 60.0625 41.71875 63.234375  Q 38.140625 66.40625 31.78125 66.40625  Q 25.390625 66.40625 21.84375 63.234375  Q 18.3125 60.0625 18.3125 54.390625  z " id="DejaVuSans-56"/>
        <path d="M 37.796875 64.3125  L 12.890625 25.390625  L 37.796875 25.390625  z M 35.203125 72.90625  L 47.609375 72.90625  L 47.609375 25.390625  L 58.015625 25.390625  L 58.015625 17.1875  L 47.609375 17.1875  L 47.609375 0  L 37.796875 0  L 37.796875 17.1875  L 4.890625 17.1875  L 4.890625 26.703125  z " id="DejaVuSans-52"/>
       </defs>
       <use xlink:href="#DejaVuSans-49"/>
       <use x="63.623047" xlink:href="#DejaVuSans-57"/>
       <use x="127.246094" xlink:href="#DejaVuSans-56"/>
       <use x="190.869141" xlink:href="#DejaVuSans-52"/>
      </g>
     </g>
    </g>
    <g id="xtick_2">
     <g id="line2d_2">
      <path d="M 87.478253 129.168  " style="fill:none;stroke:#333333;stroke-width:1.5;"/>
      <g>
       <use style="fill:#333333;stroke:#000000;" x="87.478253" xlink:href="#m14607c94c7" y="129.168"/>
      </g>
     </g>
     <g id="text_2">
      <!-- 1992 -->
      <g style="fill:#4d4d4d;" transform="translate(90.237628 159.568)rotate(-90)scale(0.1 -0.1)">
       <defs>
        <path d="M 19.1875 8.296875  L 53.609375 8.296875  L 53.609375 0  L 7.328125 0  L 7.328125 8.296875  Q 12.9375 14.109375 22.625 23.890625  Q 32.328125 33.6875 34.8125 36.53125  Q 39.546875 41.84375 41.421875 45.53125  Q 43.3125 49.21875 43.3125 52.78125  Q 43.3125 58.59375 39.234375 62.25  Q 35.15625 65.921875 28.609375 65.921875  Q 23.96875 65.921875 18.8125 64.3125  Q 13.671875 62.703125 7.8125 59.421875  L 7.8125 69.390625  Q 13.765625 71.78125 18.9375 73  Q 24.125 74.21875 28.421875 74.21875  Q 39.75 74.21875 46.484375 68.546875  Q 53.21875 62.890625 53.21875 53.421875  Q 53.21875 48.921875 51.53125 44.890625  Q 49.859375 40.875 45.40625 35.40625  Q 44.1875 33.984375 37.640625 27.21875  Q 31.109375 20.453125 19.1875 8.296875  z " id="DejaVuSans-50"/>
       </defs>
       <use xlink:href="#DejaVuSans-49"/>
       <use x="63.623047" xlink:href="#DejaVuSans-57"/>
       <use x="127.246094" xlink:href="#DejaVuSans-57"/>
       <use x="190.869141" xlink:href="#DejaVuSans-50"/>
      </g>
     </g>
    </g>
    <g id="xtick_3">
     <g id="line2d_3">
      <path d="M 114.771731 129.168  " style="fill:none;stroke:#333333;stroke-width:1.5;"/>
      <g>
       <use style="fill:#333333;stroke:#000000;" x="114.771731" xlink:href="#m14607c94c7" y="129.168"/>
      </g>
     </g>
     <g id="text_3">
      <!-- 2001 -->
      <g style="fill:#4d4d4d;" transform="translate(117.531106 159.568)rotate(-90)scale(0.1 -0.1)">
       <defs>
        <path d="M 31.78125 66.40625  Q 24.171875 66.40625 20.328125 58.90625  Q 16.5 51.421875 16.5 36.375  Q 16.5 21.390625 20.328125 13.890625  Q 24.171875 6.390625 31.78125 6.390625  Q 39.453125 6.390625 43.28125 13.890625  Q 47.125 21.390625 47.125 36.375  Q 47.125 51.421875 43.28125 58.90625  Q 39.453125 66.40625 31.78125 66.40625  z M 31.78125 74.21875  Q 44.046875 74.21875 50.515625 64.515625  Q 56.984375 54.828125 56.984375 36.375  Q 56.984375 17.96875 50.515625 8.265625  Q 44.046875 -1.421875 31.78125 -1.421875  Q 19.53125 -1.421875 13.0625 8.265625  Q 6.59375 17.96875 6.59375 36.375  Q 6.59375 54.828125 13.0625 64.515625  Q 19.53125 74.21875 31.78125 74.21875  z " id="DejaVuSans-48"/>
       </defs>
       <use xlink:href="#DejaVuSans-50"/>
       <use x="63.623047" xlink:href="#DejaVuSans-48"/>
       <use x="127.246094" xlink:href="#DejaVuSans-48"/>
       <use x="190.869141" xlink:href="#DejaVuSans-49"/>
      </g>
     </g>
    </g>
    <g id="xtick_4">
     <g id="line2d_4">
      <path d="M 142.065209 129.168  " style="fill:none;stroke:#333333;stroke-width:1.5;"/>
      <g>
       <use style="fill:#333333;stroke:#000000;" x="142.065209" xlink:href="#m14607c94c7" y="129.168"/>
      </g>
     </g>
     <g id="text_4">
      <!-- 2008 -->
      <g style="fill:#4d4d4d;" transform="translate(144.824584 159.568)rotate(-90)scale(0.1 -0.1)">
       <use xlink:href="#DejaVuSans-50"/>
       <use x="63.623047" xlink:href="#DejaVuSans-48"/>
       <use x="127.246094" xlink:href="#DejaVuSans-48"/>
       <use x="190.869141" xlink:href="#DejaVuSans-56"/>
      </g>
     </g>
    </g>
    <g id="xtick_5">
     <g id="line2d_5">
      <path d="M 169.358688 129.168  " style="fill:none;stroke:#333333;stroke-width:1.5;"/>
      <g>
       <use style="fill:#333333;stroke:#000000;" x="169.358688" xlink:href="#m14607c94c7" y="129.168"/>
      </g>
     </g>
     <g id="text_5">
      <!-- 2016 -->
      <g style="fill:#4d4d4d;" transform="translate(172.118063 159.568)rotate(-90)scale(0.1 -0.1)">
       <defs>
        <path d="M 33.015625 40.375  Q 26.375 40.375 22.484375 35.828125  Q 18.609375 31.296875 18.609375 23.390625  Q 18.609375 15.53125 22.484375 10.953125  Q 26.375 6.390625 33.015625 6.390625  Q 39.65625 6.390625 43.53125 10.953125  Q 47.40625 15.53125 47.40625 23.390625  Q 47.40625 31.296875 43.53125 35.828125  Q 39.65625 40.375 33.015625 40.375  z M 52.59375 71.296875  L 52.59375 62.3125  Q 48.875 64.0625 45.09375 64.984375  Q 41.3125 65.921875 37.59375 65.921875  Q 27.828125 65.921875 22.671875 59.328125  Q 17.53125 52.734375 16.796875 39.40625  Q 19.671875 43.65625 24.015625 45.921875  Q 28.375 48.1875 33.59375 48.1875  Q 44.578125 48.1875 50.953125 41.515625  Q 57.328125 34.859375 57.328125 23.390625  Q 57.328125 12.15625 50.6875 5.359375  Q 44.046875 -1.421875 33.015625 -1.421875  Q 20.359375 -1.421875 13.671875 8.265625  Q 6.984375 17.96875 6.984375 36.375  Q 6.984375 53.65625 15.1875 63.9375  Q 23.390625 74.21875 37.203125 74.21875  Q 40.921875 74.21875 44.703125 73.484375  Q 48.484375 72.75 52.59375 71.296875  z " id="DejaVuSans-54"/>
       </defs>
       <use xlink:href="#DejaVuSans-50"/>
       <use x="63.623047" xlink:href="#DejaVuSans-48"/>
       <use x="127.246094" xlink:href="#DejaVuSans-49"/>
       <use x="190.869141" xlink:href="#DejaVuSans-54"/>
      </g>
     </g>
    </g>
    <g id="xtick_6">
     <g id="line2d_6">
      <path d="M 196.652166 129.168  " style="fill:none;stroke:#333333;stroke-width:1.5;"/>
      <g>
       <use style="fill:#333333;stroke:#000000;" x="196.652166" xlink:href="#m14607c94c7" y="129.168"/>
      </g>
     </g>
     <g id="text_6">
      <!-- RBD-chimera-1992 -->
      <g style="fill:#4d4d4d;" transform="translate(199.411541 229.039875)rotate(-90)scale(0.1 -0.1)">
       <defs>
        <path d="M 44.390625 34.1875  Q 47.5625 33.109375 50.5625 29.59375  Q 53.5625 26.078125 56.59375 19.921875  L 66.609375 0  L 56 0  L 46.6875 18.703125  Q 43.0625 26.03125 39.671875 28.421875  Q 36.28125 30.8125 30.421875 30.8125  L 19.671875 30.8125  L 19.671875 0  L 9.8125 0  L 9.8125 72.90625  L 32.078125 72.90625  Q 44.578125 72.90625 50.734375 67.671875  Q 56.890625 62.453125 56.890625 51.90625  Q 56.890625 45.015625 53.6875 40.46875  Q 50.484375 35.9375 44.390625 34.1875  z M 19.671875 64.796875  L 19.671875 38.921875  L 32.078125 38.921875  Q 39.203125 38.921875 42.84375 42.21875  Q 46.484375 45.515625 46.484375 51.90625  Q 46.484375 58.296875 42.84375 61.546875  Q 39.203125 64.796875 32.078125 64.796875  z " id="DejaVuSans-82"/>
        <path d="M 19.671875 34.8125  L 19.671875 8.109375  L 35.5 8.109375  Q 43.453125 8.109375 47.28125 11.40625  Q 51.125 14.703125 51.125 21.484375  Q 51.125 28.328125 47.28125 31.5625  Q 43.453125 34.8125 35.5 34.8125  z M 19.671875 64.796875  L 19.671875 42.828125  L 34.28125 42.828125  Q 41.5 42.828125 45.03125 45.53125  Q 48.578125 48.25 48.578125 53.8125  Q 48.578125 59.328125 45.03125 62.0625  Q 41.5 64.796875 34.28125 64.796875  z M 9.8125 72.90625  L 35.015625 72.90625  Q 46.296875 72.90625 52.390625 68.21875  Q 58.5 63.53125 58.5 54.890625  Q 58.5 48.1875 55.375 44.234375  Q 52.25 40.28125 46.1875 39.3125  Q 53.46875 37.75 57.5 32.78125  Q 61.53125 27.828125 61.53125 20.40625  Q 61.53125 10.640625 54.890625 5.3125  Q 48.25 0 35.984375 0  L 9.8125 0  z " id="DejaVuSans-66"/>
        <path d="M 19.671875 64.796875  L 19.671875 8.109375  L 31.59375 8.109375  Q 46.6875 8.109375 53.6875 14.9375  Q 60.6875 21.78125 60.6875 36.53125  Q 60.6875 51.171875 53.6875 57.984375  Q 46.6875 64.796875 31.59375 64.796875  z M 9.8125 72.90625  L 30.078125 72.90625  Q 51.265625 72.90625 61.171875 64.09375  Q 71.09375 55.28125 71.09375 36.53125  Q 71.09375 17.671875 61.125 8.828125  Q 51.171875 0 30.078125 0  L 9.8125 0  z " id="DejaVuSans-68"/>
        <path d="M 4.890625 31.390625  L 31.203125 31.390625  L 31.203125 23.390625  L 4.890625 23.390625  z " id="DejaVuSans-45"/>
        <path d="M 48.78125 52.59375  L 48.78125 44.1875  Q 44.96875 46.296875 41.140625 47.34375  Q 37.3125 48.390625 33.40625 48.390625  Q 24.65625 48.390625 19.8125 42.84375  Q 14.984375 37.3125 14.984375 27.296875  Q 14.984375 17.28125 19.8125 11.734375  Q 24.65625 6.203125 33.40625 6.203125  Q 37.3125 6.203125 41.140625 7.25  Q 44.96875 8.296875 48.78125 10.40625  L 48.78125 2.09375  Q 45.015625 0.34375 40.984375 -0.53125  Q 36.96875 -1.421875 32.421875 -1.421875  Q 20.0625 -1.421875 12.78125 6.34375  Q 5.515625 14.109375 5.515625 27.296875  Q 5.515625 40.671875 12.859375 48.328125  Q 20.21875 56 33.015625 56  Q 37.15625 56 41.109375 55.140625  Q 45.0625 54.296875 48.78125 52.59375  z " id="DejaVuSans-99"/>
        <path d="M 54.890625 33.015625  L 54.890625 0  L 45.90625 0  L 45.90625 32.71875  Q 45.90625 40.484375 42.875 44.328125  Q 39.84375 48.1875 33.796875 48.1875  Q 26.515625 48.1875 22.3125 43.546875  Q 18.109375 38.921875 18.109375 30.90625  L 18.109375 0  L 9.078125 0  L 9.078125 75.984375  L 18.109375 75.984375  L 18.109375 46.1875  Q 21.34375 51.125 25.703125 53.5625  Q 30.078125 56 35.796875 56  Q 45.21875 56 50.046875 50.171875  Q 54.890625 44.34375 54.890625 33.015625  z " id="DejaVuSans-104"/>
        <path d="M 9.421875 54.6875  L 18.40625 54.6875  L 18.40625 0  L 9.421875 0  z M 9.421875 75.984375  L 18.40625 75.984375  L 18.40625 64.59375  L 9.421875 64.59375  z " id="DejaVuSans-105"/>
        <path d="M 52 44.1875  Q 55.375 50.25 60.0625 53.125  Q 64.75 56 71.09375 56  Q 79.640625 56 84.28125 50.015625  Q 88.921875 44.046875 88.921875 33.015625  L 88.921875 0  L 79.890625 0  L 79.890625 32.71875  Q 79.890625 40.578125 77.09375 44.375  Q 74.3125 48.1875 68.609375 48.1875  Q 61.625 48.1875 57.5625 43.546875  Q 53.515625 38.921875 53.515625 30.90625  L 53.515625 0  L 44.484375 0  L 44.484375 32.71875  Q 44.484375 40.625 41.703125 44.40625  Q 38.921875 48.1875 33.109375 48.1875  Q 26.21875 48.1875 22.15625 43.53125  Q 18.109375 38.875 18.109375 30.90625  L 18.109375 0  L 9.078125 0  L 9.078125 54.6875  L 18.109375 54.6875  L 18.109375 46.1875  Q 21.1875 51.21875 25.484375 53.609375  Q 29.78125 56 35.6875 56  Q 41.65625 56 45.828125 52.96875  Q 50 49.953125 52 44.1875  z " id="DejaVuSans-109"/>
        <path d="M 56.203125 29.59375  L 56.203125 25.203125  L 14.890625 25.203125  Q 15.484375 15.921875 20.484375 11.0625  Q 25.484375 6.203125 34.421875 6.203125  Q 39.59375 6.203125 44.453125 7.46875  Q 49.3125 8.734375 54.109375 11.28125  L 54.109375 2.78125  Q 49.265625 0.734375 44.1875 -0.34375  Q 39.109375 -1.421875 33.890625 -1.421875  Q 20.796875 -1.421875 13.15625 6.1875  Q 5.515625 13.8125 5.515625 26.8125  Q 5.515625 40.234375 12.765625 48.109375  Q 20.015625 56 32.328125 56  Q 43.359375 56 49.78125 48.890625  Q 56.203125 41.796875 56.203125 29.59375  z M 47.21875 32.234375  Q 47.125 39.59375 43.09375 43.984375  Q 39.0625 48.390625 32.421875 48.390625  Q 24.90625 48.390625 20.390625 44.140625  Q 15.875 39.890625 15.1875 32.171875  z " id="DejaVuSans-101"/>
        <path d="M 41.109375 46.296875  Q 39.59375 47.171875 37.8125 47.578125  Q 36.03125 48 33.890625 48  Q 26.265625 48 22.1875 43.046875  Q 18.109375 38.09375 18.109375 28.8125  L 18.109375 0  L 9.078125 0  L 9.078125 54.6875  L 18.109375 54.6875  L 18.109375 46.1875  Q 20.953125 51.171875 25.484375 53.578125  Q 30.03125 56 36.53125 56  Q 37.453125 56 38.578125 55.875  Q 39.703125 55.765625 41.0625 55.515625  z " id="DejaVuSans-114"/>
        <path d="M 34.28125 27.484375  Q 23.390625 27.484375 19.1875 25  Q 14.984375 22.515625 14.984375 16.5  Q 14.984375 11.71875 18.140625 8.90625  Q 21.296875 6.109375 26.703125 6.109375  Q 34.1875 6.109375 38.703125 11.40625  Q 43.21875 16.703125 43.21875 25.484375  L 43.21875 27.484375  z M 52.203125 31.203125  L 52.203125 0  L 43.21875 0  L 43.21875 8.296875  Q 40.140625 3.328125 35.546875 0.953125  Q 30.953125 -1.421875 24.3125 -1.421875  Q 15.921875 -1.421875 10.953125 3.296875  Q 6 8.015625 6 15.921875  Q 6 25.140625 12.171875 29.828125  Q 18.359375 34.515625 30.609375 34.515625  L 43.21875 34.515625  L 43.21875 35.40625  Q 43.21875 41.609375 39.140625 45  Q 35.0625 48.390625 27.6875 48.390625  Q 23 48.390625 18.546875 47.265625  Q 14.109375 46.140625 10.015625 43.890625  L 10.015625 52.203125  Q 14.9375 54.109375 19.578125 55.046875  Q 24.21875 56 28.609375 56  Q 40.484375 56 46.34375 49.84375  Q 52.203125 43.703125 52.203125 31.203125  z " id="DejaVuSans-97"/>
       </defs>
       <use xlink:href="#DejaVuSans-82"/>
       <use x="69.482422" xlink:href="#DejaVuSans-66"/>
       <use x="138.085938" xlink:href="#DejaVuSans-68"/>
       <use x="215.087891" xlink:href="#DejaVuSans-45"/>
       <use x="251.171875" xlink:href="#DejaVuSans-99"/>
       <use x="306.152344" xlink:href="#DejaVuSans-104"/>
       <use x="369.53125" xlink:href="#DejaVuSans-105"/>
       <use x="397.314453" xlink:href="#DejaVuSans-109"/>
       <use x="494.726562" xlink:href="#DejaVuSans-101"/>
       <use x="556.25" xlink:href="#DejaVuSans-114"/>
       <use x="597.363281" xlink:href="#DejaVuSans-97"/>
       <use x="658.642578" xlink:href="#DejaVuSans-45"/>
       <use x="694.726562" xlink:href="#DejaVuSans-49"/>
       <use x="758.349609" xlink:href="#DejaVuSans-57"/>
       <use x="821.972656" xlink:href="#DejaVuSans-57"/>
       <use x="885.595703" xlink:href="#DejaVuSans-50"/>
      </g>
     </g>
    </g>
    <g id="xtick_7">
     <g id="line2d_7">
      <path d="M 223.945644 129.168  " style="fill:none;stroke:#333333;stroke-width:1.5;"/>
      <g>
       <use style="fill:#333333;stroke:#000000;" x="223.945644" xlink:href="#m14607c94c7" y="129.168"/>
      </g>
     </g>
     <g id="text_7">
      <!-- RBD-chimera-2001 -->
      <g style="fill:#4d4d4d;" transform="translate(226.705019 229.039875)rotate(-90)scale(0.1 -0.1)">
       <use xlink:href="#DejaVuSans-82"/>
       <use x="69.482422" xlink:href="#DejaVuSans-66"/>
       <use x="138.085938" xlink:href="#DejaVuSans-68"/>
       <use x="215.087891" xlink:href="#DejaVuSans-45"/>
       <use x="251.171875" xlink:href="#DejaVuSans-99"/>
       <use x="306.152344" xlink:href="#DejaVuSans-104"/>
       <use x="369.53125" xlink:href="#DejaVuSans-105"/>
       <use x="397.314453" xlink:href="#DejaVuSans-109"/>
       <use x="494.726562" xlink:href="#DejaVuSans-101"/>
       <use x="556.25" xlink:href="#DejaVuSans-114"/>
       <use x="597.363281" xlink:href="#DejaVuSans-97"/>
       <use x="658.642578" xlink:href="#DejaVuSans-45"/>
       <use x="694.726562" xlink:href="#DejaVuSans-50"/>
       <use x="758.349609" xlink:href="#DejaVuSans-48"/>
       <use x="821.972656" xlink:href="#DejaVuSans-48"/>
       <use x="885.595703" xlink:href="#DejaVuSans-49"/>
      </g>
     </g>
    </g>
    <g id="xtick_8">
     <g id="line2d_8">
      <path d="M 251.239122 129.168  " style="fill:none;stroke:#333333;stroke-width:1.5;"/>
      <g>
       <use style="fill:#333333;stroke:#000000;" x="251.239122" xlink:href="#m14607c94c7" y="129.168"/>
      </g>
     </g>
     <g id="text_8">
      <!-- RBD-chimera-2008 -->
      <g style="fill:#4d4d4d;" transform="translate(253.998497 229.039875)rotate(-90)scale(0.1 -0.1)">
       <use xlink:href="#DejaVuSans-82"/>
       <use x="69.482422" xlink:href="#DejaVuSans-66"/>
       <use x="138.085938" xlink:href="#DejaVuSans-68"/>
       <use x="215.087891" xlink:href="#DejaVuSans-45"/>
       <use x="251.171875" xlink:href="#DejaVuSans-99"/>
       <use x="306.152344" xlink:href="#DejaVuSans-104"/>
       <use x="369.53125" xlink:href="#DejaVuSans-105"/>
       <use x="397.314453" xlink:href="#DejaVuSans-109"/>
       <use x="494.726562" xlink:href="#DejaVuSans-101"/>
       <use x="556.25" xlink:href="#DejaVuSans-114"/>
       <use x="597.363281" xlink:href="#DejaVuSans-97"/>
       <use x="658.642578" xlink:href="#DejaVuSans-45"/>
       <use x="694.726562" xlink:href="#DejaVuSans-50"/>
       <use x="758.349609" xlink:href="#DejaVuSans-48"/>
       <use x="821.972656" xlink:href="#DejaVuSans-48"/>
       <use x="885.595703" xlink:href="#DejaVuSans-56"/>
      </g>
     </g>
    </g>
    <g id="xtick_9">
     <g id="line2d_9">
      <path d="M 278.532601 129.168  " style="fill:none;stroke:#333333;stroke-width:1.5;"/>
      <g>
       <use style="fill:#333333;stroke:#000000;" x="278.532601" xlink:href="#m14607c94c7" y="129.168"/>
      </g>
     </g>
     <g id="text_9">
      <!-- RBD-chimera-2016 -->
      <g style="fill:#4d4d4d;" transform="translate(281.291976 229.039875)rotate(-90)scale(0.1 -0.1)">
       <use xlink:href="#DejaVuSans-82"/>
       <use x="69.482422" xlink:href="#DejaVuSans-66"/>
       <use x="138.085938" xlink:href="#DejaVuSans-68"/>
       <use x="215.087891" xlink:href="#DejaVuSans-45"/>
       <use x="251.171875" xlink:href="#DejaVuSans-99"/>
       <use x="306.152344" xlink:href="#DejaVuSans-104"/>
       <use x="369.53125" xlink:href="#DejaVuSans-105"/>
       <use x="397.314453" xlink:href="#DejaVuSans-109"/>
       <use x="494.726562" xlink:href="#DejaVuSans-101"/>
       <use x="556.25" xlink:href="#DejaVuSans-114"/>
       <use x="597.363281" xlink:href="#DejaVuSans-97"/>
       <use x="658.642578" xlink:href="#DejaVuSans-45"/>
       <use x="694.726562" xlink:href="#DejaVuSans-50"/>
       <use x="758.349609" xlink:href="#DejaVuSans-48"/>
       <use x="821.972656" xlink:href="#DejaVuSans-49"/>
       <use x="885.595703" xlink:href="#DejaVuSans-54"/>
      </g>
     </g>
    </g>
    <g id="text_10">
     <!-- spike -->
     <g transform="translate(151.054234 241.798156)scale(0.11 -0.11)">
      <defs>
       <path d="M 44.28125 53.078125  L 44.28125 44.578125  Q 40.484375 46.53125 36.375 47.5  Q 32.28125 48.484375 27.875 48.484375  Q 21.1875 48.484375 17.84375 46.4375  Q 14.5 44.390625 14.5 40.28125  Q 14.5 37.15625 16.890625 35.375  Q 19.28125 33.59375 26.515625 31.984375  L 29.59375 31.296875  Q 39.15625 29.25 43.1875 25.515625  Q 47.21875 21.78125 47.21875 15.09375  Q 47.21875 7.46875 41.1875 3.015625  Q 35.15625 -1.421875 24.609375 -1.421875  Q 20.21875 -1.421875 15.453125 -0.5625  Q 10.6875 0.296875 5.421875 2  L 5.421875 11.28125  Q 10.40625 8.6875 15.234375 7.390625  Q 20.0625 6.109375 24.8125 6.109375  Q 31.15625 6.109375 34.5625 8.28125  Q 37.984375 10.453125 37.984375 14.40625  Q 37.984375 18.0625 35.515625 20.015625  Q 33.0625 21.96875 24.703125 23.78125  L 21.578125 24.515625  Q 13.234375 26.265625 9.515625 29.90625  Q 5.8125 33.546875 5.8125 39.890625  Q 5.8125 47.609375 11.28125 51.796875  Q 16.75 56 26.8125 56  Q 31.78125 56 36.171875 55.265625  Q 40.578125 54.546875 44.28125 53.078125  z " id="DejaVuSans-115"/>
       <path d="M 18.109375 8.203125  L 18.109375 -20.796875  L 9.078125 -20.796875  L 9.078125 54.6875  L 18.109375 54.6875  L 18.109375 46.390625  Q 20.953125 51.265625 25.265625 53.625  Q 29.59375 56 35.59375 56  Q 45.5625 56 51.78125 48.09375  Q 58.015625 40.1875 58.015625 27.296875  Q 58.015625 14.40625 51.78125 6.484375  Q 45.5625 -1.421875 35.59375 -1.421875  Q 29.59375 -1.421875 25.265625 0.953125  Q 20.953125 3.328125 18.109375 8.203125  z M 48.6875 27.296875  Q 48.6875 37.203125 44.609375 42.84375  Q 40.53125 48.484375 33.40625 48.484375  Q 26.265625 48.484375 22.1875 42.84375  Q 18.109375 37.203125 18.109375 27.296875  Q 18.109375 17.390625 22.1875 11.75  Q 26.265625 6.109375 33.40625 6.109375  Q 40.53125 6.109375 44.609375 11.75  Q 48.6875 17.390625 48.6875 27.296875  z " id="DejaVuSans-112"/>
       <path d="M 9.078125 75.984375  L 18.109375 75.984375  L 18.109375 31.109375  L 44.921875 54.6875  L 56.390625 54.6875  L 27.390625 29.109375  L 57.625 0  L 45.90625 0  L 18.109375 26.703125  L 18.109375 0  L 9.078125 0  z " id="DejaVuSans-107"/>
      </defs>
      <use xlink:href="#DejaVuSans-115"/>
      <use x="52.099609" xlink:href="#DejaVuSans-112"/>
      <use x="115.576172" xlink:href="#DejaVuSans-105"/>
      <use x="143.359375" xlink:href="#DejaVuSans-107"/>
      <use x="197.644531" xlink:href="#DejaVuSans-101"/>
     </g>
    </g>
   </g>
   <g id="matplotlib.axis_2">
    <g id="ytick_1">
     <g id="line2d_10">
      <path d="M 43.808688 117.181925  " style="fill:none;stroke:#333333;stroke-width:1.5;"/>
      <defs>
       <path d="M 0 0  L -2.75 0  " id="m45ed04d8f9" style="stroke:#000000;"/>
      </defs>
      <g>
       <use style="fill:#333333;stroke:#000000;" x="43.808688" xlink:href="#m45ed04d8f9" y="117.181925"/>
      </g>
     </g>
     <g id="text_11">
      <!-- 1e5 -->
      <g style="fill:#4d4d4d;" transform="translate(22.245938 119.610175)scale(0.088 -0.088)">
       <defs>
        <path d="M 10.796875 72.90625  L 49.515625 72.90625  L 49.515625 64.59375  L 19.828125 64.59375  L 19.828125 46.734375  Q 21.96875 47.46875 24.109375 47.828125  Q 26.265625 48.1875 28.421875 48.1875  Q 40.625 48.1875 47.75 41.5  Q 54.890625 34.8125 54.890625 23.390625  Q 54.890625 11.625 47.5625 5.09375  Q 40.234375 -1.421875 26.90625 -1.421875  Q 22.3125 -1.421875 17.546875 -0.640625  Q 12.796875 0.140625 7.71875 1.703125  L 7.71875 11.625  Q 12.109375 9.234375 16.796875 8.0625  Q 21.484375 6.890625 26.703125 6.890625  Q 35.15625 6.890625 40.078125 11.328125  Q 45.015625 15.765625 45.015625 23.390625  Q 45.015625 31 40.078125 35.4375  Q 35.15625 39.890625 26.703125 39.890625  Q 22.75 39.890625 18.8125 39.015625  Q 14.890625 38.140625 10.796875 36.28125  z " id="DejaVuSans-53"/>
       </defs>
       <use xlink:href="#DejaVuSans-49"/>
       <use x="63.623047" xlink:href="#DejaVuSans-101"/>
       <use x="125.146484" xlink:href="#DejaVuSans-53"/>
      </g>
     </g>
    </g>
    <g id="ytick_2">
     <g id="line2d_11">
      <path d="M 43.808688 80.142582  " style="fill:none;stroke:#333333;stroke-width:1.5;"/>
      <g>
       <use style="fill:#333333;stroke:#000000;" x="43.808688" xlink:href="#m45ed04d8f9" y="80.142582"/>
      </g>
     </g>
     <g id="text_12">
      <!-- 1e6 -->
      <g style="fill:#4d4d4d;" transform="translate(22.245938 82.570832)scale(0.088 -0.088)">
       <use xlink:href="#DejaVuSans-49"/>
       <use x="63.623047" xlink:href="#DejaVuSans-101"/>
       <use x="125.146484" xlink:href="#DejaVuSans-54"/>
      </g>
     </g>
    </g>
    <g id="ytick_3">
     <g id="line2d_12">
      <path d="M 43.808688 43.103239  " style="fill:none;stroke:#333333;stroke-width:1.5;"/>
      <g>
       <use style="fill:#333333;stroke:#000000;" x="43.808688" xlink:href="#m45ed04d8f9" y="43.103239"/>
      </g>
     </g>
     <g id="text_13">
      <!-- 1e7 -->
      <g style="fill:#4d4d4d;" transform="translate(22.245938 45.531489)scale(0.088 -0.088)">
       <defs>
        <path d="M 8.203125 72.90625  L 55.078125 72.90625  L 55.078125 68.703125  L 28.609375 0  L 18.3125 0  L 43.21875 64.59375  L 8.203125 64.59375  z " id="DejaVuSans-55"/>
       </defs>
       <use xlink:href="#DejaVuSans-49"/>
       <use x="63.623047" xlink:href="#DejaVuSans-101"/>
       <use x="125.146484" xlink:href="#DejaVuSans-55"/>
      </g>
     </g>
    </g>
    <g id="ytick_4"/>
    <g id="ytick_5"/>
    <g id="ytick_6"/>
    <g id="ytick_7"/>
    <g id="ytick_8"/>
    <g id="ytick_9"/>
    <g id="ytick_10"/>
    <g id="ytick_11"/>
    <g id="ytick_12"/>
    <g id="ytick_13"/>
    <g id="ytick_14"/>
    <g id="ytick_15"/>
    <g id="ytick_16"/>
    <g id="ytick_17"/>
    <g id="ytick_18"/>
    <g id="ytick_19"/>
    <g id="ytick_20"/>
    <g id="ytick_21"/>
    <g id="ytick_22"/>
    <g id="ytick_23"/>
    <g id="ytick_24"/>
    <g id="ytick_25"/>
    <g id="ytick_26"/>
    <g id="ytick_27"/>
    <g id="ytick_28"/>
    <g id="ytick_29"/>
    <g id="ytick_30"/>
    <g id="ytick_31"/>
    <g id="ytick_32"/>
    <g id="text_14">
     <!-- RLU / ml -->
     <g transform="translate(15.558281 90.262547)rotate(-90)scale(0.11 -0.11)">
      <defs>
       <path d="M 9.8125 72.90625  L 19.671875 72.90625  L 19.671875 8.296875  L 55.171875 8.296875  L 55.171875 0  L 9.8125 0  z " id="DejaVuSans-76"/>
       <path d="M 8.6875 72.90625  L 18.609375 72.90625  L 18.609375 28.609375  Q 18.609375 16.890625 22.84375 11.734375  Q 27.09375 6.59375 36.625 6.59375  Q 46.09375 6.59375 50.34375 11.734375  Q 54.59375 16.890625 54.59375 28.609375  L 54.59375 72.90625  L 64.5 72.90625  L 64.5 27.390625  Q 64.5 13.140625 57.4375 5.859375  Q 50.390625 -1.421875 36.625 -1.421875  Q 22.796875 -1.421875 15.734375 5.859375  Q 8.6875 13.140625 8.6875 27.390625  z " id="DejaVuSans-85"/>
       <path id="DejaVuSans-32"/>
       <path d="M 25.390625 72.90625  L 33.6875 72.90625  L 8.296875 -9.28125  L 0 -9.28125  z " id="DejaVuSans-47"/>
       <path d="M 9.421875 75.984375  L 18.40625 75.984375  L 18.40625 0  L 9.421875 0  z " id="DejaVuSans-108"/>
      </defs>
      <use xlink:href="#DejaVuSans-82"/>
      <use x="69.482422" xlink:href="#DejaVuSans-76"/>
      <use x="120.195312" xlink:href="#DejaVuSans-85"/>
      <use x="193.388672" xlink:href="#DejaVuSans-32"/>
      <use x="225.175781" xlink:href="#DejaVuSans-47"/>
      <use x="258.867188" xlink:href="#DejaVuSans-32"/>
      <use x="290.654297" xlink:href="#DejaVuSans-109"/>
      <use x="388.066406" xlink:href="#DejaVuSans-108"/>
     </g>
    </g>
   </g>
   <g id="PathCollection_1">
    <path clip-path="url(#p4a80f4d9e4)" d="M 60.184774 21.924985  C 60.889865 21.924985 61.566171 21.64485 62.064746 21.146276  C 62.56332 20.647702 62.843455 19.971395 62.843455 19.266305  C 62.843455 18.561214 62.56332 17.884908 62.064746 17.386333  C 61.566171 16.887759 60.889865 16.607624 60.184774 16.607624  C 59.479684 16.607624 58.803377 16.887759 58.304803 17.386333  C 57.806229 17.884908 57.526094 18.561214 57.526094 19.266305  C 57.526094 19.971395 57.806229 20.647702 58.304803 21.146276  C 58.803377 21.64485 59.479684 21.924985 60.184774 21.924985  z " style="fill-opacity:0.6;stroke:#000000;stroke-opacity:0.6;stroke-width:0.886227;"/>
    <path clip-path="url(#p4a80f4d9e4)" d="M 87.478253 24.828772  C 88.183343 24.828772 88.85965 24.548637 89.358224 24.050062  C 89.856798 23.551488 90.136933 22.875182 90.136933 22.170091  C 90.136933 21.465001 89.856798 20.788694 89.358224 20.29012  C 88.85965 19.791546 88.183343 19.51141 87.478253 19.51141  C 86.773162 19.51141 86.096856 19.791546 85.598282 20.29012  C 85.099707 20.788694 84.819572 21.465001 84.819572 22.170091  C 84.819572 22.875182 85.099707 23.551488 85.598282 24.050062  C 86.096856 24.548637 86.773162 24.828772 87.478253 24.828772  z " style="fill-opacity:0.6;stroke:#000000;stroke-opacity:0.6;stroke-width:0.886227;"/>
    <path clip-path="url(#p4a80f4d9e4)" d="M 114.771731 26.791897  C 115.476821 26.791897 116.153128 26.511762 116.651702 26.013188  C 117.150276 25.514613 117.430412 24.838307 117.430412 24.133216  C 117.430412 23.428126 117.150276 22.751819 116.651702 22.253245  C 116.153128 21.754671 115.476821 21.474536 114.771731 21.474536  C 114.066641 21.474536 113.390334 21.754671 112.89176 22.253245  C 112.393186 22.751819 112.11305 23.428126 112.11305 24.133216  C 112.11305 24.838307 112.393186 25.514613 112.89176 26.013188  C 113.390334 26.511762 114.066641 26.791897 114.771731 26.791897  z " style="fill-opacity:0.6;stroke:#000000;stroke-opacity:0.6;stroke-width:0.886227;"/>
    <path clip-path="url(#p4a80f4d9e4)" d="M 142.065209 39.015931  C 142.7703 39.015931 143.446606 38.735796 143.94518 38.237221  C 144.443755 37.738647 144.72389 37.062341 144.72389 36.35725  C 144.72389 35.65216 144.443755 34.975853 143.94518 34.477279  C 143.446606 33.978705 142.7703 33.698569 142.065209 33.698569  C 141.360119 33.698569 140.683812 33.978705 140.185238 34.477279  C 139.686664 34.975853 139.406528 35.65216 139.406528 36.35725  C 139.406528 37.062341 139.686664 37.738647 140.185238 38.237221  C 140.683812 38.735796 141.360119 39.015931 142.065209 39.015931  z " style="fill-opacity:0.6;stroke:#000000;stroke-opacity:0.6;stroke-width:0.886227;"/>
    <path clip-path="url(#p4a80f4d9e4)" d="M 169.358688 24.624334  C 170.063778 24.624334 170.740085 24.344199 171.238659 23.845625  C 171.737233 23.34705 172.017368 22.670744 172.017368 21.965653  C 172.017368 21.260563 171.737233 20.584256 171.238659 20.085682  C 170.740085 19.587108 170.063778 19.306973 169.358688 19.306973  C 168.653597 19.306973 167.97729 19.587108 167.478716 20.085682  C 166.980142 20.584256 166.700007 21.260563 166.700007 21.965653  C 166.700007 22.670744 166.980142 23.34705 167.478716 23.845625  C 167.97729 24.344199 168.653597 24.624334 169.358688 24.624334  z " style="fill-opacity:0.6;stroke:#000000;stroke-opacity:0.6;stroke-width:0.886227;"/>
    <path clip-path="url(#p4a80f4d9e4)" d="M 196.652166 48.194065  C 197.357256 48.194065 198.033563 47.91393 198.532137 47.415355  C 199.030711 46.916781 199.310847 46.240475 199.310847 45.535384  C 199.310847 44.830294 199.030711 44.153987 198.532137 43.655413  C 198.033563 43.156839 197.357256 42.876703 196.652166 42.876703  C 195.947075 42.876703 195.270769 43.156839 194.772195 43.655413  C 194.27362 44.153987 193.993485 44.830294 193.993485 45.535384  C 193.993485 46.240475 194.27362 46.916781 194.772195 47.415355  C 195.270769 47.91393 195.947075 48.194065 196.652166 48.194065  z " style="fill-opacity:0.6;stroke:#000000;stroke-opacity:0.6;stroke-width:0.886227;"/>
    <path clip-path="url(#p4a80f4d9e4)" d="M 223.945644 27.992653  C 224.650734 27.992653 225.327041 27.712517 225.825615 27.213943  C 226.324189 26.715369 226.604325 26.039062 226.604325 25.333972  C 226.604325 24.628881 226.324189 23.952575 225.825615 23.454001  C 225.327041 22.955426 224.650734 22.675291 223.945644 22.675291  C 223.240554 22.675291 222.564247 22.955426 222.065673 23.454001  C 221.567099 23.952575 221.286963 24.628881 221.286963 25.333972  C 221.286963 26.039062 221.567099 26.715369 222.065673 27.213943  C 222.564247 27.712517 223.240554 27.992653 223.945644 27.992653  z " style="fill-opacity:0.6;stroke:#000000;stroke-opacity:0.6;stroke-width:0.886227;"/>
    <path clip-path="url(#p4a80f4d9e4)" d="M 251.239122 29.156045  C 251.944213 29.156045 252.620519 28.87591 253.119093 28.377336  C 253.617668 27.878761 253.897803 27.202455 253.897803 26.497364  C 253.897803 25.792274 253.617668 25.115967 253.119093 24.617393  C 252.620519 24.118819 251.944213 23.838684 251.239122 23.838684  C 250.534032 23.838684 249.857725 24.118819 249.359151 24.617393  C 248.860577 25.115967 248.580442 25.792274 248.580442 26.497364  C 248.580442 27.202455 248.860577 27.878761 249.359151 28.377336  C 249.857725 28.87591 250.534032 29.156045 251.239122 29.156045  z " style="fill-opacity:0.6;stroke:#000000;stroke-opacity:0.6;stroke-width:0.886227;"/>
    <path clip-path="url(#p4a80f4d9e4)" d="M 278.532601 30.587825  C 279.237691 30.587825 279.913998 30.307689 280.412572 29.809115  C 280.911146 29.310541 281.191281 28.634234 281.191281 27.929144  C 281.191281 27.224054 280.911146 26.547747 280.412572 26.049173  C 279.913998 25.550599 279.237691 25.270463 278.532601 25.270463  C 277.82751 25.270463 277.151204 25.550599 276.652629 26.049173  C 276.154055 26.547747 275.87392 27.224054 275.87392 27.929144  C 275.87392 28.634234 276.154055 29.310541 276.652629 29.809115  C 277.151204 30.307689 277.82751 30.587825 278.532601 30.587825  z " style="fill-opacity:0.6;stroke:#000000;stroke-opacity:0.6;stroke-width:0.886227;"/>
   </g>
   <g id="patch_3">
    <path d="M 43.808688 129.168  L 43.808688 7.2  " style="fill:none;stroke:#000000;stroke-linecap:square;stroke-linejoin:miter;"/>
   </g>
   <g id="patch_4">
    <path d="M 43.808688 129.168  L 294.908688 129.168  " style="fill:none;stroke:#000000;stroke-linecap:square;stroke-linejoin:miter;"/>
   </g>
  </g>
 </g>
 <defs>
  <clipPath id="p4a80f4d9e4">
   <rect height="121.968" width="251.1" x="43.808688" y="7.2"/>
  </clipPath>
 </defs>
</g>
      <text x="2" y="4" font-size="18" font-family="Arial" font-weight="normal" letter-spacing="0" text-anchor="start" fill="black">C</text>
    </g>
  </g>
</svg>